<?xml version="1.0" encoding="UTF-8" standalone="no"?>
<!-- Created with Inkscape (http://www.inkscape.org/) -->

<svg
   xmlns:dc="http://purl.org/dc/elements/1.1/"
   xmlns:cc="http://creativecommons.org/ns#"
   xmlns:rdf="http://www.w3.org/1999/02/22-rdf-syntax-ns#"
   xmlns:svg="http://www.w3.org/2000/svg"
   xmlns="http://www.w3.org/2000/svg"
   xmlns:inkscape="http://www.inkscape.org/namespaces/inkscape"
   version="1.1"
   width="720"
   height="720"
   id="svg2"
   xml:space="preserve"><metadata
     id="metadata8"><rdf:RDF><cc:Work
         rdf:about=""><dc:format>image/svg+xml</dc:format><dc:type
           rdf:resource="http://purl.org/dc/dcmitype/StillImage" /><dc:title></dc:title></cc:Work></rdf:RDF></metadata><defs
     id="defs6"><clipPath
       id="clipPath22"><path
         d="m 58.608,160.812 513.36,0 0,361.62 -513.36,0 0,-361.62 z"
         inkscape:connector-curvature="0"
         id="path24" /></clipPath><clipPath
       id="clipPath32"><path
         d="m -129.91469,159.812 697.89538,0 0,3.08486 -697.89538,0 0,-3.08486 z"
         inkscape:connector-curvature="0"
         id="path34" /></clipPath><clipPath
       id="clipPath44"><path
         d="m 58.608,160.812 513.36,0 0,361.62 -513.36,0 0,-361.62 z"
         inkscape:connector-curvature="0"
         id="path46" /></clipPath><clipPath
       id="clipPath54"><path
         d="m -129.91469,159.812 697.89538,0 0,139.77722 -697.89538,0 0,-139.77722 z"
         inkscape:connector-curvature="0"
         id="path56" /></clipPath><clipPath
       id="clipPath66"><path
         d="m 58.608,160.812 513.36,0 0,361.62 -513.36,0 0,-361.62 z"
         inkscape:connector-curvature="0"
         id="path68" /></clipPath><clipPath
       id="clipPath76"><path
         d="m -129.91469,159.812 697.89538,0 0,299.25164 -697.89538,0 0,-299.25164 z"
         inkscape:connector-curvature="0"
         id="path78" /></clipPath><clipPath
       id="clipPath88"><path
         d="m 58.608,160.812 513.36,0 0,361.62 -513.36,0 0,-361.62 z"
         inkscape:connector-curvature="0"
         id="path90" /></clipPath><clipPath
       id="clipPath98"><path
         d="m -129.91469,159.812 697.89538,0 0,309.73862 -697.89538,0 0,-309.73862 z"
         inkscape:connector-curvature="0"
         id="path100" /></clipPath><clipPath
       id="clipPath110"><path
         d="m 58.608,160.812 513.36,0 0,361.62 -513.36,0 0,-361.62 z"
         inkscape:connector-curvature="0"
         id="path112" /></clipPath><clipPath
       id="clipPath120"><path
         d="m -129.91469,159.812 697.89538,0 0,363.62 -697.89538,0 0,-363.62 z"
         inkscape:connector-curvature="0"
         id="path122" /></clipPath><clipPath
       id="clipPath132"><path
         d="m 58.608,160.812 513.36,0 0,361.62 -513.36,0 0,-361.62 z"
         inkscape:connector-curvature="0"
         id="path134" /></clipPath><clipPath
       id="clipPath142"><path
         d="m -129.91469,159.812 697.89538,0 0,363.98162 -697.89538,0 0,-363.98162 z"
         inkscape:connector-curvature="0"
         id="path144" /></clipPath><clipPath
       id="clipPath154"><path
         d="m 58.608,160.812 513.36,0 0,361.62 -513.36,0 0,-361.62 z"
         inkscape:connector-curvature="0"
         id="path156" /></clipPath><clipPath
       id="clipPath164"><path
         d="m -129.91469,159.812 697.89538,0 0,363.98162 -697.89538,0 0,-363.98162 z"
         inkscape:connector-curvature="0"
         id="path166" /></clipPath><clipPath
       id="clipPath176"><path
         d="m 58.608,160.812 513.36,0 0,361.62 -513.36,0 0,-361.62 z"
         inkscape:connector-curvature="0"
         id="path178" /></clipPath><clipPath
       id="clipPath186"><path
         d="m -129.91469,160.53524 697.89538,0 0,363.25838 -697.89538,0 0,-363.25838 z"
         inkscape:connector-curvature="0"
         id="path188" /></clipPath><clipPath
       id="clipPath198"><path
         d="m 58.608,160.812 513.36,0 0,361.62 -513.36,0 0,-361.62 z"
         inkscape:connector-curvature="0"
         id="path200" /></clipPath><clipPath
       id="clipPath208"><path
         d="m -129.91469,160.53524 697.89538,0 0,363.25838 -697.89538,0 0,-363.25838 z"
         inkscape:connector-curvature="0"
         id="path210" /></clipPath><clipPath
       id="clipPath220"><path
         d="m 58.608,160.812 513.36,0 0,361.62 -513.36,0 0,-361.62 z"
         inkscape:connector-curvature="0"
         id="path222" /></clipPath><clipPath
       id="clipPath230"><path
         d="m -129.91469,175.36166 697.89538,0 0,348.43196 -697.89538,0 0,-348.43196 z"
         inkscape:connector-curvature="0"
         id="path232" /></clipPath><clipPath
       id="clipPath242"><path
         d="m 58.608,160.812 513.36,0 0,361.62 -513.36,0 0,-361.62 z"
         inkscape:connector-curvature="0"
         id="path244" /></clipPath><clipPath
       id="clipPath252"><path
         d="m -129.91469,175.36166 697.89538,0 0,348.43196 -697.89538,0 0,-348.43196 z"
         inkscape:connector-curvature="0"
         id="path254" /></clipPath><clipPath
       id="clipPath264"><path
         d="m 58.608,160.812 513.36,0 0,361.62 -513.36,0 0,-361.62 z"
         inkscape:connector-curvature="0"
         id="path266" /></clipPath><clipPath
       id="clipPath274"><path
         d="m -129.91469,175.36166 697.89538,0 0,348.43196 -697.89538,0 0,-348.43196 z"
         inkscape:connector-curvature="0"
         id="path276" /></clipPath><clipPath
       id="clipPath286"><path
         d="m 58.608,160.812 513.36,0 0,361.62 -513.36,0 0,-361.62 z"
         inkscape:connector-curvature="0"
         id="path288" /></clipPath><clipPath
       id="clipPath296"><path
         d="m -129.91469,175.36166 697.89538,0 0,348.43196 -697.89538,0 0,-348.43196 z"
         inkscape:connector-curvature="0"
         id="path298" /></clipPath><clipPath
       id="clipPath308"><path
         d="m 58.608,160.812 513.36,0 0,361.62 -513.36,0 0,-361.62 z"
         inkscape:connector-curvature="0"
         id="path310" /></clipPath><clipPath
       id="clipPath318"><path
         d="m -129.91469,175.36166 697.89538,0 0,348.43196 -697.89538,0 0,-348.43196 z"
         inkscape:connector-curvature="0"
         id="path320" /></clipPath><clipPath
       id="clipPath330"><path
         d="m 58.608,160.812 513.36,0 0,361.62 -513.36,0 0,-361.62 z"
         inkscape:connector-curvature="0"
         id="path332" /></clipPath><clipPath
       id="clipPath340"><path
         d="m -129.91469,188.7416 697.89538,0 0,335.05202 -697.89538,0 0,-335.05202 z"
         inkscape:connector-curvature="0"
         id="path342" /></clipPath><clipPath
       id="clipPath352"><path
         d="m 58.608,160.812 513.36,0 0,361.62 -513.36,0 0,-361.62 z"
         inkscape:connector-curvature="0"
         id="path354" /></clipPath><clipPath
       id="clipPath362"><path
         d="m -129.91469,232.49762 697.89538,0 0,291.296 -697.89538,0 0,-291.296 z"
         inkscape:connector-curvature="0"
         id="path364" /></clipPath><clipPath
       id="clipPath374"><path
         d="m 58.608,160.812 513.36,0 0,361.62 -513.36,0 0,-361.62 z"
         inkscape:connector-curvature="0"
         id="path376" /></clipPath><clipPath
       id="clipPath384"><path
         d="m -129.91469,287.46386 697.89538,0 0,236.32976 -697.89538,0 0,-236.32976 z"
         inkscape:connector-curvature="0"
         id="path386" /></clipPath><clipPath
       id="clipPath396"><path
         d="m 58.608,160.812 513.36,0 0,361.62 -513.36,0 0,-361.62 z"
         inkscape:connector-curvature="0"
         id="path398" /></clipPath><clipPath
       id="clipPath406"><path
         d="m -129.91469,303.73676 697.89538,0 0,220.05686 -697.89538,0 0,-220.05686 z"
         inkscape:connector-curvature="0"
         id="path408" /></clipPath><clipPath
       id="clipPath418"><path
         d="m 58.608,160.812 513.36,0 0,361.62 -513.36,0 0,-361.62 z"
         inkscape:connector-curvature="0"
         id="path420" /></clipPath><clipPath
       id="clipPath428"><path
         d="m -129.91469,445.4918 697.89538,0 0,78.30182 -697.89538,0 0,-78.30182 z"
         inkscape:connector-curvature="0"
         id="path430" /></clipPath><clipPath
       id="clipPath440"><path
         d="m 58.608,160.812 513.36,0 0,361.62 -513.36,0 0,-361.62 z"
         inkscape:connector-curvature="0"
         id="path442" /></clipPath><clipPath
       id="clipPath450"><path
         d="m -129.91469,445.4918 697.89538,0 0,78.30182 -697.89538,0 0,-78.30182 z"
         inkscape:connector-curvature="0"
         id="path452" /></clipPath><clipPath
       id="clipPath462"><path
         d="m 58.608,160.812 513.36,0 0,361.62 -513.36,0 0,-361.62 z"
         inkscape:connector-curvature="0"
         id="path464" /></clipPath><clipPath
       id="clipPath472"><path
         d="m -129.91469,502.98938 697.89538,0 0,22.97396 -697.89538,0 0,-22.97396 z"
         inkscape:connector-curvature="0"
         id="path474" /></clipPath></defs><g
     transform="matrix(1.25,0,0,-1.25,0,720)"
     id="g10"><path
       d="M 0,0 576,0 576,576 0,576 0,0 z"
       inkscape:connector-curvature="0"
       id="path12"
       style="fill:#ffffff;fill-opacity:1;fill-rule:nonzero;stroke:none" /><path
       d="m 58.608,160.812 513.36,0 0,361.62 -513.36,0 0,-361.62 z"
       inkscape:connector-curvature="0"
       id="path14"
       style="fill:#ffffff;fill-opacity:1;fill-rule:nonzero;stroke:none" /><g
       id="g16" /><g
       id="g18"><g
         clip-path="url(#clipPath22)"
         id="g20"><g
           id="g26"><g
             id="g28"><g
               clip-path="url(#clipPath32)"
               id="g30"><path
                 d="m -128.91469,161.89686 0,-1.08486 6.98222,0 32.583734,0 6.982228,0 4.654819,0 9.974611,0 4.987306,0 10.639585,0 9.974612,0 9.974611,0 10.307099,0 9.974611,0 11.3045597,0 9.6421244,0 13.6319689,0 5.65228,0 10.307098,0 9.974612,0 11.304559,0 8.97715,0 10.639586,0 10.307098,0 10.307098,0 9.30964,0 10.97207,0 9.64213,0 10.97207,0 9.30963,0 9.64213,0 10.3071,0 10.3071,0 9.97461,0 11.30456,0 8.97715,0 10.3071,0 10.63958,0 10.3071,0 10.63959,0 9.30963,0 9.64213,0 9.64212,0 10.97207,0 11.63705,0 7.97969,0 11.30456,0 9.30964,0 9.97461,0 10.3071,0 12.30202,0 8.97715,0 8.97715,0 9.64212,0 9.97461,0 11.30456,0 10.97208,0 11.96953,0 9.30964,0 18.28678,0 9.30964,0 11.63705,0 9.30964,0 9.30963,0 11.63705,0 9.30964,0 9.30963,0 20.94669,0 11.63704,0 0,0 0,0 -11.63704,0 -20.94669,0 -9.30963,0 -9.30964,0 -11.63705,0 -9.30963,0 -9.30964,0 -11.63705,0 -9.30964,0 -18.28678,0 -9.30964,0 -11.96953,0 -10.97208,0 -11.30456,0 -9.97461,0 -9.64212,0 -8.97715,0 -8.97715,0 -12.30202,0 -10.3071,0 -9.97461,0 -9.30964,0 -11.30456,0 -7.97969,0 -11.63705,0 -10.97207,0 -9.64212,0 -9.64213,0 -9.30963,0 -10.63959,0 -10.3071,0 -10.63958,0 -10.3071,0 -8.97715,0 -11.30456,0 -9.97461,0 -10.3071,0 -10.3071,0 -9.64213,0 -9.30963,0 -10.97207,0 -9.64213,0 -10.97207,0 -9.30964,0 -10.307098,0 -10.307098,0 -10.639586,0 -8.97715,0 -11.304559,0 -9.974612,0 -10.307098,0 -5.65228,0 -13.6319689,0 -9.6421244,0 -11.3045597,0 -9.974611,0 -10.307099,0 -9.974611,0 -9.974612,0 -10.639585,0 -4.987306,0.36162 -9.974611,0 -4.654819,0 -6.982228,0 -32.583734,0.72324 -6.98222,0 z"
                 inkscape:connector-curvature="0"
                 id="path36"
                 style="fill:#000080;fill-opacity:1;fill-rule:nonzero;stroke:none" /></g></g></g></g></g><g
       id="g38" /><g
       id="g40"><g
         clip-path="url(#clipPath44)"
         id="g42"><g
           id="g48"><g
             id="g50"><g
               clip-path="url(#clipPath54)"
               id="g52"><path
                 d="m -128.91469,262.0656 0,-100.16874 6.98222,0 32.583734,-0.72324 6.982228,0 4.654819,0 9.974611,0 4.987306,-0.36162 10.639585,0 9.974612,0 9.974611,0 10.307099,0 9.974611,0 11.3045597,0 9.6421244,0 13.6319689,0 5.65228,0 10.307098,0 9.974612,0 11.304559,0 8.97715,0 10.639586,0 10.307098,0 10.307098,0 9.30964,0 10.97207,0 9.64213,0 10.97207,0 9.30963,0 9.64213,0 10.3071,0 10.3071,0 9.97461,0 11.30456,0 8.97715,0 10.3071,0 10.63958,0 10.3071,0 10.63959,0 9.30963,0 9.64213,0 9.64212,0 10.97207,0 11.63705,0 7.97969,0 11.30456,0 9.30964,0 9.97461,0 10.3071,0 12.30202,0 8.97715,0 8.97715,0 9.64212,0 9.97461,0 11.30456,0 10.97208,0 11.96953,0 9.30964,0 18.28678,0 9.30964,0 11.63705,0 9.30964,0 9.30963,0 11.63705,0 9.30964,0 9.30963,0 20.94669,0 11.63704,0 0,0 0,0 -11.63704,0 -20.94669,0 -9.30963,0 -9.30964,0 -11.63705,0 -9.30963,0 -9.30964,0 -11.63705,0 -9.30964,0 -18.28678,0 -9.30964,0 -11.96953,0 -10.97208,0 -11.30456,0 -9.97461,0 -9.64212,0 -8.97715,0 -8.97715,0 -12.30202,0 -10.3071,0 -9.97461,0 -9.30964,0 -11.30456,0 -7.97969,0 -11.63705,0 -10.97207,0 -9.64212,0 -9.64213,0 -9.30963,0 -10.63959,0 -10.3071,0.36162 -10.63958,0 -10.3071,0 -8.97715,0.36162 -11.30456,0 -9.97461,0 -10.3071,0.36162 -10.3071,0 -9.64213,0 -9.30963,0.36162 -10.97207,0.72324 -9.64213,0 -10.97207,0.72324 -9.30964,0.36162 -10.307098,0.72324 -10.307098,-0.36162 -10.639586,1.08486 -8.97715,0.36162 -11.304559,1.8081 -9.974612,0.36162 -10.307098,2.53134 -5.65228,1.08486 -13.6319689,3.25458 -9.6421244,2.89296 -11.3045597,5.78592 -9.974611,5.78592 -10.307099,6.50916 -9.974611,8.31726 -9.974612,11.93346 -10.639585,21.6972 -4.987306,12.29508 -9.974611,34.3539 -4.654819,11.21022 -6.982228,2.89296 -32.583734,-24.59016 -6.98222,-11.93346 z"
                 inkscape:connector-curvature="0"
                 id="path58"
                 style="fill:#0024ca;fill-opacity:1;fill-rule:nonzero;stroke:none" /></g></g></g></g></g><g
       id="g60" /><g
       id="g62"><g
         clip-path="url(#clipPath66)"
         id="g64"><g
           id="g70"><g
             id="g72"><g
               clip-path="url(#clipPath76)"
               id="g74"><path
                 d="m -128.91469,458.06364 0,-195.99804 6.98222,11.93346 32.583734,24.59016 6.982228,-2.89296 4.654819,-11.21022 9.974611,-34.3539 4.987306,-12.29508 10.639585,-21.6972 9.974612,-11.93346 9.974611,-8.31726 10.307099,-6.50916 9.974611,-5.78592 11.3045597,-5.78592 9.6421244,-2.89296 13.6319689,-3.25458 5.65228,-1.08486 10.307098,-2.53134 9.974612,-0.36162 11.304559,-1.8081 8.97715,-0.36162 10.639586,-1.08486 10.307098,0.36162 10.307098,-0.72324 9.30964,-0.36162 10.97207,-0.72324 9.64213,0 10.97207,-0.72324 9.30963,-0.36162 9.64213,0 10.3071,0 10.3071,-0.36162 9.97461,0 11.30456,0 8.97715,-0.36162 10.3071,0 10.63958,0 10.3071,-0.36162 10.63959,0 9.30963,0 9.64213,0 9.64212,0 10.97207,0 11.63705,0 7.97969,0 11.30456,0 9.30964,0 9.97461,0 10.3071,0 12.30202,0 8.97715,0 8.97715,0 9.64212,0 9.97461,0 11.30456,0 10.97208,0 11.96953,0 9.30964,0 18.28678,0 9.30964,0 11.63705,0 9.30964,0 9.30963,0 11.63705,0 9.30964,0 9.30963,0 20.94669,0 11.63704,0 0,0 0,0 -11.63704,0 -20.94669,0 -9.30963,0 -9.30964,0 -11.63705,0 -9.30963,0 -9.30964,0 -11.63705,0 -9.30964,0 -18.28678,0 -9.30964,0 -11.96953,0 -10.97208,0 -11.30456,0 -9.97461,0 -9.64212,0 -8.97715,0 -8.97715,0 -12.30202,0 -10.3071,0 -9.97461,0 -9.30964,0 -11.30456,0.36162 -7.97969,0 -11.63705,0 -10.97207,0 -9.64212,0 -9.64213,0.36162 -9.30963,0 -10.63959,0 -10.3071,0.72324 -10.63958,0 -10.3071,0.36162 -8.97715,0.36162 -11.30456,0.36162 -9.97461,0 -10.3071,0.72324 -10.3071,0.36162 -9.64213,0 -9.30963,0.72324 -10.97207,1.44648 -9.64213,0.36162 -10.97207,1.44648 -9.30964,0.72324 -10.307098,0.72324 -10.307098,1.08486 -10.639586,1.8081 -8.97715,1.08486 -11.304559,2.89296 -9.974612,2.16972 -10.307098,4.33944 -5.65228,5.78592 -13.6319689,8.67888 -9.6421244,8.67888 -11.3045597,15.54966 -9.974611,21.6972 -10.307099,11.57184 -9.974611,12.29508 -9.974612,22.05882 -10.639585,33.26904 -4.987306,17.71938 -9.974611,45.2025 -4.654819,16.2729 -6.982228,10.8486 -32.583734,33.26904 -6.98222,11.93346 z"
                 inkscape:connector-curvature="0"
                 id="path80"
                 style="fill:#0051ff;fill-opacity:1;fill-rule:nonzero;stroke:none" /></g></g></g></g></g><g
       id="g82" /><g
       id="g84"><g
         clip-path="url(#clipPath88)"
         id="g86"><g
           id="g92"><g
             id="g94"><g
               clip-path="url(#clipPath98)"
               id="g96"><path
                 d="m -128.91469,468.55062 0,-10.48698 6.98222,-11.93346 32.583734,-33.26904 6.982228,-10.8486 4.654819,-16.2729 9.974611,-45.2025 4.987306,-17.71938 10.639585,-33.26904 9.974612,-22.05882 9.974611,-12.29508 10.307099,-11.57184 9.974611,-21.6972 11.3045597,-15.54966 9.6421244,-8.67888 13.6319689,-8.67888 5.65228,-5.78592 10.307098,-4.33944 9.974612,-2.16972 11.304559,-2.89296 8.97715,-1.08486 10.639586,-1.8081 10.307098,-1.08486 10.307098,-0.72324 9.30964,-0.72324 10.97207,-1.44648 9.64213,-0.36162 10.97207,-1.44648 9.30963,-0.72324 9.64213,0 10.3071,-0.36162 10.3071,-0.72324 9.97461,0 11.30456,-0.36162 8.97715,-0.36162 10.3071,-0.36162 10.63958,0 10.3071,-0.72324 10.63959,0 9.30963,0 9.64213,-0.36162 9.64212,0 10.97207,0 11.63705,0 7.97969,0 11.30456,-0.36162 9.30964,0 9.97461,0 10.3071,0 12.30202,0 8.97715,0 8.97715,0 9.64212,0 9.97461,0 11.30456,0 10.97208,0 11.96953,0 9.30964,0 18.28678,0 9.30964,0 11.63705,0 9.30964,0 9.30963,0 11.63705,0 9.30964,0 9.30963,0 20.94669,0 11.63704,0 0,0 0,0 -11.63704,0 -20.94669,0 -9.30963,0 -9.30964,0 -11.63705,0 -9.30963,0 -9.30964,0 -11.63705,0 -9.30964,0 -18.28678,0 -9.30964,0 -11.96953,0 -10.97208,0 -11.30456,0 -9.97461,0 -9.64212,0 -8.97715,0 -8.97715,0 -12.30202,0 -10.3071,0 -9.97461,0 -9.30964,0 -11.30456,0.36162 -7.97969,0 -11.63705,0 -10.97207,0 -9.64212,0 -9.64213,0.36162 -9.30963,0 -10.63959,0 -10.3071,0.72324 -10.63958,0 -10.3071,0.36162 -8.97715,0.36162 -11.30456,0.36162 -9.97461,0 -10.3071,0.72324 -10.3071,0.36162 -9.64213,0 -9.30963,0.72324 -10.97207,1.44648 -9.64213,0.36162 -10.97207,1.44648 -9.30964,0.72324 -10.307098,0.72324 -10.307098,1.08486 -10.639586,1.8081 -8.97715,1.08486 -11.304559,2.89296 -9.974612,2.16972 -10.307098,4.33944 -5.65228,5.78592 -13.6319689,8.67888 -9.6421244,8.67888 -11.3045597,15.54966 -9.974611,21.6972 -10.307099,11.57184 -9.974611,12.29508 -9.974612,22.05882 -10.639585,33.26904 -4.987306,18.081 -9.974611,45.56412 -4.654819,16.63452 -6.982228,10.8486 -32.583734,34.71552 -6.98222,19.8891 z"
                 inkscape:connector-curvature="0"
                 id="path102"
                 style="fill:#0081ff;fill-opacity:1;fill-rule:nonzero;stroke:none" /></g></g></g></g></g><g
       id="g104" /><g
       id="g106"><g
         clip-path="url(#clipPath110)"
         id="g108"><g
           id="g114"><g
             id="g116"><g
               clip-path="url(#clipPath120)"
               id="g118"><path
                 d="m -128.91469,522.07038 0,-53.51976 6.98222,-19.8891 32.583734,-34.71552 6.982228,-10.8486 4.654819,-16.63452 9.974611,-45.56412 4.987306,-18.081 10.639585,-33.26904 9.974612,-22.05882 9.974611,-12.29508 10.307099,-11.57184 9.974611,-21.6972 11.3045597,-15.54966 9.6421244,-8.67888 13.6319689,-8.67888 5.65228,-5.78592 10.307098,-4.33944 9.974612,-2.16972 11.304559,-2.89296 8.97715,-1.08486 10.639586,-1.8081 10.307098,-1.08486 10.307098,-0.72324 9.30964,-0.72324 10.97207,-1.44648 9.64213,-0.36162 10.97207,-1.44648 9.30963,-0.72324 9.64213,0 10.3071,-0.36162 10.3071,-0.72324 9.97461,0 11.30456,-0.36162 8.97715,-0.36162 10.3071,-0.36162 10.63958,0 10.3071,-0.72324 10.63959,0 9.30963,0 9.64213,-0.36162 9.64212,0 10.97207,0 11.63705,0 7.97969,0 11.30456,-0.36162 9.30964,0 9.97461,0 10.3071,0 12.30202,0 8.97715,0 8.97715,0 9.64212,0 9.97461,0 11.30456,0 10.97208,0 11.96953,0 9.30964,0 18.28678,0 9.30964,0 11.63705,0 9.30964,0 9.30963,0 11.63705,0 9.30964,0 9.30963,0 20.94669,0 11.63704,0 0,0 0,0 -11.63704,0 -20.94669,0 -9.30963,0 -9.30964,0 -11.63705,0 -9.30963,0 -9.30964,0 -11.63705,0 -9.30964,0 -18.28678,0 -9.30964,0 -11.96953,0 -10.97208,0 -11.30456,0 -9.97461,0 -9.64212,0 -8.97715,0 -8.97715,0 -12.30202,0 -10.3071,0 -9.97461,0 -9.30964,0 -11.30456,0.36162 -7.97969,0 -11.63705,0 -10.97207,0 -9.64212,0 -9.64213,0.36162 -9.30963,0 -10.63959,0 -10.3071,0.72324 -10.63958,0 -10.3071,0.36162 -8.97715,0.36162 -11.30456,0.36162 -9.97461,0 -10.3071,0.72324 -10.3071,0.36162 -9.64213,0 -9.30963,0.72324 -10.97207,1.44648 -9.64213,0.36162 -10.97207,1.44648 -9.30964,0.72324 -10.307098,0.72324 -10.307098,1.08486 -10.639586,1.8081 -8.97715,1.08486 -11.304559,2.89296 -9.974612,2.16972 -10.307098,4.33944 -5.65228,5.78592 -13.6319689,8.67888 -9.6421244,8.67888 -11.3045597,15.54966 -9.974611,21.6972 -10.307099,11.57184 -9.974611,12.29508 -9.974612,22.05882 -10.639585,33.26904 -4.987306,19.16586 -9.974611,45.92574 -4.654819,17.35776 -6.982228,18.44262 -32.583734,98.72226 -6.98222,-0.36162 z"
                 inkscape:connector-curvature="0"
                 id="path124"
                 style="fill:#00aeff;fill-opacity:1;fill-rule:nonzero;stroke:none" /></g></g></g></g></g><g
       id="g126" /><g
       id="g128"><g
         clip-path="url(#clipPath132)"
         id="g130"><g
           id="g136"><g
             id="g138"><g
               clip-path="url(#clipPath142)"
               id="g140"><path
                 d="m -128.91469,522.07038 0,0 6.98222,0.36162 32.583734,-98.72226 6.982228,-18.44262 4.654819,-17.35776 9.974611,-45.92574 4.987306,-19.16586 10.639585,-33.26904 9.974612,-22.05882 9.974611,-12.29508 10.307099,-11.57184 9.974611,-21.6972 11.3045597,-15.54966 9.6421244,-8.67888 13.6319689,-8.67888 5.65228,-5.78592 10.307098,-4.33944 9.974612,-2.16972 11.304559,-2.89296 8.97715,-1.08486 10.639586,-1.8081 10.307098,-1.08486 10.307098,-0.72324 9.30964,-0.72324 10.97207,-1.44648 9.64213,-0.36162 10.97207,-1.44648 9.30963,-0.72324 9.64213,0 10.3071,-0.36162 10.3071,-0.72324 9.97461,0 11.30456,-0.36162 8.97715,-0.36162 10.3071,-0.36162 10.63958,0 10.3071,-0.72324 10.63959,0 9.30963,0 9.64213,-0.36162 9.64212,0 10.97207,0 11.63705,0 7.97969,0 11.30456,-0.36162 9.30964,0 9.97461,0 10.3071,0 12.30202,0 8.97715,0 8.97715,0 9.64212,0 9.97461,0 11.30456,0 10.97208,0 11.96953,0 9.30964,0 18.28678,0 9.30964,0 11.63705,0 9.30964,0 9.30963,0 11.63705,0 9.30964,0 9.30963,0 20.94669,0 11.63704,0 0,0 0,0 -11.63704,0 -20.94669,0 -9.30963,0 -9.30964,0 -11.63705,0 -9.30963,0 -9.30964,0 -11.63705,0 -9.30964,0 -18.28678,0 -9.30964,0 -11.96953,0 -10.97208,0 -11.30456,0 -9.97461,0 -9.64212,0 -8.97715,0 -8.97715,0 -12.30202,0 -10.3071,0 -9.97461,0 -9.30964,0 -11.30456,4.70106 -7.97969,0.72324 -11.63705,0.36162 -10.97207,0.72324 -9.64212,0 -9.64213,1.08486 -9.30963,1.08486 -10.63959,0.72324 -10.3071,1.8081 -10.63958,1.44648 -10.3071,1.44648 -8.97715,1.44648 -11.30456,2.16972 -9.97461,1.8081 -10.3071,2.53134 -10.3071,1.44648 -9.64213,1.8081 -9.30963,2.89296 -10.97207,5.06268 -9.64213,3.6162 -10.97207,5.4243 -9.30964,4.70106 -10.307098,4.33944 -10.307098,6.87078 -10.639586,8.67888 -8.97715,9.40212 -11.304559,16.2729 -9.974612,14.10318 -10.307098,14.10318 -5.65228,12.29508 -13.6319689,17.35776 -9.6421244,22.42044 -11.3045597,31.46094 -9.974611,26.03664 -10.307099,10.12536 -9.974611,16.99614 -9.974612,87.15042 -10.639585,9.40212 -4.987306,7.95564 -9.974611,-0.36162 -4.654819,0 -6.982228,0 -32.583734,0 -6.98222,-0.36162 z"
                 inkscape:connector-curvature="0"
                 id="path146"
                 style="fill:#00deff;fill-opacity:1;fill-rule:nonzero;stroke:none" /></g></g></g></g></g><g
       id="g148" /><g
       id="g150"><g
         clip-path="url(#clipPath154)"
         id="g152"><g
           id="g158"><g
             id="g160"><g
               clip-path="url(#clipPath164)"
               id="g162"><path
                 d="m -128.91469,522.07038 0,0 6.98222,0.36162 32.583734,0 6.982228,0 4.654819,0 9.974611,0.36162 4.987306,-7.95564 10.639585,-9.40212 9.974612,-87.15042 9.974611,-16.99614 10.307099,-10.12536 9.974611,-26.03664 11.3045597,-31.46094 9.6421244,-22.42044 13.6319689,-17.35776 5.65228,-12.29508 10.307098,-14.10318 9.974612,-14.10318 11.304559,-16.2729 8.97715,-9.40212 10.639586,-8.67888 10.307098,-6.87078 10.307098,-4.33944 9.30964,-4.70106 10.97207,-5.4243 9.64213,-3.6162 10.97207,-5.06268 9.30963,-2.89296 9.64213,-1.8081 10.3071,-1.44648 10.3071,-2.53134 9.97461,-1.8081 11.30456,-2.16972 8.97715,-1.44648 10.3071,-1.44648 10.63958,-1.44648 10.3071,-1.8081 10.63959,-0.72324 9.30963,-1.08486 9.64213,-1.08486 9.64212,0 10.97207,-0.72324 11.63705,-0.36162 7.97969,-0.72324 11.30456,-4.70106 9.30964,0 9.97461,0 10.3071,0 12.30202,0 8.97715,0 8.97715,0 9.64212,0 9.97461,0 11.30456,0 10.97208,0 11.96953,0 9.30964,0 18.28678,0 9.30964,0 11.63705,0 9.30964,0 9.30963,0 11.63705,0 9.30964,0 9.30963,0 20.94669,0 11.63704,0 0,0.72324 0,0 -11.63704,0.36162 -20.94669,0 -9.30963,0 -9.30964,0.36162 -11.63705,0 -9.30963,0 -9.30964,0 -11.63705,0.36162 -9.30964,0.36162 -18.28678,0.36162 -9.30964,0 -11.96953,0 -10.97208,0.36162 -11.30456,0.72324 -9.97461,0.36162 -9.64212,0.36162 -8.97715,0.36162 -8.97715,0 -12.30202,1.08486 -10.3071,0.36162 -9.97461,1.8081 -9.30964,0.72324 -11.30456,5.06268 -7.97969,2.89296 -11.63705,0.72324 -10.97207,2.53134 -9.64212,1.08486 -9.64213,13.74156 -9.30963,3.25458 -10.63959,3.97782 -10.3071,6.50916 -10.63958,7.59402 -10.3071,4.70106 -8.97715,5.4243 -11.30456,7.59402 -9.97461,8.31726 -10.3071,9.0405 -10.3071,7.95564 -9.64213,9.76374 -9.30963,10.8486 -10.97207,14.10318 -9.64213,13.01832 -10.97207,23.14368 -9.30964,24.22854 -10.307098,20.97396 -10.307098,28.20636 -10.639586,25.67502 -8.97715,22.05882 -11.304559,35.07714 -9.974612,18.80424 -10.307098,6.87078 -5.65228,2.89296 -13.6319689,3.97782 -9.6421244,1.44648 -11.3045597,1.08486 -9.974611,0 -10.307099,0 -9.974611,0 -9.974612,-0.36162 -10.639585,-0.36162 -4.987306,1.44648 -9.974611,-0.36162 -4.654819,0 -6.982228,0 -32.583734,0 -6.98222,-0.36162 z"
                 inkscape:connector-curvature="0"
                 id="path168"
                 style="fill:#23ffd2;fill-opacity:1;fill-rule:nonzero;stroke:none" /></g></g></g></g></g><g
       id="g170" /><g
       id="g172"><g
         clip-path="url(#clipPath176)"
         id="g174"><g
           id="g180"><g
             id="g182"><g
               clip-path="url(#clipPath186)"
               id="g184"><path
                 d="m -128.91469,522.07038 0,0 6.98222,0.36162 32.583734,0 6.982228,0 4.654819,0 9.974611,0.36162 4.987306,-1.44648 10.639585,0.36162 9.974612,0.36162 9.974611,0 10.307099,0 9.974611,0 11.3045597,-1.08486 9.6421244,-1.44648 13.6319689,-3.97782 5.65228,-2.89296 10.307098,-6.87078 9.974612,-18.80424 11.304559,-35.07714 8.97715,-22.05882 10.639586,-25.67502 10.307098,-28.20636 10.307098,-20.97396 9.30964,-24.22854 10.97207,-23.14368 9.64213,-13.01832 10.97207,-14.10318 9.30963,-10.8486 9.64213,-9.76374 10.3071,-7.95564 10.3071,-9.0405 9.97461,-8.31726 11.30456,-7.59402 8.97715,-5.4243 10.3071,-4.70106 10.63958,-7.59402 10.3071,-6.50916 10.63959,-3.97782 9.30963,-3.25458 9.64213,-13.74156 9.64212,-1.08486 10.97207,-2.53134 11.63705,-0.72324 7.97969,-2.89296 11.30456,-5.06268 9.30964,-0.72324 9.97461,-1.8081 10.3071,-0.36162 12.30202,-1.08486 8.97715,0 8.97715,-0.36162 9.64212,-0.36162 9.97461,-0.36162 11.30456,-0.72324 10.97208,-0.36162 11.96953,0 9.30964,0 18.28678,-0.36162 9.30964,-0.36162 11.63705,-0.36162 9.30964,0 9.30963,0 11.63705,0 9.30964,-0.36162 9.30963,0 20.94669,0 11.63704,-0.36162 0,0 0,0 -11.63704,0.36162 -20.94669,0 -9.30963,0 -9.30964,0.36162 -11.63705,0 -9.30963,0 -9.30964,0 -11.63705,0.36162 -9.30964,0.36162 -18.28678,0.36162 -9.30964,0 -11.96953,0 -10.97208,0.36162 -11.30456,0.72324 -9.97461,0.36162 -9.64212,0.36162 -8.97715,0.36162 -8.97715,0 -12.30202,1.08486 -10.3071,0.36162 -9.97461,1.8081 -9.30964,0.72324 -11.30456,5.4243 -7.97969,2.53134 -11.63705,1.08486 -10.97207,2.53134 -9.64212,1.08486 -9.64213,14.10318 -9.30963,3.25458 -10.63959,3.97782 -10.3071,6.50916 -10.63958,7.95564 -10.3071,4.70106 -8.97715,5.4243 -11.30456,7.59402 -9.97461,8.67888 -10.3071,9.0405 -10.3071,8.31726 -9.64213,9.76374 -9.30963,10.8486 -10.97207,14.10318 -9.64213,13.37994 -10.97207,22.78206 -9.30964,24.22854 -10.307098,20.97396 -10.307098,28.56798 -10.639586,25.67502 -8.97715,23.5053 -11.304559,35.43876 -9.974612,18.44262 -10.307098,6.14754 -5.65228,2.53134 -13.6319689,4.33944 -9.6421244,0 -11.3045597,-0.36162 -9.974611,0 -10.307099,0 -9.974611,0 -9.974612,-0.36162 -10.639585,-0.36162 -4.987306,1.44648 -9.974611,-0.36162 -4.654819,0 -6.982228,0 -32.583734,0 -6.98222,-0.36162 z"
                 inkscape:connector-curvature="0"
                 id="path190"
                 style="fill:#5cff9a;fill-opacity:1;fill-rule:nonzero;stroke:none" /></g></g></g></g></g><g
       id="g192" /><g
       id="g194"><g
         clip-path="url(#clipPath198)"
         id="g196"><g
           id="g202"><g
             id="g204"><g
               clip-path="url(#clipPath208)"
               id="g206"><path
                 d="m -128.91469,522.07038 0,0 6.98222,0.36162 32.583734,0 6.982228,0 4.654819,0 9.974611,0.36162 4.987306,-1.44648 10.639585,0.36162 9.974612,0.36162 9.974611,0 10.307099,0 9.974611,0 11.3045597,0.36162 9.6421244,0 13.6319689,-4.33944 5.65228,-2.53134 10.307098,-6.14754 9.974612,-18.44262 11.304559,-35.43876 8.97715,-23.5053 10.639586,-25.67502 10.307098,-28.56798 10.307098,-20.97396 9.30964,-24.22854 10.97207,-22.78206 9.64213,-13.37994 10.97207,-14.10318 9.30963,-10.8486 9.64213,-9.76374 10.3071,-8.31726 10.3071,-9.0405 9.97461,-8.67888 11.30456,-7.59402 8.97715,-5.4243 10.3071,-4.70106 10.63958,-7.95564 10.3071,-6.50916 10.63959,-3.97782 9.30963,-3.25458 9.64213,-14.10318 9.64212,-1.08486 10.97207,-2.53134 11.63705,-1.08486 7.97969,-2.53134 11.30456,-5.4243 9.30964,-0.72324 9.97461,-1.8081 10.3071,-0.36162 12.30202,-1.08486 8.97715,0 8.97715,-0.36162 9.64212,-0.36162 9.97461,-0.36162 11.30456,-0.72324 10.97208,-0.36162 11.96953,0 9.30964,0 18.28678,-0.36162 9.30964,-0.36162 11.63705,-0.36162 9.30964,0 9.30963,0 11.63705,0 9.30964,-0.36162 9.30963,0 20.94669,0 11.63704,-0.36162 0,14.82642 0,0 -11.63704,2.16972 -20.94669,3.6162 -9.30963,0.36162 -9.30964,2.89296 -11.63705,1.8081 -9.30963,1.8081 -9.30964,1.44648 -11.63705,5.06268 -9.30964,2.89296 -18.28678,6.14754 -9.30964,7.95564 -11.96953,-0.36162 -10.97208,5.4243 -11.30456,5.4243 -9.97461,6.14754 -9.64212,4.70106 -8.97715,3.97782 -8.97715,4.33944 -12.30202,11.57184 -10.3071,8.31726 -9.97461,9.76374 -9.30964,8.67888 -11.30456,13.74156 -7.97969,6.50916 -11.63705,9.40212 -10.97207,9.76374 -9.64212,5.78592 -9.64213,29.29122 -9.30963,8.67888 -10.63959,11.21022 -10.3071,18.081 -10.63958,19.8891 -10.3071,10.48698 -8.97715,11.57184 -11.30456,18.80424 -9.97461,20.61234 -10.3071,12.6567 -10.3071,5.78592 -9.64213,7.2324 -9.30963,4.70106 -10.97207,1.8081 -9.64213,1.8081 -10.97207,5.4243 -9.30964,1.8081 -10.307098,0.36162 -10.307098,1.44648 -10.639586,0.36162 -8.97715,1.44648 -11.304559,1.08486 -9.974612,0 -10.307098,1.44648 -5.65228,0 -13.6319689,0.72324 -9.6421244,0 -11.3045597,-0.36162 -9.974611,0 -10.307099,0 -9.974611,0 -9.974612,-0.36162 -10.639585,-0.36162 -4.987306,1.44648 -9.974611,-0.36162 -4.654819,0 -6.982228,0 -32.583734,0 -6.98222,-0.36162 z"
                 inkscape:connector-curvature="0"
                 id="path212"
                 style="fill:#91ff66;fill-opacity:1;fill-rule:nonzero;stroke:none" /></g></g></g></g></g><g
       id="g214" /><g
       id="g216"><g
         clip-path="url(#clipPath220)"
         id="g218"><g
           id="g224"><g
             id="g226"><g
               clip-path="url(#clipPath230)"
               id="g228"><path
                 d="m -128.91469,522.07038 0,0 6.98222,0.36162 32.583734,0 6.982228,0 4.654819,0 9.974611,0.36162 4.987306,-1.44648 10.639585,0.36162 9.974612,0.36162 9.974611,0 10.307099,0 9.974611,0 11.3045597,0.36162 9.6421244,0 13.6319689,-0.72324 5.65228,0 10.307098,-1.44648 9.974612,0 11.304559,-1.08486 8.97715,-1.44648 10.639586,-0.36162 10.307098,-1.44648 10.307098,-0.36162 9.30964,-1.8081 10.97207,-5.4243 9.64213,-1.8081 10.97207,-1.8081 9.30963,-4.70106 9.64213,-7.2324 10.3071,-5.78592 10.3071,-12.6567 9.97461,-20.61234 11.30456,-18.80424 8.97715,-11.57184 10.3071,-10.48698 10.63958,-19.8891 10.3071,-18.081 10.63959,-11.21022 9.30963,-8.67888 9.64213,-29.29122 9.64212,-5.78592 10.97207,-9.76374 11.63705,-9.40212 7.97969,-6.50916 11.30456,-13.74156 9.30964,-8.67888 9.97461,-9.76374 10.3071,-8.31726 12.30202,-11.57184 8.97715,-4.33944 8.97715,-3.97782 9.64212,-4.70106 9.97461,-6.14754 11.30456,-5.4243 10.97208,-5.4243 11.96953,0.36162 9.30964,-7.95564 18.28678,-6.14754 9.30964,-2.89296 11.63705,-5.06268 9.30964,-1.44648 9.30963,-1.8081 11.63705,-1.8081 9.30964,-2.89296 9.30963,-0.36162 20.94669,-3.6162 11.63704,-2.16972 0,0 0,0 -11.63704,2.16972 -20.94669,3.6162 -9.30963,0.36162 -9.30964,2.89296 -11.63705,1.8081 -9.30963,1.8081 -9.30964,1.44648 -11.63705,5.06268 -9.30964,2.89296 -18.28678,6.14754 -9.30964,7.95564 -11.96953,-0.36162 -10.97208,5.4243 -11.30456,5.4243 -9.97461,6.14754 -9.64212,4.70106 -8.97715,3.97782 -8.97715,4.33944 -12.30202,11.57184 -10.3071,8.31726 -9.97461,9.76374 -9.30964,8.67888 -11.30456,13.74156 -7.97969,6.50916 -11.63705,9.40212 -10.97207,9.76374 -9.64212,5.78592 -9.64213,29.29122 -9.30963,8.67888 -10.63959,11.21022 -10.3071,18.081 -10.63958,19.8891 -10.3071,10.48698 -8.97715,11.57184 -11.30456,18.80424 -9.97461,20.61234 -10.3071,12.6567 -10.3071,6.14754 -9.64213,7.2324 -9.30963,4.70106 -10.97207,1.8081 -9.64213,1.8081 -10.97207,5.4243 -9.30964,1.8081 -10.307098,0.72324 -10.307098,1.44648 -10.639586,1.08486 -8.97715,1.44648 -11.304559,0.72324 -9.974612,0 -10.307098,1.08486 -5.65228,0 -13.6319689,0 -9.6421244,0 -11.3045597,-0.36162 -9.974611,0 -10.307099,0 -9.974611,0 -9.974612,-0.36162 -10.639585,-0.36162 -4.987306,1.44648 -9.974611,-0.36162 -4.654819,0 -6.982228,0 -32.583734,0 -6.98222,-0.36162 z"
                 inkscape:connector-curvature="0"
                 id="path234"
                 style="fill:#c9ff2e;fill-opacity:1;fill-rule:nonzero;stroke:none" /></g></g></g></g></g><g
       id="g236" /><g
       id="g238"><g
         clip-path="url(#clipPath242)"
         id="g240"><g
           id="g246"><g
             id="g248"><g
               clip-path="url(#clipPath252)"
               id="g250"><path
                 d="m -128.91469,522.07038 0,0 6.98222,0.36162 32.583734,0 6.982228,0 4.654819,0 9.974611,0.36162 4.987306,-1.44648 10.639585,0.36162 9.974612,0.36162 9.974611,0 10.307099,0 9.974611,0 11.3045597,0.36162 9.6421244,0 13.6319689,0 5.65228,0 10.307098,-1.08486 9.974612,0 11.304559,-0.72324 8.97715,-1.44648 10.639586,-1.08486 10.307098,-1.44648 10.307098,-0.72324 9.30964,-1.8081 10.97207,-5.4243 9.64213,-1.8081 10.97207,-1.8081 9.30963,-4.70106 9.64213,-7.2324 10.3071,-6.14754 10.3071,-12.6567 9.97461,-20.61234 11.30456,-18.80424 8.97715,-11.57184 10.3071,-10.48698 10.63958,-19.8891 10.3071,-18.081 10.63959,-11.21022 9.30963,-8.67888 9.64213,-29.29122 9.64212,-5.78592 10.97207,-9.76374 11.63705,-9.40212 7.97969,-6.50916 11.30456,-13.74156 9.30964,-8.67888 9.97461,-9.76374 10.3071,-8.31726 12.30202,-11.57184 8.97715,-4.33944 8.97715,-3.97782 9.64212,-4.70106 9.97461,-6.14754 11.30456,-5.4243 10.97208,-5.4243 11.96953,0.36162 9.30964,-7.95564 18.28678,-6.14754 9.30964,-2.89296 11.63705,-5.06268 9.30964,-1.44648 9.30963,-1.8081 11.63705,-1.8081 9.30964,-2.89296 9.30963,-0.36162 20.94669,-3.6162 11.63704,-2.16972 0,0 0,0 -11.63704,2.16972 -20.94669,3.6162 -9.30963,0.36162 -9.30964,2.89296 -11.63705,1.8081 -9.30963,1.8081 -9.30964,1.44648 -11.63705,5.06268 -9.30964,2.89296 -18.28678,6.14754 -9.30964,7.95564 -11.96953,-0.36162 -10.97208,5.4243 -11.30456,5.4243 -9.97461,6.14754 -9.64212,4.70106 -8.97715,3.97782 -8.97715,4.33944 -12.30202,11.57184 -10.3071,8.31726 -9.97461,9.76374 -9.30964,8.67888 -11.30456,13.74156 -7.97969,6.50916 -11.63705,9.40212 -10.97207,9.76374 -9.64212,5.78592 -9.64213,30.37608 -9.30963,8.67888 -10.63959,11.57184 -10.3071,18.081 -10.63958,19.8891 -10.3071,10.48698 -8.97715,11.93346 -11.30456,18.80424 -9.97461,20.61234 -10.3071,13.37994 -10.3071,7.2324 -9.64213,7.2324 -9.30963,5.06268 -10.97207,2.89296 -9.64213,2.16972 -10.97207,3.97782 -9.30964,1.08486 -10.307098,0.72324 -10.307098,0.72324 -10.639586,1.08486 -8.97715,0.72324 -11.304559,0 -9.974612,-1.08486 -10.307098,1.08486 -5.65228,0 -13.6319689,0 -9.6421244,0 -11.3045597,-0.36162 -9.974611,0 -10.307099,0 -9.974611,0 -9.974612,-0.36162 -10.639585,-0.36162 -4.987306,1.44648 -9.974611,-0.36162 -4.654819,0 -6.982228,0 -32.583734,0 -6.98222,-0.36162 z"
                 inkscape:connector-curvature="0"
                 id="path256"
                 style="fill:#feed00;fill-opacity:1;fill-rule:nonzero;stroke:none" /></g></g></g></g></g><g
       id="g258" /><g
       id="g260"><g
         clip-path="url(#clipPath264)"
         id="g262"><g
           id="g268"><g
             id="g270"><g
               clip-path="url(#clipPath274)"
               id="g272"><path
                 d="m -128.91469,522.07038 0,0 6.98222,0.36162 32.583734,0 6.982228,0 4.654819,0 9.974611,0.36162 4.987306,-1.44648 10.639585,0.36162 9.974612,0.36162 9.974611,0 10.307099,0 9.974611,0 11.3045597,0.36162 9.6421244,0 13.6319689,0 5.65228,0 10.307098,-1.08486 9.974612,1.08486 11.304559,0 8.97715,-0.72324 10.639586,-1.08486 10.307098,-0.72324 10.307098,-0.72324 9.30964,-1.08486 10.97207,-3.97782 9.64213,-2.16972 10.97207,-2.89296 9.30963,-5.06268 9.64213,-7.2324 10.3071,-7.2324 10.3071,-13.37994 9.97461,-20.61234 11.30456,-18.80424 8.97715,-11.93346 10.3071,-10.48698 10.63958,-19.8891 10.3071,-18.081 10.63959,-11.57184 9.30963,-8.67888 9.64213,-30.37608 9.64212,-5.78592 10.97207,-9.76374 11.63705,-9.40212 7.97969,-6.50916 11.30456,-13.74156 9.30964,-8.67888 9.97461,-9.76374 10.3071,-8.31726 12.30202,-11.57184 8.97715,-4.33944 8.97715,-3.97782 9.64212,-4.70106 9.97461,-6.14754 11.30456,-5.4243 10.97208,-5.4243 11.96953,0.36162 9.30964,-7.95564 18.28678,-6.14754 9.30964,-2.89296 11.63705,-5.06268 9.30964,-1.44648 9.30963,-1.8081 11.63705,-1.8081 9.30964,-2.89296 9.30963,-0.36162 20.94669,-3.6162 11.63704,-2.16972 0,0 0,0 -11.63704,2.16972 -20.94669,3.6162 -9.30963,0.36162 -9.30964,2.89296 -11.63705,1.8081 -9.30963,1.8081 -9.30964,1.44648 -11.63705,5.06268 -9.30964,2.89296 -18.28678,6.14754 -9.30964,7.95564 -11.96953,-0.36162 -10.97208,5.4243 -11.30456,5.78592 -9.97461,6.14754 -9.64212,4.70106 -8.97715,3.97782 -8.97715,4.33944 -12.30202,11.57184 -10.3071,8.31726 -9.97461,9.76374 -9.30964,8.67888 -11.30456,13.74156 -7.97969,6.50916 -11.63705,9.40212 -10.97207,9.76374 -9.64212,6.14754 -9.64213,32.90742 -9.30963,9.0405 -10.63959,11.93346 -10.3071,18.44262 -10.63958,20.61234 -10.3071,10.8486 -8.97715,12.29508 -11.30456,19.52748 -9.97461,20.97396 -10.3071,13.74156 -10.3071,7.95564 -9.64213,7.2324 -9.30963,4.70106 -10.97207,2.16972 -9.64213,1.44648 -10.97207,2.16972 -9.30964,0 -10.307098,0 -10.307098,0 -10.639586,0 -8.97715,0 -11.304559,0 -9.974612,-1.08486 -10.307098,1.08486 -5.65228,0 -13.6319689,0 -9.6421244,0 -11.3045597,-0.36162 -9.974611,0 -10.307099,0 -9.974611,0 -9.974612,-0.36162 -10.639585,-0.36162 -4.987306,1.44648 -9.974611,-0.36162 -4.654819,0 -6.982228,0 -32.583734,0 -6.98222,-0.36162 z"
                 inkscape:connector-curvature="0"
                 id="path278"
                 style="fill:#ffac00;fill-opacity:1;fill-rule:nonzero;stroke:none" /></g></g></g></g></g><g
       id="g280" /><g
       id="g282"><g
         clip-path="url(#clipPath286)"
         id="g284"><g
           id="g290"><g
             id="g292"><g
               clip-path="url(#clipPath296)"
               id="g294"><path
                 d="m -128.91469,522.07038 0,0 6.98222,0.36162 32.583734,0 6.982228,0 4.654819,0 9.974611,0.36162 4.987306,-1.44648 10.639585,0.36162 9.974612,0.36162 9.974611,0 10.307099,0 9.974611,0 11.3045597,0.36162 9.6421244,0 13.6319689,0 5.65228,0 10.307098,-1.08486 9.974612,1.08486 11.304559,0 8.97715,0 10.639586,0 10.307098,0 10.307098,0 9.30964,0 10.97207,-2.16972 9.64213,-1.44648 10.97207,-2.16972 9.30963,-4.70106 9.64213,-7.2324 10.3071,-7.95564 10.3071,-13.74156 9.97461,-20.97396 11.30456,-19.52748 8.97715,-12.29508 10.3071,-10.8486 10.63958,-20.61234 10.3071,-18.44262 10.63959,-11.93346 9.30963,-9.0405 9.64213,-32.90742 9.64212,-6.14754 10.97207,-9.76374 11.63705,-9.40212 7.97969,-6.50916 11.30456,-13.74156 9.30964,-8.67888 9.97461,-9.76374 10.3071,-8.31726 12.30202,-11.57184 8.97715,-4.33944 8.97715,-3.97782 9.64212,-4.70106 9.97461,-6.14754 11.30456,-5.78592 10.97208,-5.4243 11.96953,0.36162 9.30964,-7.95564 18.28678,-6.14754 9.30964,-2.89296 11.63705,-5.06268 9.30964,-1.44648 9.30963,-1.8081 11.63705,-1.8081 9.30964,-2.89296 9.30963,-0.36162 20.94669,-3.6162 11.63704,-2.16972 0,0 0,0 -11.63704,2.16972 -20.94669,3.6162 -9.30963,0.36162 -9.30964,2.89296 -11.63705,1.8081 -9.30963,1.8081 -9.30964,1.44648 -11.63705,5.06268 -9.30964,2.89296 -18.28678,6.14754 -9.30964,7.95564 -11.96953,-0.36162 -10.97208,5.4243 -11.30456,5.78592 -9.97461,6.14754 -9.64212,4.70106 -8.97715,3.97782 -8.97715,4.33944 -12.30202,11.57184 -10.3071,8.31726 -9.97461,9.76374 -9.30964,8.67888 -11.30456,13.74156 -7.97969,6.50916 -11.63705,9.40212 -10.97207,9.76374 -9.64212,6.14754 -9.64213,32.90742 -9.30963,9.0405 -10.63959,11.93346 -10.3071,18.44262 -10.63958,20.61234 -10.3071,10.8486 -8.97715,12.6567 -11.30456,19.52748 -9.97461,21.33558 -10.3071,14.4648 -10.3071,8.31726 -9.64213,7.2324 -9.30963,4.33944 -10.97207,1.8081 -9.64213,1.44648 -10.97207,1.08486 -9.30964,0 -10.307098,0 -10.307098,0 -10.639586,0 -8.97715,0 -11.304559,0 -9.974612,-1.08486 -10.307098,1.08486 -5.65228,0 -13.6319689,0 -9.6421244,0 -11.3045597,-0.36162 -9.974611,0 -10.307099,0 -9.974611,0 -9.974612,-0.36162 -10.639585,-0.36162 -4.987306,1.44648 -9.974611,-0.36162 -4.654819,0 -6.982228,0 -32.583734,0 -6.98222,-0.36162 z"
                 inkscape:connector-curvature="0"
                 id="path300"
                 style="fill:#ff7000;fill-opacity:1;fill-rule:nonzero;stroke:none" /></g></g></g></g></g><g
       id="g302" /><g
       id="g304"><g
         clip-path="url(#clipPath308)"
         id="g306"><g
           id="g312"><g
             id="g314"><g
               clip-path="url(#clipPath318)"
               id="g316"><path
                 d="m -128.91469,522.07038 0,0 6.98222,0.36162 32.583734,0 6.982228,0 4.654819,0 9.974611,0.36162 4.987306,-1.44648 10.639585,0.36162 9.974612,0.36162 9.974611,0 10.307099,0 9.974611,0 11.3045597,0.36162 9.6421244,0 13.6319689,0 5.65228,0 10.307098,-1.08486 9.974612,1.08486 11.304559,0 8.97715,0 10.639586,0 10.307098,0 10.307098,0 9.30964,0 10.97207,-1.08486 9.64213,-1.44648 10.97207,-1.8081 9.30963,-4.33944 9.64213,-7.2324 10.3071,-8.31726 10.3071,-14.4648 9.97461,-21.33558 11.30456,-19.52748 8.97715,-12.6567 10.3071,-10.8486 10.63958,-20.61234 10.3071,-18.44262 10.63959,-11.93346 9.30963,-9.0405 9.64213,-32.90742 9.64212,-6.14754 10.97207,-9.76374 11.63705,-9.40212 7.97969,-6.50916 11.30456,-13.74156 9.30964,-8.67888 9.97461,-9.76374 10.3071,-8.31726 12.30202,-11.57184 8.97715,-4.33944 8.97715,-3.97782 9.64212,-4.70106 9.97461,-6.14754 11.30456,-5.78592 10.97208,-5.4243 11.96953,0.36162 9.30964,-7.95564 18.28678,-6.14754 9.30964,-2.89296 11.63705,-5.06268 9.30964,-1.44648 9.30963,-1.8081 11.63705,-1.8081 9.30964,-2.89296 9.30963,-0.36162 20.94669,-3.6162 11.63704,-2.16972 0,13.37994 0,0 -11.63704,3.6162 -20.94669,7.2324 -9.30963,1.08486 -9.30964,4.33944 -11.63705,2.53134 -9.30963,3.6162 -9.30964,2.53134 -11.63705,9.0405 -9.30964,5.4243 -18.28678,10.12536 -9.30964,11.57184 -11.96953,2.53134 -10.97208,8.67888 -11.30456,9.76374 -9.97461,9.40212 -9.64212,7.95564 -8.97715,7.2324 -8.97715,7.2324 -12.30202,17.71938 -10.3071,12.6567 -9.97461,12.6567 -9.30964,12.6567 -11.30456,16.63452 -7.97969,9.40212 -11.63705,17.71938 -10.97207,16.63452 -9.64212,12.6567 -9.64213,30.37608 -9.30963,10.48698 -10.63959,12.29508 -10.3071,12.6567 -10.63958,14.4648 -10.3071,3.25458 -8.97715,2.16972 -11.30456,1.44648 -9.97461,2.89296 -10.3071,0 -10.3071,0 -9.64213,0 -9.30963,0 -10.97207,0 -9.64213,0 -10.97207,0 -9.30964,0 -10.307098,0 -10.307098,0 -10.639586,0 -8.97715,0 -11.304559,0 -9.974612,-1.08486 -10.307098,1.08486 -5.65228,0 -13.6319689,0 -9.6421244,0 -11.3045597,-0.36162 -9.974611,0 -10.307099,0 -9.974611,0 -9.974612,-0.36162 -10.639585,-0.36162 -4.987306,1.44648 -9.974611,-0.36162 -4.654819,0 -6.982228,0 -32.583734,0 -6.98222,-0.36162 z"
                 inkscape:connector-curvature="0"
                 id="path322"
                 style="fill:#ff2f00;fill-opacity:1;fill-rule:nonzero;stroke:none" /></g></g></g></g></g><g
       id="g324" /><g
       id="g326"><g
         clip-path="url(#clipPath330)"
         id="g328"><g
           id="g334"><g
             id="g336"><g
               clip-path="url(#clipPath340)"
               id="g338"><path
                 d="m -128.91469,522.07038 0,0 6.98222,0.36162 32.583734,0 6.982228,0 4.654819,0 9.974611,0.36162 4.987306,-1.44648 10.639585,0.36162 9.974612,0.36162 9.974611,0 10.307099,0 9.974611,0 11.3045597,0.36162 9.6421244,0 13.6319689,0 5.65228,0 10.307098,-1.08486 9.974612,1.08486 11.304559,0 8.97715,0 10.639586,0 10.307098,0 10.307098,0 9.30964,0 10.97207,0 9.64213,0 10.97207,0 9.30963,0 9.64213,0 10.3071,0 10.3071,0 9.97461,-2.89296 11.30456,-1.44648 8.97715,-2.16972 10.3071,-3.25458 10.63958,-14.4648 10.3071,-12.6567 10.63959,-12.29508 9.30963,-10.48698 9.64213,-30.37608 9.64212,-12.6567 10.97207,-16.63452 11.63705,-17.71938 7.97969,-9.40212 11.30456,-16.63452 9.30964,-12.6567 9.97461,-12.6567 10.3071,-12.6567 12.30202,-17.71938 8.97715,-7.2324 8.97715,-7.2324 9.64212,-7.95564 9.97461,-9.40212 11.30456,-9.76374 10.97208,-8.67888 11.96953,-2.53134 9.30964,-11.57184 18.28678,-10.12536 9.30964,-5.4243 11.63705,-9.0405 9.30964,-2.53134 9.30963,-3.6162 11.63705,-2.53134 9.30964,-4.33944 9.30963,-1.08486 20.94669,-7.2324 11.63704,-3.6162 0,43.75602 0,0 -11.63704,9.40212 -20.94669,10.8486 -9.30963,4.33944 -9.30964,7.59402 -11.63705,5.4243 -9.30963,7.59402 -9.30964,5.4243 -11.63705,16.63452 -9.30964,10.8486 -18.28678,18.44262 -9.30964,16.63452 -11.96953,7.2324 -10.97208,13.01832 -11.30456,26.03664 -9.97461,12.6567 -9.64212,11.21022 -8.97715,7.95564 -8.97715,8.67888 -12.30202,23.14368 -10.3071,12.29508 -9.97461,9.76374 -9.30964,13.01832 -11.30456,7.2324 -7.97969,3.25458 -11.63705,5.78592 -10.97207,6.14754 -9.64212,1.44648 -9.64213,1.08486 -9.30963,0.72324 -10.63959,0.72324 -10.3071,1.44648 -10.63958,2.89296 -10.3071,0 -8.97715,0 -11.30456,0 -9.97461,0 -10.3071,0 -10.3071,0 -9.64213,0 -9.30963,0 -10.97207,0 -9.64213,0 -10.97207,0 -9.30964,0 -10.307098,0 -10.307098,0 -10.639586,0 -8.97715,0 -11.304559,0 -9.974612,-1.08486 -10.307098,1.08486 -5.65228,0 -13.6319689,0 -9.6421244,0 -11.3045597,-0.36162 -9.974611,0 -10.307099,0 -9.974611,0 -9.974612,-0.36162 -10.639585,-0.36162 -4.987306,1.44648 -9.974611,-0.36162 -4.654819,0 -6.982228,0 -32.583734,0 -6.98222,-0.36162 z"
                 inkscape:connector-curvature="0"
                 id="path344"
                 style="fill:#d80000;fill-opacity:1;fill-rule:nonzero;stroke:none" /></g></g></g></g></g><g
       id="g346" /><g
       id="g348"><g
         clip-path="url(#clipPath352)"
         id="g350"><g
           id="g356"><g
             id="g358"><g
               clip-path="url(#clipPath362)"
               id="g360"><path
                 d="m -128.91469,522.07038 0,0 6.98222,0.36162 32.583734,0 6.982228,0 4.654819,0 9.974611,0.36162 4.987306,-1.44648 10.639585,0.36162 9.974612,0.36162 9.974611,0 10.307099,0 9.974611,0 11.3045597,0.36162 9.6421244,0 13.6319689,0 5.65228,0 10.307098,-1.08486 9.974612,1.08486 11.304559,0 8.97715,0 10.639586,0 10.307098,0 10.307098,0 9.30964,0 10.97207,0 9.64213,0 10.97207,0 9.30963,0 9.64213,0 10.3071,0 10.3071,0 9.97461,0 11.30456,0 8.97715,0 10.3071,0 10.63958,-2.89296 10.3071,-1.44648 10.63959,-0.72324 9.30963,-0.72324 9.64213,-1.08486 9.64212,-1.44648 10.97207,-6.14754 11.63705,-5.78592 7.97969,-3.25458 11.30456,-7.2324 9.30964,-13.01832 9.97461,-9.76374 10.3071,-12.29508 12.30202,-23.14368 8.97715,-8.67888 8.97715,-7.95564 9.64212,-11.21022 9.97461,-12.6567 11.30456,-26.03664 10.97208,-13.01832 11.96953,-7.2324 9.30964,-16.63452 18.28678,-18.44262 9.30964,-10.8486 11.63705,-16.63452 9.30964,-5.4243 9.30963,-7.59402 11.63705,-5.4243 9.30964,-7.59402 9.30963,-4.33944 20.94669,-10.8486 11.63704,-9.40212 0,54.96624 0,0 -11.63704,11.93346 -20.94669,16.63452 -9.30963,6.50916 -9.30964,9.40212 -11.63705,8.31726 -9.30963,9.0405 -9.30964,7.2324 -11.63705,16.99614 -9.30964,12.29508 -18.28678,18.081 -9.30964,13.37994 -11.96953,6.87078 -10.97208,10.8486 -11.30456,24.95178 -9.97461,10.12536 -9.64212,7.59402 -8.97715,5.06268 -8.97715,5.4243 -12.30202,14.10318 -10.3071,10.8486 -9.97461,2.89296 -9.30964,5.4243 -11.30456,0 -7.97969,0 -11.63705,0 -10.97207,0 -9.64212,0.36162 -9.64213,-0.36162 -9.30963,0 -10.63959,0 -10.3071,0 -10.63958,0 -10.3071,0 -8.97715,0 -11.30456,0 -9.97461,0 -10.3071,0 -10.3071,0 -9.64213,0 -9.30963,0 -10.97207,0 -9.64213,0 -10.97207,0 -9.30964,0 -10.307098,0 -10.307098,0 -10.639586,0 -8.97715,0 -11.304559,0 -9.974612,-1.08486 -10.307098,1.08486 -5.65228,0 -13.6319689,0 -9.6421244,0 -11.3045597,-0.36162 -9.974611,0 -10.307099,0 -9.974611,0 -9.974612,-0.36162 -10.639585,-0.36162 -4.987306,1.44648 -9.974611,-0.36162 -4.654819,0 -6.982228,0 -32.583734,0 -6.98222,-0.36162 z"
                 inkscape:connector-curvature="0"
                 id="path366"
                 style="fill:#8b0000;fill-opacity:1;fill-rule:nonzero;stroke:none" /></g></g></g></g></g><g
       id="g368" /><g
       id="g370"><g
         clip-path="url(#clipPath374)"
         id="g372"><g
           id="g378"><g
             id="g380"><g
               clip-path="url(#clipPath384)"
               id="g382"><path
                 d="m -128.91469,522.07038 0,0 6.98222,0.36162 32.583734,0 6.982228,0 4.654819,0 9.974611,0.36162 4.987306,-1.44648 10.639585,0.36162 9.974612,0.36162 9.974611,0 10.307099,0 9.974611,0 11.3045597,0.36162 9.6421244,0 13.6319689,0 5.65228,0 10.307098,-1.08486 9.974612,1.08486 11.304559,0 8.97715,0 10.639586,0 10.307098,0 10.307098,0 9.30964,0 10.97207,0 9.64213,0 10.97207,0 9.30963,0 9.64213,0 10.3071,0 10.3071,0 9.97461,0 11.30456,0 8.97715,0 10.3071,0 10.63958,0 10.3071,0 10.63959,0 9.30963,0 9.64213,0.36162 9.64212,-0.36162 10.97207,0 11.63705,0 7.97969,0 11.30456,0 9.30964,-5.4243 9.97461,-2.89296 10.3071,-10.8486 12.30202,-14.10318 8.97715,-5.4243 8.97715,-5.06268 9.64212,-7.59402 9.97461,-10.12536 11.30456,-24.95178 10.97208,-10.8486 11.96953,-6.87078 9.30964,-13.37994 18.28678,-18.081 9.30964,-12.29508 11.63705,-16.99614 9.30964,-7.2324 9.30963,-9.0405 11.63705,-8.31726 9.30964,-9.40212 9.30963,-6.50916 20.94669,-16.63452 11.63704,-11.93346 0,16.2729 0,0 -11.63704,12.6567 -20.94669,18.44262 -9.30963,7.59402 -9.30964,9.76374 -11.63705,9.40212 -9.30963,10.48698 -9.30964,7.95564 -11.63705,18.80424 -9.30964,13.37994 -18.28678,20.61234 -9.30964,13.01832 -11.96953,10.8486 -10.97208,15.54966 -11.30456,18.44262 -9.97461,11.57184 -9.64212,10.12536 -8.97715,2.53134 -8.97715,1.44648 -12.30202,1.08486 -10.3071,3.97782 -9.97461,0 -9.30964,0 -11.30456,0 -7.97969,0 -11.63705,0 -10.97207,0 -9.64212,0.36162 -9.64213,-0.36162 -9.30963,0 -10.63959,0 -10.3071,0 -10.63958,0 -10.3071,0 -8.97715,0 -11.30456,0 -9.97461,0 -10.3071,0 -10.3071,0 -9.64213,0 -9.30963,0 -10.97207,0 -9.64213,0 -10.97207,0 -9.30964,0 -10.307098,0 -10.307098,0 -10.639586,0 -8.97715,0 -11.304559,0 -9.974612,-1.08486 -10.307098,1.08486 -5.65228,0 -13.6319689,0 -9.6421244,0 -11.3045597,-0.36162 -9.974611,0 -10.307099,0 -9.974611,0 -9.974612,-0.36162 -10.639585,-0.36162 -4.987306,1.44648 -9.974611,-0.36162 -4.654819,0 -6.982228,0 -32.583734,0 -6.98222,-0.36162 z"
                 inkscape:connector-curvature="0"
                 id="path388"
                 style="fill:#80006e;fill-opacity:1;fill-rule:nonzero;stroke:none" /></g></g></g></g></g><g
       id="g390" /><g
       id="g392"><g
         clip-path="url(#clipPath396)"
         id="g394"><g
           id="g400"><g
             id="g402"><g
               clip-path="url(#clipPath406)"
               id="g404"><path
                 d="m -128.91469,522.07038 0,0 6.98222,0.36162 32.583734,0 6.982228,0 4.654819,0 9.974611,0.36162 4.987306,-1.44648 10.639585,0.36162 9.974612,0.36162 9.974611,0 10.307099,0 9.974611,0 11.3045597,0.36162 9.6421244,0 13.6319689,0 5.65228,0 10.307098,-1.08486 9.974612,1.08486 11.304559,0 8.97715,0 10.639586,0 10.307098,0 10.307098,0 9.30964,0 10.97207,0 9.64213,0 10.97207,0 9.30963,0 9.64213,0 10.3071,0 10.3071,0 9.97461,0 11.30456,0 8.97715,0 10.3071,0 10.63958,0 10.3071,0 10.63959,0 9.30963,0 9.64213,0.36162 9.64212,-0.36162 10.97207,0 11.63705,0 7.97969,0 11.30456,0 9.30964,0 9.97461,0 10.3071,-3.97782 12.30202,-1.08486 8.97715,-1.44648 8.97715,-2.53134 9.64212,-10.12536 9.97461,-11.57184 11.30456,-18.44262 10.97208,-15.54966 11.96953,-10.8486 9.30964,-13.01832 18.28678,-20.61234 9.30964,-13.37994 11.63705,-18.80424 9.30964,-7.95564 9.30963,-10.48698 11.63705,-9.40212 9.30964,-9.76374 9.30963,-7.59402 20.94669,-18.44262 11.63704,-12.6567 0,141.75504 0,0 -11.63704,13.01832 -20.94669,18.081 -9.30963,9.76374 -9.30964,15.54966 -11.63705,7.59402 -9.30963,6.14754 -9.30964,5.78592 -11.63705,0 -9.30964,0 -18.28678,0 -9.30964,0 -11.96953,0 -10.97208,0 -11.30456,0 -9.97461,0 -9.64212,0 -8.97715,0 -8.97715,0 -12.30202,0 -10.3071,0 -9.97461,0 -9.30964,0 -11.30456,0 -7.97969,0 -11.63705,0 -10.97207,0 -9.64212,0.36162 -9.64213,-0.36162 -9.30963,0 -10.63959,0 -10.3071,0 -10.63958,0 -10.3071,0 -8.97715,0 -11.30456,0 -9.97461,0 -10.3071,0 -10.3071,0 -9.64213,0 -9.30963,0 -10.97207,0 -9.64213,0 -10.97207,0 -9.30964,0 -10.307098,0 -10.307098,0 -10.639586,0 -8.97715,0 -11.304559,0 -9.974612,-1.08486 -10.307098,1.08486 -5.65228,0 -13.6319689,0 -9.6421244,0 -11.3045597,-0.36162 -9.974611,0 -10.307099,0 -9.974611,0 -9.974612,-0.36162 -10.639585,-0.36162 -4.987306,1.44648 -9.974611,-0.36162 -4.654819,0 -6.982228,0 -32.583734,0 -6.98222,-0.36162 z"
                 inkscape:connector-curvature="0"
                 id="path410"
                 style="fill:#c49ac4;fill-opacity:1;fill-rule:nonzero;stroke:none" /></g></g></g></g></g><g
       id="g412" /><g
       id="g414"><g
         clip-path="url(#clipPath418)"
         id="g416"><g
           id="g422"><g
             id="g424"><g
               clip-path="url(#clipPath428)"
               id="g426"><path
                 d="m -128.91469,522.07038 0,0 6.98222,0.36162 32.583734,0 6.982228,0 4.654819,0 9.974611,0.36162 4.987306,-1.44648 10.639585,0.36162 9.974612,0.36162 9.974611,0 10.307099,0 9.974611,0 11.3045597,0.36162 9.6421244,0 13.6319689,0 5.65228,0 10.307098,-1.08486 9.974612,1.08486 11.304559,0 8.97715,0 10.639586,0 10.307098,0 10.307098,0 9.30964,0 10.97207,0 9.64213,0 10.97207,0 9.30963,0 9.64213,0 10.3071,0 10.3071,0 9.97461,0 11.30456,0 8.97715,0 10.3071,0 10.63958,0 10.3071,0 10.63959,0 9.30963,0 9.64213,0.36162 9.64212,-0.36162 10.97207,0 11.63705,0 7.97969,0 11.30456,0 9.30964,0 9.97461,0 10.3071,0 12.30202,0 8.97715,0 8.97715,0 9.64212,0 9.97461,0 11.30456,0 10.97208,0 11.96953,0 9.30964,0 18.28678,0 9.30964,0 11.63705,0 9.30964,-5.78592 9.30963,-6.14754 11.63705,-7.59402 9.30964,-15.54966 9.30963,-9.76374 20.94669,-18.081 11.63704,-13.01832 0,0 0,0 -11.63704,13.01832 -20.94669,18.081 -9.30963,9.76374 -9.30964,15.54966 -11.63705,7.59402 -9.30963,6.14754 -9.30964,5.78592 -11.63705,0 -9.30964,0 -18.28678,0 -9.30964,0 -11.96953,0 -10.97208,0 -11.30456,0 -9.97461,0 -9.64212,0 -8.97715,0 -8.97715,0 -12.30202,0 -10.3071,0 -9.97461,0 -9.30964,0 -11.30456,0 -7.97969,0 -11.63705,0 -10.97207,0 -9.64212,0.36162 -9.64213,-0.36162 -9.30963,0 -10.63959,0 -10.3071,0 -10.63958,0 -10.3071,0 -8.97715,0 -11.30456,0 -9.97461,0 -10.3071,0 -10.3071,0 -9.64213,0 -9.30963,0 -10.97207,0 -9.64213,0 -10.97207,0 -9.30964,0 -10.307098,0 -10.307098,0 -10.639586,0 -8.97715,0 -11.304559,0 -9.974612,-1.08486 -10.307098,1.08486 -5.65228,0 -13.6319689,0 -9.6421244,0 -11.3045597,-0.36162 -9.974611,0 -10.307099,0 -9.974611,0 -9.974612,-0.36162 -10.639585,-0.36162 -4.987306,1.44648 -9.974611,-0.36162 -4.654819,0 -6.982228,0 -32.583734,0 -6.98222,-0.36162 z"
                 inkscape:connector-curvature="0"
                 id="path432"
                 style="fill:#fe1792;fill-opacity:1;fill-rule:nonzero;stroke:none" /></g></g></g></g></g><g
       id="g434" /><g
       id="g436"><g
         clip-path="url(#clipPath440)"
         id="g438"><g
           id="g444"><g
             id="g446"><g
               clip-path="url(#clipPath450)"
               id="g448"><path
                 d="m -128.91469,522.07038 0,0 6.98222,0.36162 32.583734,0 6.982228,0 4.654819,0 9.974611,0.36162 4.987306,-1.44648 10.639585,0.36162 9.974612,0.36162 9.974611,0 10.307099,0 9.974611,0 11.3045597,0.36162 9.6421244,0 13.6319689,0 5.65228,0 10.307098,-1.08486 9.974612,1.08486 11.304559,0 8.97715,0 10.639586,0 10.307098,0 10.307098,0 9.30964,0 10.97207,0 9.64213,0 10.97207,0 9.30963,0 9.64213,0 10.3071,0 10.3071,0 9.97461,0 11.30456,0 8.97715,0 10.3071,0 10.63958,0 10.3071,0 10.63959,0 9.30963,0 9.64213,0.36162 9.64212,-0.36162 10.97207,0 11.63705,0 7.97969,0 11.30456,0 9.30964,0 9.97461,0 10.3071,0 12.30202,0 8.97715,0 8.97715,0 9.64212,0 9.97461,0 11.30456,0 10.97208,0 11.96953,0 9.30964,0 18.28678,0 9.30964,0 11.63705,0 9.30964,-5.78592 9.30963,-6.14754 11.63705,-7.59402 9.30964,-15.54966 9.30963,-9.76374 20.94669,-18.081 11.63704,-13.01832 0,57.49758 0,0 -11.63704,11.57184 -20.94669,3.97782 -9.30963,0.36162 -9.30964,1.08486 -11.63705,1.44648 -9.30963,0 -9.30964,0 -11.63705,0 -9.30964,0 -18.28678,0 -9.30964,0 -11.96953,0 -10.97208,0 -11.30456,0 -9.97461,0 -9.64212,0 -8.97715,0 -8.97715,0 -12.30202,0 -10.3071,0 -9.97461,0 -9.30964,0 -11.30456,0 -7.97969,0 -11.63705,0 -10.97207,0 -9.64212,0.36162 -9.64213,-0.36162 -9.30963,0 -10.63959,0 -10.3071,0 -10.63958,0 -10.3071,0 -8.97715,0 -11.30456,0 -9.97461,0 -10.3071,0 -10.3071,0 -9.64213,0 -9.30963,0 -10.97207,0 -9.64213,0 -10.97207,0 -9.30964,0 -10.307098,0 -10.307098,0 -10.639586,0 -8.97715,0 -11.304559,0 -9.974612,-1.08486 -10.307098,1.08486 -5.65228,0 -13.6319689,0 -9.6421244,0 -11.3045597,-0.36162 -9.974611,0 -10.307099,0 -9.974611,0 -9.974612,-0.36162 -10.639585,-0.36162 -4.987306,1.44648 -9.974611,-0.36162 -4.654819,0 -6.982228,0 -32.583734,0 -6.98222,-0.36162 z"
                 inkscape:connector-curvature="0"
                 id="path454"
                 style="fill:#008080;fill-opacity:1;fill-rule:nonzero;stroke:none" /></g></g></g></g></g><g
       id="g456" /><g
       id="g458"><g
         clip-path="url(#clipPath462)"
         id="g460"><g
           id="g466"><g
             id="g468"><g
               clip-path="url(#clipPath472)"
               id="g470"><path
                 d="m -128.91469,522.07038 0,0 6.98222,0.36162 32.583734,0 6.982228,0 4.654819,0 9.974611,0.36162 4.987306,-1.44648 10.639585,0.36162 9.974612,0.36162 9.974611,0 10.307099,0 9.974611,0 11.3045597,0.36162 9.6421244,0 13.6319689,0 5.65228,0 10.307098,-1.08486 9.974612,1.08486 11.304559,0 8.97715,0 10.639586,0 10.307098,0 10.307098,0 9.30964,0 10.97207,0 9.64213,0 10.97207,0 9.30963,0 9.64213,0 10.3071,0 10.3071,0 9.97461,0 11.30456,0 8.97715,0 10.3071,0 10.63958,0 10.3071,0 10.63959,0 9.30963,0 9.64213,0.36162 9.64212,-0.36162 10.97207,0 11.63705,0 7.97969,0 11.30456,0 9.30964,0 9.97461,0 10.3071,0 12.30202,0 8.97715,0 8.97715,0 9.64212,0 9.97461,0 11.30456,0 10.97208,0 11.96953,0 9.30964,0 18.28678,0 9.30964,0 11.63705,0 9.30964,0 9.30963,0 11.63705,-1.44648 9.30964,-1.08486 9.30963,-0.36162 20.94669,-3.97782 11.63704,-11.57184 0,18.44262 0,0 -11.63704,2.53134 -20.94669,-2.53134 -9.30963,0 -9.30964,0 -11.63705,0 -9.30963,0 -9.30964,0 -11.63705,0 -9.30964,0 -18.28678,0 -9.30964,0 -11.96953,0 -10.97208,0 -11.30456,0 -9.97461,0 -9.64212,0 -8.97715,0 -8.97715,0 -12.30202,0 -10.3071,0 -9.97461,0 -9.30964,0 -11.30456,0 -7.97969,0 -11.63705,0 -10.97207,0 -9.64212,0.36162 -9.64213,-0.36162 -9.30963,0 -10.63959,0 -10.3071,0 -10.63958,0 -10.3071,0 -8.97715,0 -11.30456,0 -9.97461,0 -10.3071,0 -10.3071,0 -9.64213,0 -9.30963,0 -10.97207,0 -9.64213,0 -10.97207,0 -9.30964,0 -10.307098,0 -10.307098,0 -10.639586,0 -8.97715,0 -11.304559,0 -9.974612,-1.08486 -10.307098,1.08486 -5.65228,0 -13.6319689,0 -9.6421244,0 -11.3045597,-0.36162 -9.974611,0 -10.307099,0 -9.974611,0 -9.974612,-0.36162 -10.639585,-0.36162 -4.987306,1.44648 -9.974611,-0.36162 -4.654819,0 -6.982228,0 -32.583734,0 -6.98222,-0.36162 z"
                 inkscape:connector-curvature="0"
                 id="path476"
                 style="fill:#000080;fill-opacity:1;fill-rule:nonzero;stroke:none" /></g></g></g></g></g><path
       d="m 89.196808,160.812 0,4"
       inkscape:connector-curvature="0"
       id="path478"
       style="fill:#000000;fill-opacity:1;fill-rule:nonzero;stroke:#000000;stroke-width:0.5;stroke-linecap:butt;stroke-linejoin:round;stroke-miterlimit:10;stroke-opacity:1;stroke-dasharray:none" /><path
       d="m 89.196808,522.432 0,-4"
       inkscape:connector-curvature="0"
       id="path480"
       style="fill:#000000;fill-opacity:1;fill-rule:nonzero;stroke:#000000;stroke-width:0.5;stroke-linecap:butt;stroke-linejoin:round;stroke-miterlimit:10;stroke-opacity:1;stroke-dasharray:none" /><text
       transform="matrix(0.8660254,0.5,0.5,-0.8660254,41.167905,121.90171)"
       id="text482"><tspan
         x="0 9.6719999 16.427999 21.246 25.152 32.970001 40.787998 48.605999"
         y="0"
         id="tspan484"
         style="font-size:12px;font-variant:normal;font-weight:normal;writing-mode:lr-tb;fill:#000000;fill-opacity:1;fill-rule:nonzero;stroke:none;font-family:DejaVu Sans;-inkscape-font-specification:DejaVuSans">Oct 2011</tspan></text>
<path
       d="m 150.04194,160.812 0,4"
       inkscape:connector-curvature="0"
       id="path486"
       style="fill:#000000;fill-opacity:1;fill-rule:nonzero;stroke:#000000;stroke-width:0.5;stroke-linecap:butt;stroke-linejoin:round;stroke-miterlimit:10;stroke-opacity:1;stroke-dasharray:none" /><path
       d="m 150.04194,522.432 0,-4"
       inkscape:connector-curvature="0"
       id="path488"
       style="fill:#000000;fill-opacity:1;fill-rule:nonzero;stroke:#000000;stroke-width:0.5;stroke-linecap:butt;stroke-linejoin:round;stroke-miterlimit:10;stroke-opacity:1;stroke-dasharray:none" /><text
       transform="matrix(0.8660254,0.5,0.5,-0.8660254,102.08069,121.94077)"
       id="text490"><tspan
         x="0 8.4060001 16.205999 21.257999 25.164 32.981998 40.799999 48.618"
         y="0"
         id="tspan492"
         style="font-size:12px;font-variant:normal;font-weight:normal;writing-mode:lr-tb;fill:#000000;fill-opacity:1;fill-rule:nonzero;stroke:none;font-family:DejaVu Sans;-inkscape-font-specification:DejaVuSans">Apr 2012</tspan></text>
<path
       d="m 210.88707,160.812 0,4"
       inkscape:connector-curvature="0"
       id="path494"
       style="fill:#000000;fill-opacity:1;fill-rule:nonzero;stroke:#000000;stroke-width:0.5;stroke-linecap:butt;stroke-linejoin:round;stroke-miterlimit:10;stroke-opacity:1;stroke-dasharray:none" /><path
       d="m 210.88707,522.432 0,-4"
       inkscape:connector-curvature="0"
       id="path496"
       style="fill:#000000;fill-opacity:1;fill-rule:nonzero;stroke:#000000;stroke-width:0.5;stroke-linecap:butt;stroke-linejoin:round;stroke-miterlimit:10;stroke-opacity:1;stroke-dasharray:none" /><text
       transform="matrix(0.8660254,0.5,0.5,-0.8660254,162.93935,121.94858)"
       id="text498"><tspan
         x="0 9.6719999 16.427999 21.246 25.152 32.970001 40.787998 48.605999"
         y="0"
         id="tspan500"
         style="font-size:12px;font-variant:normal;font-weight:normal;writing-mode:lr-tb;fill:#000000;fill-opacity:1;fill-rule:nonzero;stroke:none;font-family:DejaVu Sans;-inkscape-font-specification:DejaVuSans">Oct 2012</tspan></text>
<path
       d="m 271.39971,160.812 0,4"
       inkscape:connector-curvature="0"
       id="path502"
       style="fill:#000000;fill-opacity:1;fill-rule:nonzero;stroke:#000000;stroke-width:0.5;stroke-linecap:butt;stroke-linejoin:round;stroke-miterlimit:10;stroke-opacity:1;stroke-dasharray:none" /><path
       d="m 271.39971,522.432 0,-4"
       inkscape:connector-curvature="0"
       id="path504"
       style="fill:#000000;fill-opacity:1;fill-rule:nonzero;stroke:#000000;stroke-width:0.5;stroke-linecap:butt;stroke-linejoin:round;stroke-miterlimit:10;stroke-opacity:1;stroke-dasharray:none" /><text
       transform="matrix(0.8660254,0.5,0.5,-0.8660254,223.23549,121.82358)"
       id="text506"><tspan
         x="0 8.4060001 16.205999 21.257999 25.164 32.981998 40.799999 48.618"
         y="0"
         id="tspan508"
         style="font-size:12px;font-variant:normal;font-weight:normal;writing-mode:lr-tb;fill:#000000;fill-opacity:1;fill-rule:nonzero;stroke:none;font-family:DejaVu Sans;-inkscape-font-specification:DejaVuSans">Apr 2013</tspan></text>
<path
       d="m 332.24484,160.812 0,4"
       inkscape:connector-curvature="0"
       id="path510"
       style="fill:#000000;fill-opacity:1;fill-rule:nonzero;stroke:#000000;stroke-width:0.5;stroke-linecap:butt;stroke-linejoin:round;stroke-miterlimit:10;stroke-opacity:1;stroke-dasharray:none" /><path
       d="m 332.24484,522.432 0,-4"
       inkscape:connector-curvature="0"
       id="path512"
       style="fill:#000000;fill-opacity:1;fill-rule:nonzero;stroke:#000000;stroke-width:0.5;stroke-linecap:butt;stroke-linejoin:round;stroke-miterlimit:10;stroke-opacity:1;stroke-dasharray:none" /><text
       transform="matrix(0.8660254,0.5,0.5,-0.8660254,284.09415,121.83139)"
       id="text514"><tspan
         x="0 9.6719999 16.427999 21.246 25.152 32.970001 40.787998 48.605999"
         y="0"
         id="tspan516"
         style="font-size:12px;font-variant:normal;font-weight:normal;writing-mode:lr-tb;fill:#000000;fill-opacity:1;fill-rule:nonzero;stroke:none;font-family:DejaVu Sans;-inkscape-font-specification:DejaVuSans">Oct 2013</tspan></text>
<path
       d="m 392.75748,160.812 0,4"
       inkscape:connector-curvature="0"
       id="path518"
       style="fill:#000000;fill-opacity:1;fill-rule:nonzero;stroke:#000000;stroke-width:0.5;stroke-linecap:butt;stroke-linejoin:round;stroke-miterlimit:10;stroke-opacity:1;stroke-dasharray:none" /><path
       d="m 392.75748,522.432 0,-4"
       inkscape:connector-curvature="0"
       id="path520"
       style="fill:#000000;fill-opacity:1;fill-rule:nonzero;stroke:#000000;stroke-width:0.5;stroke-linecap:butt;stroke-linejoin:round;stroke-miterlimit:10;stroke-opacity:1;stroke-dasharray:none" /><text
       transform="matrix(0.8660254,0.5,0.5,-0.8660254,344.33616,121.67514)"
       id="text522"><tspan
         x="0 8.4060001 16.205999 21.257999 25.164 32.981998 40.799999 48.618"
         y="0"
         id="tspan524"
         style="font-size:12px;font-variant:normal;font-weight:normal;writing-mode:lr-tb;fill:#000000;fill-opacity:1;fill-rule:nonzero;stroke:none;font-family:DejaVu Sans;-inkscape-font-specification:DejaVuSans">Apr 2014</tspan></text>
<path
       d="m 453.60261,160.812 0,4"
       inkscape:connector-curvature="0"
       id="path526"
       style="fill:#000000;fill-opacity:1;fill-rule:nonzero;stroke:#000000;stroke-width:0.5;stroke-linecap:butt;stroke-linejoin:round;stroke-miterlimit:10;stroke-opacity:1;stroke-dasharray:none" /><path
       d="m 453.60261,522.432 0,-4"
       inkscape:connector-curvature="0"
       id="path528"
       style="fill:#000000;fill-opacity:1;fill-rule:nonzero;stroke:#000000;stroke-width:0.5;stroke-linecap:butt;stroke-linejoin:round;stroke-miterlimit:10;stroke-opacity:1;stroke-dasharray:none" /><text
       transform="matrix(0.8660254,0.5,0.5,-0.8660254,405.19482,121.68296)"
       id="text530"><tspan
         x="0 9.6719999 16.427999 21.246 25.152 32.970001 40.787998 48.605999"
         y="0"
         id="tspan532"
         style="font-size:12px;font-variant:normal;font-weight:normal;writing-mode:lr-tb;fill:#000000;fill-opacity:1;fill-rule:nonzero;stroke:none;font-family:DejaVu Sans;-inkscape-font-specification:DejaVuSans">Oct 2014</tspan></text>
<path
       d="m 514.11525,160.812 0,4"
       inkscape:connector-curvature="0"
       id="path534"
       style="fill:#000000;fill-opacity:1;fill-rule:nonzero;stroke:#000000;stroke-width:0.5;stroke-linecap:butt;stroke-linejoin:round;stroke-miterlimit:10;stroke-opacity:1;stroke-dasharray:none" /><path
       d="m 514.11525,522.432 0,-4"
       inkscape:connector-curvature="0"
       id="path536"
       style="fill:#000000;fill-opacity:1;fill-rule:nonzero;stroke:#000000;stroke-width:0.5;stroke-linecap:butt;stroke-linejoin:round;stroke-miterlimit:10;stroke-opacity:1;stroke-dasharray:none" /><text
       transform="matrix(0.8660254,0.5,0.5,-0.8660254,466.01869,121.86264)"
       id="text538"><tspan
         x="0 8.4060001 16.205999 21.257999 25.164 32.981998 40.799999 48.618"
         y="0"
         id="tspan540"
         style="font-size:12px;font-variant:normal;font-weight:normal;writing-mode:lr-tb;fill:#000000;fill-opacity:1;fill-rule:nonzero;stroke:none;font-family:DejaVu Sans;-inkscape-font-specification:DejaVuSans">Apr 2015</tspan></text>
<path
       d="m 58.608,160.812 4,0"
       inkscape:connector-curvature="0"
       id="path542"
       style="fill:#000000;fill-opacity:1;fill-rule:nonzero;stroke:#000000;stroke-width:0.5;stroke-linecap:butt;stroke-linejoin:round;stroke-miterlimit:10;stroke-opacity:1;stroke-dasharray:none" /><path
       d="m 571.968,160.812 -4,0"
       inkscape:connector-curvature="0"
       id="path544"
       style="fill:#000000;fill-opacity:1;fill-rule:nonzero;stroke:#000000;stroke-width:0.5;stroke-linecap:butt;stroke-linejoin:round;stroke-miterlimit:10;stroke-opacity:1;stroke-dasharray:none" /><text
       transform="matrix(1,0,0,-1,37.108,157.4995)"
       id="text546"><tspan
         x="0 7.8179998 11.724"
         y="0"
         id="tspan548"
         style="font-size:12px;font-variant:normal;font-weight:normal;writing-mode:lr-tb;fill:#000000;fill-opacity:1;fill-rule:nonzero;stroke:none;font-family:DejaVu Sans;-inkscape-font-specification:DejaVuSans">0.0</tspan></text>
<path
       d="m 58.608,233.136 4,0"
       inkscape:connector-curvature="0"
       id="path550"
       style="fill:#000000;fill-opacity:1;fill-rule:nonzero;stroke:#000000;stroke-width:0.5;stroke-linecap:butt;stroke-linejoin:round;stroke-miterlimit:10;stroke-opacity:1;stroke-dasharray:none" /><path
       d="m 571.968,233.136 -4,0"
       inkscape:connector-curvature="0"
       id="path552"
       style="fill:#000000;fill-opacity:1;fill-rule:nonzero;stroke:#000000;stroke-width:0.5;stroke-linecap:butt;stroke-linejoin:round;stroke-miterlimit:10;stroke-opacity:1;stroke-dasharray:none" /><text
       transform="matrix(1,0,0,-1,37.51425,229.8235)"
       id="text554"><tspan
         x="0 7.8179998 11.724"
         y="0"
         id="tspan556"
         style="font-size:12px;font-variant:normal;font-weight:normal;writing-mode:lr-tb;fill:#000000;fill-opacity:1;fill-rule:nonzero;stroke:none;font-family:DejaVu Sans;-inkscape-font-specification:DejaVuSans">0.2</tspan></text>
<path
       d="m 58.608,305.46 4,0"
       inkscape:connector-curvature="0"
       id="path558"
       style="fill:#000000;fill-opacity:1;fill-rule:nonzero;stroke:#000000;stroke-width:0.5;stroke-linecap:butt;stroke-linejoin:round;stroke-miterlimit:10;stroke-opacity:1;stroke-dasharray:none" /><path
       d="m 571.968,305.46 -4,0"
       inkscape:connector-curvature="0"
       id="path560"
       style="fill:#000000;fill-opacity:1;fill-rule:nonzero;stroke:#000000;stroke-width:0.5;stroke-linecap:butt;stroke-linejoin:round;stroke-miterlimit:10;stroke-opacity:1;stroke-dasharray:none" /><text
       transform="matrix(1,0,0,-1,36.983,302.1475)"
       id="text562"><tspan
         x="0 7.8179998 11.724"
         y="0"
         id="tspan564"
         style="font-size:12px;font-variant:normal;font-weight:normal;writing-mode:lr-tb;fill:#000000;fill-opacity:1;fill-rule:nonzero;stroke:none;font-family:DejaVu Sans;-inkscape-font-specification:DejaVuSans">0.4</tspan></text>
<path
       d="m 58.608,377.784 4,0"
       inkscape:connector-curvature="0"
       id="path566"
       style="fill:#000000;fill-opacity:1;fill-rule:nonzero;stroke:#000000;stroke-width:0.5;stroke-linecap:butt;stroke-linejoin:round;stroke-miterlimit:10;stroke-opacity:1;stroke-dasharray:none" /><path
       d="m 571.968,377.784 -4,0"
       inkscape:connector-curvature="0"
       id="path568"
       style="fill:#000000;fill-opacity:1;fill-rule:nonzero;stroke:#000000;stroke-width:0.5;stroke-linecap:butt;stroke-linejoin:round;stroke-miterlimit:10;stroke-opacity:1;stroke-dasharray:none" /><text
       transform="matrix(1,0,0,-1,37.07675,374.4715)"
       id="text570"><tspan
         x="0 7.8179998 11.724"
         y="0"
         id="tspan572"
         style="font-size:12px;font-variant:normal;font-weight:normal;writing-mode:lr-tb;fill:#000000;fill-opacity:1;fill-rule:nonzero;stroke:none;font-family:DejaVu Sans;-inkscape-font-specification:DejaVuSans">0.6</tspan></text>
<path
       d="m 58.608,450.108 4,0"
       inkscape:connector-curvature="0"
       id="path574"
       style="fill:#000000;fill-opacity:1;fill-rule:nonzero;stroke:#000000;stroke-width:0.5;stroke-linecap:butt;stroke-linejoin:round;stroke-miterlimit:10;stroke-opacity:1;stroke-dasharray:none" /><path
       d="m 571.968,450.108 -4,0"
       inkscape:connector-curvature="0"
       id="path576"
       style="fill:#000000;fill-opacity:1;fill-rule:nonzero;stroke:#000000;stroke-width:0.5;stroke-linecap:butt;stroke-linejoin:round;stroke-miterlimit:10;stroke-opacity:1;stroke-dasharray:none" /><text
       transform="matrix(1,0,0,-1,37.13925,446.7955)"
       id="text578"><tspan
         x="0 7.8179998 11.724"
         y="0"
         id="tspan580"
         style="font-size:12px;font-variant:normal;font-weight:normal;writing-mode:lr-tb;fill:#000000;fill-opacity:1;fill-rule:nonzero;stroke:none;font-family:DejaVu Sans;-inkscape-font-specification:DejaVuSans">0.8</tspan></text>
<path
       d="m 58.608,522.432 4,0"
       inkscape:connector-curvature="0"
       id="path582"
       style="fill:#000000;fill-opacity:1;fill-rule:nonzero;stroke:#000000;stroke-width:0.5;stroke-linecap:butt;stroke-linejoin:round;stroke-miterlimit:10;stroke-opacity:1;stroke-dasharray:none" /><path
       d="m 571.968,522.432 -4,0"
       inkscape:connector-curvature="0"
       id="path584"
       style="fill:#000000;fill-opacity:1;fill-rule:nonzero;stroke:#000000;stroke-width:0.5;stroke-linecap:butt;stroke-linejoin:round;stroke-miterlimit:10;stroke-opacity:1;stroke-dasharray:none" /><text
       transform="matrix(1,0,0,-1,37.623625,519.1195)"
       id="text586"><tspan
         x="0 7.8179998 11.724"
         y="0"
         id="tspan588"
         style="font-size:12px;font-variant:normal;font-weight:normal;writing-mode:lr-tb;fill:#000000;fill-opacity:1;fill-rule:nonzero;stroke:none;font-family:DejaVu Sans;-inkscape-font-specification:DejaVuSans">1.0</tspan></text>
<text
       transform="matrix(0,1,1,0,29.483,311.76263)"
       id="text590"><tspan
         x="0 7.4099998 12.462 19.98 27.780001 35.298 40.349998 45.167999 48.582001 56.099998"
         y="0"
         id="tspan592"
         style="font-size:12px;font-variant:normal;font-weight:normal;writing-mode:lr-tb;fill:#000000;fill-opacity:1;fill-rule:nonzero;stroke:none;font-family:DejaVu Sans;-inkscape-font-specification:DejaVuSans">Proportion</tspan></text>
<path
       d="m 58.608,160.812 513.36,0"
       inkscape:connector-curvature="0"
       id="path594"
       style="fill:none;stroke:#000000;stroke-width:1;stroke-linecap:butt;stroke-linejoin:round;stroke-miterlimit:10;stroke-opacity:1;stroke-dasharray:none" /><path
       d="m 58.608,160.812 0,361.62"
       inkscape:connector-curvature="0"
       id="path596"
       style="fill:none;stroke:#000000;stroke-width:1;stroke-linecap:butt;stroke-linejoin:round;stroke-miterlimit:10;stroke-opacity:1;stroke-dasharray:none" /><path
       d="m 571.968,160.812 0,361.62"
       inkscape:connector-curvature="0"
       id="path598"
       style="fill:none;stroke:#000000;stroke-width:1;stroke-linecap:butt;stroke-linejoin:round;stroke-miterlimit:10;stroke-opacity:1;stroke-dasharray:none" /><path
       d="m 58.608,522.432 513.36,0"
       inkscape:connector-curvature="0"
       id="path600"
       style="fill:none;stroke:#000000;stroke-width:1;stroke-linecap:butt;stroke-linejoin:round;stroke-miterlimit:10;stroke-opacity:1;stroke-dasharray:none" /><text
       transform="matrix(1,0,0,-1,123.663,527.432)"
       id="text602"><tspan
         x="0 7.4099998 12.462 19.98 27.780001 35.298 40.349998 45.167999 48.582001 56.099998 63.888 67.793999 75.311996 79.638 83.543999 91.344002 98.903999 106.176 109.59 116.346 123.906 130.308 134.214 139.26601 147.054 154.842 162.63 166.04401 173.832 181.632 185.53799 193.338 196.752 201.078 205.40401 212.964 218.01601 225.576 233.364 238.18201 242.088 250.494 257.90399 261.52802 265.43399 272.70599 280.26599 285.31799 291.72 295.134 302.65201 310.44 316.84201 320.74799 328.30801 335.83801 342.59399 350.38199 354.28799 366.258 373.776 381.564 386.38199"
         y="0"
         id="tspan604"
         style="font-size:12px;font-variant:normal;font-weight:normal;writing-mode:lr-tb;fill:#000000;fill-opacity:1;fill-rule:nonzero;stroke:none;font-family:DejaVu Sans;-inkscape-font-specification:DejaVuSans">Proportion of devices running different API versions each month</tspan></text>
<path
       d="m 81.5755,60.129767 467.425,0 0,56.475003 -467.425,0 0,-56.475003 z"
       inkscape:connector-curvature="0"
       id="path606"
       style="fill:#ffffff;fill-opacity:1;fill-rule:nonzero;stroke:#000000;stroke-width:1;stroke-linecap:butt;stroke-linejoin:round;stroke-miterlimit:10;stroke-opacity:1;stroke-dasharray:none" /><path
       d="m 86.3755,102.67977 24,0 0,8.4 -24,0 0,-8.4 z"
       inkscape:connector-curvature="0"
       id="path608"
       style="fill:#000080;fill-opacity:1;fill-rule:nonzero;stroke:#000000;stroke-width:1;stroke-linecap:butt;stroke-linejoin:round;stroke-miterlimit:10;stroke-opacity:1;stroke-dasharray:none" /><text
       transform="matrix(1,0,0,-1,119.9755,102.67977)"
       id="text610"><tspan
         x="0"
         y="0"
         id="tspan612"
         style="font-size:12px;font-variant:normal;font-weight:normal;writing-mode:lr-tb;fill:#000000;fill-opacity:1;fill-rule:nonzero;stroke:none;font-family:DejaVu Sans;-inkscape-font-specification:DejaVuSans">2</tspan></text>
<path
       d="m 86.3755,85.054767 24,0 0,8.4 -24,0 0,-8.4 z"
       inkscape:connector-curvature="0"
       id="path614"
       style="fill:#0024ca;fill-opacity:1;fill-rule:nonzero;stroke:#000000;stroke-width:1;stroke-linecap:butt;stroke-linejoin:round;stroke-miterlimit:10;stroke-opacity:1;stroke-dasharray:none" /><text
       transform="matrix(1,0,0,-1,119.9755,85.054767)"
       id="text616"><tspan
         x="0"
         y="0"
         id="tspan618"
         style="font-size:12px;font-variant:normal;font-weight:normal;writing-mode:lr-tb;fill:#000000;fill-opacity:1;fill-rule:nonzero;stroke:none;font-family:DejaVu Sans;-inkscape-font-specification:DejaVuSans">3</tspan></text>
<path
       d="m 86.3755,67.429767 24,0 0,8.4 -24,0 0,-8.4 z"
       inkscape:connector-curvature="0"
       id="path620"
       style="fill:#0051ff;fill-opacity:1;fill-rule:nonzero;stroke:#000000;stroke-width:1;stroke-linecap:butt;stroke-linejoin:round;stroke-miterlimit:10;stroke-opacity:1;stroke-dasharray:none" /><text
       transform="matrix(1,0,0,-1,119.9755,67.429767)"
       id="text622"><tspan
         x="0"
         y="0"
         id="tspan624"
         style="font-size:12px;font-variant:normal;font-weight:normal;writing-mode:lr-tb;fill:#000000;fill-opacity:1;fill-rule:nonzero;stroke:none;font-family:DejaVu Sans;-inkscape-font-specification:DejaVuSans">4</tspan></text>
<path
       d="m 150.3505,102.67977 24,0 0,8.4 -24,0 0,-8.4 z"
       inkscape:connector-curvature="0"
       id="path626"
       style="fill:#0081ff;fill-opacity:1;fill-rule:nonzero;stroke:#000000;stroke-width:1;stroke-linecap:butt;stroke-linejoin:round;stroke-miterlimit:10;stroke-opacity:1;stroke-dasharray:none" /><text
       transform="matrix(1,0,0,-1,183.9505,102.67977)"
       id="text628"><tspan
         x="0"
         y="0"
         id="tspan630"
         style="font-size:12px;font-variant:normal;font-weight:normal;writing-mode:lr-tb;fill:#000000;fill-opacity:1;fill-rule:nonzero;stroke:none;font-family:DejaVu Sans;-inkscape-font-specification:DejaVuSans">5</tspan></text>
<path
       d="m 150.3505,85.054767 24,0 0,8.4 -24,0 0,-8.4 z"
       inkscape:connector-curvature="0"
       id="path632"
       style="fill:#00aeff;fill-opacity:1;fill-rule:nonzero;stroke:#000000;stroke-width:1;stroke-linecap:butt;stroke-linejoin:round;stroke-miterlimit:10;stroke-opacity:1;stroke-dasharray:none" /><text
       transform="matrix(1,0,0,-1,183.9505,85.054767)"
       id="text634"><tspan
         x="0"
         y="0"
         id="tspan636"
         style="font-size:12px;font-variant:normal;font-weight:normal;writing-mode:lr-tb;fill:#000000;fill-opacity:1;fill-rule:nonzero;stroke:none;font-family:DejaVu Sans;-inkscape-font-specification:DejaVuSans">6</tspan></text>
<path
       d="m 150.3505,67.429767 24,0 0,8.4 -24,0 0,-8.4 z"
       inkscape:connector-curvature="0"
       id="path638"
       style="fill:#00deff;fill-opacity:1;fill-rule:nonzero;stroke:#000000;stroke-width:1;stroke-linecap:butt;stroke-linejoin:round;stroke-miterlimit:10;stroke-opacity:1;stroke-dasharray:none" /><text
       transform="matrix(1,0,0,-1,183.9505,67.429767)"
       id="text640"><tspan
         x="0"
         y="0"
         id="tspan642"
         style="font-size:12px;font-variant:normal;font-weight:normal;writing-mode:lr-tb;fill:#000000;fill-opacity:1;fill-rule:nonzero;stroke:none;font-family:DejaVu Sans;-inkscape-font-specification:DejaVuSans">7</tspan></text>
<path
       d="m 213.98175,102.67977 24,0 0,8.4 -24,0 0,-8.4 z"
       inkscape:connector-curvature="0"
       id="path644"
       style="fill:#23ffd2;fill-opacity:1;fill-rule:nonzero;stroke:#000000;stroke-width:1;stroke-linecap:butt;stroke-linejoin:round;stroke-miterlimit:10;stroke-opacity:1;stroke-dasharray:none" /><text
       transform="matrix(1,0,0,-1,247.58175,102.67977)"
       id="text646"><tspan
         x="0"
         y="0"
         id="tspan648"
         style="font-size:12px;font-variant:normal;font-weight:normal;writing-mode:lr-tb;fill:#000000;fill-opacity:1;fill-rule:nonzero;stroke:none;font-family:DejaVu Sans;-inkscape-font-specification:DejaVuSans">8</tspan></text>
<path
       d="m 213.98175,85.054767 24,0 0,8.4 -24,0 0,-8.4 z"
       inkscape:connector-curvature="0"
       id="path650"
       style="fill:#5cff9a;fill-opacity:1;fill-rule:nonzero;stroke:#000000;stroke-width:1;stroke-linecap:butt;stroke-linejoin:round;stroke-miterlimit:10;stroke-opacity:1;stroke-dasharray:none" /><text
       transform="matrix(1,0,0,-1,247.58175,85.054767)"
       id="text652"><tspan
         x="0"
         y="0"
         id="tspan654"
         style="font-size:12px;font-variant:normal;font-weight:normal;writing-mode:lr-tb;fill:#000000;fill-opacity:1;fill-rule:nonzero;stroke:none;font-family:DejaVu Sans;-inkscape-font-specification:DejaVuSans">9</tspan></text>
<path
       d="m 213.98175,67.429767 24,0 0,8.4 -24,0 0,-8.4 z"
       inkscape:connector-curvature="0"
       id="path656"
       style="fill:#91ff66;fill-opacity:1;fill-rule:nonzero;stroke:#000000;stroke-width:1;stroke-linecap:butt;stroke-linejoin:round;stroke-miterlimit:10;stroke-opacity:1;stroke-dasharray:none" /><text
       transform="matrix(1,0,0,-1,247.58175,67.429767)"
       id="text658"><tspan
         x="0 7.8179998"
         y="0"
         id="tspan660"
         style="font-size:12px;font-variant:normal;font-weight:normal;writing-mode:lr-tb;fill:#000000;fill-opacity:1;fill-rule:nonzero;stroke:none;font-family:DejaVu Sans;-inkscape-font-specification:DejaVuSans">10</tspan></text>
<path
       d="m 284.75362,102.67977 24,0 0,8.4 -24,0 0,-8.4 z"
       inkscape:connector-curvature="0"
       id="path662"
       style="fill:#c9ff2e;fill-opacity:1;fill-rule:nonzero;stroke:#000000;stroke-width:1;stroke-linecap:butt;stroke-linejoin:round;stroke-miterlimit:10;stroke-opacity:1;stroke-dasharray:none" /><text
       transform="matrix(1,0,0,-1,318.35363,102.67977)"
       id="text664"><tspan
         x="0 7.8179998"
         y="0"
         id="tspan666"
         style="font-size:12px;font-variant:normal;font-weight:normal;writing-mode:lr-tb;fill:#000000;fill-opacity:1;fill-rule:nonzero;stroke:none;font-family:DejaVu Sans;-inkscape-font-specification:DejaVuSans">11</tspan></text>
<path
       d="m 284.75362,85.054767 24,0 0,8.4 -24,0 0,-8.4 z"
       inkscape:connector-curvature="0"
       id="path668"
       style="fill:#feed00;fill-opacity:1;fill-rule:nonzero;stroke:#000000;stroke-width:1;stroke-linecap:butt;stroke-linejoin:round;stroke-miterlimit:10;stroke-opacity:1;stroke-dasharray:none" /><text
       transform="matrix(1,0,0,-1,318.35363,85.054767)"
       id="text670"><tspan
         x="0 7.8179998"
         y="0"
         id="tspan672"
         style="font-size:12px;font-variant:normal;font-weight:normal;writing-mode:lr-tb;fill:#000000;fill-opacity:1;fill-rule:nonzero;stroke:none;font-family:DejaVu Sans;-inkscape-font-specification:DejaVuSans">12</tspan></text>
<path
       d="m 284.75362,67.429767 24,0 0,8.4 -24,0 0,-8.4 z"
       inkscape:connector-curvature="0"
       id="path674"
       style="fill:#ffac00;fill-opacity:1;fill-rule:nonzero;stroke:#000000;stroke-width:1;stroke-linecap:butt;stroke-linejoin:round;stroke-miterlimit:10;stroke-opacity:1;stroke-dasharray:none" /><text
       transform="matrix(1,0,0,-1,318.35363,67.429767)"
       id="text676"><tspan
         x="0 7.8179998"
         y="0"
         id="tspan678"
         style="font-size:12px;font-variant:normal;font-weight:normal;writing-mode:lr-tb;fill:#000000;fill-opacity:1;fill-rule:nonzero;stroke:none;font-family:DejaVu Sans;-inkscape-font-specification:DejaVuSans">13</tspan></text>
<path
       d="m 355.35363,102.67977 24,0 0,8.4 -24,0 0,-8.4 z"
       inkscape:connector-curvature="0"
       id="path680"
       style="fill:#ff7000;fill-opacity:1;fill-rule:nonzero;stroke:#000000;stroke-width:1;stroke-linecap:butt;stroke-linejoin:round;stroke-miterlimit:10;stroke-opacity:1;stroke-dasharray:none" /><text
       transform="matrix(1,0,0,-1,388.95362,102.67977)"
       id="text682"><tspan
         x="0 7.8179998"
         y="0"
         id="tspan684"
         style="font-size:12px;font-variant:normal;font-weight:normal;writing-mode:lr-tb;fill:#000000;fill-opacity:1;fill-rule:nonzero;stroke:none;font-family:DejaVu Sans;-inkscape-font-specification:DejaVuSans">14</tspan></text>
<path
       d="m 355.35363,85.054767 24,0 0,8.4 -24,0 0,-8.4 z"
       inkscape:connector-curvature="0"
       id="path686"
       style="fill:#ff2f00;fill-opacity:1;fill-rule:nonzero;stroke:#000000;stroke-width:1;stroke-linecap:butt;stroke-linejoin:round;stroke-miterlimit:10;stroke-opacity:1;stroke-dasharray:none" /><text
       transform="matrix(1,0,0,-1,388.95362,85.054767)"
       id="text688"><tspan
         x="0 7.8179998"
         y="0"
         id="tspan690"
         style="font-size:12px;font-variant:normal;font-weight:normal;writing-mode:lr-tb;fill:#000000;fill-opacity:1;fill-rule:nonzero;stroke:none;font-family:DejaVu Sans;-inkscape-font-specification:DejaVuSans">15</tspan></text>
<path
       d="m 355.35363,67.429767 24,0 0,8.4 -24,0 0,-8.4 z"
       inkscape:connector-curvature="0"
       id="path692"
       style="fill:#d80000;fill-opacity:1;fill-rule:nonzero;stroke:#000000;stroke-width:1;stroke-linecap:butt;stroke-linejoin:round;stroke-miterlimit:10;stroke-opacity:1;stroke-dasharray:none" /><text
       transform="matrix(1,0,0,-1,388.95362,67.429767)"
       id="text694"><tspan
         x="0 7.8179998"
         y="0"
         id="tspan696"
         style="font-size:12px;font-variant:normal;font-weight:normal;writing-mode:lr-tb;fill:#000000;fill-opacity:1;fill-rule:nonzero;stroke:none;font-family:DejaVu Sans;-inkscape-font-specification:DejaVuSans">16</tspan></text>
<path
       d="m 426.2505,102.67977 24,0 0,8.4 -24,0 0,-8.4 z"
       inkscape:connector-curvature="0"
       id="path698"
       style="fill:#8b0000;fill-opacity:1;fill-rule:nonzero;stroke:#000000;stroke-width:1;stroke-linecap:butt;stroke-linejoin:round;stroke-miterlimit:10;stroke-opacity:1;stroke-dasharray:none" /><text
       transform="matrix(1,0,0,-1,459.8505,102.67977)"
       id="text700"><tspan
         x="0 7.8179998"
         y="0"
         id="tspan702"
         style="font-size:12px;font-variant:normal;font-weight:normal;writing-mode:lr-tb;fill:#000000;fill-opacity:1;fill-rule:nonzero;stroke:none;font-family:DejaVu Sans;-inkscape-font-specification:DejaVuSans">17</tspan></text>
<path
       d="m 426.2505,85.054767 24,0 0,8.4 -24,0 0,-8.4 z"
       inkscape:connector-curvature="0"
       id="path704"
       style="fill:#80006e;fill-opacity:1;fill-rule:nonzero;stroke:#000000;stroke-width:1;stroke-linecap:butt;stroke-linejoin:round;stroke-miterlimit:10;stroke-opacity:1;stroke-dasharray:none" /><text
       transform="matrix(1,0,0,-1,459.8505,85.054767)"
       id="text706"><tspan
         x="0 7.8179998"
         y="0"
         id="tspan708"
         style="font-size:12px;font-variant:normal;font-weight:normal;writing-mode:lr-tb;fill:#000000;fill-opacity:1;fill-rule:nonzero;stroke:none;font-family:DejaVu Sans;-inkscape-font-specification:DejaVuSans">18</tspan></text>
<path
       d="m 426.2505,67.429767 24,0 0,8.4 -24,0 0,-8.4 z"
       inkscape:connector-curvature="0"
       id="path710"
       style="fill:#c49ac4;fill-opacity:1;fill-rule:nonzero;stroke:#000000;stroke-width:1;stroke-linecap:butt;stroke-linejoin:round;stroke-miterlimit:10;stroke-opacity:1;stroke-dasharray:none" /><text
       transform="matrix(1,0,0,-1,459.8505,67.429767)"
       id="text712"><tspan
         x="0 7.8179998"
         y="0"
         id="tspan714"
         style="font-size:12px;font-variant:normal;font-weight:normal;writing-mode:lr-tb;fill:#000000;fill-opacity:1;fill-rule:nonzero;stroke:none;font-family:DejaVu Sans;-inkscape-font-specification:DejaVuSans">19</tspan></text>
<path
       d="m 496.99112,102.67977 24,0 0,8.4 -24,0 0,-8.4 z"
       inkscape:connector-curvature="0"
       id="path716"
       style="fill:#fe1792;fill-opacity:1;fill-rule:nonzero;stroke:#000000;stroke-width:1;stroke-linecap:butt;stroke-linejoin:round;stroke-miterlimit:10;stroke-opacity:1;stroke-dasharray:none" /><text
       transform="matrix(1,0,0,-1,530.59112,102.67977)"
       id="text718"><tspan
         x="0 7.8179998"
         y="0"
         id="tspan720"
         style="font-size:12px;font-variant:normal;font-weight:normal;writing-mode:lr-tb;fill:#000000;fill-opacity:1;fill-rule:nonzero;stroke:none;font-family:DejaVu Sans;-inkscape-font-specification:DejaVuSans">20</tspan></text>
<path
       d="m 496.99112,85.054767 24,0 0,8.4 -24,0 0,-8.4 z"
       inkscape:connector-curvature="0"
       id="path722"
       style="fill:#008080;fill-opacity:1;fill-rule:nonzero;stroke:#000000;stroke-width:1;stroke-linecap:butt;stroke-linejoin:round;stroke-miterlimit:10;stroke-opacity:1;stroke-dasharray:none" /><text
       transform="matrix(1,0,0,-1,530.59112,85.054767)"
       id="text724"><tspan
         x="0 7.8179998"
         y="0"
         id="tspan726"
         style="font-size:12px;font-variant:normal;font-weight:normal;writing-mode:lr-tb;fill:#000000;fill-opacity:1;fill-rule:nonzero;stroke:none;font-family:DejaVu Sans;-inkscape-font-specification:DejaVuSans">21</tspan></text>
<path
       d="m 496.99112,67.429767 24,0 0,8.4 -24,0 0,-8.4 z"
       inkscape:connector-curvature="0"
       id="path728"
       style="fill:#000080;fill-opacity:1;fill-rule:nonzero;stroke:#000000;stroke-width:1;stroke-linecap:butt;stroke-linejoin:round;stroke-miterlimit:10;stroke-opacity:1;stroke-dasharray:none" /><text
       transform="matrix(1,0,0,-1,530.59112,67.429767)"
       id="text730"><tspan
         x="0 7.8179998"
         y="0"
         id="tspan732"
         style="font-size:12px;font-variant:normal;font-weight:normal;writing-mode:lr-tb;fill:#000000;fill-opacity:1;fill-rule:nonzero;stroke:none;font-family:DejaVu Sans;-inkscape-font-specification:DejaVuSans">22</tspan></text>
</g></svg>