<?xml version="1.0" encoding="UTF-8" standalone="no"?>
<svg
   xmlns:dc="http://purl.org/dc/elements/1.1/"
   xmlns:cc="http://creativecommons.org/ns#"
   xmlns:rdf="http://www.w3.org/1999/02/22-rdf-syntax-ns#"
   xmlns:svg="http://www.w3.org/2000/svg"
   xmlns="http://www.w3.org/2000/svg"
   xmlns:sodipodi="http://sodipodi.sourceforge.net/DTD/sodipodi-0.dtd"
   xmlns:inkscape="http://www.inkscape.org/namespaces/inkscape"
   viewBox="0 0 700 500"
   height="500"
   width="700"
   xml:space="preserve"
   version="1.1"
   id="svg2"
   inkscape:version="0.91 r13725"
   sodipodi:docname="googleplayapi_single_manual.svg"><sodipodi:namedview
     pagecolor="#ffffff"
     bordercolor="#666666"
     borderopacity="1"
     objecttolerance="10"
     gridtolerance="10"
     guidetolerance="10"
     inkscape:pageopacity="0"
     inkscape:pageshadow="2"
     inkscape:window-width="1274"
     inkscape:window-height="1417"
     id="namedview385"
     showgrid="false"
     inkscape:zoom="0.92709555"
     inkscape:cx="349.73139"
     inkscape:cy="360"
     inkscape:window-x="1280"
     inkscape:window-y="17"
     inkscape:window-maximized="0"
     inkscape:current-layer="g4473" /><metadata
     id="metadata8"><rdf:RDF><cc:Work
         rdf:about=""><dc:format>image/svg+xml</dc:format><dc:type
           rdf:resource="http://purl.org/dc/dcmitype/StillImage" /><dc:title /></cc:Work></rdf:RDF></metadata><defs
     id="defs6"><clipPath
       id="clipPath22"
       clipPathUnits="userSpaceOnUse"><path
         id="path24"
         d="m 58.608,173.832 513.36,0 0,348.6 -513.36,0 0,-348.6 z"
         inkscape:connector-curvature="0" /></clipPath><clipPath
       id="clipPath32"
       clipPathUnits="userSpaceOnUse"><path
         id="path34"
         d="m -111.02044,172.832 690.56615,0 0,3.0458 -690.56615,0 0,-3.0458 z"
         inkscape:connector-curvature="0" /></clipPath><clipPath
       id="clipPath44"
       clipPathUnits="userSpaceOnUse"><path
         id="path46"
         d="m 58.608,173.832 513.36,0 0,348.6 -513.36,0 0,-348.6 z"
         inkscape:connector-curvature="0" /></clipPath><clipPath
       id="clipPath54"
       clipPathUnits="userSpaceOnUse"><path
         id="path56"
         d="m -111.02044,172.832 690.56615,0 0,134.8166 -690.56615,0 0,-134.8166 z"
         inkscape:connector-curvature="0" /></clipPath><clipPath
       id="clipPath66"
       clipPathUnits="userSpaceOnUse"><path
         id="path68"
         d="m 58.608,173.832 513.36,0 0,348.6 -513.36,0 0,-348.6 z"
         inkscape:connector-curvature="0" /></clipPath><clipPath
       id="clipPath76"
       clipPathUnits="userSpaceOnUse"><path
         id="path78"
         d="m -111.02044,172.832 690.56615,0 0,288.5492 -690.56615,0 0,-288.5492 z"
         inkscape:connector-curvature="0" /></clipPath><clipPath
       id="clipPath88"
       clipPathUnits="userSpaceOnUse"><path
         id="path90"
         d="m 58.608,173.832 513.36,0 0,348.6 -513.36,0 0,-348.6 z"
         inkscape:connector-curvature="0" /></clipPath><clipPath
       id="clipPath98"
       clipPathUnits="userSpaceOnUse"><path
         id="path100"
         d="m -111.02044,172.832 690.56615,0 0,298.6586 -690.56615,0 0,-298.6586 z"
         inkscape:connector-curvature="0" /></clipPath><clipPath
       id="clipPath110"
       clipPathUnits="userSpaceOnUse"><path
         id="path112"
         d="m 58.608,173.832 513.36,0 0,348.6 -513.36,0 0,-348.6 z"
         inkscape:connector-curvature="0" /></clipPath><clipPath
       id="clipPath120"
       clipPathUnits="userSpaceOnUse"><path
         id="path122"
         d="m -111.02044,172.832 690.56615,0 0,350.6 -690.56615,0 0,-350.6 z"
         inkscape:connector-curvature="0" /></clipPath><clipPath
       id="clipPath132"
       clipPathUnits="userSpaceOnUse"><path
         id="path134"
         d="m 58.608,173.832 513.36,0 0,348.6 -513.36,0 0,-348.6 z"
         inkscape:connector-curvature="0" /></clipPath><clipPath
       id="clipPath142"
       clipPathUnits="userSpaceOnUse"><path
         id="path144"
         d="m -111.02044,172.832 690.56615,0 0,350.9486 -690.56615,0 0,-350.9486 z"
         inkscape:connector-curvature="0" /></clipPath><clipPath
       id="clipPath154"
       clipPathUnits="userSpaceOnUse"><path
         id="path156"
         d="m 58.608,173.832 513.36,0 0,348.6 -513.36,0 0,-348.6 z"
         inkscape:connector-curvature="0" /></clipPath><clipPath
       id="clipPath164"
       clipPathUnits="userSpaceOnUse"><path
         id="path166"
         d="m -111.02044,172.832 690.56615,0 0,350.9486 -690.56615,0 0,-350.9486 z"
         inkscape:connector-curvature="0" /></clipPath><clipPath
       id="clipPath176"
       clipPathUnits="userSpaceOnUse"><path
         id="path178"
         d="m 58.608,173.832 513.36,0 0,348.6 -513.36,0 0,-348.6 z"
         inkscape:connector-curvature="0" /></clipPath><clipPath
       id="clipPath186"
       clipPathUnits="userSpaceOnUse"><path
         id="path188"
         d="m -111.02044,173.1806 690.56615,0 0,350.6 -690.56615,0 0,-350.6 z"
         inkscape:connector-curvature="0" /></clipPath><clipPath
       id="clipPath198"
       clipPathUnits="userSpaceOnUse"><path
         id="path200"
         d="m 58.608,173.832 513.36,0 0,348.6 -513.36,0 0,-348.6 z"
         inkscape:connector-curvature="0" /></clipPath><clipPath
       id="clipPath208"
       clipPathUnits="userSpaceOnUse"><path
         id="path210"
         d="m -111.02044,173.1806 690.56615,0 0,350.6 -690.56615,0 0,-350.6 z"
         inkscape:connector-curvature="0" /></clipPath><clipPath
       id="clipPath220"
       clipPathUnits="userSpaceOnUse"><path
         id="path222"
         d="m 58.608,173.832 513.36,0 0,348.6 -513.36,0 0,-348.6 z"
         inkscape:connector-curvature="0" /></clipPath><clipPath
       id="clipPath230"
       clipPathUnits="userSpaceOnUse"><path
         id="path232"
         d="m -111.02044,182.2442 690.56615,0 0,341.5364 -690.56615,0 0,-341.5364 z"
         inkscape:connector-curvature="0" /></clipPath><clipPath
       id="clipPath242"
       clipPathUnits="userSpaceOnUse"><path
         id="path244"
         d="m 58.608,173.832 513.36,0 0,348.6 -513.36,0 0,-348.6 z"
         inkscape:connector-curvature="0" /></clipPath><clipPath
       id="clipPath252"
       clipPathUnits="userSpaceOnUse"><path
         id="path254"
         d="m -111.02044,182.2442 690.56615,0 0,341.5364 -690.56615,0 0,-341.5364 z"
         inkscape:connector-curvature="0" /></clipPath><clipPath
       id="clipPath264"
       clipPathUnits="userSpaceOnUse"><path
         id="path266"
         d="m 58.608,173.832 513.36,0 0,348.6 -513.36,0 0,-348.6 z"
         inkscape:connector-curvature="0" /></clipPath><clipPath
       id="clipPath274"
       clipPathUnits="userSpaceOnUse"><path
         id="path276"
         d="m -111.02044,182.2442 690.56615,0 0,341.5364 -690.56615,0 0,-341.5364 z"
         inkscape:connector-curvature="0" /></clipPath><clipPath
       id="clipPath286"
       clipPathUnits="userSpaceOnUse"><path
         id="path288"
         d="m 58.608,173.832 513.36,0 0,348.6 -513.36,0 0,-348.6 z"
         inkscape:connector-curvature="0" /></clipPath><clipPath
       id="clipPath296"
       clipPathUnits="userSpaceOnUse"><path
         id="path298"
         d="m -111.02044,182.2442 690.56615,0 0,341.5364 -690.56615,0 0,-341.5364 z"
         inkscape:connector-curvature="0" /></clipPath><clipPath
       id="clipPath308"
       clipPathUnits="userSpaceOnUse"><path
         id="path310"
         d="m 58.608,173.832 513.36,0 0,348.6 -513.36,0 0,-348.6 z"
         inkscape:connector-curvature="0" /></clipPath><clipPath
       id="clipPath318"
       clipPathUnits="userSpaceOnUse"><path
         id="path320"
         d="m -111.02044,182.2442 690.56615,0 0,341.5364 -690.56615,0 0,-341.5364 z"
         inkscape:connector-curvature="0" /></clipPath><clipPath
       id="clipPath330"
       clipPathUnits="userSpaceOnUse"><path
         id="path332"
         d="m 58.608,173.832 513.36,0 0,348.6 -513.36,0 0,-348.6 z"
         inkscape:connector-curvature="0" /></clipPath><clipPath
       id="clipPath340"
       clipPathUnits="userSpaceOnUse"><path
         id="path342"
         d="m -111.02044,189.9134 690.56615,0 0,333.8672 -690.56615,0 0,-333.8672 z"
         inkscape:connector-curvature="0" /></clipPath><clipPath
       id="clipPath352"
       clipPathUnits="userSpaceOnUse"><path
         id="path354"
         d="m 58.608,173.832 513.36,0 0,348.6 -513.36,0 0,-348.6 z"
         inkscape:connector-curvature="0" /></clipPath><clipPath
       id="clipPath362"
       clipPathUnits="userSpaceOnUse"><path
         id="path364"
         d="m -111.02044,217.1042 690.56615,0 0,306.6764 -690.56615,0 0,-306.6764 z"
         inkscape:connector-curvature="0" /></clipPath><clipPath
       id="clipPath374"
       clipPathUnits="userSpaceOnUse"><path
         id="path376"
         d="m 58.608,173.832 513.36,0 0,348.6 -513.36,0 0,-348.6 z"
         inkscape:connector-curvature="0" /></clipPath><clipPath
       id="clipPath384"
       clipPathUnits="userSpaceOnUse"><path
         id="path386"
         d="m -111.02044,253.7072 690.56615,0 0,270.0734 -690.56615,0 0,-270.0734 z"
         inkscape:connector-curvature="0" /></clipPath><clipPath
       id="clipPath396"
       clipPathUnits="userSpaceOnUse"><path
         id="path398"
         d="m 58.608,173.832 513.36,0 0,348.6 -513.36,0 0,-348.6 z"
         inkscape:connector-curvature="0" /></clipPath><clipPath
       id="clipPath406"
       clipPathUnits="userSpaceOnUse"><path
         id="path408"
         d="m -111.02044,264.1652 690.56615,0 0,259.6154 -690.56615,0 0,-259.6154 z"
         inkscape:connector-curvature="0" /></clipPath><clipPath
       id="clipPath418"
       clipPathUnits="userSpaceOnUse"><path
         id="path420"
         d="m 58.608,173.832 513.36,0 0,348.6 -513.36,0 0,-348.6 z"
         inkscape:connector-curvature="0" /></clipPath><clipPath
       id="clipPath428"
       clipPathUnits="userSpaceOnUse"><path
         id="path430"
         d="m -111.02044,380.5976 690.56615,0 0,143.183 -690.56615,0 0,-143.183 z"
         inkscape:connector-curvature="0" /></clipPath><clipPath
       id="clipPath440"
       clipPathUnits="userSpaceOnUse"><path
         id="path442"
         d="m 58.608,173.832 513.36,0 0,348.6 -513.36,0 0,-348.6 z"
         inkscape:connector-curvature="0" /></clipPath><clipPath
       id="clipPath450"
       clipPathUnits="userSpaceOnUse"><path
         id="path452"
         d="m -111.02044,380.5976 690.56615,0 0,143.183 -690.56615,0 0,-143.183 z"
         inkscape:connector-curvature="0" /></clipPath><clipPath
       id="clipPath462"
       clipPathUnits="userSpaceOnUse"><path
         id="path464"
         d="m 58.608,173.832 513.36,0 0,348.6 -513.36,0 0,-348.6 z"
         inkscape:connector-curvature="0" /></clipPath><clipPath
       id="clipPath472"
       clipPathUnits="userSpaceOnUse"><path
         id="path474"
         d="m -111.02044,437.768 690.56615,0 0,88.1042 -690.56615,0 0,-88.1042 z"
         inkscape:connector-curvature="0" /></clipPath><clipPath
       id="clipPath484"
       clipPathUnits="userSpaceOnUse"><path
         id="path486"
         d="m 58.608,173.832 513.36,0 0,348.6 -513.36,0 0,-348.6 z"
         inkscape:connector-curvature="0" /></clipPath><clipPath
       id="clipPath494"
       clipPathUnits="userSpaceOnUse"><path
         id="path496"
         d="m -111.02044,505.3964 690.56615,0 0,20.4758 -690.56615,0 0,-20.4758 z"
         inkscape:connector-curvature="0" /></clipPath></defs><path
     inkscape:connector-curvature="0"
     d="m 57.243051,446.69305 641.699999,0 0,-435.75 -641.699999,0 0,435.75 z"
     style="fill:#ffffff;fill-opacity:1;fill-rule:nonzero;stroke:none"
     id="path14" /><g
     id="g16"
     transform="matrix(1.25,0,0,-1.25,0,500)" /><g
     id="g18"
     transform="matrix(1.25,0,0,-1.25,-16.016949,663.98305)"><g
       id="g20"
       clip-path="url(#clipPath22)"><g
         id="g26"><g
           id="g28"><g
             id="g30"
             clip-path="url(#clipPath32)"><path
               inkscape:connector-curvature="0"
               d="m -110.02044,174.8778 0,-1.0458 6.27871,0 29.300691,0 6.278719,0 4.185812,0 8.969598,0 4.484799,0 9.567572,0 8.969598,0 8.969598,0 9.268585,0 8.9695978,0 10.1655446,0 8.6706116,0 12.258451,0 5.082772,0 9.268585,0 8.969598,0 10.165544,0 8.072639,0 9.567571,0 9.268585,0 9.268585,0 8.371624,0 9.86656,0 8.67061,0 9.86656,0 8.37162,0 8.67061,0 9.26859,0 9.26858,0 8.9696,0 10.16555,0 8.07263,0 9.26859,0 9.56757,0 9.26859,0 9.56757,0 8.37162,0 8.67061,0 8.67062,0 9.86655,0 10.46453,0 7.17568,0 10.16555,0 8.37162,0 8.9696,0 9.26859,0 11.0625,0 8.07264,0 8.07264,0 8.67061,0 8.9696,0 10.16554,0 9.86656,0 10.76352,0 8.37162,0 16.44426,0 8.37163,0 10.46453,0 8.37163,0 8.37162,0 10.46453,0 8.37163,0 8.37162,0 18.83616,0 10.46453,0 8.37162,0 8.37163,0 10.46453,0 8.37162,0 8.37163,0 10.46453,0 8.37163,0 0,0 0,0 -8.37163,0 -10.46453,0 -8.37163,0 -8.37162,0 -10.46453,0 -8.37163,0 -8.37162,0 -10.46453,0 -18.83616,0 -8.37162,0 -8.37163,0 -10.46453,0 -8.37162,0 -8.37163,0 -10.46453,0 -8.37163,0 -16.44426,0 -8.37162,0 -10.76352,0 -9.86656,0 -10.16554,0 -8.9696,0 -8.67061,0 -8.07264,0 -8.07264,0 -11.0625,0 -9.26859,0 -8.9696,0 -8.37162,0 -10.16555,0 -7.17568,0 -10.46453,0 -9.86655,0 -8.67062,0 -8.67061,0 -8.37162,0 -9.56757,0 -9.26859,0 -9.56757,0 -9.26859,0 -8.07263,0 -10.16555,0 -8.9696,0 -9.26858,0 -9.26859,0 -8.67061,0 -8.37162,0 -9.86656,0 -8.67061,0 -9.86656,0 -8.371624,0 -9.268585,0 -9.268585,0 -9.567571,0 -8.072639,0 -10.165544,0 -8.969598,0 -9.268585,0 -5.082772,0 -12.258451,0 -8.6706116,0 -10.1655446,0 -8.9695978,0 -9.268585,0 -8.969598,0 -8.969598,0 -9.567572,0 -4.484799,0.3486 -8.969598,0 -4.185812,0 -6.278719,0 -29.300691,0.6972 -6.27871,0 z"
               style="fill:#000080;fill-opacity:1;fill-rule:nonzero;stroke:none"
               id="path36" /></g></g></g></g></g><g
     id="g38"
     transform="matrix(1.25,0,0,-1.25,0,500)" /><g
     id="g40"
     transform="matrix(1.25,0,0,-1.25,-16.016949,663.98305)"><g
       id="g42"
       clip-path="url(#clipPath44)"><g
         id="g48"><g
           id="g50"><g
             id="g52"
             clip-path="url(#clipPath54)"><path
               inkscape:connector-curvature="0"
               d="m -110.02044,271.44 0,-96.5622 6.27871,0 29.300691,-0.6972 6.278719,0 4.185812,0 8.969598,0 4.484799,-0.3486 9.567572,0 8.969598,0 8.969598,0 9.268585,0 8.9695978,0 10.1655446,0 8.6706116,0 12.258451,0 5.082772,0 9.268585,0 8.969598,0 10.165544,0 8.072639,0 9.567571,0 9.268585,0 9.268585,0 8.371624,0 9.86656,0 8.67061,0 9.86656,0 8.37162,0 8.67061,0 9.26859,0 9.26858,0 8.9696,0 10.16555,0 8.07263,0 9.26859,0 9.56757,0 9.26859,0 9.56757,0 8.37162,0 8.67061,0 8.67062,0 9.86655,0 10.46453,0 7.17568,0 10.16555,0 8.37162,0 8.9696,0 9.26859,0 11.0625,0 8.07264,0 8.07264,0 8.67061,0 8.9696,0 10.16554,0 9.86656,0 10.76352,0 8.37162,0 16.44426,0 8.37163,0 10.46453,0 8.37163,0 8.37162,0 10.46453,0 8.37163,0 8.37162,0 18.83616,0 10.46453,0 8.37162,0 8.37163,0 10.46453,0 8.37162,0 8.37163,0 10.46453,0 8.37163,0 0,0 0,0 -8.37163,0 -10.46453,0 -8.37163,0 -8.37162,0 -10.46453,0 -8.37163,0 -8.37162,0 -10.46453,0 -18.83616,0 -8.37162,0 -8.37163,0 -10.46453,0 -8.37162,0 -8.37163,0 -10.46453,0 -8.37163,0 -16.44426,0 -8.37162,0 -10.76352,0 -9.86656,0 -10.16554,0 -8.9696,0 -8.67061,0 -8.07264,0 -8.07264,0 -11.0625,0 -9.26859,0 -8.9696,0 -8.37162,0 -10.16555,0 -7.17568,0 -10.46453,0 -9.86655,0 -8.67062,0 -8.67061,0 -8.37162,0 -9.56757,0 -9.26859,0.3486 -9.56757,0 -9.26859,0 -8.07263,0.3486 -10.16555,0 -8.9696,0 -9.26858,0.3486 -9.26859,0 -8.67061,0 -8.37162,0.3486 -9.86656,0.6972 -8.67061,0 -9.86656,0.6972 -8.371624,0.3486 -9.268585,0.6972 -9.268585,-0.3486 -9.567571,1.0458 -8.072639,0.3486 -10.165544,1.743 -8.969598,0.3486 -9.268585,2.4402 -5.082772,1.0458 -12.258451,3.1374 -8.6706116,2.7888 -10.1655446,5.5776 -8.9695978,5.5776 -9.268585,6.2748 -8.969598,8.0178 -8.969598,11.5038 -9.567572,20.916 -4.484799,11.8524 -8.969598,33.117 -4.185812,10.8066 -6.278719,2.7888 -29.300691,-23.7048 -6.27871,-11.5038 z"
               style="fill:#0024ca;fill-opacity:1;fill-rule:nonzero;stroke:none"
               id="path58" /></g></g></g></g></g><g
     id="g60"
     transform="matrix(1.25,0,0,-1.25,0,500)" /><g
     id="g62"
     transform="matrix(1.25,0,0,-1.25,-16.016949,663.98305)"><g
       id="g64"
       clip-path="url(#clipPath66)"><g
         id="g70"><g
           id="g72"><g
             id="g74"
             clip-path="url(#clipPath76)"><path
               inkscape:connector-curvature="0"
               d="m -110.02044,460.3812 0,-188.9412 6.27871,11.5038 29.300691,23.7048 6.278719,-2.7888 4.185812,-10.8066 8.969598,-33.117 4.484799,-11.8524 9.567572,-20.916 8.969598,-11.5038 8.969598,-8.0178 9.268585,-6.2748 8.9695978,-5.5776 10.1655446,-5.5776 8.6706116,-2.7888 12.258451,-3.1374 5.082772,-1.0458 9.268585,-2.4402 8.969598,-0.3486 10.165544,-1.743 8.072639,-0.3486 9.567571,-1.0458 9.268585,0.3486 9.268585,-0.6972 8.371624,-0.3486 9.86656,-0.6972 8.67061,0 9.86656,-0.6972 8.37162,-0.3486 8.67061,0 9.26859,0 9.26858,-0.3486 8.9696,0 10.16555,0 8.07263,-0.3486 9.26859,0 9.56757,0 9.26859,-0.3486 9.56757,0 8.37162,0 8.67061,0 8.67062,0 9.86655,0 10.46453,0 7.17568,0 10.16555,0 8.37162,0 8.9696,0 9.26859,0 11.0625,0 8.07264,0 8.07264,0 8.67061,0 8.9696,0 10.16554,0 9.86656,0 10.76352,0 8.37162,0 16.44426,0 8.37163,0 10.46453,0 8.37163,0 8.37162,0 10.46453,0 8.37163,0 8.37162,0 18.83616,0 10.46453,0 8.37162,0 8.37163,0 10.46453,0 8.37162,0 8.37163,0 10.46453,0 8.37163,0 0,0 0,0 -8.37163,0 -10.46453,0 -8.37163,0 -8.37162,0 -10.46453,0 -8.37163,0 -8.37162,0 -10.46453,0 -18.83616,0 -8.37162,0 -8.37163,0 -10.46453,0 -8.37162,0 -8.37163,0 -10.46453,0 -8.37163,0 -16.44426,0 -8.37162,0 -10.76352,0 -9.86656,0 -10.16554,0 -8.9696,0 -8.67061,0 -8.07264,0 -8.07264,0 -11.0625,0 -9.26859,0 -8.9696,0 -8.37162,0 -10.16555,0.3486 -7.17568,0 -10.46453,0 -9.86655,0 -8.67062,0 -8.67061,0.3486 -8.37162,0 -9.56757,0 -9.26859,0.6972 -9.56757,0 -9.26859,0.3486 -8.07263,0.3486 -10.16555,0.3486 -8.9696,0 -9.26858,0.6972 -9.26859,0.3486 -8.67061,0 -8.37162,0.6972 -9.86656,1.3944 -8.67061,0.3486 -9.86656,1.3944 -8.371624,0.6972 -9.268585,0.6972 -9.268585,1.0458 -9.567571,1.743 -8.072639,1.0458 -10.165544,2.7888 -8.969598,2.0916 -9.268585,4.1832 -5.082772,5.5776 -12.258451,8.3664 -8.6706116,8.3664 -10.1655446,14.9898 -8.9695978,20.916 -9.268585,11.1552 -8.969598,11.8524 -8.969598,21.2646 -9.567572,32.0712 -4.484799,17.0814 -8.969598,43.575 -4.185812,15.687 -6.278719,10.458 -29.300691,32.0712 -6.27871,11.5038 z"
               style="fill:#0051ff;fill-opacity:1;fill-rule:nonzero;stroke:none"
               id="path80" /></g></g></g></g></g><g
     id="g82"
     transform="matrix(1.25,0,0,-1.25,0,500)" /><g
     id="g84"
     transform="matrix(1.25,0,0,-1.25,-16.016949,663.98305)"><g
       id="g86"
       clip-path="url(#clipPath88)"><g
         id="g92"><g
           id="g94"><g
             id="g96"
             clip-path="url(#clipPath98)"><path
               inkscape:connector-curvature="0"
               d="m -110.02044,470.4906 0,-10.1094 6.27871,-11.5038 29.300691,-32.0712 6.278719,-10.458 4.185812,-15.687 8.969598,-43.575 4.484799,-17.0814 9.567572,-32.0712 8.969598,-21.2646 8.969598,-11.8524 9.268585,-11.1552 8.9695978,-20.916 10.1655446,-14.9898 8.6706116,-8.3664 12.258451,-8.3664 5.082772,-5.5776 9.268585,-4.1832 8.969598,-2.0916 10.165544,-2.7888 8.072639,-1.0458 9.567571,-1.743 9.268585,-1.0458 9.268585,-0.6972 8.371624,-0.6972 9.86656,-1.3944 8.67061,-0.3486 9.86656,-1.3944 8.37162,-0.6972 8.67061,0 9.26859,-0.3486 9.26858,-0.6972 8.9696,0 10.16555,-0.3486 8.07263,-0.3486 9.26859,-0.3486 9.56757,0 9.26859,-0.6972 9.56757,0 8.37162,0 8.67061,-0.3486 8.67062,0 9.86655,0 10.46453,0 7.17568,0 10.16555,-0.3486 8.37162,0 8.9696,0 9.26859,0 11.0625,0 8.07264,0 8.07264,0 8.67061,0 8.9696,0 10.16554,0 9.86656,0 10.76352,0 8.37162,0 16.44426,0 8.37163,0 10.46453,0 8.37163,0 8.37162,0 10.46453,0 8.37163,0 8.37162,0 18.83616,0 10.46453,0 8.37162,0 8.37163,0 10.46453,0 8.37162,0 8.37163,0 10.46453,0 8.37163,0 0,0 0,0 -8.37163,0 -10.46453,0 -8.37163,0 -8.37162,0 -10.46453,0 -8.37163,0 -8.37162,0 -10.46453,0 -18.83616,0 -8.37162,0 -8.37163,0 -10.46453,0 -8.37162,0 -8.37163,0 -10.46453,0 -8.37163,0 -16.44426,0 -8.37162,0 -10.76352,0 -9.86656,0 -10.16554,0 -8.9696,0 -8.67061,0 -8.07264,0 -8.07264,0 -11.0625,0 -9.26859,0 -8.9696,0 -8.37162,0 -10.16555,0.3486 -7.17568,0 -10.46453,0 -9.86655,0 -8.67062,0 -8.67061,0.3486 -8.37162,0 -9.56757,0 -9.26859,0.6972 -9.56757,0 -9.26859,0.3486 -8.07263,0.3486 -10.16555,0.3486 -8.9696,0 -9.26858,0.6972 -9.26859,0.3486 -8.67061,0 -8.37162,0.6972 -9.86656,1.3944 -8.67061,0.3486 -9.86656,1.3944 -8.371624,0.6972 -9.268585,0.6972 -9.268585,1.0458 -9.567571,1.743 -8.072639,1.0458 -10.165544,2.7888 -8.969598,2.0916 -9.268585,4.1832 -5.082772,5.5776 -12.258451,8.3664 -8.6706116,8.3664 -10.1655446,14.9898 -8.9695978,20.916 -9.268585,11.1552 -8.969598,11.8524 -8.969598,21.2646 -9.567572,32.0712 -4.484799,17.43 -8.969598,43.9236 -4.185812,16.0356 -6.278719,10.458 -29.300691,33.4656 -6.27871,19.173 z"
               style="fill:#0081ff;fill-opacity:1;fill-rule:nonzero;stroke:none"
               id="path102" /></g></g></g></g></g><g
     id="g104"
     transform="matrix(1.25,0,0,-1.25,0,500)" /><g
     id="g106"
     transform="matrix(1.25,0,0,-1.25,-16.016949,663.98305)"><g
       id="g108"
       clip-path="url(#clipPath110)"><g
         id="g114"><g
           id="g116"><g
             id="g118"
             clip-path="url(#clipPath120)"><path
               inkscape:connector-curvature="0"
               d="m -110.02044,522.0834 0,-51.5928 6.27871,-19.173 29.300691,-33.4656 6.278719,-10.458 4.185812,-16.0356 8.969598,-43.9236 4.484799,-17.43 9.567572,-32.0712 8.969598,-21.2646 8.969598,-11.8524 9.268585,-11.1552 8.9695978,-20.916 10.1655446,-14.9898 8.6706116,-8.3664 12.258451,-8.3664 5.082772,-5.5776 9.268585,-4.1832 8.969598,-2.0916 10.165544,-2.7888 8.072639,-1.0458 9.567571,-1.743 9.268585,-1.0458 9.268585,-0.6972 8.371624,-0.6972 9.86656,-1.3944 8.67061,-0.3486 9.86656,-1.3944 8.37162,-0.6972 8.67061,0 9.26859,-0.3486 9.26858,-0.6972 8.9696,0 10.16555,-0.3486 8.07263,-0.3486 9.26859,-0.3486 9.56757,0 9.26859,-0.6972 9.56757,0 8.37162,0 8.67061,-0.3486 8.67062,0 9.86655,0 10.46453,0 7.17568,0 10.16555,-0.3486 8.37162,0 8.9696,0 9.26859,0 11.0625,0 8.07264,0 8.07264,0 8.67061,0 8.9696,0 10.16554,0 9.86656,0 10.76352,0 8.37162,0 16.44426,0 8.37163,0 10.46453,0 8.37163,0 8.37162,0 10.46453,0 8.37163,0 8.37162,0 18.83616,0 10.46453,0 8.37162,0 8.37163,0 10.46453,0 8.37162,0 8.37163,0 10.46453,0 8.37163,0 0,0 0,0 -8.37163,0 -10.46453,0 -8.37163,0 -8.37162,0 -10.46453,0 -8.37163,0 -8.37162,0 -10.46453,0 -18.83616,0 -8.37162,0 -8.37163,0 -10.46453,0 -8.37162,0 -8.37163,0 -10.46453,0 -8.37163,0 -16.44426,0 -8.37162,0 -10.76352,0 -9.86656,0 -10.16554,0 -8.9696,0 -8.67061,0 -8.07264,0 -8.07264,0 -11.0625,0 -9.26859,0 -8.9696,0 -8.37162,0 -10.16555,0.3486 -7.17568,0 -10.46453,0 -9.86655,0 -8.67062,0 -8.67061,0.3486 -8.37162,0 -9.56757,0 -9.26859,0.6972 -9.56757,0 -9.26859,0.3486 -8.07263,0.3486 -10.16555,0.3486 -8.9696,0 -9.26858,0.6972 -9.26859,0.3486 -8.67061,0 -8.37162,0.6972 -9.86656,1.3944 -8.67061,0.3486 -9.86656,1.3944 -8.371624,0.6972 -9.268585,0.6972 -9.268585,1.0458 -9.567571,1.743 -8.072639,1.0458 -10.165544,2.7888 -8.969598,2.0916 -9.268585,4.1832 -5.082772,5.5776 -12.258451,8.3664 -8.6706116,8.3664 -10.1655446,14.9898 -8.9695978,20.916 -9.268585,11.1552 -8.969598,11.8524 -8.969598,21.2646 -9.567572,32.0712 -4.484799,18.4758 -8.969598,44.2722 -4.185812,16.7328 -6.278719,17.7786 -29.300691,95.1678 -6.27871,-0.3486 z"
               style="fill:#00aeff;fill-opacity:1;fill-rule:nonzero;stroke:none"
               id="path124" /></g></g></g></g></g><g
     id="g126"
     transform="matrix(1.25,0,0,-1.25,0,500)" /><g
     id="g128"
     transform="matrix(1.25,0,0,-1.25,-16.016949,663.98305)"><g
       id="g130"
       clip-path="url(#clipPath132)"><g
         id="g136"><g
           id="g138"><g
             id="g140"
             clip-path="url(#clipPath142)"><path
               inkscape:connector-curvature="0"
               d="m -110.02044,522.0834 0,0 6.27871,0.3486 29.300691,-95.1678 6.278719,-17.7786 4.185812,-16.7328 8.969598,-44.2722 4.484799,-18.4758 9.567572,-32.0712 8.969598,-21.2646 8.969598,-11.8524 9.268585,-11.1552 8.9695978,-20.916 10.1655446,-14.9898 8.6706116,-8.3664 12.258451,-8.3664 5.082772,-5.5776 9.268585,-4.1832 8.969598,-2.0916 10.165544,-2.7888 8.072639,-1.0458 9.567571,-1.743 9.268585,-1.0458 9.268585,-0.6972 8.371624,-0.6972 9.86656,-1.3944 8.67061,-0.3486 9.86656,-1.3944 8.37162,-0.6972 8.67061,0 9.26859,-0.3486 9.26858,-0.6972 8.9696,0 10.16555,-0.3486 8.07263,-0.3486 9.26859,-0.3486 9.56757,0 9.26859,-0.6972 9.56757,0 8.37162,0 8.67061,-0.3486 8.67062,0 9.86655,0 10.46453,0 7.17568,0 10.16555,-0.3486 8.37162,0 8.9696,0 9.26859,0 11.0625,0 8.07264,0 8.07264,0 8.67061,0 8.9696,0 10.16554,0 9.86656,0 10.76352,0 8.37162,0 16.44426,0 8.37163,0 10.46453,0 8.37163,0 8.37162,0 10.46453,0 8.37163,0 8.37162,0 18.83616,0 10.46453,0 8.37162,0 8.37163,0 10.46453,0 8.37162,0 8.37163,0 10.46453,0 8.37163,0 0,0 0,0 -8.37163,0 -10.46453,0 -8.37163,0 -8.37162,0 -10.46453,0 -8.37163,0 -8.37162,0 -10.46453,0 -18.83616,0 -8.37162,0 -8.37163,0 -10.46453,0 -8.37162,0 -8.37163,0 -10.46453,0 -8.37163,0 -16.44426,0 -8.37162,0 -10.76352,0 -9.86656,0 -10.16554,0 -8.9696,0 -8.67061,0 -8.07264,0 -8.07264,0 -11.0625,0 -9.26859,0 -8.9696,0 -8.37162,0 -10.16555,4.5318 -7.17568,0.6972 -10.46453,0.3486 -9.86655,0.6972 -8.67062,0 -8.67061,1.0458 -8.37162,1.0458 -9.56757,0.6972 -9.26859,1.743 -9.56757,1.3944 -9.26859,1.3944 -8.07263,1.3944 -10.16555,2.0916 -8.9696,1.743 -9.26858,2.4402 -9.26859,1.3944 -8.67061,1.743 -8.37162,2.7888 -9.86656,4.8804 -8.67061,3.486 -9.86656,5.229 -8.371624,4.5318 -9.268585,4.1832 -9.268585,6.6234 -9.567571,8.3664 -8.072639,9.0636 -10.165544,15.687 -8.969598,13.5954 -9.268585,13.5954 -5.082772,11.8524 -12.258451,16.7328 -8.6706116,21.6132 -10.1655446,30.3282 -8.9695978,25.0992 -9.268585,9.7608 -8.969598,16.3842 -8.969598,84.0126 -9.567572,9.0636 -4.484799,7.6692 -8.969598,-0.3486 -4.185812,0 -6.278719,0 -29.300691,0 -6.27871,-0.3486 z"
               style="fill:#00deff;fill-opacity:1;fill-rule:nonzero;stroke:none"
               id="path146" /></g></g></g></g></g><g
     id="g148"
     transform="matrix(1.25,0,0,-1.25,0,500)" /><g
     id="g150"
     transform="matrix(1.25,0,0,-1.25,-16.016949,663.98305)"><g
       id="g152"
       clip-path="url(#clipPath154)"><g
         id="g158"><g
           id="g160"><g
             id="g162"
             clip-path="url(#clipPath164)"><path
               inkscape:connector-curvature="0"
               d="m -110.02044,522.0834 0,0 6.27871,0.3486 29.300691,0 6.278719,0 4.185812,0 8.969598,0.3486 4.484799,-7.6692 9.567572,-9.0636 8.969598,-84.0126 8.969598,-16.3842 9.268585,-9.7608 8.9695978,-25.0992 10.1655446,-30.3282 8.6706116,-21.6132 12.258451,-16.7328 5.082772,-11.8524 9.268585,-13.5954 8.969598,-13.5954 10.165544,-15.687 8.072639,-9.0636 9.567571,-8.3664 9.268585,-6.6234 9.268585,-4.1832 8.371624,-4.5318 9.86656,-5.229 8.67061,-3.486 9.86656,-4.8804 8.37162,-2.7888 8.67061,-1.743 9.26859,-1.3944 9.26858,-2.4402 8.9696,-1.743 10.16555,-2.0916 8.07263,-1.3944 9.26859,-1.3944 9.56757,-1.3944 9.26859,-1.743 9.56757,-0.6972 8.37162,-1.0458 8.67061,-1.0458 8.67062,0 9.86655,-0.6972 10.46453,-0.3486 7.17568,-0.6972 10.16555,-4.5318 8.37162,0 8.9696,0 9.26859,0 11.0625,0 8.07264,0 8.07264,0 8.67061,0 8.9696,0 10.16554,0 9.86656,0 10.76352,0 8.37162,0 16.44426,0 8.37163,0 10.46453,0 8.37163,0 8.37162,0 10.46453,0 8.37163,0 8.37162,0 18.83616,0 10.46453,0 8.37162,0 8.37163,0 10.46453,0 8.37162,0 8.37163,0 10.46453,0 8.37163,0 0,0.3486 0,0 -8.37163,0 -10.46453,0 -8.37163,0.3486 -8.37162,0 -10.46453,0 -8.37163,0 -8.37162,0 -10.46453,0.3486 -18.83616,0 -8.37162,0 -8.37163,0.3486 -10.46453,0 -8.37162,0 -8.37163,0 -10.46453,0.3486 -8.37163,0.3486 -16.44426,0.3486 -8.37162,0 -10.76352,0 -9.86656,0.3486 -10.16554,0.6972 -8.9696,0.3486 -8.67061,0.3486 -8.07264,0.3486 -8.07264,0 -11.0625,1.0458 -9.26859,0.3486 -8.9696,1.743 -8.37162,0.6972 -10.16555,4.8804 -7.17568,2.7888 -10.46453,0.6972 -9.86655,2.4402 -8.67062,1.0458 -8.67061,13.2468 -8.37162,3.1374 -9.56757,3.8346 -9.26859,6.2748 -9.56757,7.3206 -9.26859,4.5318 -8.07263,5.229 -10.16555,7.3206 -8.9696,8.0178 -9.26858,8.715 -9.26859,7.6692 -8.67061,9.4122 -8.37162,10.458 -9.86656,13.5954 -8.67061,12.5496 -9.86656,22.3104 -8.371624,23.3562 -9.268585,20.2188 -9.268585,27.1908 -9.567571,24.7506 -8.072639,21.2646 -10.165544,33.8142 -8.969598,18.1272 -9.268585,6.6234 -5.082772,2.7888 -12.258451,3.8346 -8.6706116,1.3944 -10.1655446,1.0458 -8.9695978,0 -9.268585,0 -8.969598,0 -8.969598,-0.3486 -9.567572,-0.3486 -4.484799,1.3944 -8.969598,-0.3486 -4.185812,0 -6.278719,0 -29.300691,0 -6.27871,-0.3486 z"
               style="fill:#23ffd2;fill-opacity:1;fill-rule:nonzero;stroke:none"
               id="path168" /></g></g></g></g></g><g
     id="g170"
     transform="matrix(1.25,0,0,-1.25,0,500)" /><g
     id="g172"
     transform="matrix(1.25,0,0,-1.25,-16.016949,663.98305)"><g
       id="g174"
       clip-path="url(#clipPath176)"><g
         id="g180"><g
           id="g182"><g
             id="g184"
             clip-path="url(#clipPath186)"><path
               inkscape:connector-curvature="0"
               d="m -110.02044,522.0834 0,0 6.27871,0.3486 29.300691,0 6.278719,0 4.185812,0 8.969598,0.3486 4.484799,-1.3944 9.567572,0.3486 8.969598,0.3486 8.969598,0 9.268585,0 8.9695978,0 10.1655446,-1.0458 8.6706116,-1.3944 12.258451,-3.8346 5.082772,-2.7888 9.268585,-6.6234 8.969598,-18.1272 10.165544,-33.8142 8.072639,-21.2646 9.567571,-24.7506 9.268585,-27.1908 9.268585,-20.2188 8.371624,-23.3562 9.86656,-22.3104 8.67061,-12.5496 9.86656,-13.5954 8.37162,-10.458 8.67061,-9.4122 9.26859,-7.6692 9.26858,-8.715 8.9696,-8.0178 10.16555,-7.3206 8.07263,-5.229 9.26859,-4.5318 9.56757,-7.3206 9.26859,-6.2748 9.56757,-3.8346 8.37162,-3.1374 8.67061,-13.2468 8.67062,-1.0458 9.86655,-2.4402 10.46453,-0.6972 7.17568,-2.7888 10.16555,-4.8804 8.37162,-0.6972 8.9696,-1.743 9.26859,-0.3486 11.0625,-1.0458 8.07264,0 8.07264,-0.3486 8.67061,-0.3486 8.9696,-0.3486 10.16554,-0.6972 9.86656,-0.3486 10.76352,0 8.37162,0 16.44426,-0.3486 8.37163,-0.3486 10.46453,-0.3486 8.37163,0 8.37162,0 10.46453,0 8.37163,-0.3486 8.37162,0 18.83616,0 10.46453,-0.3486 8.37162,0 8.37163,0 10.46453,0 8.37162,0 8.37163,-0.3486 10.46453,0 8.37163,0 0,0 0,0 -8.37163,0 -10.46453,0 -8.37163,0.3486 -8.37162,0 -10.46453,0 -8.37163,0 -8.37162,0 -10.46453,0.3486 -18.83616,0 -8.37162,0 -8.37163,0.3486 -10.46453,0 -8.37162,0 -8.37163,0 -10.46453,0.3486 -8.37163,0.3486 -16.44426,0.3486 -8.37162,0 -10.76352,0 -9.86656,0.3486 -10.16554,0.6972 -8.9696,0.3486 -8.67061,0.3486 -8.07264,0.3486 -8.07264,0 -11.0625,1.0458 -9.26859,0.3486 -8.9696,1.743 -8.37162,0.6972 -10.16555,5.229 -7.17568,2.4402 -10.46453,1.0458 -9.86655,2.4402 -8.67062,1.0458 -8.67061,13.5954 -8.37162,3.1374 -9.56757,3.8346 -9.26859,6.2748 -9.56757,7.6692 -9.26859,4.5318 -8.07263,5.229 -10.16555,7.3206 -8.9696,8.3664 -9.26858,8.715 -9.26859,8.0178 -8.67061,9.4122 -8.37162,10.458 -9.86656,13.5954 -8.67061,12.8982 -9.86656,21.9618 -8.371624,23.3562 -9.268585,20.2188 -9.268585,27.5394 -9.567571,24.7506 -8.072639,22.659 -10.165544,34.1628 -8.969598,17.7786 -9.268585,5.9262 -5.082772,2.4402 -12.258451,4.1832 -8.6706116,0 -10.1655446,-0.3486 -8.9695978,0 -9.268585,0 -8.969598,0 -8.969598,-0.3486 -9.567572,-0.3486 -4.484799,1.3944 -8.969598,-0.3486 -4.185812,0 -6.278719,0 -29.300691,0 -6.27871,-0.3486 z"
               style="fill:#5cff9a;fill-opacity:1;fill-rule:nonzero;stroke:none"
               id="path190" /></g></g></g></g></g><g
     id="g192"
     transform="matrix(1.25,0,0,-1.25,0,500)" /><g
     id="g194"
     transform="matrix(1.25,0,0,-1.25,-16.016949,663.98305)"><g
       id="g196"
       clip-path="url(#clipPath198)"><g
         id="g202"><g
           id="g204"><g
             id="g206"
             clip-path="url(#clipPath208)"><path
               inkscape:connector-curvature="0"
               d="m -110.02044,522.0834 0,0 6.27871,0.3486 29.300691,0 6.278719,0 4.185812,0 8.969598,0.3486 4.484799,-1.3944 9.567572,0.3486 8.969598,0.3486 8.969598,0 9.268585,0 8.9695978,0 10.1655446,0.3486 8.6706116,0 12.258451,-4.1832 5.082772,-2.4402 9.268585,-5.9262 8.969598,-17.7786 10.165544,-34.1628 8.072639,-22.659 9.567571,-24.7506 9.268585,-27.5394 9.268585,-20.2188 8.371624,-23.3562 9.86656,-21.9618 8.67061,-12.8982 9.86656,-13.5954 8.37162,-10.458 8.67061,-9.4122 9.26859,-8.0178 9.26858,-8.715 8.9696,-8.3664 10.16555,-7.3206 8.07263,-5.229 9.26859,-4.5318 9.56757,-7.6692 9.26859,-6.2748 9.56757,-3.8346 8.37162,-3.1374 8.67061,-13.5954 8.67062,-1.0458 9.86655,-2.4402 10.46453,-1.0458 7.17568,-2.4402 10.16555,-5.229 8.37162,-0.6972 8.9696,-1.743 9.26859,-0.3486 11.0625,-1.0458 8.07264,0 8.07264,-0.3486 8.67061,-0.3486 8.9696,-0.3486 10.16554,-0.6972 9.86656,-0.3486 10.76352,0 8.37162,0 16.44426,-0.3486 8.37163,-0.3486 10.46453,-0.3486 8.37163,0 8.37162,0 10.46453,0 8.37163,-0.3486 8.37162,0 18.83616,0 10.46453,-0.3486 8.37162,0 8.37163,0 10.46453,0 8.37162,0 8.37163,-0.3486 10.46453,0 8.37163,0 0,9.0636 0,0 -8.37163,0 -10.46453,0.3486 -8.37163,1.3944 -8.37162,1.3944 -10.46453,1.3944 -8.37163,0 -8.37162,1.0458 -10.46453,2.0916 -18.83616,3.486 -8.37162,0.3486 -8.37163,2.7888 -10.46453,1.743 -8.37162,1.743 -8.37163,1.3944 -10.46453,4.8804 -8.37163,2.7888 -16.44426,5.9262 -8.37162,7.6692 -10.76352,-0.3486 -9.86656,5.229 -10.16554,5.229 -8.9696,5.9262 -8.67061,4.5318 -8.07264,3.8346 -8.07264,4.1832 -11.0625,11.1552 -9.26859,8.0178 -8.9696,9.4122 -8.37162,8.3664 -10.16555,13.2468 -7.17568,6.2748 -10.46453,9.0636 -9.86655,9.4122 -8.67062,5.5776 -8.67061,28.2366 -8.37162,8.3664 -9.56757,10.8066 -9.26859,17.43 -9.56757,19.173 -9.26859,10.1094 -8.07263,11.1552 -10.16555,18.1272 -8.9696,19.8702 -9.26858,12.201 -9.26859,5.5776 -8.67061,6.972 -8.37162,4.5318 -9.86656,1.743 -8.67061,1.743 -9.86656,5.229 -8.371624,1.743 -9.268585,0.3486 -9.268585,1.3944 -9.567571,0.3486 -8.072639,1.3944 -10.165544,1.0458 -8.969598,0 -9.268585,1.3944 -5.082772,0 -12.258451,0.6972 -8.6706116,0 -10.1655446,-0.3486 -8.9695978,0 -9.268585,0 -8.969598,0 -8.969598,-0.3486 -9.567572,-0.3486 -4.484799,1.3944 -8.969598,-0.3486 -4.185812,0 -6.278719,0 -29.300691,0 -6.27871,-0.3486 z"
               style="fill:#91ff66;fill-opacity:1;fill-rule:nonzero;stroke:none"
               id="path212" /></g></g></g></g></g><g
     id="g214"
     transform="matrix(1.25,0,0,-1.25,0,500)" /><g
     id="g216"
     transform="matrix(1.25,0,0,-1.25,-16.016949,663.98305)"><g
       id="g218"
       clip-path="url(#clipPath220)"><g
         id="g224"><g
           id="g226"><g
             id="g228"
             clip-path="url(#clipPath230)"><path
               inkscape:connector-curvature="0"
               d="m -110.02044,522.0834 0,0 6.27871,0.3486 29.300691,0 6.278719,0 4.185812,0 8.969598,0.3486 4.484799,-1.3944 9.567572,0.3486 8.969598,0.3486 8.969598,0 9.268585,0 8.9695978,0 10.1655446,0.3486 8.6706116,0 12.258451,-0.6972 5.082772,0 9.268585,-1.3944 8.969598,0 10.165544,-1.0458 8.072639,-1.3944 9.567571,-0.3486 9.268585,-1.3944 9.268585,-0.3486 8.371624,-1.743 9.86656,-5.229 8.67061,-1.743 9.86656,-1.743 8.37162,-4.5318 8.67061,-6.972 9.26859,-5.5776 9.26858,-12.201 8.9696,-19.8702 10.16555,-18.1272 8.07263,-11.1552 9.26859,-10.1094 9.56757,-19.173 9.26859,-17.43 9.56757,-10.8066 8.37162,-8.3664 8.67061,-28.2366 8.67062,-5.5776 9.86655,-9.4122 10.46453,-9.0636 7.17568,-6.2748 10.16555,-13.2468 8.37162,-8.3664 8.9696,-9.4122 9.26859,-8.0178 11.0625,-11.1552 8.07264,-4.1832 8.07264,-3.8346 8.67061,-4.5318 8.9696,-5.9262 10.16554,-5.229 9.86656,-5.229 10.76352,0.3486 8.37162,-7.6692 16.44426,-5.9262 8.37163,-2.7888 10.46453,-4.8804 8.37163,-1.3944 8.37162,-1.743 10.46453,-1.743 8.37163,-2.7888 8.37162,-0.3486 18.83616,-3.486 10.46453,-2.0916 8.37162,-1.0458 8.37163,0 10.46453,-1.3944 8.37162,-1.3944 8.37163,-1.3944 10.46453,-0.3486 8.37163,0 0,0 0,0 -8.37163,0 -10.46453,0.3486 -8.37163,1.3944 -8.37162,1.3944 -10.46453,1.3944 -8.37163,0 -8.37162,1.0458 -10.46453,2.0916 -18.83616,3.486 -8.37162,0.3486 -8.37163,2.7888 -10.46453,1.743 -8.37162,1.743 -8.37163,1.3944 -10.46453,4.8804 -8.37163,2.7888 -16.44426,5.9262 -8.37162,7.6692 -10.76352,-0.3486 -9.86656,5.229 -10.16554,5.229 -8.9696,5.9262 -8.67061,4.5318 -8.07264,3.8346 -8.07264,4.1832 -11.0625,11.1552 -9.26859,8.0178 -8.9696,9.4122 -8.37162,8.3664 -10.16555,13.2468 -7.17568,6.2748 -10.46453,9.0636 -9.86655,9.4122 -8.67062,5.5776 -8.67061,28.2366 -8.37162,8.3664 -9.56757,10.8066 -9.26859,17.43 -9.56757,19.173 -9.26859,10.1094 -8.07263,11.1552 -10.16555,18.1272 -8.9696,19.8702 -9.26858,12.201 -9.26859,5.9262 -8.67061,6.972 -8.37162,4.5318 -9.86656,1.743 -8.67061,1.743 -9.86656,5.229 -8.371624,1.743 -9.268585,0.6972 -9.268585,1.3944 -9.567571,1.0458 -8.072639,1.3944 -10.165544,0.6972 -8.969598,0 -9.268585,1.0458 -5.082772,0 -12.258451,0 -8.6706116,0 -10.1655446,-0.3486 -8.9695978,0 -9.268585,0 -8.969598,0 -8.969598,-0.3486 -9.567572,-0.3486 -4.484799,1.3944 -8.969598,-0.3486 -4.185812,0 -6.278719,0 -29.300691,0 -6.27871,-0.3486 z"
               style="fill:#c9ff2e;fill-opacity:1;fill-rule:nonzero;stroke:none"
               id="path234" /></g></g></g></g></g><g
     id="g236"
     transform="matrix(1.25,0,0,-1.25,0,500)" /><g
     id="g238"
     transform="matrix(1.25,0,0,-1.25,-16.016949,663.98305)"><g
       id="g240"
       clip-path="url(#clipPath242)"><g
         id="g246"><g
           id="g248"><g
             id="g250"
             clip-path="url(#clipPath252)"><path
               inkscape:connector-curvature="0"
               d="m -110.02044,522.0834 0,0 6.27871,0.3486 29.300691,0 6.278719,0 4.185812,0 8.969598,0.3486 4.484799,-1.3944 9.567572,0.3486 8.969598,0.3486 8.969598,0 9.268585,0 8.9695978,0 10.1655446,0.3486 8.6706116,0 12.258451,0 5.082772,0 9.268585,-1.0458 8.969598,0 10.165544,-0.6972 8.072639,-1.3944 9.567571,-1.0458 9.268585,-1.3944 9.268585,-0.6972 8.371624,-1.743 9.86656,-5.229 8.67061,-1.743 9.86656,-1.743 8.37162,-4.5318 8.67061,-6.972 9.26859,-5.9262 9.26858,-12.201 8.9696,-19.8702 10.16555,-18.1272 8.07263,-11.1552 9.26859,-10.1094 9.56757,-19.173 9.26859,-17.43 9.56757,-10.8066 8.37162,-8.3664 8.67061,-28.2366 8.67062,-5.5776 9.86655,-9.4122 10.46453,-9.0636 7.17568,-6.2748 10.16555,-13.2468 8.37162,-8.3664 8.9696,-9.4122 9.26859,-8.0178 11.0625,-11.1552 8.07264,-4.1832 8.07264,-3.8346 8.67061,-4.5318 8.9696,-5.9262 10.16554,-5.229 9.86656,-5.229 10.76352,0.3486 8.37162,-7.6692 16.44426,-5.9262 8.37163,-2.7888 10.46453,-4.8804 8.37163,-1.3944 8.37162,-1.743 10.46453,-1.743 8.37163,-2.7888 8.37162,-0.3486 18.83616,-3.486 10.46453,-2.0916 8.37162,-1.0458 8.37163,0 10.46453,-1.3944 8.37162,-1.3944 8.37163,-1.3944 10.46453,-0.3486 8.37163,0 0,0 0,0 -8.37163,0 -10.46453,0.3486 -8.37163,1.3944 -8.37162,1.3944 -10.46453,1.3944 -8.37163,0 -8.37162,1.0458 -10.46453,2.0916 -18.83616,3.486 -8.37162,0.3486 -8.37163,2.7888 -10.46453,1.743 -8.37162,1.743 -8.37163,1.3944 -10.46453,4.8804 -8.37163,2.7888 -16.44426,5.9262 -8.37162,7.6692 -10.76352,-0.3486 -9.86656,5.229 -10.16554,5.229 -8.9696,5.9262 -8.67061,4.5318 -8.07264,3.8346 -8.07264,4.1832 -11.0625,11.1552 -9.26859,8.0178 -8.9696,9.4122 -8.37162,8.3664 -10.16555,13.2468 -7.17568,6.2748 -10.46453,9.0636 -9.86655,9.4122 -8.67062,5.5776 -8.67061,29.2824 -8.37162,8.3664 -9.56757,11.1552 -9.26859,17.43 -9.56757,19.173 -9.26859,10.1094 -8.07263,11.5038 -10.16555,18.1272 -8.9696,19.8702 -9.26858,12.8982 -9.26859,6.972 -8.67061,6.972 -8.37162,4.8804 -9.86656,2.7888 -8.67061,2.0916 -9.86656,3.8346 -8.371624,1.0458 -9.268585,0.6972 -9.268585,0.6972 -9.567571,1.0458 -8.072639,0.6972 -10.165544,0 -8.969598,-1.0458 -9.268585,1.0458 -5.082772,0 -12.258451,0 -8.6706116,0 -10.1655446,-0.3486 -8.9695978,0 -9.268585,0 -8.969598,0 -8.969598,-0.3486 -9.567572,-0.3486 -4.484799,1.3944 -8.969598,-0.3486 -4.185812,0 -6.278719,0 -29.300691,0 -6.27871,-0.3486 z"
               style="fill:#feed00;fill-opacity:1;fill-rule:nonzero;stroke:none"
               id="path256" /></g></g></g></g></g><g
     id="g258"
     transform="matrix(1.25,0,0,-1.25,0,500)" /><g
     id="g260"
     transform="matrix(1.25,0,0,-1.25,-16.016949,663.98305)"><g
       id="g262"
       clip-path="url(#clipPath264)"><g
         id="g268"><g
           id="g270"><g
             id="g272"
             clip-path="url(#clipPath274)"><path
               inkscape:connector-curvature="0"
               d="m -110.02044,522.0834 0,0 6.27871,0.3486 29.300691,0 6.278719,0 4.185812,0 8.969598,0.3486 4.484799,-1.3944 9.567572,0.3486 8.969598,0.3486 8.969598,0 9.268585,0 8.9695978,0 10.1655446,0.3486 8.6706116,0 12.258451,0 5.082772,0 9.268585,-1.0458 8.969598,1.0458 10.165544,0 8.072639,-0.6972 9.567571,-1.0458 9.268585,-0.6972 9.268585,-0.6972 8.371624,-1.0458 9.86656,-3.8346 8.67061,-2.0916 9.86656,-2.7888 8.37162,-4.8804 8.67061,-6.972 9.26859,-6.972 9.26858,-12.8982 8.9696,-19.8702 10.16555,-18.1272 8.07263,-11.5038 9.26859,-10.1094 9.56757,-19.173 9.26859,-17.43 9.56757,-11.1552 8.37162,-8.3664 8.67061,-29.2824 8.67062,-5.5776 9.86655,-9.4122 10.46453,-9.0636 7.17568,-6.2748 10.16555,-13.2468 8.37162,-8.3664 8.9696,-9.4122 9.26859,-8.0178 11.0625,-11.1552 8.07264,-4.1832 8.07264,-3.8346 8.67061,-4.5318 8.9696,-5.9262 10.16554,-5.229 9.86656,-5.229 10.76352,0.3486 8.37162,-7.6692 16.44426,-5.9262 8.37163,-2.7888 10.46453,-4.8804 8.37163,-1.3944 8.37162,-1.743 10.46453,-1.743 8.37163,-2.7888 8.37162,-0.3486 18.83616,-3.486 10.46453,-2.0916 8.37162,-1.0458 8.37163,0 10.46453,-1.3944 8.37162,-1.3944 8.37163,-1.3944 10.46453,-0.3486 8.37163,0 0,0 0,0 -8.37163,0 -10.46453,0.3486 -8.37163,1.3944 -8.37162,1.3944 -10.46453,1.3944 -8.37163,0 -8.37162,1.0458 -10.46453,2.0916 -18.83616,3.486 -8.37162,0.3486 -8.37163,2.7888 -10.46453,1.743 -8.37162,1.743 -8.37163,1.3944 -10.46453,4.8804 -8.37163,2.7888 -16.44426,5.9262 -8.37162,7.6692 -10.76352,-0.3486 -9.86656,5.229 -10.16554,5.5776 -8.9696,5.9262 -8.67061,4.5318 -8.07264,3.8346 -8.07264,4.1832 -11.0625,11.1552 -9.26859,8.0178 -8.9696,9.4122 -8.37162,8.3664 -10.16555,13.2468 -7.17568,6.2748 -10.46453,9.0636 -9.86655,9.4122 -8.67062,5.9262 -8.67061,31.7226 -8.37162,8.715 -9.56757,11.5038 -9.26859,17.7786 -9.56757,19.8702 -9.26859,10.458 -8.07263,11.8524 -10.16555,18.8244 -8.9696,20.2188 -9.26858,13.2468 -9.26859,7.6692 -8.67061,6.972 -8.37162,4.5318 -9.86656,2.0916 -8.67061,1.3944 -9.86656,2.0916 -8.371624,0 -9.268585,0 -9.268585,0 -9.567571,0 -8.072639,0 -10.165544,0 -8.969598,-1.0458 -9.268585,1.0458 -5.082772,0 -12.258451,0 -8.6706116,0 -10.1655446,-0.3486 -8.9695978,0 -9.268585,0 -8.969598,0 -8.969598,-0.3486 -9.567572,-0.3486 -4.484799,1.3944 -8.969598,-0.3486 -4.185812,0 -6.278719,0 -29.300691,0 -6.27871,-0.3486 z"
               style="fill:#ffac00;fill-opacity:1;fill-rule:nonzero;stroke:none"
               id="path278" /></g></g></g></g></g><g
     id="g280"
     transform="matrix(1.25,0,0,-1.25,0,500)" /><g
     id="g282"
     transform="matrix(1.25,0,0,-1.25,-16.016949,663.98305)"><g
       id="g284"
       clip-path="url(#clipPath286)"><g
         id="g290"><g
           id="g292"><g
             id="g294"
             clip-path="url(#clipPath296)"><path
               inkscape:connector-curvature="0"
               d="m -110.02044,522.0834 0,0 6.27871,0.3486 29.300691,0 6.278719,0 4.185812,0 8.969598,0.3486 4.484799,-1.3944 9.567572,0.3486 8.969598,0.3486 8.969598,0 9.268585,0 8.9695978,0 10.1655446,0.3486 8.6706116,0 12.258451,0 5.082772,0 9.268585,-1.0458 8.969598,1.0458 10.165544,0 8.072639,0 9.567571,0 9.268585,0 9.268585,0 8.371624,0 9.86656,-2.0916 8.67061,-1.3944 9.86656,-2.0916 8.37162,-4.5318 8.67061,-6.972 9.26859,-7.6692 9.26858,-13.2468 8.9696,-20.2188 10.16555,-18.8244 8.07263,-11.8524 9.26859,-10.458 9.56757,-19.8702 9.26859,-17.7786 9.56757,-11.5038 8.37162,-8.715 8.67061,-31.7226 8.67062,-5.9262 9.86655,-9.4122 10.46453,-9.0636 7.17568,-6.2748 10.16555,-13.2468 8.37162,-8.3664 8.9696,-9.4122 9.26859,-8.0178 11.0625,-11.1552 8.07264,-4.1832 8.07264,-3.8346 8.67061,-4.5318 8.9696,-5.9262 10.16554,-5.5776 9.86656,-5.229 10.76352,0.3486 8.37162,-7.6692 16.44426,-5.9262 8.37163,-2.7888 10.46453,-4.8804 8.37163,-1.3944 8.37162,-1.743 10.46453,-1.743 8.37163,-2.7888 8.37162,-0.3486 18.83616,-3.486 10.46453,-2.0916 8.37162,-1.0458 8.37163,0 10.46453,-1.3944 8.37162,-1.3944 8.37163,-1.3944 10.46453,-0.3486 8.37163,0 0,0 0,0 -8.37163,0 -10.46453,0.3486 -8.37163,1.3944 -8.37162,1.3944 -10.46453,1.3944 -8.37163,0 -8.37162,1.0458 -10.46453,2.0916 -18.83616,3.486 -8.37162,0.3486 -8.37163,2.7888 -10.46453,1.743 -8.37162,1.743 -8.37163,1.3944 -10.46453,4.8804 -8.37163,2.7888 -16.44426,5.9262 -8.37162,7.6692 -10.76352,-0.3486 -9.86656,5.229 -10.16554,5.5776 -8.9696,5.9262 -8.67061,4.5318 -8.07264,3.8346 -8.07264,4.1832 -11.0625,11.1552 -9.26859,8.0178 -8.9696,9.4122 -8.37162,8.3664 -10.16555,13.2468 -7.17568,6.2748 -10.46453,9.0636 -9.86655,9.4122 -8.67062,5.9262 -8.67061,31.7226 -8.37162,8.715 -9.56757,11.5038 -9.26859,17.7786 -9.56757,19.8702 -9.26859,10.458 -8.07263,12.201 -10.16555,18.8244 -8.9696,20.5674 -9.26858,13.944 -9.26859,8.0178 -8.67061,6.972 -8.37162,4.1832 -9.86656,1.743 -8.67061,1.3944 -9.86656,1.0458 -8.371624,0 -9.268585,0 -9.268585,0 -9.567571,0 -8.072639,0 -10.165544,0 -8.969598,-1.0458 -9.268585,1.0458 -5.082772,0 -12.258451,0 -8.6706116,0 -10.1655446,-0.3486 -8.9695978,0 -9.268585,0 -8.969598,0 -8.969598,-0.3486 -9.567572,-0.3486 -4.484799,1.3944 -8.969598,-0.3486 -4.185812,0 -6.278719,0 -29.300691,0 -6.27871,-0.3486 z"
               style="fill:#ff7000;fill-opacity:1;fill-rule:nonzero;stroke:none"
               id="path300" /></g></g></g></g></g><g
     id="g302"
     transform="matrix(1.25,0,0,-1.25,0,500)" /><g
     id="g304"
     transform="matrix(1.25,0,0,-1.25,-16.016949,663.98305)"><g
       id="g306"
       clip-path="url(#clipPath308)"><g
         id="g312"><g
           id="g314"><g
             id="g316"
             clip-path="url(#clipPath318)"><path
               inkscape:connector-curvature="0"
               d="m -110.02044,522.0834 0,0 6.27871,0.3486 29.300691,0 6.278719,0 4.185812,0 8.969598,0.3486 4.484799,-1.3944 9.567572,0.3486 8.969598,0.3486 8.969598,0 9.268585,0 8.9695978,0 10.1655446,0.3486 8.6706116,0 12.258451,0 5.082772,0 9.268585,-1.0458 8.969598,1.0458 10.165544,0 8.072639,0 9.567571,0 9.268585,0 9.268585,0 8.371624,0 9.86656,-1.0458 8.67061,-1.3944 9.86656,-1.743 8.37162,-4.1832 8.67061,-6.972 9.26859,-8.0178 9.26858,-13.944 8.9696,-20.5674 10.16555,-18.8244 8.07263,-12.201 9.26859,-10.458 9.56757,-19.8702 9.26859,-17.7786 9.56757,-11.5038 8.37162,-8.715 8.67061,-31.7226 8.67062,-5.9262 9.86655,-9.4122 10.46453,-9.0636 7.17568,-6.2748 10.16555,-13.2468 8.37162,-8.3664 8.9696,-9.4122 9.26859,-8.0178 11.0625,-11.1552 8.07264,-4.1832 8.07264,-3.8346 8.67061,-4.5318 8.9696,-5.9262 10.16554,-5.5776 9.86656,-5.229 10.76352,0.3486 8.37162,-7.6692 16.44426,-5.9262 8.37163,-2.7888 10.46453,-4.8804 8.37163,-1.3944 8.37162,-1.743 10.46453,-1.743 8.37163,-2.7888 8.37162,-0.3486 18.83616,-3.486 10.46453,-2.0916 8.37162,-1.0458 8.37163,0 10.46453,-1.3944 8.37162,-1.3944 8.37163,-1.3944 10.46453,-0.3486 8.37163,0 0,7.6692 0,0 -8.37163,0.3486 -10.46453,1.0458 -8.37163,2.0916 -8.37162,2.0916 -10.46453,2.7888 -8.37163,0.3486 -8.37162,2.0916 -10.46453,3.486 -18.83616,6.972 -8.37162,1.0458 -8.37163,4.1832 -10.46453,2.4402 -8.37162,3.486 -8.37163,2.4402 -10.46453,8.715 -8.37163,5.229 -16.44426,9.7608 -8.37162,11.1552 -10.76352,2.4402 -9.86656,8.3664 -10.16554,9.4122 -8.9696,9.0636 -8.67061,7.6692 -8.07264,6.972 -8.07264,6.972 -11.0625,17.0814 -9.26859,12.201 -8.9696,12.201 -8.37162,12.201 -10.16555,16.0356 -7.17568,9.0636 -10.46453,17.0814 -9.86655,16.0356 -8.67062,12.201 -8.67061,29.2824 -8.37162,10.1094 -9.56757,11.8524 -9.26859,12.201 -9.56757,13.944 -9.26859,3.1374 -8.07263,2.0916 -10.16555,1.3944 -8.9696,2.7888 -9.26858,0 -9.26859,0 -8.67061,0 -8.37162,0 -9.86656,0 -8.67061,0 -9.86656,0 -8.371624,0 -9.268585,0 -9.268585,0 -9.567571,0 -8.072639,0 -10.165544,0 -8.969598,-1.0458 -9.268585,1.0458 -5.082772,0 -12.258451,0 -8.6706116,0 -10.1655446,-0.3486 -8.9695978,0 -9.268585,0 -8.969598,0 -8.969598,-0.3486 -9.567572,-0.3486 -4.484799,1.3944 -8.969598,-0.3486 -4.185812,0 -6.278719,0 -29.300691,0 -6.27871,-0.3486 z"
               style="fill:#ff2f00;fill-opacity:1;fill-rule:nonzero;stroke:none"
               id="path322" /></g></g></g></g></g><g
     id="g324"
     transform="matrix(1.25,0,0,-1.25,0,500)" /><g
     id="g326"
     transform="matrix(1.25,0,0,-1.25,-16.016949,663.98305)"><g
       id="g328"
       clip-path="url(#clipPath330)"><g
         id="g334"><g
           id="g336"><g
             id="g338"
             clip-path="url(#clipPath340)"><path
               inkscape:connector-curvature="0"
               d="m -110.02044,522.0834 0,0 6.27871,0.3486 29.300691,0 6.278719,0 4.185812,0 8.969598,0.3486 4.484799,-1.3944 9.567572,0.3486 8.969598,0.3486 8.969598,0 9.268585,0 8.9695978,0 10.1655446,0.3486 8.6706116,0 12.258451,0 5.082772,0 9.268585,-1.0458 8.969598,1.0458 10.165544,0 8.072639,0 9.567571,0 9.268585,0 9.268585,0 8.371624,0 9.86656,0 8.67061,0 9.86656,0 8.37162,0 8.67061,0 9.26859,0 9.26858,0 8.9696,-2.7888 10.16555,-1.3944 8.07263,-2.0916 9.26859,-3.1374 9.56757,-13.944 9.26859,-12.201 9.56757,-11.8524 8.37162,-10.1094 8.67061,-29.2824 8.67062,-12.201 9.86655,-16.0356 10.46453,-17.0814 7.17568,-9.0636 10.16555,-16.0356 8.37162,-12.201 8.9696,-12.201 9.26859,-12.201 11.0625,-17.0814 8.07264,-6.972 8.07264,-6.972 8.67061,-7.6692 8.9696,-9.0636 10.16554,-9.4122 9.86656,-8.3664 10.76352,-2.4402 8.37162,-11.1552 16.44426,-9.7608 8.37163,-5.229 10.46453,-8.715 8.37163,-2.4402 8.37162,-3.486 10.46453,-2.4402 8.37163,-4.1832 8.37162,-1.0458 18.83616,-6.972 10.46453,-3.486 8.37162,-2.0916 8.37163,-0.3486 10.46453,-2.7888 8.37162,-2.0916 8.37163,-2.0916 10.46453,-1.0458 8.37163,-0.3486 0,27.1908 0,0 -8.37163,1.3944 -10.46453,3.486 -8.37163,2.7888 -8.37162,5.5776 -10.46453,6.2748 -8.37163,1.743 -8.37162,4.5318 -10.46453,9.0636 -18.83616,10.458 -8.37162,4.1832 -8.37163,7.3206 -10.46453,5.229 -8.37162,7.3206 -8.37163,5.229 -10.46453,16.0356 -8.37163,10.458 -16.44426,17.7786 -8.37162,16.0356 -10.76352,6.972 -9.86656,12.5496 -10.16554,25.0992 -8.9696,12.201 -8.67061,10.8066 -8.07264,7.6692 -8.07264,8.3664 -11.0625,22.3104 -9.26859,11.8524 -8.9696,9.4122 -8.37162,12.5496 -10.16555,6.972 -7.17568,3.1374 -10.46453,5.5776 -9.86655,5.9262 -8.67062,1.3944 -8.67061,1.0458 -8.37162,0.6972 -9.56757,0.6972 -9.26859,1.3944 -9.56757,2.7888 -9.26859,0 -8.07263,0 -10.16555,0 -8.9696,0 -9.26858,0 -9.26859,0 -8.67061,0 -8.37162,0 -9.86656,0 -8.67061,0 -9.86656,0 -8.371624,0 -9.268585,0 -9.268585,0 -9.567571,0 -8.072639,0 -10.165544,0 -8.969598,-1.0458 -9.268585,1.0458 -5.082772,0 -12.258451,0 -8.6706116,0 -10.1655446,-0.3486 -8.9695978,0 -9.268585,0 -8.969598,0 -8.969598,-0.3486 -9.567572,-0.3486 -4.484799,1.3944 -8.969598,-0.3486 -4.185812,0 -6.278719,0 -29.300691,0 -6.27871,-0.3486 z"
               style="fill:#d80000;fill-opacity:1;fill-rule:nonzero;stroke:none"
               id="path344" /></g></g></g></g></g><g
     id="g346"
     transform="matrix(1.25,0,0,-1.25,0,500)" /><g
     id="g348"
     transform="matrix(1.25,0,0,-1.25,-16.016949,663.98305)"><g
       id="g350"
       clip-path="url(#clipPath352)"><g
         id="g356"><g
           id="g358"><g
             id="g360"
             clip-path="url(#clipPath362)"><path
               inkscape:connector-curvature="0"
               d="m -110.02044,522.0834 0,0 6.27871,0.3486 29.300691,0 6.278719,0 4.185812,0 8.969598,0.3486 4.484799,-1.3944 9.567572,0.3486 8.969598,0.3486 8.969598,0 9.268585,0 8.9695978,0 10.1655446,0.3486 8.6706116,0 12.258451,0 5.082772,0 9.268585,-1.0458 8.969598,1.0458 10.165544,0 8.072639,0 9.567571,0 9.268585,0 9.268585,0 8.371624,0 9.86656,0 8.67061,0 9.86656,0 8.37162,0 8.67061,0 9.26859,0 9.26858,0 8.9696,0 10.16555,0 8.07263,0 9.26859,0 9.56757,-2.7888 9.26859,-1.3944 9.56757,-0.6972 8.37162,-0.6972 8.67061,-1.0458 8.67062,-1.3944 9.86655,-5.9262 10.46453,-5.5776 7.17568,-3.1374 10.16555,-6.972 8.37162,-12.5496 8.9696,-9.4122 9.26859,-11.8524 11.0625,-22.3104 8.07264,-8.3664 8.07264,-7.6692 8.67061,-10.8066 8.9696,-12.201 10.16554,-25.0992 9.86656,-12.5496 10.76352,-6.972 8.37162,-16.0356 16.44426,-17.7786 8.37163,-10.458 10.46453,-16.0356 8.37163,-5.229 8.37162,-7.3206 10.46453,-5.229 8.37163,-7.3206 8.37162,-4.1832 18.83616,-10.458 10.46453,-9.0636 8.37162,-4.5318 8.37163,-1.743 10.46453,-6.2748 8.37162,-5.5776 8.37163,-2.7888 10.46453,-3.486 8.37163,-1.3944 0,36.603 0,0 -8.37163,3.1374 -10.46453,5.9262 -8.37163,4.5318 -8.37162,8.3664 -10.46453,9.4122 -8.37163,3.8346 -8.37162,6.972 -10.46453,11.5038 -18.83616,16.0356 -8.37162,6.2748 -8.37163,9.0636 -10.46453,8.0178 -8.37162,8.715 -8.37163,6.972 -10.46453,16.3842 -8.37163,11.8524 -16.44426,17.43 -8.37162,12.8982 -10.76352,6.6234 -9.86656,10.458 -10.16554,24.0534 -8.9696,9.7608 -8.67061,7.3206 -8.07264,4.8804 -8.07264,5.229 -11.0625,13.5954 -9.26859,10.458 -8.9696,2.7888 -8.37162,5.229 -10.16555,0 -7.17568,0 -10.46453,0 -9.86655,0 -8.67062,0.3486 -8.67061,-0.3486 -8.37162,0 -9.56757,0 -9.26859,0 -9.56757,0 -9.26859,0 -8.07263,0 -10.16555,0 -8.9696,0 -9.26858,0 -9.26859,0 -8.67061,0 -8.37162,0 -9.86656,0 -8.67061,0 -9.86656,0 -8.371624,0 -9.268585,0 -9.268585,0 -9.567571,0 -8.072639,0 -10.165544,0 -8.969598,-1.0458 -9.268585,1.0458 -5.082772,0 -12.258451,0 -8.6706116,0 -10.1655446,-0.3486 -8.9695978,0 -9.268585,0 -8.969598,0 -8.969598,-0.3486 -9.567572,-0.3486 -4.484799,1.3944 -8.969598,-0.3486 -4.185812,0 -6.278719,0 -29.300691,0 -6.27871,-0.3486 z"
               style="fill:#8b0000;fill-opacity:1;fill-rule:nonzero;stroke:none"
               id="path366" /></g></g></g></g></g><g
     id="g368"
     transform="matrix(1.25,0,0,-1.25,0,500)" /><g
     id="g370"
     transform="matrix(1.25,0,0,-1.25,-16.016949,663.98305)"><g
       id="g372"
       clip-path="url(#clipPath374)"><g
         id="g378"><g
           id="g380"><g
             id="g382"
             clip-path="url(#clipPath384)"><path
               inkscape:connector-curvature="0"
               d="m -110.02044,522.0834 0,0 6.27871,0.3486 29.300691,0 6.278719,0 4.185812,0 8.969598,0.3486 4.484799,-1.3944 9.567572,0.3486 8.969598,0.3486 8.969598,0 9.268585,0 8.9695978,0 10.1655446,0.3486 8.6706116,0 12.258451,0 5.082772,0 9.268585,-1.0458 8.969598,1.0458 10.165544,0 8.072639,0 9.567571,0 9.268585,0 9.268585,0 8.371624,0 9.86656,0 8.67061,0 9.86656,0 8.37162,0 8.67061,0 9.26859,0 9.26858,0 8.9696,0 10.16555,0 8.07263,0 9.26859,0 9.56757,0 9.26859,0 9.56757,0 8.37162,0 8.67061,0.3486 8.67062,-0.3486 9.86655,0 10.46453,0 7.17568,0 10.16555,0 8.37162,-5.229 8.9696,-2.7888 9.26859,-10.458 11.0625,-13.5954 8.07264,-5.229 8.07264,-4.8804 8.67061,-7.3206 8.9696,-9.7608 10.16554,-24.0534 9.86656,-10.458 10.76352,-6.6234 8.37162,-12.8982 16.44426,-17.43 8.37163,-11.8524 10.46453,-16.3842 8.37163,-6.972 8.37162,-8.715 10.46453,-8.0178 8.37163,-9.0636 8.37162,-6.2748 18.83616,-16.0356 10.46453,-11.5038 8.37162,-6.972 8.37163,-3.8346 10.46453,-9.4122 8.37162,-8.3664 8.37163,-4.5318 10.46453,-5.9262 8.37163,-3.1374 0,10.458 0,0 -8.37163,3.8346 -10.46453,6.6234 -8.37163,4.8804 -8.37162,9.7608 -10.46453,10.1094 -8.37163,4.5318 -8.37162,7.6692 -10.46453,12.201 -18.83616,17.7786 -8.37162,7.3206 -8.37163,9.4122 -10.46453,9.0636 -8.37162,10.1094 -8.37163,7.6692 -10.46453,18.1272 -8.37163,12.8982 -16.44426,19.8702 -8.37162,12.5496 -10.76352,10.458 -9.86656,14.9898 -10.16554,17.7786 -8.9696,11.1552 -8.67061,9.7608 -8.07264,2.4402 -8.07264,1.3944 -11.0625,1.0458 -9.26859,3.8346 -8.9696,0 -8.37162,0 -10.16555,0 -7.17568,0 -10.46453,0 -9.86655,0 -8.67062,0.3486 -8.67061,-0.3486 -8.37162,0 -9.56757,0 -9.26859,0 -9.56757,0 -9.26859,0 -8.07263,0 -10.16555,0 -8.9696,0 -9.26858,0 -9.26859,0 -8.67061,0 -8.37162,0 -9.86656,0 -8.67061,0 -9.86656,0 -8.371624,0 -9.268585,0 -9.268585,0 -9.567571,0 -8.072639,0 -10.165544,0 -8.969598,-1.0458 -9.268585,1.0458 -5.082772,0 -12.258451,0 -8.6706116,0 -10.1655446,-0.3486 -8.9695978,0 -9.268585,0 -8.969598,0 -8.969598,-0.3486 -9.567572,-0.3486 -4.484799,1.3944 -8.969598,-0.3486 -4.185812,0 -6.278719,0 -29.300691,0 -6.27871,-0.3486 z"
               style="fill:#80006e;fill-opacity:1;fill-rule:nonzero;stroke:none"
               id="path388" /></g></g></g></g></g><g
     id="g390"
     transform="matrix(1.25,0,0,-1.25,0,500)" /><g
     id="g392"
     transform="matrix(1.25,0,0,-1.25,-16.016949,663.98305)"><g
       id="g394"
       clip-path="url(#clipPath396)"><g
         id="g400"><g
           id="g402"><g
             id="g404"
             clip-path="url(#clipPath406)"><path
               inkscape:connector-curvature="0"
               d="m -110.02044,522.0834 0,0 6.27871,0.3486 29.300691,0 6.278719,0 4.185812,0 8.969598,0.3486 4.484799,-1.3944 9.567572,0.3486 8.969598,0.3486 8.969598,0 9.268585,0 8.9695978,0 10.1655446,0.3486 8.6706116,0 12.258451,0 5.082772,0 9.268585,-1.0458 8.969598,1.0458 10.165544,0 8.072639,0 9.567571,0 9.268585,0 9.268585,0 8.371624,0 9.86656,0 8.67061,0 9.86656,0 8.37162,0 8.67061,0 9.26859,0 9.26858,0 8.9696,0 10.16555,0 8.07263,0 9.26859,0 9.56757,0 9.26859,0 9.56757,0 8.37162,0 8.67061,0.3486 8.67062,-0.3486 9.86655,0 10.46453,0 7.17568,0 10.16555,0 8.37162,0 8.9696,0 9.26859,-3.8346 11.0625,-1.0458 8.07264,-1.3944 8.07264,-2.4402 8.67061,-9.7608 8.9696,-11.1552 10.16554,-17.7786 9.86656,-14.9898 10.76352,-10.458 8.37162,-12.5496 16.44426,-19.8702 8.37163,-12.8982 10.46453,-18.1272 8.37163,-7.6692 8.37162,-10.1094 10.46453,-9.0636 8.37163,-9.4122 8.37162,-7.3206 18.83616,-17.7786 10.46453,-12.201 8.37162,-7.6692 8.37163,-4.5318 10.46453,-10.1094 8.37162,-9.7608 8.37163,-4.8804 10.46453,-6.6234 8.37163,-3.8346 0,116.4324 0,0 -8.37163,6.972 -10.46453,10.8066 -8.37163,6.972 -8.37162,11.5038 -10.46453,14.2926 -8.37163,8.3664 -8.37162,8.715 -10.46453,12.5496 -18.83616,17.43 -8.37162,9.4122 -8.37163,14.9898 -10.46453,7.3206 -8.37162,5.9262 -8.37163,5.5776 -10.46453,0 -8.37163,0 -16.44426,0 -8.37162,0 -10.76352,0 -9.86656,0 -10.16554,0 -8.9696,0 -8.67061,0 -8.07264,0 -8.07264,0 -11.0625,0 -9.26859,0 -8.9696,0 -8.37162,0 -10.16555,0 -7.17568,0 -10.46453,0 -9.86655,0 -8.67062,0.3486 -8.67061,-0.3486 -8.37162,0 -9.56757,0 -9.26859,0 -9.56757,0 -9.26859,0 -8.07263,0 -10.16555,0 -8.9696,0 -9.26858,0 -9.26859,0 -8.67061,0 -8.37162,0 -9.86656,0 -8.67061,0 -9.86656,0 -8.371624,0 -9.268585,0 -9.268585,0 -9.567571,0 -8.072639,0 -10.165544,0 -8.969598,-1.0458 -9.268585,1.0458 -5.082772,0 -12.258451,0 -8.6706116,0 -10.1655446,-0.3486 -8.9695978,0 -9.268585,0 -8.969598,0 -8.969598,-0.3486 -9.567572,-0.3486 -4.484799,1.3944 -8.969598,-0.3486 -4.185812,0 -6.278719,0 -29.300691,0 -6.27871,-0.3486 z"
               style="fill:#c49ac4;fill-opacity:1;fill-rule:nonzero;stroke:none"
               id="path410" /></g></g></g></g></g><g
     id="g412"
     transform="matrix(1.25,0,0,-1.25,0,500)" /><g
     id="g414"
     transform="matrix(1.25,0,0,-1.25,-16.016949,663.98305)"><g
       id="g416"
       clip-path="url(#clipPath418)"><g
         id="g422"><g
           id="g424"><g
             id="g426"
             clip-path="url(#clipPath428)"><path
               inkscape:connector-curvature="0"
               d="m -110.02044,522.0834 0,0 6.27871,0.3486 29.300691,0 6.278719,0 4.185812,0 8.969598,0.3486 4.484799,-1.3944 9.567572,0.3486 8.969598,0.3486 8.969598,0 9.268585,0 8.9695978,0 10.1655446,0.3486 8.6706116,0 12.258451,0 5.082772,0 9.268585,-1.0458 8.969598,1.0458 10.165544,0 8.072639,0 9.567571,0 9.268585,0 9.268585,0 8.371624,0 9.86656,0 8.67061,0 9.86656,0 8.37162,0 8.67061,0 9.26859,0 9.26858,0 8.9696,0 10.16555,0 8.07263,0 9.26859,0 9.56757,0 9.26859,0 9.56757,0 8.37162,0 8.67061,0.3486 8.67062,-0.3486 9.86655,0 10.46453,0 7.17568,0 10.16555,0 8.37162,0 8.9696,0 9.26859,0 11.0625,0 8.07264,0 8.07264,0 8.67061,0 8.9696,0 10.16554,0 9.86656,0 10.76352,0 8.37162,0 16.44426,0 8.37163,0 10.46453,0 8.37163,-5.5776 8.37162,-5.9262 10.46453,-7.3206 8.37163,-14.9898 8.37162,-9.4122 18.83616,-17.43 10.46453,-12.5496 8.37162,-8.715 8.37163,-8.3664 10.46453,-14.2926 8.37162,-11.5038 8.37163,-6.972 10.46453,-10.8066 8.37163,-6.972 0,0 0,0 -8.37163,6.972 -10.46453,10.8066 -8.37163,6.972 -8.37162,11.5038 -10.46453,14.2926 -8.37163,8.3664 -8.37162,8.715 -10.46453,12.5496 -18.83616,17.43 -8.37162,9.4122 -8.37163,14.9898 -10.46453,7.3206 -8.37162,5.9262 -8.37163,5.5776 -10.46453,0 -8.37163,0 -16.44426,0 -8.37162,0 -10.76352,0 -9.86656,0 -10.16554,0 -8.9696,0 -8.67061,0 -8.07264,0 -8.07264,0 -11.0625,0 -9.26859,0 -8.9696,0 -8.37162,0 -10.16555,0 -7.17568,0 -10.46453,0 -9.86655,0 -8.67062,0.3486 -8.67061,-0.3486 -8.37162,0 -9.56757,0 -9.26859,0 -9.56757,0 -9.26859,0 -8.07263,0 -10.16555,0 -8.9696,0 -9.26858,0 -9.26859,0 -8.67061,0 -8.37162,0 -9.86656,0 -8.67061,0 -9.86656,0 -8.371624,0 -9.268585,0 -9.268585,0 -9.567571,0 -8.072639,0 -10.165544,0 -8.969598,-1.0458 -9.268585,1.0458 -5.082772,0 -12.258451,0 -8.6706116,0 -10.1655446,-0.3486 -8.9695978,0 -9.268585,0 -8.969598,0 -8.969598,-0.3486 -9.567572,-0.3486 -4.484799,1.3944 -8.969598,-0.3486 -4.185812,0 -6.278719,0 -29.300691,0 -6.27871,-0.3486 z"
               style="fill:#fe1792;fill-opacity:1;fill-rule:nonzero;stroke:none"
               id="path432" /></g></g></g></g></g><g
     id="g434"
     transform="matrix(1.25,0,0,-1.25,0,500)" /><g
     id="g436"
     transform="matrix(1.25,0,0,-1.25,-16.016949,663.98305)"><g
       id="g438"
       clip-path="url(#clipPath440)"><g
         id="g444"><g
           id="g446"><g
             id="g448"
             clip-path="url(#clipPath450)"><path
               inkscape:connector-curvature="0"
               d="m -110.02044,522.0834 0,0 6.27871,0.3486 29.300691,0 6.278719,0 4.185812,0 8.969598,0.3486 4.484799,-1.3944 9.567572,0.3486 8.969598,0.3486 8.969598,0 9.268585,0 8.9695978,0 10.1655446,0.3486 8.6706116,0 12.258451,0 5.082772,0 9.268585,-1.0458 8.969598,1.0458 10.165544,0 8.072639,0 9.567571,0 9.268585,0 9.268585,0 8.371624,0 9.86656,0 8.67061,0 9.86656,0 8.37162,0 8.67061,0 9.26859,0 9.26858,0 8.9696,0 10.16555,0 8.07263,0 9.26859,0 9.56757,0 9.26859,0 9.56757,0 8.37162,0 8.67061,0.3486 8.67062,-0.3486 9.86655,0 10.46453,0 7.17568,0 10.16555,0 8.37162,0 8.9696,0 9.26859,0 11.0625,0 8.07264,0 8.07264,0 8.67061,0 8.9696,0 10.16554,0 9.86656,0 10.76352,0 8.37162,0 16.44426,0 8.37163,0 10.46453,0 8.37163,-5.5776 8.37162,-5.9262 10.46453,-7.3206 8.37163,-14.9898 8.37162,-9.4122 18.83616,-17.43 10.46453,-12.5496 8.37162,-8.715 8.37163,-8.3664 10.46453,-14.2926 8.37162,-11.5038 8.37163,-6.972 10.46453,-10.8066 8.37163,-6.972 0,57.1704 0,0 -8.37163,8.715 -10.46453,11.1552 -8.37163,6.6234 -8.37162,9.4122 -10.46453,11.5038 -8.37163,8.715 -8.37162,9.7608 -10.46453,11.1552 -18.83616,3.8346 -8.37162,0.3486 -8.37163,1.0458 -10.46453,1.3944 -8.37162,0 -8.37163,0 -10.46453,0 -8.37163,0 -16.44426,0 -8.37162,0 -10.76352,0 -9.86656,0 -10.16554,0 -8.9696,0 -8.67061,0 -8.07264,0 -8.07264,0 -11.0625,0 -9.26859,0 -8.9696,0 -8.37162,0 -10.16555,0 -7.17568,0 -10.46453,0 -9.86655,0 -8.67062,0.3486 -8.67061,-0.3486 -8.37162,0 -9.56757,0 -9.26859,0 -9.56757,0 -9.26859,0 -8.07263,0 -10.16555,0 -8.9696,0 -9.26858,0 -9.26859,0 -8.67061,0 -8.37162,0 -9.86656,0 -8.67061,0 -9.86656,0 -8.371624,0 -9.268585,0 -9.268585,0 -9.567571,0 -8.072639,0 -10.165544,0 -8.969598,-1.0458 -9.268585,1.0458 -5.082772,0 -12.258451,0 -8.6706116,0 -10.1655446,-0.3486 -8.9695978,0 -9.268585,0 -8.969598,0 -8.969598,-0.3486 -9.567572,-0.3486 -4.484799,1.3944 -8.969598,-0.3486 -4.185812,0 -6.278719,0 -29.300691,0 -6.27871,-0.3486 z"
               style="fill:#008080;fill-opacity:1;fill-rule:nonzero;stroke:none"
               id="path454" /></g></g></g></g></g><g
     id="g456"
     transform="matrix(1.25,0,0,-1.25,0,500)" /><g
     id="g458"
     transform="matrix(1.25,0,0,-1.25,-16.016949,663.98305)"><g
       id="g460"
       clip-path="url(#clipPath462)"><g
         id="g466"><g
           id="g468"><g
             id="g470"
             clip-path="url(#clipPath472)"><path
               inkscape:connector-curvature="0"
               d="m -110.02044,522.0834 0,0 6.27871,0.3486 29.300691,0 6.278719,0 4.185812,0 8.969598,0.3486 4.484799,-1.3944 9.567572,0.3486 8.969598,0.3486 8.969598,0 9.268585,0 8.9695978,0 10.1655446,0.3486 8.6706116,0 12.258451,0 5.082772,0 9.268585,-1.0458 8.969598,1.0458 10.165544,0 8.072639,0 9.567571,0 9.268585,0 9.268585,0 8.371624,0 9.86656,0 8.67061,0 9.86656,0 8.37162,0 8.67061,0 9.26859,0 9.26858,0 8.9696,0 10.16555,0 8.07263,0 9.26859,0 9.56757,0 9.26859,0 9.56757,0 8.37162,0 8.67061,0.3486 8.67062,-0.3486 9.86655,0 10.46453,0 7.17568,0 10.16555,0 8.37162,0 8.9696,0 9.26859,0 11.0625,0 8.07264,0 8.07264,0 8.67061,0 8.9696,0 10.16554,0 9.86656,0 10.76352,0 8.37162,0 16.44426,0 8.37163,0 10.46453,0 8.37163,0 8.37162,0 10.46453,-1.3944 8.37163,-1.0458 8.37162,-0.3486 18.83616,-3.8346 10.46453,-11.1552 8.37162,-9.7608 8.37163,-8.715 10.46453,-11.5038 8.37162,-9.4122 8.37163,-6.6234 10.46453,-11.1552 8.37163,-8.715 0,67.6284 0,0 -8.37163,8.0178 -10.46453,3.8346 -8.37163,1.743 -8.37162,0.6972 -10.46453,0.6972 -8.37163,1.0458 -8.37162,0 -10.46453,2.4402 -18.83616,-2.4402 -8.37162,0 -8.37163,0 -10.46453,0 -8.37162,0 -8.37163,0 -10.46453,0 -8.37163,0 -16.44426,0 -8.37162,0 -10.76352,0 -9.86656,0 -10.16554,0 -8.9696,0 -8.67061,0 -8.07264,0 -8.07264,0 -11.0625,0 -9.26859,0 -8.9696,0 -8.37162,0 -10.16555,0 -7.17568,0 -10.46453,0 -9.86655,0 -8.67062,0.3486 -8.67061,-0.3486 -8.37162,0 -9.56757,0 -9.26859,0 -9.56757,0 -9.26859,0 -8.07263,0 -10.16555,0 -8.9696,0 -9.26858,0 -9.26859,0 -8.67061,0 -8.37162,0 -9.86656,0 -8.67061,0 -9.86656,0 -8.371624,0 -9.268585,0 -9.268585,0 -9.567571,0 -8.072639,0 -10.165544,0 -8.969598,-1.0458 -9.268585,1.0458 -5.082772,0 -12.258451,0 -8.6706116,0 -10.1655446,-0.3486 -8.9695978,0 -9.268585,0 -8.969598,0 -8.969598,-0.3486 -9.567572,-0.3486 -4.484799,1.3944 -8.969598,-0.3486 -4.185812,0 -6.278719,0 -29.300691,0 -6.27871,-0.3486 z"
               style="fill:#000080;fill-opacity:1;fill-rule:nonzero;stroke:none"
               id="path476" /></g></g></g></g></g><g
     id="g478"
     transform="matrix(1.25,0,0,-1.25,0,500)" /><g
     id="g480"
     transform="matrix(1.25,0,0,-1.25,-16.016949,663.98305)"><g
       id="g482"
       clip-path="url(#clipPath484)"><g
         id="g488"><g
           id="g490"><g
             id="g492"
             clip-path="url(#clipPath494)"><path
               inkscape:connector-curvature="0"
               d="m -110.02044,522.0834 0,0 6.27871,0.3486 29.300691,0 6.278719,0 4.185812,0 8.969598,0.3486 4.484799,-1.3944 9.567572,0.3486 8.969598,0.3486 8.969598,0 9.268585,0 8.9695978,0 10.1655446,0.3486 8.6706116,0 12.258451,0 5.082772,0 9.268585,-1.0458 8.969598,1.0458 10.165544,0 8.072639,0 9.567571,0 9.268585,0 9.268585,0 8.371624,0 9.86656,0 8.67061,0 9.86656,0 8.37162,0 8.67061,0 9.26859,0 9.26858,0 8.9696,0 10.16555,0 8.07263,0 9.26859,0 9.56757,0 9.26859,0 9.56757,0 8.37162,0 8.67061,0.3486 8.67062,-0.3486 9.86655,0 10.46453,0 7.17568,0 10.16555,0 8.37162,0 8.9696,0 9.26859,0 11.0625,0 8.07264,0 8.07264,0 8.67061,0 8.9696,0 10.16554,0 9.86656,0 10.76352,0 8.37162,0 16.44426,0 8.37163,0 10.46453,0 8.37163,0 8.37162,0 10.46453,0 8.37163,0 8.37162,0 18.83616,2.4402 10.46453,-2.4402 8.37162,0 8.37163,-1.0458 10.46453,-0.6972 8.37162,-0.6972 8.37163,-1.743 10.46453,-3.8346 8.37163,-8.0178 0,16.0356 0,0 -8.37163,0 -10.46453,0 -8.37163,0 -8.37162,0 -10.46453,0 -8.37163,0 -8.37162,0 -10.46453,2.4402 -18.83616,-2.4402 -8.37162,0 -8.37163,0 -10.46453,0 -8.37162,0 -8.37163,0 -10.46453,0 -8.37163,0 -16.44426,0 -8.37162,0 -10.76352,0 -9.86656,0 -10.16554,0 -8.9696,0 -8.67061,0 -8.07264,0 -8.07264,0 -11.0625,0 -9.26859,0 -8.9696,0 -8.37162,0 -10.16555,0 -7.17568,0 -10.46453,0 -9.86655,0 -8.67062,0.3486 -8.67061,-0.3486 -8.37162,0 -9.56757,0 -9.26859,0 -9.56757,0 -9.26859,0 -8.07263,0 -10.16555,0 -8.9696,0 -9.26858,0 -9.26859,0 -8.67061,0 -8.37162,0 -9.86656,0 -8.67061,0 -9.86656,0 -8.371624,0 -9.268585,0 -9.268585,0 -9.567571,0 -8.072639,0 -10.165544,0 -8.969598,-1.0458 -9.268585,1.0458 -5.082772,0 -12.258451,0 -8.6706116,0 -10.1655446,-0.3486 -8.9695978,0 -9.268585,0 -8.969598,0 -8.969598,-0.3486 -9.567572,-0.3486 -4.484799,1.3944 -8.969598,-0.3486 -4.185812,0 -6.278719,0 -29.300691,0 -6.27871,-0.3486 z"
               style="fill:#0024ca;fill-opacity:1;fill-rule:nonzero;stroke:none"
               id="path498" /></g></g></g></g></g><path
     inkscape:connector-curvature="0"
     d="m 698.94305,446.69305 0,-435.75"
     style="fill:none;stroke:#000000;stroke-width:1.25;stroke-linecap:square;stroke-linejoin:miter;stroke-miterlimit:10;stroke-dasharray:none;stroke-opacity:1"
     id="path500" /><path
     inkscape:connector-curvature="0"
     d="m 57.243051,446.69305 0,-435.75"
     style="fill:none;stroke:#000000;stroke-width:1.25;stroke-linecap:square;stroke-linejoin:miter;stroke-miterlimit:10;stroke-dasharray:none;stroke-opacity:1"
     id="path502" /><path
     inkscape:connector-curvature="0"
     d="m 57.243051,10.94305 641.699999,0"
     style="fill:none;stroke:#000000;stroke-width:1.25;stroke-linecap:square;stroke-linejoin:miter;stroke-miterlimit:10;stroke-dasharray:none;stroke-opacity:1"
     id="path504" /><path
     inkscape:connector-curvature="0"
     d="m 57.243051,446.69305 641.699999,0"
     style="fill:none;stroke:#000000;stroke-width:1.25;stroke-linecap:square;stroke-linejoin:miter;stroke-miterlimit:10;stroke-dasharray:none;stroke-opacity:1"
     id="path506" /><path
     inkscape:connector-curvature="0"
     d="m 91.626511,446.69305 0,-5"
     style="fill:#000000;fill-opacity:1;fill-rule:nonzero;stroke:#000000;stroke-width:0.625;stroke-linecap:butt;stroke-linejoin:round;stroke-miterlimit:10;stroke-dasharray:none;stroke-opacity:1"
     id="path508" /><path
     inkscape:connector-curvature="0"
     d="m 91.626511,10.94305 0,5"
     style="fill:#000000;fill-opacity:1;fill-rule:nonzero;stroke:#000000;stroke-width:0.625;stroke-linecap:butt;stroke-linejoin:round;stroke-miterlimit:10;stroke-dasharray:none;stroke-opacity:1"
     id="path510" /><text
     transform="matrix(0.86602539,-0.50000002,0.50000002,0.86602539,0,0)"
     style="font-variant:normal;font-weight:normal;font-size:14.99999905px;font-family:'DejaVu Sans';-inkscape-font-specification:DejaVuSans;writing-mode:lr-tb;fill:#000000;fill-opacity:1;fill-rule:nonzero;stroke:none"
     id="text512"
     x="-220.3074"
     y="444.76434"><tspan
       x="-220.3074 -208.21741 -199.7724 -193.74991 -188.8674 -179.09491 -169.32242 -159.5499"
       y="444.76434"
       id="tspan514">Oct 2011</tspan></text>
<path
     inkscape:connector-curvature="0"
     d="m 160.0197,446.69305 0,-5"
     style="fill:#000000;fill-opacity:1;fill-rule:nonzero;stroke:#000000;stroke-width:0.625;stroke-linecap:butt;stroke-linejoin:round;stroke-miterlimit:10;stroke-dasharray:none;stroke-opacity:1"
     id="path516" /><path
     inkscape:connector-curvature="0"
     d="m 160.0197,10.94305 0,5"
     style="fill:#000000;fill-opacity:1;fill-rule:nonzero;stroke:#000000;stroke-width:0.625;stroke-linecap:butt;stroke-linejoin:round;stroke-miterlimit:10;stroke-dasharray:none;stroke-opacity:1"
     id="path518" /><text
     transform="matrix(0.86602539,-0.50000002,0.50000002,0.86602539,0,0)"
     style="font-variant:normal;font-weight:normal;font-size:14.99999905px;font-family:'DejaVu Sans';-inkscape-font-specification:DejaVuSans;writing-mode:lr-tb;fill:#000000;fill-opacity:1;fill-rule:nonzero;stroke:none"
     id="text520"
     x="-160.97952"
     y="478.96094"><tspan
       x="-160.97952 -150.47202 -140.722 -134.40701 -129.52451 -119.75201 -109.9795 -100.20701"
       y="478.96094"
       id="tspan522">Apr 2012</tspan></text>
<path
     inkscape:connector-curvature="0"
     d="m 228.41287,446.69305 0,-5"
     style="fill:#000000;fill-opacity:1;fill-rule:nonzero;stroke:#000000;stroke-width:0.625;stroke-linecap:butt;stroke-linejoin:round;stroke-miterlimit:10;stroke-dasharray:none;stroke-opacity:1"
     id="path524" /><path
     inkscape:connector-curvature="0"
     d="m 228.41287,10.94305 0,5"
     style="fill:#000000;fill-opacity:1;fill-rule:nonzero;stroke:#000000;stroke-width:0.625;stroke-linecap:butt;stroke-linejoin:round;stroke-miterlimit:10;stroke-dasharray:none;stroke-opacity:1"
     id="path526" /><text
     transform="matrix(0.86602539,-0.50000002,0.50000002,0.86602539,0,0)"
     style="font-variant:normal;font-weight:normal;font-size:14.99999905px;font-family:'DejaVu Sans';-inkscape-font-specification:DejaVuSans;writing-mode:lr-tb;fill:#000000;fill-opacity:1;fill-rule:nonzero;stroke:none"
     id="text528"
     x="-101.72973"
     y="513.15753"><tspan
       x="-101.72973 -89.639732 -81.19474 -75.172234 -70.289726 -60.517235 -50.744747 -40.97224"
       y="513.15753"
       id="tspan530">Oct 2012</tspan></text>
<path
     inkscape:connector-curvature="0"
     d="m 296.43234,446.69305 0,-5"
     style="fill:#000000;fill-opacity:1;fill-rule:nonzero;stroke:#000000;stroke-width:0.625;stroke-linecap:butt;stroke-linejoin:round;stroke-miterlimit:10;stroke-dasharray:none;stroke-opacity:1"
     id="path532" /><path
     inkscape:connector-curvature="0"
     d="m 296.43234,10.94305 0,5"
     style="fill:#000000;fill-opacity:1;fill-rule:nonzero;stroke:#000000;stroke-width:0.625;stroke-linecap:butt;stroke-linejoin:round;stroke-miterlimit:10;stroke-dasharray:none;stroke-opacity:1"
     id="path534" /><text
     transform="matrix(0.86602539,-0.50000002,0.50000002,0.86602539,0,0)"
     style="font-variant:normal;font-weight:normal;font-size:14.99999905px;font-family:'DejaVu Sans';-inkscape-font-specification:DejaVuSans;writing-mode:lr-tb;fill:#000000;fill-opacity:1;fill-rule:nonzero;stroke:none"
     id="text536"
     x="-43.135662"
     y="547.16724"><tspan
       x="-43.135662 -32.628155 -22.878155 -16.56316 -11.680653 -1.9081683 7.8643312 17.636837"
       y="547.16724"
       id="tspan538">Apr 2013</tspan></text>
<path
     inkscape:connector-curvature="0"
     d="m 364.82552,446.69305 0,-5"
     style="fill:#000000;fill-opacity:1;fill-rule:nonzero;stroke:#000000;stroke-width:0.625;stroke-linecap:butt;stroke-linejoin:round;stroke-miterlimit:10;stroke-dasharray:none;stroke-opacity:1"
     id="path540" /><path
     inkscape:connector-curvature="0"
     d="m 364.82552,10.94305 0,5"
     style="fill:#000000;fill-opacity:1;fill-rule:nonzero;stroke:#000000;stroke-width:0.625;stroke-linecap:butt;stroke-linejoin:round;stroke-miterlimit:10;stroke-dasharray:none;stroke-opacity:1"
     id="path542" /><text
     transform="matrix(0.86602539,-0.50000002,0.50000002,0.86602539,0,0)"
     style="font-variant:normal;font-weight:normal;font-size:14.99999905px;font-family:'DejaVu Sans';-inkscape-font-specification:DejaVuSans;writing-mode:lr-tb;fill:#000000;fill-opacity:1;fill-rule:nonzero;stroke:none"
     id="text544"
     x="16.114101"
     y="581.36389"><tspan
       x="16.114101 28.204098 36.649097 42.671597 47.5541 57.326603 67.099098 76.871597"
       y="581.36389"
       id="tspan546">Oct 2013</tspan></text>
<path
     inkscape:connector-curvature="0"
     d="m 432.84497,446.69305 0,-5"
     style="fill:#000000;fill-opacity:1;fill-rule:nonzero;stroke:#000000;stroke-width:0.625;stroke-linecap:butt;stroke-linejoin:round;stroke-miterlimit:10;stroke-dasharray:none;stroke-opacity:1"
     id="path548" /><path
     inkscape:connector-curvature="0"
     d="m 432.84497,10.94305 0,5"
     style="fill:#000000;fill-opacity:1;fill-rule:nonzero;stroke:#000000;stroke-width:0.625;stroke-linecap:butt;stroke-linejoin:round;stroke-miterlimit:10;stroke-dasharray:none;stroke-opacity:1"
     id="path550" /><text
     transform="matrix(0.86602539,-0.50000002,0.50000002,0.86602539,0,0)"
     style="font-variant:normal;font-weight:normal;font-size:14.99999905px;font-family:'DejaVu Sans';-inkscape-font-specification:DejaVuSans;writing-mode:lr-tb;fill:#000000;fill-opacity:1;fill-rule:nonzero;stroke:none"
     id="text552"
     x="74.630058"
     y="615.3736"><tspan
       x="74.630058 85.137558 94.887558 101.20255 106.08506 115.85755 125.63006 135.40256"
       y="615.3736"
       id="tspan554">Apr 2014</tspan></text>
<path
     inkscape:connector-curvature="0"
     d="m 501.23816,446.69305 0,-5"
     style="fill:#000000;fill-opacity:1;fill-rule:nonzero;stroke:#000000;stroke-width:0.625;stroke-linecap:butt;stroke-linejoin:round;stroke-miterlimit:10;stroke-dasharray:none;stroke-opacity:1"
     id="path556" /><path
     inkscape:connector-curvature="0"
     d="m 501.23816,10.94305 0,5"
     style="fill:#000000;fill-opacity:1;fill-rule:nonzero;stroke:#000000;stroke-width:0.625;stroke-linecap:butt;stroke-linejoin:round;stroke-miterlimit:10;stroke-dasharray:none;stroke-opacity:1"
     id="path558" /><text
     transform="matrix(0.86602539,-0.50000002,0.50000002,0.86602539,0,0)"
     style="font-variant:normal;font-weight:normal;font-size:14.99999905px;font-family:'DejaVu Sans';-inkscape-font-specification:DejaVuSans;writing-mode:lr-tb;fill:#000000;fill-opacity:1;fill-rule:nonzero;stroke:none"
     id="text560"
     x="133.87982"
     y="649.57019"><tspan
       x="133.87982 145.96982 154.41481 160.43732 165.31982 175.09232 184.86481 194.63731"
       y="649.57019"
       id="tspan562">Oct 2014</tspan></text>
<path
     inkscape:connector-curvature="0"
     d="m 569.25761,446.69305 0,-5"
     style="fill:#000000;fill-opacity:1;fill-rule:nonzero;stroke:#000000;stroke-width:0.625;stroke-linecap:butt;stroke-linejoin:round;stroke-miterlimit:10;stroke-dasharray:none;stroke-opacity:1"
     id="path564" /><path
     inkscape:connector-curvature="0"
     d="m 569.25761,10.94305 0,5"
     style="fill:#000000;fill-opacity:1;fill-rule:nonzero;stroke:#000000;stroke-width:0.625;stroke-linecap:butt;stroke-linejoin:round;stroke-miterlimit:10;stroke-dasharray:none;stroke-opacity:1"
     id="path566" /><text
     transform="matrix(0.86602539,-0.50000002,0.50000002,0.86602539,0,0)"
     style="font-variant:normal;font-weight:normal;font-size:14.99999905px;font-family:'DejaVu Sans';-inkscape-font-specification:DejaVuSans;writing-mode:lr-tb;fill:#000000;fill-opacity:1;fill-rule:nonzero;stroke:none"
     id="text568"
     x="193.23561"
     y="683.5799"><tspan
       x="193.23561 203.7431 213.4931 219.80811 224.69061 234.4631 244.23561 254.0081"
       y="683.5799"
       id="tspan570">Apr 2015</tspan></text>
<path
     inkscape:connector-curvature="0"
     d="m 637.6508,446.69305 0,-5"
     style="fill:#000000;fill-opacity:1;fill-rule:nonzero;stroke:#000000;stroke-width:0.625;stroke-linecap:butt;stroke-linejoin:round;stroke-miterlimit:10;stroke-dasharray:none;stroke-opacity:1"
     id="path572" /><path
     inkscape:connector-curvature="0"
     d="m 637.6508,10.94305 0,5"
     style="fill:#000000;fill-opacity:1;fill-rule:nonzero;stroke:#000000;stroke-width:0.625;stroke-linecap:butt;stroke-linejoin:round;stroke-miterlimit:10;stroke-dasharray:none;stroke-opacity:1"
     id="path574" /><text
     transform="matrix(0.86602539,-0.50000002,0.50000002,0.86602539,0,0)"
     style="font-variant:normal;font-weight:normal;font-size:14.99999905px;font-family:'DejaVu Sans';-inkscape-font-specification:DejaVuSans;writing-mode:lr-tb;fill:#000000;fill-opacity:1;fill-rule:nonzero;stroke:none"
     id="text576"
     x="252.48538"
     y="717.77649"><tspan
       x="252.48538 264.57538 273.02039 279.04288 283.92538 293.69788 303.47037 313.24286"
       y="717.77649"
       id="tspan578">Oct 2015</tspan></text>
<path
     inkscape:connector-curvature="0"
     d="m 57.243051,446.69305 5,0"
     style="fill:#000000;fill-opacity:1;fill-rule:nonzero;stroke:#000000;stroke-width:0.625;stroke-linecap:butt;stroke-linejoin:round;stroke-miterlimit:10;stroke-dasharray:none;stroke-opacity:1"
     id="path580" /><path
     inkscape:connector-curvature="0"
     d="m 698.94305,446.69305 -5,0"
     style="fill:#000000;fill-opacity:1;fill-rule:nonzero;stroke:#000000;stroke-width:0.625;stroke-linecap:butt;stroke-linejoin:round;stroke-miterlimit:10;stroke-dasharray:none;stroke-opacity:1"
     id="path582" /><text
     style="font-variant:normal;font-weight:normal;font-size:15px;font-family:'DejaVu Sans';-inkscape-font-specification:DejaVuSans;writing-mode:lr-tb;fill:#000000;fill-opacity:1;fill-rule:nonzero;stroke:none"
     id="text584"
     x="30.36805"
     y="450.83368"><tspan
       x="30.36805 40.140553 45.023052"
       y="450.83368"
       id="tspan586">0.0</tspan></text>
<path
     inkscape:connector-curvature="0"
     d="m 57.243051,359.54305 5,0"
     style="fill:#000000;fill-opacity:1;fill-rule:nonzero;stroke:#000000;stroke-width:0.625;stroke-linecap:butt;stroke-linejoin:round;stroke-miterlimit:10;stroke-dasharray:none;stroke-opacity:1"
     id="path588" /><path
     inkscape:connector-curvature="0"
     d="m 698.94305,359.54305 -5,0"
     style="fill:#000000;fill-opacity:1;fill-rule:nonzero;stroke:#000000;stroke-width:0.625;stroke-linecap:butt;stroke-linejoin:round;stroke-miterlimit:10;stroke-dasharray:none;stroke-opacity:1"
     id="path590" /><text
     style="font-variant:normal;font-weight:normal;font-size:15px;font-family:'DejaVu Sans';-inkscape-font-specification:DejaVuSans;writing-mode:lr-tb;fill:#000000;fill-opacity:1;fill-rule:nonzero;stroke:none"
     id="text592"
     x="30.875862"
     y="363.68365"><tspan
       x="30.875862 40.648361 45.530865"
       y="363.68365"
       id="tspan594">0.2</tspan></text>
<path
     inkscape:connector-curvature="0"
     d="m 57.243051,272.39305 5,0"
     style="fill:#000000;fill-opacity:1;fill-rule:nonzero;stroke:#000000;stroke-width:0.625;stroke-linecap:butt;stroke-linejoin:round;stroke-miterlimit:10;stroke-dasharray:none;stroke-opacity:1"
     id="path596" /><path
     inkscape:connector-curvature="0"
     d="m 698.94305,272.39305 -5,0"
     style="fill:#000000;fill-opacity:1;fill-rule:nonzero;stroke:#000000;stroke-width:0.625;stroke-linecap:butt;stroke-linejoin:round;stroke-miterlimit:10;stroke-dasharray:none;stroke-opacity:1"
     id="path598" /><text
     style="font-variant:normal;font-weight:normal;font-size:15px;font-family:'DejaVu Sans';-inkscape-font-specification:DejaVuSans;writing-mode:lr-tb;fill:#000000;fill-opacity:1;fill-rule:nonzero;stroke:none"
     id="text600"
     x="30.2118"
     y="276.53369"><tspan
       x="30.2118 39.984303 44.866802"
       y="276.53369"
       id="tspan602">0.4</tspan></text>
<path
     inkscape:connector-curvature="0"
     d="m 57.243051,185.24305 5,0"
     style="fill:#000000;fill-opacity:1;fill-rule:nonzero;stroke:#000000;stroke-width:0.625;stroke-linecap:butt;stroke-linejoin:round;stroke-miterlimit:10;stroke-dasharray:none;stroke-opacity:1"
     id="path604" /><path
     inkscape:connector-curvature="0"
     d="m 698.94305,185.24305 -5,0"
     style="fill:#000000;fill-opacity:1;fill-rule:nonzero;stroke:#000000;stroke-width:0.625;stroke-linecap:butt;stroke-linejoin:round;stroke-miterlimit:10;stroke-dasharray:none;stroke-opacity:1"
     id="path606" /><text
     style="font-variant:normal;font-weight:normal;font-size:15px;font-family:'DejaVu Sans';-inkscape-font-specification:DejaVuSans;writing-mode:lr-tb;fill:#000000;fill-opacity:1;fill-rule:nonzero;stroke:none"
     id="text608"
     x="30.328987"
     y="189.38367"><tspan
       x="30.328987 40.101486 44.98399"
       y="189.38367"
       id="tspan610">0.6</tspan></text>
<path
     inkscape:connector-curvature="0"
     d="m 57.243051,98.09305 5,0"
     style="fill:#000000;fill-opacity:1;fill-rule:nonzero;stroke:#000000;stroke-width:0.625;stroke-linecap:butt;stroke-linejoin:round;stroke-miterlimit:10;stroke-dasharray:none;stroke-opacity:1"
     id="path612" /><path
     inkscape:connector-curvature="0"
     d="m 698.94305,98.09305 -5,0"
     style="fill:#000000;fill-opacity:1;fill-rule:nonzero;stroke:#000000;stroke-width:0.625;stroke-linecap:butt;stroke-linejoin:round;stroke-miterlimit:10;stroke-dasharray:none;stroke-opacity:1"
     id="path614" /><text
     style="font-variant:normal;font-weight:normal;font-size:15px;font-family:'DejaVu Sans';-inkscape-font-specification:DejaVuSans;writing-mode:lr-tb;fill:#000000;fill-opacity:1;fill-rule:nonzero;stroke:none"
     id="text616"
     x="30.407112"
     y="102.23367"><tspan
       x="30.407112 40.179611 45.062115"
       y="102.23367"
       id="tspan618">0.8</tspan></text>
<path
     inkscape:connector-curvature="0"
     d="m 57.243051,10.94305 5,0"
     style="fill:#000000;fill-opacity:1;fill-rule:nonzero;stroke:#000000;stroke-width:0.625;stroke-linecap:butt;stroke-linejoin:round;stroke-miterlimit:10;stroke-dasharray:none;stroke-opacity:1"
     id="path620" /><path
     inkscape:connector-curvature="0"
     d="m 698.94305,10.94305 -5,0"
     style="fill:#000000;fill-opacity:1;fill-rule:nonzero;stroke:#000000;stroke-width:0.625;stroke-linecap:butt;stroke-linejoin:round;stroke-miterlimit:10;stroke-dasharray:none;stroke-opacity:1"
     id="path622" /><text
     style="font-variant:normal;font-weight:normal;font-size:15px;font-family:'DejaVu Sans';-inkscape-font-specification:DejaVuSans;writing-mode:lr-tb;fill:#000000;fill-opacity:1;fill-rule:nonzero;stroke:none"
     id="text624"
     x="31.012581"
     y="15.083679"><tspan
       x="31.012581 40.785084 45.667583"
       y="15.083679"
       id="tspan626">1.0</tspan></text>
<text
     transform="matrix(0,-1,1,0,0,0)"
     style="font-variant:normal;font-weight:normal;font-size:15px;line-height:125%;font-family:'DejaVu Sans';-inkscape-font-specification:DejaVuSans;writing-mode:lr-tb;fill:#000000;fill-opacity:1;fill-rule:nonzero;stroke:none"
     id="text628"
     x="-385.69501"
     y="24.8368"
     sodipodi:linespacing="125%"><tspan
       x="-385.69501"
       y="24.8368"
       id="tspan630"
       style="font-style:normal;font-variant:normal;font-weight:normal;font-stretch:normal;font-size:25px;line-height:125%;font-family:'DejaVu Sans';-inkscape-font-specification:'DejaVu Sans, Normal';text-align:start;writing-mode:lr-tb;text-anchor:start">Proportion of devices</tspan></text>
<g
     id="g4473"><text
       y="447.10144"
       x="58.41959"
       id="text646"
       style="font-variant:normal;font-weight:normal;font-size:15px;font-family:'DejaVu Sans';-inkscape-font-specification:DejaVuSans;writing-mode:lr-tb;fill:#ffffff;fill-opacity:1;fill-rule:nonzero;stroke:none"
       sodipodi:linespacing="125%"><tspan
         style="fill:#ffffff;fill-opacity:1;-inkscape-font-specification:'DejaVu Sans, Normal';font-family:'DejaVu Sans';font-weight:normal;font-style:normal;font-stretch:normal;font-variant:normal;font-size:22.5px;text-anchor:start;text-align:start;writing-mode:lr;line-height:125%"
         id="tspan648"
         y="447.10144"
         x="58.41959">3</tspan></text>
<text
       y="443.67511"
       x="79.487381"
       id="text652"
       style="font-variant:normal;font-weight:normal;font-size:15px;font-family:'DejaVu Sans';-inkscape-font-specification:DejaVuSans;writing-mode:lr-tb;fill:#ffffff;fill-opacity:1;fill-rule:nonzero;stroke:none"
       sodipodi:linespacing="125%"><tspan
         style="fill:#ffffff;fill-opacity:1;-inkscape-font-specification:'DejaVu Sans, Normal';font-family:'DejaVu Sans';font-weight:normal;font-style:normal;font-stretch:normal;font-variant:normal;font-size:22.5px;text-anchor:start;text-align:start;writing-mode:lr;line-height:125%"
         id="tspan654"
         y="443.67511"
         x="79.487381">4</tspan></text>
<text
       y="420.88116"
       x="103.77817"
       id="text670"
       style="font-variant:normal;font-weight:normal;font-size:15px;font-family:'DejaVu Sans';-inkscape-font-specification:DejaVuSans;writing-mode:lr-tb;fill:#000000;fill-opacity:1;fill-rule:nonzero;stroke:none"
       sodipodi:linespacing="125%"><tspan
         id="tspan672"
         y="420.88116"
         x="103.77817"
         style="-inkscape-font-specification:'DejaVu Sans, Normal';font-family:'DejaVu Sans';font-weight:normal;font-style:normal;font-stretch:normal;font-variant:normal;font-size:22.5px;text-anchor:start;text-align:start;writing-mode:lr;line-height:125%">7</tspan></text>
<text
       y="384.94629"
       x="158.69342"
       id="text676"
       style="font-variant:normal;font-weight:normal;font-size:15px;font-family:'DejaVu Sans';-inkscape-font-specification:DejaVuSans;writing-mode:lr-tb;fill:#000000;fill-opacity:1;fill-rule:nonzero;stroke:none"
       sodipodi:linespacing="125%"><tspan
         id="tspan678"
         y="384.94629"
         x="158.69342"
         style="-inkscape-font-specification:'DejaVu Sans, Normal';font-family:'DejaVu Sans';font-weight:normal;font-style:normal;font-stretch:normal;font-variant:normal;font-size:22.5px;text-anchor:start;text-align:start;writing-mode:lr;line-height:125%">8</tspan></text>
<text
       y="314.10144"
       x="242.04607"
       id="text688"
       style="font-variant:normal;font-weight:normal;font-size:15px;font-family:'DejaVu Sans';-inkscape-font-specification:DejaVuSans;writing-mode:lr-tb;fill:#000000;fill-opacity:1;fill-rule:nonzero;stroke:none"
       sodipodi:linespacing="125%"><tspan
         id="tspan690"
         y="314.10144"
         x="242.04607"
         style="-inkscape-font-specification:'DejaVu Sans, Normal';font-family:'DejaVu Sans';font-weight:normal;font-style:normal;font-stretch:normal;font-variant:normal;font-size:22.5px;text-anchor:start;text-align:start;writing-mode:lr;line-height:125%">10</tspan></text>
<text
       y="27.595642"
       x="82.934624"
       id="text700"
       style="font-variant:normal;font-weight:normal;font-size:15px;line-height:125%;font-family:'DejaVu Sans';-inkscape-font-specification:DejaVuSans;writing-mode:lr-tb;fill:#000000;fill-opacity:1;fill-rule:nonzero;stroke:none"
       sodipodi:linespacing="125%"><tspan
         id="tspan702"
         y="27.595642"
         x="82.934624"
         style="font-style:normal;font-variant:normal;font-weight:normal;font-stretch:normal;font-size:22.5px;line-height:125%;font-family:'DejaVu Sans';-inkscape-font-specification:'DejaVu Sans, Normal';text-align:start;writing-mode:lr-tb;text-anchor:start">12</tspan></text>
<text
       y="28.270966"
       x="118.39226"
       id="text706"
       style="font-variant:normal;font-weight:normal;font-size:15px;line-height:125%;font-family:'DejaVu Sans';-inkscape-font-specification:DejaVuSans;writing-mode:lr-tb;fill:#000000;fill-opacity:1;fill-rule:nonzero;stroke:none"
       sodipodi:linespacing="125%"><tspan
         id="tspan708"
         y="28.270966"
         x="118.39226"
         style="font-style:normal;font-variant:normal;font-weight:normal;font-stretch:normal;font-size:22.5px;line-height:125%;font-family:'DejaVu Sans';-inkscape-font-specification:'DejaVu Sans, Normal';text-align:start;writing-mode:lr-tb;text-anchor:start">13</tspan></text>
<text
       y="36.47171"
       x="149.74818"
       id="text712"
       style="font-variant:normal;font-weight:normal;font-size:15px;line-height:125%;font-family:'DejaVu Sans';-inkscape-font-specification:DejaVuSans;writing-mode:lr-tb;fill:#000000;fill-opacity:1;fill-rule:nonzero;stroke:none"
       sodipodi:linespacing="125%"><tspan
         id="tspan714"
         y="36.47171"
         x="149.74818"
         style="font-style:normal;font-variant:normal;font-weight:normal;font-stretch:normal;font-size:22.5px;line-height:125%;font-family:'DejaVu Sans';-inkscape-font-specification:'DejaVu Sans, Normal';text-align:start;writing-mode:lr-tb;text-anchor:start">14</tspan></text>
<text
       y="253.93463"
       x="341.33539"
       id="text718"
       style="font-variant:normal;font-weight:normal;font-size:15px;font-family:'DejaVu Sans';-inkscape-font-specification:DejaVuSans;writing-mode:lr-tb;fill:#000000;fill-opacity:1;fill-rule:nonzero;stroke:none"
       sodipodi:linespacing="125%"><tspan
         id="tspan720"
         y="253.93463"
         x="341.33539"
         style="-inkscape-font-specification:'DejaVu Sans, Normal';font-family:'DejaVu Sans';font-weight:normal;font-style:normal;font-stretch:normal;font-variant:normal;font-size:22.5px;text-anchor:start;text-align:start;writing-mode:lr;line-height:125%">15</tspan></text>
<text
       y="227.91504"
       x="403.87778"
       id="text724"
       style="font-variant:normal;font-weight:normal;font-size:15px;font-family:'DejaVu Sans';-inkscape-font-specification:DejaVuSans;writing-mode:lr-tb;fill:#000000;fill-opacity:1;fill-rule:nonzero;stroke:none"
       sodipodi:linespacing="125%"><tspan
         id="tspan726"
         y="227.91504"
         x="403.87778"
         style="-inkscape-font-specification:'DejaVu Sans, Normal';font-family:'DejaVu Sans';font-weight:normal;font-style:normal;font-stretch:normal;font-variant:normal;font-size:22.5px;text-anchor:start;text-align:start;writing-mode:lr;line-height:125%">16</tspan></text>
<text
       y="185.11578"
       x="470.2337"
       id="text730"
       style="font-variant:normal;font-weight:normal;font-size:15px;font-family:'DejaVu Sans';-inkscape-font-specification:DejaVuSans;writing-mode:lr-tb;fill:#000000;fill-opacity:1;fill-rule:nonzero;stroke:none"
       sodipodi:linespacing="125%"><tspan
         id="tspan732"
         y="185.11578"
         x="470.2337"
         style="-inkscape-font-specification:'DejaVu Sans, Normal';font-family:'DejaVu Sans';font-weight:normal;font-style:normal;font-stretch:normal;font-variant:normal;font-size:22.5px;text-anchor:start;text-align:start;writing-mode:lr;line-height:125%">17</tspan></text>
<text
       y="165.83295"
       x="494.77145"
       id="text736"
       style="font-variant:normal;font-weight:normal;font-size:15px;line-height:125%;font-family:'DejaVu Sans';-inkscape-font-specification:DejaVuSans;writing-mode:lr-tb;fill:#000000;fill-opacity:1;fill-rule:nonzero;stroke:none"
       sodipodi:linespacing="125%"><tspan
         id="tspan738"
         y="165.83295"
         x="494.77145"
         style="font-style:normal;font-variant:normal;font-weight:normal;font-stretch:normal;font-size:22.5px;line-height:125%;font-family:'DejaVu Sans';-inkscape-font-specification:'DejaVu Sans, Normal';text-align:start;writing-mode:lr-tb;text-anchor:start">18</tspan></text>
<text
       y="130.2879"
       x="557.97485"
       id="text742"
       style="font-variant:normal;font-weight:normal;font-size:15px;font-family:'DejaVu Sans';-inkscape-font-specification:DejaVuSans;writing-mode:lr-tb;fill:#000000;fill-opacity:1;fill-rule:nonzero;stroke:none"
       sodipodi:linespacing="125%"><tspan
         id="tspan744"
         y="130.2879"
         x="557.97485"
         style="-inkscape-font-specification:'DejaVu Sans, Normal';font-family:'DejaVu Sans';font-weight:normal;font-style:normal;font-stretch:normal;font-variant:normal;font-size:22.5px;text-anchor:start;text-align:start;writing-mode:lr;line-height:125%">19</tspan></text>
<text
       y="74.697357"
       x="621.05438"
       id="text754"
       style="font-variant:normal;font-weight:normal;font-size:15px;font-family:'DejaVu Sans';-inkscape-font-specification:DejaVuSans;writing-mode:lr-tb;fill:#000000;fill-opacity:1;fill-rule:nonzero;stroke:none"
       sodipodi:linespacing="125%"><tspan
         id="tspan756"
         y="74.697357"
         x="621.05438"
         style="-inkscape-font-specification:'DejaVu Sans, Normal';font-family:'DejaVu Sans';font-weight:normal;font-style:normal;font-stretch:normal;font-variant:normal;font-size:22.5px;text-anchor:start;text-align:start;writing-mode:lr;line-height:125%">21</tspan></text>
<text
       sodipodi:linespacing="125%"
       y="44.864166"
       x="651.56281"
       id="text760"
       style="font-variant:normal;font-weight:normal;font-size:15px;font-family:'DejaVu Sans';-inkscape-font-specification:DejaVuSans;writing-mode:lr-tb;fill:#ffffff;fill-opacity:1;fill-rule:nonzero;stroke:none"><tspan
         style="fill:#ffffff;fill-opacity:1;-inkscape-font-specification:'DejaVu Sans, Normal';font-family:'DejaVu Sans';font-weight:normal;font-style:normal;font-stretch:normal;font-variant:normal;font-size:22.5px;text-anchor:start;text-align:start;writing-mode:lr;line-height:125%"
         id="tspan762"
         y="44.864166"
         x="651.56281">22</tspan></text>
<text
       sodipodi:linespacing="125%"
       y="29.132721"
       x="673.30859"
       id="text766"
       style="font-variant:normal;font-weight:normal;font-size:15px;line-height:125%;font-family:'DejaVu Sans';-inkscape-font-specification:DejaVuSans;writing-mode:lr-tb;fill:#ffffff;fill-opacity:1;fill-rule:nonzero;stroke:none"><tspan
         style="font-style:normal;font-variant:normal;font-weight:normal;font-stretch:normal;font-size:22.5px;line-height:125%;font-family:'DejaVu Sans';-inkscape-font-specification:'DejaVu Sans, Normal';text-align:start;writing-mode:lr-tb;text-anchor:start;fill:#ffffff;fill-opacity:1"
         id="tspan768"
         y="29.132721"
         x="673.30859">23</tspan></text>
</g></svg>