<?xml version="1.0" encoding="UTF-8" standalone="no"?>
<svg
   xmlns:dc="http://purl.org/dc/elements/1.1/"
   xmlns:cc="http://creativecommons.org/ns#"
   xmlns:rdf="http://www.w3.org/1999/02/22-rdf-syntax-ns#"
   xmlns:svg="http://www.w3.org/2000/svg"
   xmlns="http://www.w3.org/2000/svg"
   xml:space="preserve"
   id="svg2"
   height="507.87997"
   width="689.74304"
   version="1.1"><metadata
     id="metadata8"><rdf:RDF><cc:Work
         rdf:about=""><dc:format>image/svg+xml</dc:format><dc:type
           rdf:resource="http://purl.org/dc/dcmitype/StillImage" /><dc:title></dc:title></cc:Work></rdf:RDF></metadata><defs
     id="defs6"><clipPath
       id="clipPath22"><path
         id="path24"
         d="m 58.608,160.812 513.36,0 0,361.62 -513.36,0 0,-361.62 z" /></clipPath><clipPath
       id="clipPath32"><path
         id="path34"
         d="m -129.91469,159.812 697.89538,0 0,3.08486 -697.89538,0 0,-3.08486 z" /></clipPath><clipPath
       id="clipPath44"><path
         id="path46"
         d="m 58.608,160.812 513.36,0 0,361.62 -513.36,0 0,-361.62 z" /></clipPath><clipPath
       id="clipPath54"><path
         id="path56"
         d="m -129.91469,159.812 697.89538,0 0,139.77722 -697.89538,0 0,-139.77722 z" /></clipPath><clipPath
       id="clipPath66"><path
         id="path68"
         d="m 58.608,160.812 513.36,0 0,361.62 -513.36,0 0,-361.62 z" /></clipPath><clipPath
       id="clipPath76"><path
         id="path78"
         d="m -129.91469,159.812 697.89538,0 0,299.25164 -697.89538,0 0,-299.25164 z" /></clipPath><clipPath
       id="clipPath88"><path
         id="path90"
         d="m 58.608,160.812 513.36,0 0,361.62 -513.36,0 0,-361.62 z" /></clipPath><clipPath
       id="clipPath98"><path
         id="path100"
         d="m -129.91469,159.812 697.89538,0 0,309.73862 -697.89538,0 0,-309.73862 z" /></clipPath><clipPath
       id="clipPath110"><path
         id="path112"
         d="m 58.608,160.812 513.36,0 0,361.62 -513.36,0 0,-361.62 z" /></clipPath><clipPath
       id="clipPath120"><path
         id="path122"
         d="m -129.91469,159.812 697.89538,0 0,363.62 -697.89538,0 0,-363.62 z" /></clipPath><clipPath
       id="clipPath132"><path
         id="path134"
         d="m 58.608,160.812 513.36,0 0,361.62 -513.36,0 0,-361.62 z" /></clipPath><clipPath
       id="clipPath142"><path
         id="path144"
         d="m -129.91469,159.812 697.89538,0 0,363.98162 -697.89538,0 0,-363.98162 z" /></clipPath><clipPath
       id="clipPath154"><path
         id="path156"
         d="m 58.608,160.812 513.36,0 0,361.62 -513.36,0 0,-361.62 z" /></clipPath><clipPath
       id="clipPath164"><path
         id="path166"
         d="m -129.91469,159.812 697.89538,0 0,363.98162 -697.89538,0 0,-363.98162 z" /></clipPath><clipPath
       id="clipPath176"><path
         id="path178"
         d="m 58.608,160.812 513.36,0 0,361.62 -513.36,0 0,-361.62 z" /></clipPath><clipPath
       id="clipPath186"><path
         id="path188"
         d="m -129.91469,160.53524 697.89538,0 0,363.25838 -697.89538,0 0,-363.25838 z" /></clipPath><clipPath
       id="clipPath198"><path
         id="path200"
         d="m 58.608,160.812 513.36,0 0,361.62 -513.36,0 0,-361.62 z" /></clipPath><clipPath
       id="clipPath208"><path
         id="path210"
         d="m -129.91469,160.53524 697.89538,0 0,363.25838 -697.89538,0 0,-363.25838 z" /></clipPath><clipPath
       id="clipPath220"><path
         id="path222"
         d="m 58.608,160.812 513.36,0 0,361.62 -513.36,0 0,-361.62 z" /></clipPath><clipPath
       id="clipPath230"><path
         id="path232"
         d="m -129.91469,175.36166 697.89538,0 0,348.43196 -697.89538,0 0,-348.43196 z" /></clipPath><clipPath
       id="clipPath242"><path
         id="path244"
         d="m 58.608,160.812 513.36,0 0,361.62 -513.36,0 0,-361.62 z" /></clipPath><clipPath
       id="clipPath252"><path
         id="path254"
         d="m -129.91469,175.36166 697.89538,0 0,348.43196 -697.89538,0 0,-348.43196 z" /></clipPath><clipPath
       id="clipPath264"><path
         id="path266"
         d="m 58.608,160.812 513.36,0 0,361.62 -513.36,0 0,-361.62 z" /></clipPath><clipPath
       id="clipPath274"><path
         id="path276"
         d="m -129.91469,175.36166 697.89538,0 0,348.43196 -697.89538,0 0,-348.43196 z" /></clipPath><clipPath
       id="clipPath286"><path
         id="path288"
         d="m 58.608,160.812 513.36,0 0,361.62 -513.36,0 0,-361.62 z" /></clipPath><clipPath
       id="clipPath296"><path
         id="path298"
         d="m -129.91469,175.36166 697.89538,0 0,348.43196 -697.89538,0 0,-348.43196 z" /></clipPath><clipPath
       id="clipPath308"><path
         id="path310"
         d="m 58.608,160.812 513.36,0 0,361.62 -513.36,0 0,-361.62 z" /></clipPath><clipPath
       id="clipPath318"><path
         id="path320"
         d="m -129.91469,175.36166 697.89538,0 0,348.43196 -697.89538,0 0,-348.43196 z" /></clipPath><clipPath
       id="clipPath330"><path
         id="path332"
         d="m 58.608,160.812 513.36,0 0,361.62 -513.36,0 0,-361.62 z" /></clipPath><clipPath
       id="clipPath340"><path
         id="path342"
         d="m -129.91469,188.7416 697.89538,0 0,335.05202 -697.89538,0 0,-335.05202 z" /></clipPath><clipPath
       id="clipPath352"><path
         id="path354"
         d="m 58.608,160.812 513.36,0 0,361.62 -513.36,0 0,-361.62 z" /></clipPath><clipPath
       id="clipPath362"><path
         id="path364"
         d="m -129.91469,232.49762 697.89538,0 0,291.296 -697.89538,0 0,-291.296 z" /></clipPath><clipPath
       id="clipPath374"><path
         id="path376"
         d="m 58.608,160.812 513.36,0 0,361.62 -513.36,0 0,-361.62 z" /></clipPath><clipPath
       id="clipPath384"><path
         id="path386"
         d="m -129.91469,287.46386 697.89538,0 0,236.32976 -697.89538,0 0,-236.32976 z" /></clipPath><clipPath
       id="clipPath396"><path
         id="path398"
         d="m 58.608,160.812 513.36,0 0,361.62 -513.36,0 0,-361.62 z" /></clipPath><clipPath
       id="clipPath406"><path
         id="path408"
         d="m -129.91469,303.73676 697.89538,0 0,220.05686 -697.89538,0 0,-220.05686 z" /></clipPath><clipPath
       id="clipPath418"><path
         id="path420"
         d="m 58.608,160.812 513.36,0 0,361.62 -513.36,0 0,-361.62 z" /></clipPath><clipPath
       id="clipPath428"><path
         id="path430"
         d="m -129.91469,445.4918 697.89538,0 0,78.30182 -697.89538,0 0,-78.30182 z" /></clipPath><clipPath
       id="clipPath440"><path
         id="path442"
         d="m 58.608,160.812 513.36,0 0,361.62 -513.36,0 0,-361.62 z" /></clipPath><clipPath
       id="clipPath450"><path
         id="path452"
         d="m -129.91469,445.4918 697.89538,0 0,78.30182 -697.89538,0 0,-78.30182 z" /></clipPath><clipPath
       id="clipPath462"><path
         id="path464"
         d="m 58.608,160.812 513.36,0 0,361.62 -513.36,0 0,-361.62 z" /></clipPath><clipPath
       id="clipPath472"><path
         id="path474"
         d="m -129.91469,502.98938 697.89538,0 0,22.97396 -697.89538,0 0,-22.97396 z" /></clipPath></defs><path
     d="m 47.418052,459.0172 641.699998,0 0,-452.025004 -641.699998,0 0,452.025004 z"
     id="path14"
     style="fill:#ffffff;fill-opacity:1;fill-rule:nonzero;stroke:none" /><g
     transform="matrix(1.25,0,0,-1.25,14.158052,510.0322)"
     id="g16" /><g
     transform="matrix(1.25,0,0,-1.25,-25.841948,660.0322)"
     id="g18"><g
       clip-path="url(#clipPath22)"
       id="g20"><g
         id="g26"><g
           id="g28"><g
             clip-path="url(#clipPath32)"
             id="g30"><path
               d="m -128.91469,161.89686 0,-1.08486 6.98222,0 32.583734,0 6.982228,0 4.654819,0 9.974611,0 4.987306,0 10.639585,0 9.974612,0 9.974611,0 10.307099,0 9.974611,0 11.3045597,0 9.6421244,0 13.6319689,0 5.65228,0 10.307098,0 9.974612,0 11.304559,0 8.97715,0 10.639586,0 10.307098,0 10.307098,0 9.30964,0 10.97207,0 9.64213,0 10.97207,0 9.30963,0 9.64213,0 10.3071,0 10.3071,0 9.97461,0 11.30456,0 8.97715,0 10.3071,0 10.63958,0 10.3071,0 10.63959,0 9.30963,0 9.64213,0 9.64212,0 10.97207,0 11.63705,0 7.97969,0 11.30456,0 9.30964,0 9.97461,0 10.3071,0 12.30202,0 8.97715,0 8.97715,0 9.64212,0 9.97461,0 11.30456,0 10.97208,0 11.96953,0 9.30964,0 18.28678,0 9.30964,0 11.63705,0 9.30964,0 9.30963,0 11.63705,0 9.30964,0 9.30963,0 20.94669,0 11.63704,0 0,0 0,0 -11.63704,0 -20.94669,0 -9.30963,0 -9.30964,0 -11.63705,0 -9.30963,0 -9.30964,0 -11.63705,0 -9.30964,0 -18.28678,0 -9.30964,0 -11.96953,0 -10.97208,0 -11.30456,0 -9.97461,0 -9.64212,0 -8.97715,0 -8.97715,0 -12.30202,0 -10.3071,0 -9.97461,0 -9.30964,0 -11.30456,0 -7.97969,0 -11.63705,0 -10.97207,0 -9.64212,0 -9.64213,0 -9.30963,0 -10.63959,0 -10.3071,0 -10.63958,0 -10.3071,0 -8.97715,0 -11.30456,0 -9.97461,0 -10.3071,0 -10.3071,0 -9.64213,0 -9.30963,0 -10.97207,0 -9.64213,0 -10.97207,0 -9.30964,0 -10.307098,0 -10.307098,0 -10.639586,0 -8.97715,0 -11.304559,0 -9.974612,0 -10.307098,0 -5.65228,0 -13.6319689,0 -9.6421244,0 -11.3045597,0 -9.974611,0 -10.307099,0 -9.974611,0 -9.974612,0 -10.639585,0 -4.987306,0.36162 -9.974611,0 -4.654819,0 -6.982228,0 -32.583734,0.72324 -6.98222,0 z"
               id="path36"
               style="fill:#000080;fill-opacity:1;fill-rule:nonzero;stroke:none" /></g></g></g></g></g><g
     transform="matrix(1.25,0,0,-1.25,14.158052,510.0322)"
     id="g38" /><g
     transform="matrix(1.25,0,0,-1.25,-25.841948,660.0322)"
     id="g40"><g
       clip-path="url(#clipPath44)"
       id="g42"><g
         id="g48"><g
           id="g50"><g
             clip-path="url(#clipPath54)"
             id="g52"><path
               d="m -128.91469,262.0656 0,-100.16874 6.98222,0 32.583734,-0.72324 6.982228,0 4.654819,0 9.974611,0 4.987306,-0.36162 10.639585,0 9.974612,0 9.974611,0 10.307099,0 9.974611,0 11.3045597,0 9.6421244,0 13.6319689,0 5.65228,0 10.307098,0 9.974612,0 11.304559,0 8.97715,0 10.639586,0 10.307098,0 10.307098,0 9.30964,0 10.97207,0 9.64213,0 10.97207,0 9.30963,0 9.64213,0 10.3071,0 10.3071,0 9.97461,0 11.30456,0 8.97715,0 10.3071,0 10.63958,0 10.3071,0 10.63959,0 9.30963,0 9.64213,0 9.64212,0 10.97207,0 11.63705,0 7.97969,0 11.30456,0 9.30964,0 9.97461,0 10.3071,0 12.30202,0 8.97715,0 8.97715,0 9.64212,0 9.97461,0 11.30456,0 10.97208,0 11.96953,0 9.30964,0 18.28678,0 9.30964,0 11.63705,0 9.30964,0 9.30963,0 11.63705,0 9.30964,0 9.30963,0 20.94669,0 11.63704,0 0,0 0,0 -11.63704,0 -20.94669,0 -9.30963,0 -9.30964,0 -11.63705,0 -9.30963,0 -9.30964,0 -11.63705,0 -9.30964,0 -18.28678,0 -9.30964,0 -11.96953,0 -10.97208,0 -11.30456,0 -9.97461,0 -9.64212,0 -8.97715,0 -8.97715,0 -12.30202,0 -10.3071,0 -9.97461,0 -9.30964,0 -11.30456,0 -7.97969,0 -11.63705,0 -10.97207,0 -9.64212,0 -9.64213,0 -9.30963,0 -10.63959,0 -10.3071,0.36162 -10.63958,0 -10.3071,0 -8.97715,0.36162 -11.30456,0 -9.97461,0 -10.3071,0.36162 -10.3071,0 -9.64213,0 -9.30963,0.36162 -10.97207,0.72324 -9.64213,0 -10.97207,0.72324 -9.30964,0.36162 -10.307098,0.72324 -10.307098,-0.36162 -10.639586,1.08486 -8.97715,0.36162 -11.304559,1.8081 -9.974612,0.36162 -10.307098,2.53134 -5.65228,1.08486 -13.6319689,3.25458 -9.6421244,2.89296 -11.3045597,5.78592 -9.974611,5.78592 -10.307099,6.50916 -9.974611,8.31726 -9.974612,11.93346 -10.639585,21.6972 -4.987306,12.29508 -9.974611,34.3539 -4.654819,11.21022 -6.982228,2.89296 -32.583734,-24.59016 -6.98222,-11.93346 z"
               id="path58"
               style="fill:#0024ca;fill-opacity:1;fill-rule:nonzero;stroke:none" /></g></g></g></g></g><g
     transform="matrix(1.25,0,0,-1.25,14.158052,510.0322)"
     id="g60" /><g
     transform="matrix(1.25,0,0,-1.25,-25.841948,660.0322)"
     id="g62"><g
       clip-path="url(#clipPath66)"
       id="g64"><g
         id="g70"><g
           id="g72"><g
             clip-path="url(#clipPath76)"
             id="g74"><path
               d="m -128.91469,458.06364 0,-195.99804 6.98222,11.93346 32.583734,24.59016 6.982228,-2.89296 4.654819,-11.21022 9.974611,-34.3539 4.987306,-12.29508 10.639585,-21.6972 9.974612,-11.93346 9.974611,-8.31726 10.307099,-6.50916 9.974611,-5.78592 11.3045597,-5.78592 9.6421244,-2.89296 13.6319689,-3.25458 5.65228,-1.08486 10.307098,-2.53134 9.974612,-0.36162 11.304559,-1.8081 8.97715,-0.36162 10.639586,-1.08486 10.307098,0.36162 10.307098,-0.72324 9.30964,-0.36162 10.97207,-0.72324 9.64213,0 10.97207,-0.72324 9.30963,-0.36162 9.64213,0 10.3071,0 10.3071,-0.36162 9.97461,0 11.30456,0 8.97715,-0.36162 10.3071,0 10.63958,0 10.3071,-0.36162 10.63959,0 9.30963,0 9.64213,0 9.64212,0 10.97207,0 11.63705,0 7.97969,0 11.30456,0 9.30964,0 9.97461,0 10.3071,0 12.30202,0 8.97715,0 8.97715,0 9.64212,0 9.97461,0 11.30456,0 10.97208,0 11.96953,0 9.30964,0 18.28678,0 9.30964,0 11.63705,0 9.30964,0 9.30963,0 11.63705,0 9.30964,0 9.30963,0 20.94669,0 11.63704,0 0,0 0,0 -11.63704,0 -20.94669,0 -9.30963,0 -9.30964,0 -11.63705,0 -9.30963,0 -9.30964,0 -11.63705,0 -9.30964,0 -18.28678,0 -9.30964,0 -11.96953,0 -10.97208,0 -11.30456,0 -9.97461,0 -9.64212,0 -8.97715,0 -8.97715,0 -12.30202,0 -10.3071,0 -9.97461,0 -9.30964,0 -11.30456,0.36162 -7.97969,0 -11.63705,0 -10.97207,0 -9.64212,0 -9.64213,0.36162 -9.30963,0 -10.63959,0 -10.3071,0.72324 -10.63958,0 -10.3071,0.36162 -8.97715,0.36162 -11.30456,0.36162 -9.97461,0 -10.3071,0.72324 -10.3071,0.36162 -9.64213,0 -9.30963,0.72324 -10.97207,1.44648 -9.64213,0.36162 -10.97207,1.44648 -9.30964,0.72324 -10.307098,0.72324 -10.307098,1.08486 -10.639586,1.8081 -8.97715,1.08486 -11.304559,2.89296 -9.974612,2.16972 -10.307098,4.33944 -5.65228,5.78592 -13.6319689,8.67888 -9.6421244,8.67888 -11.3045597,15.54966 -9.974611,21.6972 -10.307099,11.57184 -9.974611,12.29508 -9.974612,22.05882 -10.639585,33.26904 -4.987306,17.71938 -9.974611,45.2025 -4.654819,16.2729 -6.982228,10.8486 -32.583734,33.26904 -6.98222,11.93346 z"
               id="path80"
               style="fill:#0051ff;fill-opacity:1;fill-rule:nonzero;stroke:none" /></g></g></g></g></g><g
     transform="matrix(1.25,0,0,-1.25,14.158052,510.0322)"
     id="g82" /><g
     transform="matrix(1.25,0,0,-1.25,-25.841948,660.0322)"
     id="g84"><g
       clip-path="url(#clipPath88)"
       id="g86"><g
         id="g92"><g
           id="g94"><g
             clip-path="url(#clipPath98)"
             id="g96"><path
               d="m -128.91469,468.55062 0,-10.48698 6.98222,-11.93346 32.583734,-33.26904 6.982228,-10.8486 4.654819,-16.2729 9.974611,-45.2025 4.987306,-17.71938 10.639585,-33.26904 9.974612,-22.05882 9.974611,-12.29508 10.307099,-11.57184 9.974611,-21.6972 11.3045597,-15.54966 9.6421244,-8.67888 13.6319689,-8.67888 5.65228,-5.78592 10.307098,-4.33944 9.974612,-2.16972 11.304559,-2.89296 8.97715,-1.08486 10.639586,-1.8081 10.307098,-1.08486 10.307098,-0.72324 9.30964,-0.72324 10.97207,-1.44648 9.64213,-0.36162 10.97207,-1.44648 9.30963,-0.72324 9.64213,0 10.3071,-0.36162 10.3071,-0.72324 9.97461,0 11.30456,-0.36162 8.97715,-0.36162 10.3071,-0.36162 10.63958,0 10.3071,-0.72324 10.63959,0 9.30963,0 9.64213,-0.36162 9.64212,0 10.97207,0 11.63705,0 7.97969,0 11.30456,-0.36162 9.30964,0 9.97461,0 10.3071,0 12.30202,0 8.97715,0 8.97715,0 9.64212,0 9.97461,0 11.30456,0 10.97208,0 11.96953,0 9.30964,0 18.28678,0 9.30964,0 11.63705,0 9.30964,0 9.30963,0 11.63705,0 9.30964,0 9.30963,0 20.94669,0 11.63704,0 0,0 0,0 -11.63704,0 -20.94669,0 -9.30963,0 -9.30964,0 -11.63705,0 -9.30963,0 -9.30964,0 -11.63705,0 -9.30964,0 -18.28678,0 -9.30964,0 -11.96953,0 -10.97208,0 -11.30456,0 -9.97461,0 -9.64212,0 -8.97715,0 -8.97715,0 -12.30202,0 -10.3071,0 -9.97461,0 -9.30964,0 -11.30456,0.36162 -7.97969,0 -11.63705,0 -10.97207,0 -9.64212,0 -9.64213,0.36162 -9.30963,0 -10.63959,0 -10.3071,0.72324 -10.63958,0 -10.3071,0.36162 -8.97715,0.36162 -11.30456,0.36162 -9.97461,0 -10.3071,0.72324 -10.3071,0.36162 -9.64213,0 -9.30963,0.72324 -10.97207,1.44648 -9.64213,0.36162 -10.97207,1.44648 -9.30964,0.72324 -10.307098,0.72324 -10.307098,1.08486 -10.639586,1.8081 -8.97715,1.08486 -11.304559,2.89296 -9.974612,2.16972 -10.307098,4.33944 -5.65228,5.78592 -13.6319689,8.67888 -9.6421244,8.67888 -11.3045597,15.54966 -9.974611,21.6972 -10.307099,11.57184 -9.974611,12.29508 -9.974612,22.05882 -10.639585,33.26904 -4.987306,18.081 -9.974611,45.56412 -4.654819,16.63452 -6.982228,10.8486 -32.583734,34.71552 -6.98222,19.8891 z"
               id="path102"
               style="fill:#0081ff;fill-opacity:1;fill-rule:nonzero;stroke:none" /></g></g></g></g></g><g
     transform="matrix(1.25,0,0,-1.25,14.158052,510.0322)"
     id="g104" /><g
     transform="matrix(1.25,0,0,-1.25,-25.841948,660.0322)"
     id="g106"><g
       clip-path="url(#clipPath110)"
       id="g108"><g
         id="g114"><g
           id="g116"><g
             clip-path="url(#clipPath120)"
             id="g118"><path
               d="m -128.91469,522.07038 0,-53.51976 6.98222,-19.8891 32.583734,-34.71552 6.982228,-10.8486 4.654819,-16.63452 9.974611,-45.56412 4.987306,-18.081 10.639585,-33.26904 9.974612,-22.05882 9.974611,-12.29508 10.307099,-11.57184 9.974611,-21.6972 11.3045597,-15.54966 9.6421244,-8.67888 13.6319689,-8.67888 5.65228,-5.78592 10.307098,-4.33944 9.974612,-2.16972 11.304559,-2.89296 8.97715,-1.08486 10.639586,-1.8081 10.307098,-1.08486 10.307098,-0.72324 9.30964,-0.72324 10.97207,-1.44648 9.64213,-0.36162 10.97207,-1.44648 9.30963,-0.72324 9.64213,0 10.3071,-0.36162 10.3071,-0.72324 9.97461,0 11.30456,-0.36162 8.97715,-0.36162 10.3071,-0.36162 10.63958,0 10.3071,-0.72324 10.63959,0 9.30963,0 9.64213,-0.36162 9.64212,0 10.97207,0 11.63705,0 7.97969,0 11.30456,-0.36162 9.30964,0 9.97461,0 10.3071,0 12.30202,0 8.97715,0 8.97715,0 9.64212,0 9.97461,0 11.30456,0 10.97208,0 11.96953,0 9.30964,0 18.28678,0 9.30964,0 11.63705,0 9.30964,0 9.30963,0 11.63705,0 9.30964,0 9.30963,0 20.94669,0 11.63704,0 0,0 0,0 -11.63704,0 -20.94669,0 -9.30963,0 -9.30964,0 -11.63705,0 -9.30963,0 -9.30964,0 -11.63705,0 -9.30964,0 -18.28678,0 -9.30964,0 -11.96953,0 -10.97208,0 -11.30456,0 -9.97461,0 -9.64212,0 -8.97715,0 -8.97715,0 -12.30202,0 -10.3071,0 -9.97461,0 -9.30964,0 -11.30456,0.36162 -7.97969,0 -11.63705,0 -10.97207,0 -9.64212,0 -9.64213,0.36162 -9.30963,0 -10.63959,0 -10.3071,0.72324 -10.63958,0 -10.3071,0.36162 -8.97715,0.36162 -11.30456,0.36162 -9.97461,0 -10.3071,0.72324 -10.3071,0.36162 -9.64213,0 -9.30963,0.72324 -10.97207,1.44648 -9.64213,0.36162 -10.97207,1.44648 -9.30964,0.72324 -10.307098,0.72324 -10.307098,1.08486 -10.639586,1.8081 -8.97715,1.08486 -11.304559,2.89296 -9.974612,2.16972 -10.307098,4.33944 -5.65228,5.78592 -13.6319689,8.67888 -9.6421244,8.67888 -11.3045597,15.54966 -9.974611,21.6972 -10.307099,11.57184 -9.974611,12.29508 -9.974612,22.05882 -10.639585,33.26904 -4.987306,19.16586 -9.974611,45.92574 -4.654819,17.35776 -6.982228,18.44262 -32.583734,98.72226 -6.98222,-0.36162 z"
               id="path124"
               style="fill:#00aeff;fill-opacity:1;fill-rule:nonzero;stroke:none" /></g></g></g></g></g><g
     transform="matrix(1.25,0,0,-1.25,14.158052,510.0322)"
     id="g126" /><g
     transform="matrix(1.25,0,0,-1.25,-25.841948,660.0322)"
     id="g128"><g
       clip-path="url(#clipPath132)"
       id="g130"><g
         id="g136"><g
           id="g138"><g
             clip-path="url(#clipPath142)"
             id="g140"><path
               d="m -128.91469,522.07038 0,0 6.98222,0.36162 32.583734,-98.72226 6.982228,-18.44262 4.654819,-17.35776 9.974611,-45.92574 4.987306,-19.16586 10.639585,-33.26904 9.974612,-22.05882 9.974611,-12.29508 10.307099,-11.57184 9.974611,-21.6972 11.3045597,-15.54966 9.6421244,-8.67888 13.6319689,-8.67888 5.65228,-5.78592 10.307098,-4.33944 9.974612,-2.16972 11.304559,-2.89296 8.97715,-1.08486 10.639586,-1.8081 10.307098,-1.08486 10.307098,-0.72324 9.30964,-0.72324 10.97207,-1.44648 9.64213,-0.36162 10.97207,-1.44648 9.30963,-0.72324 9.64213,0 10.3071,-0.36162 10.3071,-0.72324 9.97461,0 11.30456,-0.36162 8.97715,-0.36162 10.3071,-0.36162 10.63958,0 10.3071,-0.72324 10.63959,0 9.30963,0 9.64213,-0.36162 9.64212,0 10.97207,0 11.63705,0 7.97969,0 11.30456,-0.36162 9.30964,0 9.97461,0 10.3071,0 12.30202,0 8.97715,0 8.97715,0 9.64212,0 9.97461,0 11.30456,0 10.97208,0 11.96953,0 9.30964,0 18.28678,0 9.30964,0 11.63705,0 9.30964,0 9.30963,0 11.63705,0 9.30964,0 9.30963,0 20.94669,0 11.63704,0 0,0 0,0 -11.63704,0 -20.94669,0 -9.30963,0 -9.30964,0 -11.63705,0 -9.30963,0 -9.30964,0 -11.63705,0 -9.30964,0 -18.28678,0 -9.30964,0 -11.96953,0 -10.97208,0 -11.30456,0 -9.97461,0 -9.64212,0 -8.97715,0 -8.97715,0 -12.30202,0 -10.3071,0 -9.97461,0 -9.30964,0 -11.30456,4.70106 -7.97969,0.72324 -11.63705,0.36162 -10.97207,0.72324 -9.64212,0 -9.64213,1.08486 -9.30963,1.08486 -10.63959,0.72324 -10.3071,1.8081 -10.63958,1.44648 -10.3071,1.44648 -8.97715,1.44648 -11.30456,2.16972 -9.97461,1.8081 -10.3071,2.53134 -10.3071,1.44648 -9.64213,1.8081 -9.30963,2.89296 -10.97207,5.06268 -9.64213,3.6162 -10.97207,5.4243 -9.30964,4.70106 -10.307098,4.33944 -10.307098,6.87078 -10.639586,8.67888 -8.97715,9.40212 -11.304559,16.2729 -9.974612,14.10318 -10.307098,14.10318 -5.65228,12.29508 -13.6319689,17.35776 -9.6421244,22.42044 -11.3045597,31.46094 -9.974611,26.03664 -10.307099,10.12536 -9.974611,16.99614 -9.974612,87.15042 -10.639585,9.40212 -4.987306,7.95564 -9.974611,-0.36162 -4.654819,0 -6.982228,0 -32.583734,0 -6.98222,-0.36162 z"
               id="path146"
               style="fill:#00deff;fill-opacity:1;fill-rule:nonzero;stroke:none" /></g></g></g></g></g><g
     transform="matrix(1.25,0,0,-1.25,14.158052,510.0322)"
     id="g148" /><g
     transform="matrix(1.25,0,0,-1.25,-25.841948,660.0322)"
     id="g150"><g
       clip-path="url(#clipPath154)"
       id="g152"><g
         id="g158"><g
           id="g160"><g
             clip-path="url(#clipPath164)"
             id="g162"><path
               d="m -128.91469,522.07038 0,0 6.98222,0.36162 32.583734,0 6.982228,0 4.654819,0 9.974611,0.36162 4.987306,-7.95564 10.639585,-9.40212 9.974612,-87.15042 9.974611,-16.99614 10.307099,-10.12536 9.974611,-26.03664 11.3045597,-31.46094 9.6421244,-22.42044 13.6319689,-17.35776 5.65228,-12.29508 10.307098,-14.10318 9.974612,-14.10318 11.304559,-16.2729 8.97715,-9.40212 10.639586,-8.67888 10.307098,-6.87078 10.307098,-4.33944 9.30964,-4.70106 10.97207,-5.4243 9.64213,-3.6162 10.97207,-5.06268 9.30963,-2.89296 9.64213,-1.8081 10.3071,-1.44648 10.3071,-2.53134 9.97461,-1.8081 11.30456,-2.16972 8.97715,-1.44648 10.3071,-1.44648 10.63958,-1.44648 10.3071,-1.8081 10.63959,-0.72324 9.30963,-1.08486 9.64213,-1.08486 9.64212,0 10.97207,-0.72324 11.63705,-0.36162 7.97969,-0.72324 11.30456,-4.70106 9.30964,0 9.97461,0 10.3071,0 12.30202,0 8.97715,0 8.97715,0 9.64212,0 9.97461,0 11.30456,0 10.97208,0 11.96953,0 9.30964,0 18.28678,0 9.30964,0 11.63705,0 9.30964,0 9.30963,0 11.63705,0 9.30964,0 9.30963,0 20.94669,0 11.63704,0 0,0.72324 0,0 -11.63704,0.36162 -20.94669,0 -9.30963,0 -9.30964,0.36162 -11.63705,0 -9.30963,0 -9.30964,0 -11.63705,0.36162 -9.30964,0.36162 -18.28678,0.36162 -9.30964,0 -11.96953,0 -10.97208,0.36162 -11.30456,0.72324 -9.97461,0.36162 -9.64212,0.36162 -8.97715,0.36162 -8.97715,0 -12.30202,1.08486 -10.3071,0.36162 -9.97461,1.8081 -9.30964,0.72324 -11.30456,5.06268 -7.97969,2.89296 -11.63705,0.72324 -10.97207,2.53134 -9.64212,1.08486 -9.64213,13.74156 -9.30963,3.25458 -10.63959,3.97782 -10.3071,6.50916 -10.63958,7.59402 -10.3071,4.70106 -8.97715,5.4243 -11.30456,7.59402 -9.97461,8.31726 -10.3071,9.0405 -10.3071,7.95564 -9.64213,9.76374 -9.30963,10.8486 -10.97207,14.10318 -9.64213,13.01832 -10.97207,23.14368 -9.30964,24.22854 -10.307098,20.97396 -10.307098,28.20636 -10.639586,25.67502 -8.97715,22.05882 -11.304559,35.07714 -9.974612,18.80424 -10.307098,6.87078 -5.65228,2.89296 -13.6319689,3.97782 -9.6421244,1.44648 -11.3045597,1.08486 -9.974611,0 -10.307099,0 -9.974611,0 -9.974612,-0.36162 -10.639585,-0.36162 -4.987306,1.44648 -9.974611,-0.36162 -4.654819,0 -6.982228,0 -32.583734,0 -6.98222,-0.36162 z"
               id="path168"
               style="fill:#23ffd2;fill-opacity:1;fill-rule:nonzero;stroke:none" /></g></g></g></g></g><g
     transform="matrix(1.25,0,0,-1.25,14.158052,510.0322)"
     id="g170" /><g
     transform="matrix(1.25,0,0,-1.25,-25.841948,660.0322)"
     id="g172"><g
       clip-path="url(#clipPath176)"
       id="g174"><g
         id="g180"><g
           id="g182"><g
             clip-path="url(#clipPath186)"
             id="g184"><path
               d="m -128.91469,522.07038 0,0 6.98222,0.36162 32.583734,0 6.982228,0 4.654819,0 9.974611,0.36162 4.987306,-1.44648 10.639585,0.36162 9.974612,0.36162 9.974611,0 10.307099,0 9.974611,0 11.3045597,-1.08486 9.6421244,-1.44648 13.6319689,-3.97782 5.65228,-2.89296 10.307098,-6.87078 9.974612,-18.80424 11.304559,-35.07714 8.97715,-22.05882 10.639586,-25.67502 10.307098,-28.20636 10.307098,-20.97396 9.30964,-24.22854 10.97207,-23.14368 9.64213,-13.01832 10.97207,-14.10318 9.30963,-10.8486 9.64213,-9.76374 10.3071,-7.95564 10.3071,-9.0405 9.97461,-8.31726 11.30456,-7.59402 8.97715,-5.4243 10.3071,-4.70106 10.63958,-7.59402 10.3071,-6.50916 10.63959,-3.97782 9.30963,-3.25458 9.64213,-13.74156 9.64212,-1.08486 10.97207,-2.53134 11.63705,-0.72324 7.97969,-2.89296 11.30456,-5.06268 9.30964,-0.72324 9.97461,-1.8081 10.3071,-0.36162 12.30202,-1.08486 8.97715,0 8.97715,-0.36162 9.64212,-0.36162 9.97461,-0.36162 11.30456,-0.72324 10.97208,-0.36162 11.96953,0 9.30964,0 18.28678,-0.36162 9.30964,-0.36162 11.63705,-0.36162 9.30964,0 9.30963,0 11.63705,0 9.30964,-0.36162 9.30963,0 20.94669,0 11.63704,-0.36162 0,0 0,0 -11.63704,0.36162 -20.94669,0 -9.30963,0 -9.30964,0.36162 -11.63705,0 -9.30963,0 -9.30964,0 -11.63705,0.36162 -9.30964,0.36162 -18.28678,0.36162 -9.30964,0 -11.96953,0 -10.97208,0.36162 -11.30456,0.72324 -9.97461,0.36162 -9.64212,0.36162 -8.97715,0.36162 -8.97715,0 -12.30202,1.08486 -10.3071,0.36162 -9.97461,1.8081 -9.30964,0.72324 -11.30456,5.4243 -7.97969,2.53134 -11.63705,1.08486 -10.97207,2.53134 -9.64212,1.08486 -9.64213,14.10318 -9.30963,3.25458 -10.63959,3.97782 -10.3071,6.50916 -10.63958,7.95564 -10.3071,4.70106 -8.97715,5.4243 -11.30456,7.59402 -9.97461,8.67888 -10.3071,9.0405 -10.3071,8.31726 -9.64213,9.76374 -9.30963,10.8486 -10.97207,14.10318 -9.64213,13.37994 -10.97207,22.78206 -9.30964,24.22854 -10.307098,20.97396 -10.307098,28.56798 -10.639586,25.67502 -8.97715,23.5053 -11.304559,35.43876 -9.974612,18.44262 -10.307098,6.14754 -5.65228,2.53134 -13.6319689,4.33944 -9.6421244,0 -11.3045597,-0.36162 -9.974611,0 -10.307099,0 -9.974611,0 -9.974612,-0.36162 -10.639585,-0.36162 -4.987306,1.44648 -9.974611,-0.36162 -4.654819,0 -6.982228,0 -32.583734,0 -6.98222,-0.36162 z"
               id="path190"
               style="fill:#5cff9a;fill-opacity:1;fill-rule:nonzero;stroke:none" /></g></g></g></g></g><g
     transform="matrix(1.25,0,0,-1.25,14.158052,510.0322)"
     id="g192" /><g
     transform="matrix(1.25,0,0,-1.25,-25.841948,660.0322)"
     id="g194"><g
       clip-path="url(#clipPath198)"
       id="g196"><g
         id="g202"><g
           id="g204"><g
             clip-path="url(#clipPath208)"
             id="g206"><path
               d="m -128.91469,522.07038 0,0 6.98222,0.36162 32.583734,0 6.982228,0 4.654819,0 9.974611,0.36162 4.987306,-1.44648 10.639585,0.36162 9.974612,0.36162 9.974611,0 10.307099,0 9.974611,0 11.3045597,0.36162 9.6421244,0 13.6319689,-4.33944 5.65228,-2.53134 10.307098,-6.14754 9.974612,-18.44262 11.304559,-35.43876 8.97715,-23.5053 10.639586,-25.67502 10.307098,-28.56798 10.307098,-20.97396 9.30964,-24.22854 10.97207,-22.78206 9.64213,-13.37994 10.97207,-14.10318 9.30963,-10.8486 9.64213,-9.76374 10.3071,-8.31726 10.3071,-9.0405 9.97461,-8.67888 11.30456,-7.59402 8.97715,-5.4243 10.3071,-4.70106 10.63958,-7.95564 10.3071,-6.50916 10.63959,-3.97782 9.30963,-3.25458 9.64213,-14.10318 9.64212,-1.08486 10.97207,-2.53134 11.63705,-1.08486 7.97969,-2.53134 11.30456,-5.4243 9.30964,-0.72324 9.97461,-1.8081 10.3071,-0.36162 12.30202,-1.08486 8.97715,0 8.97715,-0.36162 9.64212,-0.36162 9.97461,-0.36162 11.30456,-0.72324 10.97208,-0.36162 11.96953,0 9.30964,0 18.28678,-0.36162 9.30964,-0.36162 11.63705,-0.36162 9.30964,0 9.30963,0 11.63705,0 9.30964,-0.36162 9.30963,0 20.94669,0 11.63704,-0.36162 0,14.82642 0,0 -11.63704,2.16972 -20.94669,3.6162 -9.30963,0.36162 -9.30964,2.89296 -11.63705,1.8081 -9.30963,1.8081 -9.30964,1.44648 -11.63705,5.06268 -9.30964,2.89296 -18.28678,6.14754 -9.30964,7.95564 -11.96953,-0.36162 -10.97208,5.4243 -11.30456,5.4243 -9.97461,6.14754 -9.64212,4.70106 -8.97715,3.97782 -8.97715,4.33944 -12.30202,11.57184 -10.3071,8.31726 -9.97461,9.76374 -9.30964,8.67888 -11.30456,13.74156 -7.97969,6.50916 -11.63705,9.40212 -10.97207,9.76374 -9.64212,5.78592 -9.64213,29.29122 -9.30963,8.67888 -10.63959,11.21022 -10.3071,18.081 -10.63958,19.8891 -10.3071,10.48698 -8.97715,11.57184 -11.30456,18.80424 -9.97461,20.61234 -10.3071,12.6567 -10.3071,5.78592 -9.64213,7.2324 -9.30963,4.70106 -10.97207,1.8081 -9.64213,1.8081 -10.97207,5.4243 -9.30964,1.8081 -10.307098,0.36162 -10.307098,1.44648 -10.639586,0.36162 -8.97715,1.44648 -11.304559,1.08486 -9.974612,0 -10.307098,1.44648 -5.65228,0 -13.6319689,0.72324 -9.6421244,0 -11.3045597,-0.36162 -9.974611,0 -10.307099,0 -9.974611,0 -9.974612,-0.36162 -10.639585,-0.36162 -4.987306,1.44648 -9.974611,-0.36162 -4.654819,0 -6.982228,0 -32.583734,0 -6.98222,-0.36162 z"
               id="path212"
               style="fill:#91ff66;fill-opacity:1;fill-rule:nonzero;stroke:none" /></g></g></g></g></g><g
     transform="matrix(1.25,0,0,-1.25,14.158052,510.0322)"
     id="g214" /><g
     transform="matrix(1.25,0,0,-1.25,-25.841948,660.0322)"
     id="g216"><g
       clip-path="url(#clipPath220)"
       id="g218"><g
         id="g224"><g
           id="g226"><g
             clip-path="url(#clipPath230)"
             id="g228"><path
               d="m -128.91469,522.07038 0,0 6.98222,0.36162 32.583734,0 6.982228,0 4.654819,0 9.974611,0.36162 4.987306,-1.44648 10.639585,0.36162 9.974612,0.36162 9.974611,0 10.307099,0 9.974611,0 11.3045597,0.36162 9.6421244,0 13.6319689,-0.72324 5.65228,0 10.307098,-1.44648 9.974612,0 11.304559,-1.08486 8.97715,-1.44648 10.639586,-0.36162 10.307098,-1.44648 10.307098,-0.36162 9.30964,-1.8081 10.97207,-5.4243 9.64213,-1.8081 10.97207,-1.8081 9.30963,-4.70106 9.64213,-7.2324 10.3071,-5.78592 10.3071,-12.6567 9.97461,-20.61234 11.30456,-18.80424 8.97715,-11.57184 10.3071,-10.48698 10.63958,-19.8891 10.3071,-18.081 10.63959,-11.21022 9.30963,-8.67888 9.64213,-29.29122 9.64212,-5.78592 10.97207,-9.76374 11.63705,-9.40212 7.97969,-6.50916 11.30456,-13.74156 9.30964,-8.67888 9.97461,-9.76374 10.3071,-8.31726 12.30202,-11.57184 8.97715,-4.33944 8.97715,-3.97782 9.64212,-4.70106 9.97461,-6.14754 11.30456,-5.4243 10.97208,-5.4243 11.96953,0.36162 9.30964,-7.95564 18.28678,-6.14754 9.30964,-2.89296 11.63705,-5.06268 9.30964,-1.44648 9.30963,-1.8081 11.63705,-1.8081 9.30964,-2.89296 9.30963,-0.36162 20.94669,-3.6162 11.63704,-2.16972 0,0 0,0 -11.63704,2.16972 -20.94669,3.6162 -9.30963,0.36162 -9.30964,2.89296 -11.63705,1.8081 -9.30963,1.8081 -9.30964,1.44648 -11.63705,5.06268 -9.30964,2.89296 -18.28678,6.14754 -9.30964,7.95564 -11.96953,-0.36162 -10.97208,5.4243 -11.30456,5.4243 -9.97461,6.14754 -9.64212,4.70106 -8.97715,3.97782 -8.97715,4.33944 -12.30202,11.57184 -10.3071,8.31726 -9.97461,9.76374 -9.30964,8.67888 -11.30456,13.74156 -7.97969,6.50916 -11.63705,9.40212 -10.97207,9.76374 -9.64212,5.78592 -9.64213,29.29122 -9.30963,8.67888 -10.63959,11.21022 -10.3071,18.081 -10.63958,19.8891 -10.3071,10.48698 -8.97715,11.57184 -11.30456,18.80424 -9.97461,20.61234 -10.3071,12.6567 -10.3071,6.14754 -9.64213,7.2324 -9.30963,4.70106 -10.97207,1.8081 -9.64213,1.8081 -10.97207,5.4243 -9.30964,1.8081 -10.307098,0.72324 -10.307098,1.44648 -10.639586,1.08486 -8.97715,1.44648 -11.304559,0.72324 -9.974612,0 -10.307098,1.08486 -5.65228,0 -13.6319689,0 -9.6421244,0 -11.3045597,-0.36162 -9.974611,0 -10.307099,0 -9.974611,0 -9.974612,-0.36162 -10.639585,-0.36162 -4.987306,1.44648 -9.974611,-0.36162 -4.654819,0 -6.982228,0 -32.583734,0 -6.98222,-0.36162 z"
               id="path234"
               style="fill:#c9ff2e;fill-opacity:1;fill-rule:nonzero;stroke:none" /></g></g></g></g></g><g
     transform="matrix(1.25,0,0,-1.25,14.158052,510.0322)"
     id="g236" /><g
     transform="matrix(1.25,0,0,-1.25,-25.841948,660.0322)"
     id="g238"><g
       clip-path="url(#clipPath242)"
       id="g240"><g
         id="g246"><g
           id="g248"><g
             clip-path="url(#clipPath252)"
             id="g250"><path
               d="m -128.91469,522.07038 0,0 6.98222,0.36162 32.583734,0 6.982228,0 4.654819,0 9.974611,0.36162 4.987306,-1.44648 10.639585,0.36162 9.974612,0.36162 9.974611,0 10.307099,0 9.974611,0 11.3045597,0.36162 9.6421244,0 13.6319689,0 5.65228,0 10.307098,-1.08486 9.974612,0 11.304559,-0.72324 8.97715,-1.44648 10.639586,-1.08486 10.307098,-1.44648 10.307098,-0.72324 9.30964,-1.8081 10.97207,-5.4243 9.64213,-1.8081 10.97207,-1.8081 9.30963,-4.70106 9.64213,-7.2324 10.3071,-6.14754 10.3071,-12.6567 9.97461,-20.61234 11.30456,-18.80424 8.97715,-11.57184 10.3071,-10.48698 10.63958,-19.8891 10.3071,-18.081 10.63959,-11.21022 9.30963,-8.67888 9.64213,-29.29122 9.64212,-5.78592 10.97207,-9.76374 11.63705,-9.40212 7.97969,-6.50916 11.30456,-13.74156 9.30964,-8.67888 9.97461,-9.76374 10.3071,-8.31726 12.30202,-11.57184 8.97715,-4.33944 8.97715,-3.97782 9.64212,-4.70106 9.97461,-6.14754 11.30456,-5.4243 10.97208,-5.4243 11.96953,0.36162 9.30964,-7.95564 18.28678,-6.14754 9.30964,-2.89296 11.63705,-5.06268 9.30964,-1.44648 9.30963,-1.8081 11.63705,-1.8081 9.30964,-2.89296 9.30963,-0.36162 20.94669,-3.6162 11.63704,-2.16972 0,0 0,0 -11.63704,2.16972 -20.94669,3.6162 -9.30963,0.36162 -9.30964,2.89296 -11.63705,1.8081 -9.30963,1.8081 -9.30964,1.44648 -11.63705,5.06268 -9.30964,2.89296 -18.28678,6.14754 -9.30964,7.95564 -11.96953,-0.36162 -10.97208,5.4243 -11.30456,5.4243 -9.97461,6.14754 -9.64212,4.70106 -8.97715,3.97782 -8.97715,4.33944 -12.30202,11.57184 -10.3071,8.31726 -9.97461,9.76374 -9.30964,8.67888 -11.30456,13.74156 -7.97969,6.50916 -11.63705,9.40212 -10.97207,9.76374 -9.64212,5.78592 -9.64213,30.37608 -9.30963,8.67888 -10.63959,11.57184 -10.3071,18.081 -10.63958,19.8891 -10.3071,10.48698 -8.97715,11.93346 -11.30456,18.80424 -9.97461,20.61234 -10.3071,13.37994 -10.3071,7.2324 -9.64213,7.2324 -9.30963,5.06268 -10.97207,2.89296 -9.64213,2.16972 -10.97207,3.97782 -9.30964,1.08486 -10.307098,0.72324 -10.307098,0.72324 -10.639586,1.08486 -8.97715,0.72324 -11.304559,0 -9.974612,-1.08486 -10.307098,1.08486 -5.65228,0 -13.6319689,0 -9.6421244,0 -11.3045597,-0.36162 -9.974611,0 -10.307099,0 -9.974611,0 -9.974612,-0.36162 -10.639585,-0.36162 -4.987306,1.44648 -9.974611,-0.36162 -4.654819,0 -6.982228,0 -32.583734,0 -6.98222,-0.36162 z"
               id="path256"
               style="fill:#feed00;fill-opacity:1;fill-rule:nonzero;stroke:none" /></g></g></g></g></g><g
     transform="matrix(1.25,0,0,-1.25,14.158052,510.0322)"
     id="g258" /><g
     transform="matrix(1.25,0,0,-1.25,-25.841948,660.0322)"
     id="g260"><g
       clip-path="url(#clipPath264)"
       id="g262"><g
         id="g268"><g
           id="g270"><g
             clip-path="url(#clipPath274)"
             id="g272"><path
               d="m -128.91469,522.07038 0,0 6.98222,0.36162 32.583734,0 6.982228,0 4.654819,0 9.974611,0.36162 4.987306,-1.44648 10.639585,0.36162 9.974612,0.36162 9.974611,0 10.307099,0 9.974611,0 11.3045597,0.36162 9.6421244,0 13.6319689,0 5.65228,0 10.307098,-1.08486 9.974612,1.08486 11.304559,0 8.97715,-0.72324 10.639586,-1.08486 10.307098,-0.72324 10.307098,-0.72324 9.30964,-1.08486 10.97207,-3.97782 9.64213,-2.16972 10.97207,-2.89296 9.30963,-5.06268 9.64213,-7.2324 10.3071,-7.2324 10.3071,-13.37994 9.97461,-20.61234 11.30456,-18.80424 8.97715,-11.93346 10.3071,-10.48698 10.63958,-19.8891 10.3071,-18.081 10.63959,-11.57184 9.30963,-8.67888 9.64213,-30.37608 9.64212,-5.78592 10.97207,-9.76374 11.63705,-9.40212 7.97969,-6.50916 11.30456,-13.74156 9.30964,-8.67888 9.97461,-9.76374 10.3071,-8.31726 12.30202,-11.57184 8.97715,-4.33944 8.97715,-3.97782 9.64212,-4.70106 9.97461,-6.14754 11.30456,-5.4243 10.97208,-5.4243 11.96953,0.36162 9.30964,-7.95564 18.28678,-6.14754 9.30964,-2.89296 11.63705,-5.06268 9.30964,-1.44648 9.30963,-1.8081 11.63705,-1.8081 9.30964,-2.89296 9.30963,-0.36162 20.94669,-3.6162 11.63704,-2.16972 0,0 0,0 -11.63704,2.16972 -20.94669,3.6162 -9.30963,0.36162 -9.30964,2.89296 -11.63705,1.8081 -9.30963,1.8081 -9.30964,1.44648 -11.63705,5.06268 -9.30964,2.89296 -18.28678,6.14754 -9.30964,7.95564 -11.96953,-0.36162 -10.97208,5.4243 -11.30456,5.78592 -9.97461,6.14754 -9.64212,4.70106 -8.97715,3.97782 -8.97715,4.33944 -12.30202,11.57184 -10.3071,8.31726 -9.97461,9.76374 -9.30964,8.67888 -11.30456,13.74156 -7.97969,6.50916 -11.63705,9.40212 -10.97207,9.76374 -9.64212,6.14754 -9.64213,32.90742 -9.30963,9.0405 -10.63959,11.93346 -10.3071,18.44262 -10.63958,20.61234 -10.3071,10.8486 -8.97715,12.29508 -11.30456,19.52748 -9.97461,20.97396 -10.3071,13.74156 -10.3071,7.95564 -9.64213,7.2324 -9.30963,4.70106 -10.97207,2.16972 -9.64213,1.44648 -10.97207,2.16972 -9.30964,0 -10.307098,0 -10.307098,0 -10.639586,0 -8.97715,0 -11.304559,0 -9.974612,-1.08486 -10.307098,1.08486 -5.65228,0 -13.6319689,0 -9.6421244,0 -11.3045597,-0.36162 -9.974611,0 -10.307099,0 -9.974611,0 -9.974612,-0.36162 -10.639585,-0.36162 -4.987306,1.44648 -9.974611,-0.36162 -4.654819,0 -6.982228,0 -32.583734,0 -6.98222,-0.36162 z"
               id="path278"
               style="fill:#ffac00;fill-opacity:1;fill-rule:nonzero;stroke:none" /></g></g></g></g></g><g
     transform="matrix(1.25,0,0,-1.25,14.158052,510.0322)"
     id="g280" /><g
     transform="matrix(1.25,0,0,-1.25,-25.841948,660.0322)"
     id="g282"><g
       clip-path="url(#clipPath286)"
       id="g284"><g
         id="g290"><g
           id="g292"><g
             clip-path="url(#clipPath296)"
             id="g294"><path
               d="m -128.91469,522.07038 0,0 6.98222,0.36162 32.583734,0 6.982228,0 4.654819,0 9.974611,0.36162 4.987306,-1.44648 10.639585,0.36162 9.974612,0.36162 9.974611,0 10.307099,0 9.974611,0 11.3045597,0.36162 9.6421244,0 13.6319689,0 5.65228,0 10.307098,-1.08486 9.974612,1.08486 11.304559,0 8.97715,0 10.639586,0 10.307098,0 10.307098,0 9.30964,0 10.97207,-2.16972 9.64213,-1.44648 10.97207,-2.16972 9.30963,-4.70106 9.64213,-7.2324 10.3071,-7.95564 10.3071,-13.74156 9.97461,-20.97396 11.30456,-19.52748 8.97715,-12.29508 10.3071,-10.8486 10.63958,-20.61234 10.3071,-18.44262 10.63959,-11.93346 9.30963,-9.0405 9.64213,-32.90742 9.64212,-6.14754 10.97207,-9.76374 11.63705,-9.40212 7.97969,-6.50916 11.30456,-13.74156 9.30964,-8.67888 9.97461,-9.76374 10.3071,-8.31726 12.30202,-11.57184 8.97715,-4.33944 8.97715,-3.97782 9.64212,-4.70106 9.97461,-6.14754 11.30456,-5.78592 10.97208,-5.4243 11.96953,0.36162 9.30964,-7.95564 18.28678,-6.14754 9.30964,-2.89296 11.63705,-5.06268 9.30964,-1.44648 9.30963,-1.8081 11.63705,-1.8081 9.30964,-2.89296 9.30963,-0.36162 20.94669,-3.6162 11.63704,-2.16972 0,0 0,0 -11.63704,2.16972 -20.94669,3.6162 -9.30963,0.36162 -9.30964,2.89296 -11.63705,1.8081 -9.30963,1.8081 -9.30964,1.44648 -11.63705,5.06268 -9.30964,2.89296 -18.28678,6.14754 -9.30964,7.95564 -11.96953,-0.36162 -10.97208,5.4243 -11.30456,5.78592 -9.97461,6.14754 -9.64212,4.70106 -8.97715,3.97782 -8.97715,4.33944 -12.30202,11.57184 -10.3071,8.31726 -9.97461,9.76374 -9.30964,8.67888 -11.30456,13.74156 -7.97969,6.50916 -11.63705,9.40212 -10.97207,9.76374 -9.64212,6.14754 -9.64213,32.90742 -9.30963,9.0405 -10.63959,11.93346 -10.3071,18.44262 -10.63958,20.61234 -10.3071,10.8486 -8.97715,12.6567 -11.30456,19.52748 -9.97461,21.33558 -10.3071,14.4648 -10.3071,8.31726 -9.64213,7.2324 -9.30963,4.33944 -10.97207,1.8081 -9.64213,1.44648 -10.97207,1.08486 -9.30964,0 -10.307098,0 -10.307098,0 -10.639586,0 -8.97715,0 -11.304559,0 -9.974612,-1.08486 -10.307098,1.08486 -5.65228,0 -13.6319689,0 -9.6421244,0 -11.3045597,-0.36162 -9.974611,0 -10.307099,0 -9.974611,0 -9.974612,-0.36162 -10.639585,-0.36162 -4.987306,1.44648 -9.974611,-0.36162 -4.654819,0 -6.982228,0 -32.583734,0 -6.98222,-0.36162 z"
               id="path300"
               style="fill:#ff7000;fill-opacity:1;fill-rule:nonzero;stroke:none" /></g></g></g></g></g><g
     transform="matrix(1.25,0,0,-1.25,14.158052,510.0322)"
     id="g302" /><g
     transform="matrix(1.25,0,0,-1.25,-25.841948,660.0322)"
     id="g304"><g
       clip-path="url(#clipPath308)"
       id="g306"><g
         id="g312"><g
           id="g314"><g
             clip-path="url(#clipPath318)"
             id="g316"><path
               d="m -128.91469,522.07038 0,0 6.98222,0.36162 32.583734,0 6.982228,0 4.654819,0 9.974611,0.36162 4.987306,-1.44648 10.639585,0.36162 9.974612,0.36162 9.974611,0 10.307099,0 9.974611,0 11.3045597,0.36162 9.6421244,0 13.6319689,0 5.65228,0 10.307098,-1.08486 9.974612,1.08486 11.304559,0 8.97715,0 10.639586,0 10.307098,0 10.307098,0 9.30964,0 10.97207,-1.08486 9.64213,-1.44648 10.97207,-1.8081 9.30963,-4.33944 9.64213,-7.2324 10.3071,-8.31726 10.3071,-14.4648 9.97461,-21.33558 11.30456,-19.52748 8.97715,-12.6567 10.3071,-10.8486 10.63958,-20.61234 10.3071,-18.44262 10.63959,-11.93346 9.30963,-9.0405 9.64213,-32.90742 9.64212,-6.14754 10.97207,-9.76374 11.63705,-9.40212 7.97969,-6.50916 11.30456,-13.74156 9.30964,-8.67888 9.97461,-9.76374 10.3071,-8.31726 12.30202,-11.57184 8.97715,-4.33944 8.97715,-3.97782 9.64212,-4.70106 9.97461,-6.14754 11.30456,-5.78592 10.97208,-5.4243 11.96953,0.36162 9.30964,-7.95564 18.28678,-6.14754 9.30964,-2.89296 11.63705,-5.06268 9.30964,-1.44648 9.30963,-1.8081 11.63705,-1.8081 9.30964,-2.89296 9.30963,-0.36162 20.94669,-3.6162 11.63704,-2.16972 0,13.37994 0,0 -11.63704,3.6162 -20.94669,7.2324 -9.30963,1.08486 -9.30964,4.33944 -11.63705,2.53134 -9.30963,3.6162 -9.30964,2.53134 -11.63705,9.0405 -9.30964,5.4243 -18.28678,10.12536 -9.30964,11.57184 -11.96953,2.53134 -10.97208,8.67888 -11.30456,9.76374 -9.97461,9.40212 -9.64212,7.95564 -8.97715,7.2324 -8.97715,7.2324 -12.30202,17.71938 -10.3071,12.6567 -9.97461,12.6567 -9.30964,12.6567 -11.30456,16.63452 -7.97969,9.40212 -11.63705,17.71938 -10.97207,16.63452 -9.64212,12.6567 -9.64213,30.37608 -9.30963,10.48698 -10.63959,12.29508 -10.3071,12.6567 -10.63958,14.4648 -10.3071,3.25458 -8.97715,2.16972 -11.30456,1.44648 -9.97461,2.89296 -10.3071,0 -10.3071,0 -9.64213,0 -9.30963,0 -10.97207,0 -9.64213,0 -10.97207,0 -9.30964,0 -10.307098,0 -10.307098,0 -10.639586,0 -8.97715,0 -11.304559,0 -9.974612,-1.08486 -10.307098,1.08486 -5.65228,0 -13.6319689,0 -9.6421244,0 -11.3045597,-0.36162 -9.974611,0 -10.307099,0 -9.974611,0 -9.974612,-0.36162 -10.639585,-0.36162 -4.987306,1.44648 -9.974611,-0.36162 -4.654819,0 -6.982228,0 -32.583734,0 -6.98222,-0.36162 z"
               id="path322"
               style="fill:#ff2f00;fill-opacity:1;fill-rule:nonzero;stroke:none" /></g></g></g></g></g><g
     transform="matrix(1.25,0,0,-1.25,14.158052,510.0322)"
     id="g324" /><g
     transform="matrix(1.25,0,0,-1.25,-25.841948,660.0322)"
     id="g326"><g
       clip-path="url(#clipPath330)"
       id="g328"><g
         id="g334"><g
           id="g336"><g
             clip-path="url(#clipPath340)"
             id="g338"><path
               d="m -128.91469,522.07038 0,0 6.98222,0.36162 32.583734,0 6.982228,0 4.654819,0 9.974611,0.36162 4.987306,-1.44648 10.639585,0.36162 9.974612,0.36162 9.974611,0 10.307099,0 9.974611,0 11.3045597,0.36162 9.6421244,0 13.6319689,0 5.65228,0 10.307098,-1.08486 9.974612,1.08486 11.304559,0 8.97715,0 10.639586,0 10.307098,0 10.307098,0 9.30964,0 10.97207,0 9.64213,0 10.97207,0 9.30963,0 9.64213,0 10.3071,0 10.3071,0 9.97461,-2.89296 11.30456,-1.44648 8.97715,-2.16972 10.3071,-3.25458 10.63958,-14.4648 10.3071,-12.6567 10.63959,-12.29508 9.30963,-10.48698 9.64213,-30.37608 9.64212,-12.6567 10.97207,-16.63452 11.63705,-17.71938 7.97969,-9.40212 11.30456,-16.63452 9.30964,-12.6567 9.97461,-12.6567 10.3071,-12.6567 12.30202,-17.71938 8.97715,-7.2324 8.97715,-7.2324 9.64212,-7.95564 9.97461,-9.40212 11.30456,-9.76374 10.97208,-8.67888 11.96953,-2.53134 9.30964,-11.57184 18.28678,-10.12536 9.30964,-5.4243 11.63705,-9.0405 9.30964,-2.53134 9.30963,-3.6162 11.63705,-2.53134 9.30964,-4.33944 9.30963,-1.08486 20.94669,-7.2324 11.63704,-3.6162 0,43.75602 0,0 -11.63704,9.40212 -20.94669,10.8486 -9.30963,4.33944 -9.30964,7.59402 -11.63705,5.4243 -9.30963,7.59402 -9.30964,5.4243 -11.63705,16.63452 -9.30964,10.8486 -18.28678,18.44262 -9.30964,16.63452 -11.96953,7.2324 -10.97208,13.01832 -11.30456,26.03664 -9.97461,12.6567 -9.64212,11.21022 -8.97715,7.95564 -8.97715,8.67888 -12.30202,23.14368 -10.3071,12.29508 -9.97461,9.76374 -9.30964,13.01832 -11.30456,7.2324 -7.97969,3.25458 -11.63705,5.78592 -10.97207,6.14754 -9.64212,1.44648 -9.64213,1.08486 -9.30963,0.72324 -10.63959,0.72324 -10.3071,1.44648 -10.63958,2.89296 -10.3071,0 -8.97715,0 -11.30456,0 -9.97461,0 -10.3071,0 -10.3071,0 -9.64213,0 -9.30963,0 -10.97207,0 -9.64213,0 -10.97207,0 -9.30964,0 -10.307098,0 -10.307098,0 -10.639586,0 -8.97715,0 -11.304559,0 -9.974612,-1.08486 -10.307098,1.08486 -5.65228,0 -13.6319689,0 -9.6421244,0 -11.3045597,-0.36162 -9.974611,0 -10.307099,0 -9.974611,0 -9.974612,-0.36162 -10.639585,-0.36162 -4.987306,1.44648 -9.974611,-0.36162 -4.654819,0 -6.982228,0 -32.583734,0 -6.98222,-0.36162 z"
               id="path344"
               style="fill:#d80000;fill-opacity:1;fill-rule:nonzero;stroke:none" /></g></g></g></g></g><g
     transform="matrix(1.25,0,0,-1.25,14.158052,510.0322)"
     id="g346" /><g
     transform="matrix(1.25,0,0,-1.25,-25.841948,660.0322)"
     id="g348"><g
       clip-path="url(#clipPath352)"
       id="g350"><g
         id="g356"><g
           id="g358"><g
             clip-path="url(#clipPath362)"
             id="g360"><path
               d="m -128.91469,522.07038 0,0 6.98222,0.36162 32.583734,0 6.982228,0 4.654819,0 9.974611,0.36162 4.987306,-1.44648 10.639585,0.36162 9.974612,0.36162 9.974611,0 10.307099,0 9.974611,0 11.3045597,0.36162 9.6421244,0 13.6319689,0 5.65228,0 10.307098,-1.08486 9.974612,1.08486 11.304559,0 8.97715,0 10.639586,0 10.307098,0 10.307098,0 9.30964,0 10.97207,0 9.64213,0 10.97207,0 9.30963,0 9.64213,0 10.3071,0 10.3071,0 9.97461,0 11.30456,0 8.97715,0 10.3071,0 10.63958,-2.89296 10.3071,-1.44648 10.63959,-0.72324 9.30963,-0.72324 9.64213,-1.08486 9.64212,-1.44648 10.97207,-6.14754 11.63705,-5.78592 7.97969,-3.25458 11.30456,-7.2324 9.30964,-13.01832 9.97461,-9.76374 10.3071,-12.29508 12.30202,-23.14368 8.97715,-8.67888 8.97715,-7.95564 9.64212,-11.21022 9.97461,-12.6567 11.30456,-26.03664 10.97208,-13.01832 11.96953,-7.2324 9.30964,-16.63452 18.28678,-18.44262 9.30964,-10.8486 11.63705,-16.63452 9.30964,-5.4243 9.30963,-7.59402 11.63705,-5.4243 9.30964,-7.59402 9.30963,-4.33944 20.94669,-10.8486 11.63704,-9.40212 0,54.96624 0,0 -11.63704,11.93346 -20.94669,16.63452 -9.30963,6.50916 -9.30964,9.40212 -11.63705,8.31726 -9.30963,9.0405 -9.30964,7.2324 -11.63705,16.99614 -9.30964,12.29508 -18.28678,18.081 -9.30964,13.37994 -11.96953,6.87078 -10.97208,10.8486 -11.30456,24.95178 -9.97461,10.12536 -9.64212,7.59402 -8.97715,5.06268 -8.97715,5.4243 -12.30202,14.10318 -10.3071,10.8486 -9.97461,2.89296 -9.30964,5.4243 -11.30456,0 -7.97969,0 -11.63705,0 -10.97207,0 -9.64212,0.36162 -9.64213,-0.36162 -9.30963,0 -10.63959,0 -10.3071,0 -10.63958,0 -10.3071,0 -8.97715,0 -11.30456,0 -9.97461,0 -10.3071,0 -10.3071,0 -9.64213,0 -9.30963,0 -10.97207,0 -9.64213,0 -10.97207,0 -9.30964,0 -10.307098,0 -10.307098,0 -10.639586,0 -8.97715,0 -11.304559,0 -9.974612,-1.08486 -10.307098,1.08486 -5.65228,0 -13.6319689,0 -9.6421244,0 -11.3045597,-0.36162 -9.974611,0 -10.307099,0 -9.974611,0 -9.974612,-0.36162 -10.639585,-0.36162 -4.987306,1.44648 -9.974611,-0.36162 -4.654819,0 -6.982228,0 -32.583734,0 -6.98222,-0.36162 z"
               id="path366"
               style="fill:#8b0000;fill-opacity:1;fill-rule:nonzero;stroke:none" /></g></g></g></g></g><g
     transform="matrix(1.25,0,0,-1.25,14.158052,510.0322)"
     id="g368" /><g
     transform="matrix(1.25,0,0,-1.25,-25.841948,660.0322)"
     id="g370"><g
       clip-path="url(#clipPath374)"
       id="g372"><g
         id="g378"><g
           id="g380"><g
             clip-path="url(#clipPath384)"
             id="g382"><path
               d="m -128.91469,522.07038 0,0 6.98222,0.36162 32.583734,0 6.982228,0 4.654819,0 9.974611,0.36162 4.987306,-1.44648 10.639585,0.36162 9.974612,0.36162 9.974611,0 10.307099,0 9.974611,0 11.3045597,0.36162 9.6421244,0 13.6319689,0 5.65228,0 10.307098,-1.08486 9.974612,1.08486 11.304559,0 8.97715,0 10.639586,0 10.307098,0 10.307098,0 9.30964,0 10.97207,0 9.64213,0 10.97207,0 9.30963,0 9.64213,0 10.3071,0 10.3071,0 9.97461,0 11.30456,0 8.97715,0 10.3071,0 10.63958,0 10.3071,0 10.63959,0 9.30963,0 9.64213,0.36162 9.64212,-0.36162 10.97207,0 11.63705,0 7.97969,0 11.30456,0 9.30964,-5.4243 9.97461,-2.89296 10.3071,-10.8486 12.30202,-14.10318 8.97715,-5.4243 8.97715,-5.06268 9.64212,-7.59402 9.97461,-10.12536 11.30456,-24.95178 10.97208,-10.8486 11.96953,-6.87078 9.30964,-13.37994 18.28678,-18.081 9.30964,-12.29508 11.63705,-16.99614 9.30964,-7.2324 9.30963,-9.0405 11.63705,-8.31726 9.30964,-9.40212 9.30963,-6.50916 20.94669,-16.63452 11.63704,-11.93346 0,16.2729 0,0 -11.63704,12.6567 -20.94669,18.44262 -9.30963,7.59402 -9.30964,9.76374 -11.63705,9.40212 -9.30963,10.48698 -9.30964,7.95564 -11.63705,18.80424 -9.30964,13.37994 -18.28678,20.61234 -9.30964,13.01832 -11.96953,10.8486 -10.97208,15.54966 -11.30456,18.44262 -9.97461,11.57184 -9.64212,10.12536 -8.97715,2.53134 -8.97715,1.44648 -12.30202,1.08486 -10.3071,3.97782 -9.97461,0 -9.30964,0 -11.30456,0 -7.97969,0 -11.63705,0 -10.97207,0 -9.64212,0.36162 -9.64213,-0.36162 -9.30963,0 -10.63959,0 -10.3071,0 -10.63958,0 -10.3071,0 -8.97715,0 -11.30456,0 -9.97461,0 -10.3071,0 -10.3071,0 -9.64213,0 -9.30963,0 -10.97207,0 -9.64213,0 -10.97207,0 -9.30964,0 -10.307098,0 -10.307098,0 -10.639586,0 -8.97715,0 -11.304559,0 -9.974612,-1.08486 -10.307098,1.08486 -5.65228,0 -13.6319689,0 -9.6421244,0 -11.3045597,-0.36162 -9.974611,0 -10.307099,0 -9.974611,0 -9.974612,-0.36162 -10.639585,-0.36162 -4.987306,1.44648 -9.974611,-0.36162 -4.654819,0 -6.982228,0 -32.583734,0 -6.98222,-0.36162 z"
               id="path388"
               style="fill:#80006e;fill-opacity:1;fill-rule:nonzero;stroke:none" /></g></g></g></g></g><g
     transform="matrix(1.25,0,0,-1.25,14.158052,510.0322)"
     id="g390" /><g
     transform="matrix(1.25,0,0,-1.25,-25.841948,660.0322)"
     id="g392"><g
       clip-path="url(#clipPath396)"
       id="g394"><g
         id="g400"><g
           id="g402"><g
             clip-path="url(#clipPath406)"
             id="g404"><path
               d="m -128.91469,522.07038 0,0 6.98222,0.36162 32.583734,0 6.982228,0 4.654819,0 9.974611,0.36162 4.987306,-1.44648 10.639585,0.36162 9.974612,0.36162 9.974611,0 10.307099,0 9.974611,0 11.3045597,0.36162 9.6421244,0 13.6319689,0 5.65228,0 10.307098,-1.08486 9.974612,1.08486 11.304559,0 8.97715,0 10.639586,0 10.307098,0 10.307098,0 9.30964,0 10.97207,0 9.64213,0 10.97207,0 9.30963,0 9.64213,0 10.3071,0 10.3071,0 9.97461,0 11.30456,0 8.97715,0 10.3071,0 10.63958,0 10.3071,0 10.63959,0 9.30963,0 9.64213,0.36162 9.64212,-0.36162 10.97207,0 11.63705,0 7.97969,0 11.30456,0 9.30964,0 9.97461,0 10.3071,-3.97782 12.30202,-1.08486 8.97715,-1.44648 8.97715,-2.53134 9.64212,-10.12536 9.97461,-11.57184 11.30456,-18.44262 10.97208,-15.54966 11.96953,-10.8486 9.30964,-13.01832 18.28678,-20.61234 9.30964,-13.37994 11.63705,-18.80424 9.30964,-7.95564 9.30963,-10.48698 11.63705,-9.40212 9.30964,-9.76374 9.30963,-7.59402 20.94669,-18.44262 11.63704,-12.6567 0,141.75504 0,0 -11.63704,13.01832 -20.94669,18.081 -9.30963,9.76374 -9.30964,15.54966 -11.63705,7.59402 -9.30963,6.14754 -9.30964,5.78592 -11.63705,0 -9.30964,0 -18.28678,0 -9.30964,0 -11.96953,0 -10.97208,0 -11.30456,0 -9.97461,0 -9.64212,0 -8.97715,0 -8.97715,0 -12.30202,0 -10.3071,0 -9.97461,0 -9.30964,0 -11.30456,0 -7.97969,0 -11.63705,0 -10.97207,0 -9.64212,0.36162 -9.64213,-0.36162 -9.30963,0 -10.63959,0 -10.3071,0 -10.63958,0 -10.3071,0 -8.97715,0 -11.30456,0 -9.97461,0 -10.3071,0 -10.3071,0 -9.64213,0 -9.30963,0 -10.97207,0 -9.64213,0 -10.97207,0 -9.30964,0 -10.307098,0 -10.307098,0 -10.639586,0 -8.97715,0 -11.304559,0 -9.974612,-1.08486 -10.307098,1.08486 -5.65228,0 -13.6319689,0 -9.6421244,0 -11.3045597,-0.36162 -9.974611,0 -10.307099,0 -9.974611,0 -9.974612,-0.36162 -10.639585,-0.36162 -4.987306,1.44648 -9.974611,-0.36162 -4.654819,0 -6.982228,0 -32.583734,0 -6.98222,-0.36162 z"
               id="path410"
               style="fill:#c49ac4;fill-opacity:1;fill-rule:nonzero;stroke:none" /></g></g></g></g></g><g
     transform="matrix(1.25,0,0,-1.25,14.158052,510.0322)"
     id="g412" /><g
     transform="matrix(1.25,0,0,-1.25,-25.841948,660.0322)"
     id="g414"><g
       clip-path="url(#clipPath418)"
       id="g416"><g
         id="g422"><g
           id="g424"><g
             clip-path="url(#clipPath428)"
             id="g426"><path
               d="m -128.91469,522.07038 0,0 6.98222,0.36162 32.583734,0 6.982228,0 4.654819,0 9.974611,0.36162 4.987306,-1.44648 10.639585,0.36162 9.974612,0.36162 9.974611,0 10.307099,0 9.974611,0 11.3045597,0.36162 9.6421244,0 13.6319689,0 5.65228,0 10.307098,-1.08486 9.974612,1.08486 11.304559,0 8.97715,0 10.639586,0 10.307098,0 10.307098,0 9.30964,0 10.97207,0 9.64213,0 10.97207,0 9.30963,0 9.64213,0 10.3071,0 10.3071,0 9.97461,0 11.30456,0 8.97715,0 10.3071,0 10.63958,0 10.3071,0 10.63959,0 9.30963,0 9.64213,0.36162 9.64212,-0.36162 10.97207,0 11.63705,0 7.97969,0 11.30456,0 9.30964,0 9.97461,0 10.3071,0 12.30202,0 8.97715,0 8.97715,0 9.64212,0 9.97461,0 11.30456,0 10.97208,0 11.96953,0 9.30964,0 18.28678,0 9.30964,0 11.63705,0 9.30964,-5.78592 9.30963,-6.14754 11.63705,-7.59402 9.30964,-15.54966 9.30963,-9.76374 20.94669,-18.081 11.63704,-13.01832 0,0 0,0 -11.63704,13.01832 -20.94669,18.081 -9.30963,9.76374 -9.30964,15.54966 -11.63705,7.59402 -9.30963,6.14754 -9.30964,5.78592 -11.63705,0 -9.30964,0 -18.28678,0 -9.30964,0 -11.96953,0 -10.97208,0 -11.30456,0 -9.97461,0 -9.64212,0 -8.97715,0 -8.97715,0 -12.30202,0 -10.3071,0 -9.97461,0 -9.30964,0 -11.30456,0 -7.97969,0 -11.63705,0 -10.97207,0 -9.64212,0.36162 -9.64213,-0.36162 -9.30963,0 -10.63959,0 -10.3071,0 -10.63958,0 -10.3071,0 -8.97715,0 -11.30456,0 -9.97461,0 -10.3071,0 -10.3071,0 -9.64213,0 -9.30963,0 -10.97207,0 -9.64213,0 -10.97207,0 -9.30964,0 -10.307098,0 -10.307098,0 -10.639586,0 -8.97715,0 -11.304559,0 -9.974612,-1.08486 -10.307098,1.08486 -5.65228,0 -13.6319689,0 -9.6421244,0 -11.3045597,-0.36162 -9.974611,0 -10.307099,0 -9.974611,0 -9.974612,-0.36162 -10.639585,-0.36162 -4.987306,1.44648 -9.974611,-0.36162 -4.654819,0 -6.982228,0 -32.583734,0 -6.98222,-0.36162 z"
               id="path432"
               style="fill:#fe1792;fill-opacity:1;fill-rule:nonzero;stroke:none" /></g></g></g></g></g><g
     transform="matrix(1.25,0,0,-1.25,14.158052,510.0322)"
     id="g434" /><g
     transform="matrix(1.25,0,0,-1.25,-25.841948,660.0322)"
     id="g436"><g
       clip-path="url(#clipPath440)"
       id="g438"><g
         id="g444"><g
           id="g446"><g
             clip-path="url(#clipPath450)"
             id="g448"><path
               d="m -128.91469,522.07038 0,0 6.98222,0.36162 32.583734,0 6.982228,0 4.654819,0 9.974611,0.36162 4.987306,-1.44648 10.639585,0.36162 9.974612,0.36162 9.974611,0 10.307099,0 9.974611,0 11.3045597,0.36162 9.6421244,0 13.6319689,0 5.65228,0 10.307098,-1.08486 9.974612,1.08486 11.304559,0 8.97715,0 10.639586,0 10.307098,0 10.307098,0 9.30964,0 10.97207,0 9.64213,0 10.97207,0 9.30963,0 9.64213,0 10.3071,0 10.3071,0 9.97461,0 11.30456,0 8.97715,0 10.3071,0 10.63958,0 10.3071,0 10.63959,0 9.30963,0 9.64213,0.36162 9.64212,-0.36162 10.97207,0 11.63705,0 7.97969,0 11.30456,0 9.30964,0 9.97461,0 10.3071,0 12.30202,0 8.97715,0 8.97715,0 9.64212,0 9.97461,0 11.30456,0 10.97208,0 11.96953,0 9.30964,0 18.28678,0 9.30964,0 11.63705,0 9.30964,-5.78592 9.30963,-6.14754 11.63705,-7.59402 9.30964,-15.54966 9.30963,-9.76374 20.94669,-18.081 11.63704,-13.01832 0,57.49758 0,0 -11.63704,11.57184 -20.94669,3.97782 -9.30963,0.36162 -9.30964,1.08486 -11.63705,1.44648 -9.30963,0 -9.30964,0 -11.63705,0 -9.30964,0 -18.28678,0 -9.30964,0 -11.96953,0 -10.97208,0 -11.30456,0 -9.97461,0 -9.64212,0 -8.97715,0 -8.97715,0 -12.30202,0 -10.3071,0 -9.97461,0 -9.30964,0 -11.30456,0 -7.97969,0 -11.63705,0 -10.97207,0 -9.64212,0.36162 -9.64213,-0.36162 -9.30963,0 -10.63959,0 -10.3071,0 -10.63958,0 -10.3071,0 -8.97715,0 -11.30456,0 -9.97461,0 -10.3071,0 -10.3071,0 -9.64213,0 -9.30963,0 -10.97207,0 -9.64213,0 -10.97207,0 -9.30964,0 -10.307098,0 -10.307098,0 -10.639586,0 -8.97715,0 -11.304559,0 -9.974612,-1.08486 -10.307098,1.08486 -5.65228,0 -13.6319689,0 -9.6421244,0 -11.3045597,-0.36162 -9.974611,0 -10.307099,0 -9.974611,0 -9.974612,-0.36162 -10.639585,-0.36162 -4.987306,1.44648 -9.974611,-0.36162 -4.654819,0 -6.982228,0 -32.583734,0 -6.98222,-0.36162 z"
               id="path454"
               style="fill:#008080;fill-opacity:1;fill-rule:nonzero;stroke:none" /></g></g></g></g></g><g
     transform="matrix(1.25,0,0,-1.25,14.158052,510.0322)"
     id="g456" /><g
     transform="matrix(1.25,0,0,-1.25,-25.841948,660.0322)"
     id="g458"><g
       clip-path="url(#clipPath462)"
       id="g460"><g
         id="g466"><g
           id="g468"><g
             clip-path="url(#clipPath472)"
             id="g470"><path
               d="m -128.91469,522.07038 0,0 6.98222,0.36162 32.583734,0 6.982228,0 4.654819,0 9.974611,0.36162 4.987306,-1.44648 10.639585,0.36162 9.974612,0.36162 9.974611,0 10.307099,0 9.974611,0 11.3045597,0.36162 9.6421244,0 13.6319689,0 5.65228,0 10.307098,-1.08486 9.974612,1.08486 11.304559,0 8.97715,0 10.639586,0 10.307098,0 10.307098,0 9.30964,0 10.97207,0 9.64213,0 10.97207,0 9.30963,0 9.64213,0 10.3071,0 10.3071,0 9.97461,0 11.30456,0 8.97715,0 10.3071,0 10.63958,0 10.3071,0 10.63959,0 9.30963,0 9.64213,0.36162 9.64212,-0.36162 10.97207,0 11.63705,0 7.97969,0 11.30456,0 9.30964,0 9.97461,0 10.3071,0 12.30202,0 8.97715,0 8.97715,0 9.64212,0 9.97461,0 11.30456,0 10.97208,0 11.96953,0 9.30964,0 18.28678,0 9.30964,0 11.63705,0 9.30964,0 9.30963,0 11.63705,-1.44648 9.30964,-1.08486 9.30963,-0.36162 20.94669,-3.97782 11.63704,-11.57184 0,18.44262 0,0 -11.63704,2.53134 -20.94669,-2.53134 -9.30963,0 -9.30964,0 -11.63705,0 -9.30963,0 -9.30964,0 -11.63705,0 -9.30964,0 -18.28678,0 -9.30964,0 -11.96953,0 -10.97208,0 -11.30456,0 -9.97461,0 -9.64212,0 -8.97715,0 -8.97715,0 -12.30202,0 -10.3071,0 -9.97461,0 -9.30964,0 -11.30456,0 -7.97969,0 -11.63705,0 -10.97207,0 -9.64212,0.36162 -9.64213,-0.36162 -9.30963,0 -10.63959,0 -10.3071,0 -10.63958,0 -10.3071,0 -8.97715,0 -11.30456,0 -9.97461,0 -10.3071,0 -10.3071,0 -9.64213,0 -9.30963,0 -10.97207,0 -9.64213,0 -10.97207,0 -9.30964,0 -10.307098,0 -10.307098,0 -10.639586,0 -8.97715,0 -11.304559,0 -9.974612,-1.08486 -10.307098,1.08486 -5.65228,0 -13.6319689,0 -9.6421244,0 -11.3045597,-0.36162 -9.974611,0 -10.307099,0 -9.974611,0 -9.974612,-0.36162 -10.639585,-0.36162 -4.987306,1.44648 -9.974611,-0.36162 -4.654819,0 -6.982228,0 -32.583734,0 -6.98222,-0.36162 z"
               id="path476"
               style="fill:#000080;fill-opacity:1;fill-rule:nonzero;stroke:none" /></g></g></g></g></g><path
     d="m 85.654062,459.0172 0,-5"
     id="path478"
     style="fill:#000000;fill-opacity:1;fill-rule:nonzero;stroke:#000000;stroke-width:0.625;stroke-linecap:butt;stroke-linejoin:round;stroke-miterlimit:10;stroke-dasharray:none;stroke-opacity:1" /><path
     d="m 85.654062,6.992196 0,5"
     id="path480"
     style="fill:#000000;fill-opacity:1;fill-rule:nonzero;stroke:#000000;stroke-width:0.625;stroke-linecap:butt;stroke-linejoin:round;stroke-miterlimit:10;stroke-dasharray:none;stroke-opacity:1" /><text
     style="font-size:14.99999905px"
     y="452.45148"
     x="-231.64186"
     transform="matrix(0.86602539,-0.50000002,0.50000002,0.86602539,0,0)"
     id="text482"><tspan
       x="-231.64186 -219.55186 -211.10686 -205.08437 -200.20186 -190.42937 -180.65688 -170.88438"
       y="452.45148"
       id="tspan484"
       style="font-variant:normal;font-weight:normal;font-size:14.99999905px;font-family:'DejaVu Sans';-inkscape-font-specification:DejaVuSans;writing-mode:lr-tb;fill:#000000;fill-opacity:1;fill-rule:nonzero;stroke:none">Oct 2011</tspan></text>
<path
     d="m 161.71048,459.0172 0,-5"
     id="path486"
     style="fill:#000000;fill-opacity:1;fill-rule:nonzero;stroke:#000000;stroke-width:0.625;stroke-linecap:butt;stroke-linejoin:round;stroke-miterlimit:10;stroke-dasharray:none;stroke-opacity:1" /><path
     d="m 161.71048,6.992196 0,5"
     id="path488"
     style="fill:#000000;fill-opacity:1;fill-rule:nonzero;stroke:#000000;stroke-width:0.625;stroke-linecap:butt;stroke-linejoin:round;stroke-miterlimit:10;stroke-dasharray:none;stroke-opacity:1" /><text
     style="font-size:14.99999905px"
     y="490.47974"
     x="-165.67741"
     transform="matrix(0.86602539,-0.50000002,0.50000002,0.86602539,0,0)"
     id="text490"><tspan
       x="-165.67741 -155.16991 -145.41991 -139.10493 -134.22243 -124.44994 -114.67743 -104.90494"
       y="490.47974"
       id="tspan492"
       style="font-variant:normal;font-weight:normal;font-size:14.99999905px;font-family:'DejaVu Sans';-inkscape-font-specification:DejaVuSans;writing-mode:lr-tb;fill:#000000;fill-opacity:1;fill-rule:nonzero;stroke:none">Apr 2012</tspan></text>
<path
     d="m 237.76689,459.0172 0,-5"
     id="path494"
     style="fill:#000000;fill-opacity:1;fill-rule:nonzero;stroke:#000000;stroke-width:0.625;stroke-linecap:butt;stroke-linejoin:round;stroke-miterlimit:10;stroke-dasharray:none;stroke-opacity:1" /><path
     d="m 237.76689,6.992196 0,5"
     id="path496"
     style="fill:#000000;fill-opacity:1;fill-rule:nonzero;stroke:#000000;stroke-width:0.625;stroke-linecap:butt;stroke-linejoin:round;stroke-miterlimit:10;stroke-dasharray:none;stroke-opacity:1" /><text
     style="font-size:14.99999905px"
     y="528.50793"
     x="-99.791107"
     transform="matrix(0.86602539,-0.50000002,0.50000002,0.86602539,0,0)"
     id="text498"><tspan
       x="-99.791107 -87.701111 -79.256119 -73.233612 -68.351105 -58.578594 -48.806103 -39.033562"
       y="528.50793"
       id="tspan500"
       style="font-variant:normal;font-weight:normal;font-size:14.99999905px;font-family:'DejaVu Sans';-inkscape-font-specification:DejaVuSans;writing-mode:lr-tb;fill:#000000;fill-opacity:1;fill-rule:nonzero;stroke:none">Oct 2012</tspan></text>
<path
     d="m 313.40769,459.0172 0,-5"
     id="path502"
     style="fill:#000000;fill-opacity:1;fill-rule:nonzero;stroke:#000000;stroke-width:0.625;stroke-linecap:butt;stroke-linejoin:round;stroke-miterlimit:10;stroke-dasharray:none;stroke-opacity:1" /><path
     d="m 313.40769,6.992196 0,5"
     id="path504"
     style="fill:#000000;fill-opacity:1;fill-rule:nonzero;stroke:#000000;stroke-width:0.625;stroke-linecap:butt;stroke-linejoin:round;stroke-miterlimit:10;stroke-dasharray:none;stroke-opacity:1" /><text
     style="font-size:14.99999905px"
     y="566.32831"
     x="-34.596703"
     transform="matrix(0.86602539,-0.50000002,0.50000002,0.86602539,0,0)"
     id="text506"><tspan
       x="-34.596703 -24.08917 -14.339137 -8.0241117 -3.1416161 6.6309133 16.403397 26.175879"
       y="566.32831"
       id="tspan508"
       style="font-variant:normal;font-weight:normal;font-size:14.99999905px;font-family:'DejaVu Sans';-inkscape-font-specification:DejaVuSans;writing-mode:lr-tb;fill:#000000;fill-opacity:1;fill-rule:nonzero;stroke:none">Apr 2013</tspan></text>
<path
     d="m 389.4641,459.0172 0,-5"
     id="path510"
     style="fill:#000000;fill-opacity:1;fill-rule:nonzero;stroke:#000000;stroke-width:0.625;stroke-linecap:butt;stroke-linejoin:round;stroke-miterlimit:10;stroke-dasharray:none;stroke-opacity:1" /><path
     d="m 389.4641,6.992196 0,5"
     id="path512"
     style="fill:#000000;fill-opacity:1;fill-rule:nonzero;stroke:#000000;stroke-width:0.625;stroke-linecap:butt;stroke-linejoin:round;stroke-miterlimit:10;stroke-dasharray:none;stroke-opacity:1" /><text
     style="font-size:14.99999905px"
     y="604.35657"
     x="31.289686"
     transform="matrix(0.86602539,-0.50000002,0.50000002,0.86602539,0,0)"
     id="text514"><tspan
       x="31.289686 43.379669 51.824654 57.847157 62.729664 72.502167 82.274666 92.047165"
       y="604.35657"
       id="tspan516"
       style="font-variant:normal;font-weight:normal;font-size:14.99999905px;font-family:'DejaVu Sans';-inkscape-font-specification:DejaVuSans;writing-mode:lr-tb;fill:#000000;fill-opacity:1;fill-rule:nonzero;stroke:none">Oct 2013</tspan></text>
<path
     d="m 465.1049,459.0172 0,-5"
     id="path518"
     style="fill:#000000;fill-opacity:1;fill-rule:nonzero;stroke:#000000;stroke-width:0.625;stroke-linecap:butt;stroke-linejoin:round;stroke-miterlimit:10;stroke-dasharray:none;stroke-opacity:1" /><path
     d="m 465.1049,6.992196 0,5"
     id="path520"
     style="fill:#000000;fill-opacity:1;fill-rule:nonzero;stroke:#000000;stroke-width:0.625;stroke-linecap:butt;stroke-linejoin:round;stroke-miterlimit:10;stroke-dasharray:none;stroke-opacity:1" /><text
     style="font-size:14.99999905px"
     y="642.17694"
     x="96.405907"
     transform="matrix(0.86602539,-0.50000002,0.50000002,0.86602539,0,0)"
     id="text522"><tspan
       x="96.405907 106.91341 116.66339 122.9784 127.86089 137.63338 147.40588 157.17841"
       y="642.17694"
       id="tspan524"
       style="font-variant:normal;font-weight:normal;font-size:14.99999905px;font-family:'DejaVu Sans';-inkscape-font-specification:DejaVuSans;writing-mode:lr-tb;fill:#000000;fill-opacity:1;fill-rule:nonzero;stroke:none">Apr 2014</tspan></text>
<path
     d="m 541.16131,459.0172 0,-5"
     id="path526"
     style="fill:#000000;fill-opacity:1;fill-rule:nonzero;stroke:#000000;stroke-width:0.625;stroke-linecap:butt;stroke-linejoin:round;stroke-miterlimit:10;stroke-dasharray:none;stroke-opacity:1" /><path
     d="m 541.16131,6.992196 0,5"
     id="path528"
     style="fill:#000000;fill-opacity:1;fill-rule:nonzero;stroke:#000000;stroke-width:0.625;stroke-linecap:butt;stroke-linejoin:round;stroke-miterlimit:10;stroke-dasharray:none;stroke-opacity:1" /><text
     style="font-size:14.99999905px"
     y="680.20514"
     x="162.29224"
     transform="matrix(0.86602539,-0.50000002,0.50000002,0.86602539,0,0)"
     id="text530"><tspan
       x="162.29224 174.38226 182.82727 188.84976 193.73224 203.50475 213.27724 223.04971"
       y="680.20514"
       id="tspan532"
       style="font-variant:normal;font-weight:normal;font-size:14.99999905px;font-family:'DejaVu Sans';-inkscape-font-specification:DejaVuSans;writing-mode:lr-tb;fill:#000000;fill-opacity:1;fill-rule:nonzero;stroke:none">Oct 2014</tspan></text>
<path
     d="m 616.80211,459.0172 0,-5"
     id="path534"
     style="fill:#000000;fill-opacity:1;fill-rule:nonzero;stroke:#000000;stroke-width:0.625;stroke-linecap:butt;stroke-linejoin:round;stroke-miterlimit:10;stroke-dasharray:none;stroke-opacity:1" /><path
     d="m 616.80211,6.992196 0,5"
     id="path536"
     style="fill:#000000;fill-opacity:1;fill-rule:nonzero;stroke:#000000;stroke-width:0.625;stroke-linecap:butt;stroke-linejoin:round;stroke-miterlimit:10;stroke-dasharray:none;stroke-opacity:1" /><text
     style="font-size:14.99999905px"
     y="718.02557"
     x="228.24825"
     transform="matrix(0.86602539,-0.50000002,0.50000002,0.86602539,0,0)"
     id="text538"><tspan
       x="228.24825 238.75571 248.50568 254.82068 259.70319 269.47568 279.2482 289.02069"
       y="718.02557"
       id="tspan540"
       style="font-variant:normal;font-weight:normal;font-size:14.99999905px;font-family:'DejaVu Sans';-inkscape-font-specification:DejaVuSans;writing-mode:lr-tb;fill:#000000;fill-opacity:1;fill-rule:nonzero;stroke:none">Apr 2015</tspan></text>
<path
     d="m 47.418052,459.0172 5,0"
     id="path542"
     style="fill:#000000;fill-opacity:1;fill-rule:nonzero;stroke:#000000;stroke-width:0.625;stroke-linecap:butt;stroke-linejoin:round;stroke-miterlimit:10;stroke-dasharray:none;stroke-opacity:1" /><path
     d="m 689.11805,459.0172 -5,0"
     id="path544"
     style="fill:#000000;fill-opacity:1;fill-rule:nonzero;stroke:#000000;stroke-width:0.625;stroke-linecap:butt;stroke-linejoin:round;stroke-miterlimit:10;stroke-dasharray:none;stroke-opacity:1" /><text
     style="font-size:15px"
     y="463.15781"
     x="20.543051"
     id="text546"><tspan
       x="20.543051 30.315554 35.198051"
       y="463.15781"
       id="tspan548"
       style="font-variant:normal;font-weight:normal;font-size:15px;font-family:'DejaVu Sans';-inkscape-font-specification:DejaVuSans;writing-mode:lr-tb;fill:#000000;fill-opacity:1;fill-rule:nonzero;stroke:none">0.0</tspan></text>
<path
     d="m 47.418052,368.6122 5,0"
     id="path550"
     style="fill:#000000;fill-opacity:1;fill-rule:nonzero;stroke:#000000;stroke-width:0.625;stroke-linecap:butt;stroke-linejoin:round;stroke-miterlimit:10;stroke-dasharray:none;stroke-opacity:1" /><path
     d="m 689.11805,368.6122 -5,0"
     id="path552"
     style="fill:#000000;fill-opacity:1;fill-rule:nonzero;stroke:#000000;stroke-width:0.625;stroke-linecap:butt;stroke-linejoin:round;stroke-miterlimit:10;stroke-dasharray:none;stroke-opacity:1" /><text
     style="font-size:15px"
     y="372.75278"
     x="21.050863"
     id="text554"><tspan
       x="21.050863 30.823362 35.705864"
       y="372.75278"
       id="tspan556"
       style="font-variant:normal;font-weight:normal;font-size:15px;font-family:'DejaVu Sans';-inkscape-font-specification:DejaVuSans;writing-mode:lr-tb;fill:#000000;fill-opacity:1;fill-rule:nonzero;stroke:none">0.2</tspan></text>
<path
     d="m 47.418052,278.2072 5,0"
     id="path558"
     style="fill:#000000;fill-opacity:1;fill-rule:nonzero;stroke:#000000;stroke-width:0.625;stroke-linecap:butt;stroke-linejoin:round;stroke-miterlimit:10;stroke-dasharray:none;stroke-opacity:1" /><path
     d="m 689.11805,278.2072 -5,0"
     id="path560"
     style="fill:#000000;fill-opacity:1;fill-rule:nonzero;stroke:#000000;stroke-width:0.625;stroke-linecap:butt;stroke-linejoin:round;stroke-miterlimit:10;stroke-dasharray:none;stroke-opacity:1" /><text
     style="font-size:15px"
     y="282.34781"
     x="20.386801"
     id="text562"><tspan
       x="20.386801 30.159304 35.041801"
       y="282.34781"
       id="tspan564"
       style="font-variant:normal;font-weight:normal;font-size:15px;font-family:'DejaVu Sans';-inkscape-font-specification:DejaVuSans;writing-mode:lr-tb;fill:#000000;fill-opacity:1;fill-rule:nonzero;stroke:none">0.4</tspan></text>
<path
     d="m 47.418052,187.8022 5,0"
     id="path566"
     style="fill:#000000;fill-opacity:1;fill-rule:nonzero;stroke:#000000;stroke-width:0.625;stroke-linecap:butt;stroke-linejoin:round;stroke-miterlimit:10;stroke-dasharray:none;stroke-opacity:1" /><path
     d="m 689.11805,187.8022 -5,0"
     id="path568"
     style="fill:#000000;fill-opacity:1;fill-rule:nonzero;stroke:#000000;stroke-width:0.625;stroke-linecap:butt;stroke-linejoin:round;stroke-miterlimit:10;stroke-dasharray:none;stroke-opacity:1" /><text
     style="font-size:15px"
     y="191.94281"
     x="20.503988"
     id="text570"><tspan
       x="20.503988 30.276487 35.158989"
       y="191.94281"
       id="tspan572"
       style="font-variant:normal;font-weight:normal;font-size:15px;font-family:'DejaVu Sans';-inkscape-font-specification:DejaVuSans;writing-mode:lr-tb;fill:#000000;fill-opacity:1;fill-rule:nonzero;stroke:none">0.6</tspan></text>
<path
     d="m 47.418052,97.397196 5,0"
     id="path574"
     style="fill:#000000;fill-opacity:1;fill-rule:nonzero;stroke:#000000;stroke-width:0.625;stroke-linecap:butt;stroke-linejoin:round;stroke-miterlimit:10;stroke-dasharray:none;stroke-opacity:1" /><path
     d="m 689.11805,97.397196 -5,0"
     id="path576"
     style="fill:#000000;fill-opacity:1;fill-rule:nonzero;stroke:#000000;stroke-width:0.625;stroke-linecap:butt;stroke-linejoin:round;stroke-miterlimit:10;stroke-dasharray:none;stroke-opacity:1" /><text
     style="font-size:15px"
     y="101.53782"
     x="20.582113"
     id="text578"><tspan
       x="20.582113 30.354612 35.237114"
       y="101.53782"
       id="tspan580"
       style="font-variant:normal;font-weight:normal;font-size:15px;font-family:'DejaVu Sans';-inkscape-font-specification:DejaVuSans;writing-mode:lr-tb;fill:#000000;fill-opacity:1;fill-rule:nonzero;stroke:none">0.8</tspan></text>
<path
     d="m 47.418052,6.992196 5,0"
     id="path582"
     style="fill:#000000;fill-opacity:1;fill-rule:nonzero;stroke:#000000;stroke-width:0.625;stroke-linecap:butt;stroke-linejoin:round;stroke-miterlimit:10;stroke-dasharray:none;stroke-opacity:1" /><path
     d="m 689.11805,6.992196 -5,0"
     id="path584"
     style="fill:#000000;fill-opacity:1;fill-rule:nonzero;stroke:#000000;stroke-width:0.625;stroke-linecap:butt;stroke-linejoin:round;stroke-miterlimit:10;stroke-dasharray:none;stroke-opacity:1" /><text
     style="font-size:15px"
     y="11.132812"
     x="21.187582"
     id="text586"><tspan
       x="21.187582 30.960085 35.842583"
       y="11.132812"
       id="tspan588"
       style="font-variant:normal;font-weight:normal;font-size:15px;font-family:'DejaVu Sans';-inkscape-font-specification:DejaVuSans;writing-mode:lr-tb;fill:#000000;fill-opacity:1;fill-rule:nonzero;stroke:none">1.0</tspan></text>
<path
     d="m 47.418052,459.0172 641.699998,0"
     id="path594"
     style="fill:none;stroke:#000000;stroke-width:1.25;stroke-linecap:butt;stroke-linejoin:round;stroke-miterlimit:10;stroke-dasharray:none;stroke-opacity:1" /><path
     d="m 47.418052,459.0172 0,-452.025004"
     id="path596"
     style="fill:none;stroke:#000000;stroke-width:1.25;stroke-linecap:butt;stroke-linejoin:round;stroke-miterlimit:10;stroke-dasharray:none;stroke-opacity:1" /><path
     d="m 689.11805,459.0172 0,-452.025004"
     id="path598"
     style="fill:none;stroke:#000000;stroke-width:1.25;stroke-linecap:butt;stroke-linejoin:round;stroke-miterlimit:10;stroke-dasharray:none;stroke-opacity:1" /><path
     d="m 47.418052,6.992196 641.699998,0"
     id="path600"
     style="fill:none;stroke:#000000;stroke-width:1.25;stroke-linecap:butt;stroke-linejoin:round;stroke-miterlimit:10;stroke-dasharray:none;stroke-opacity:1" /><text
     style="font-size:15px"
     y="434.25345"
     x="85.384308"
     id="text640"><tspan
       x="85.384308"
       y="434.25345"
       id="tspan642"
       style="font-variant:normal;font-weight:normal;font-size:15px;font-family:'DejaVu Sans';-inkscape-font-specification:DejaVuSans;writing-mode:lr-tb;fill:#000000;fill-opacity:1;fill-rule:nonzero;stroke:none">7</tspan></text>
<text
     style="font-size:15px"
     y="391.48642"
     x="147.85818"
     id="text646"><tspan
       x="147.85818"
       y="391.48642"
       id="tspan648"
       style="font-variant:normal;font-weight:normal;font-size:15px;font-family:'DejaVu Sans';-inkscape-font-specification:DejaVuSans;writing-mode:lr-tb;fill:#000000;fill-opacity:1;fill-rule:nonzero;stroke:none">8</tspan></text>
<text
     style="font-size:15px"
     y="313.38901"
     x="254.63525"
     id="text658"><tspan
       x="254.63525 264.40775"
       y="313.38901"
       id="tspan660"
       style="font-variant:normal;font-weight:normal;font-size:15px;font-family:'DejaVu Sans';-inkscape-font-specification:DejaVuSans;writing-mode:lr-tb;fill:#000000;fill-opacity:1;fill-rule:nonzero;stroke:none">10</tspan></text>
<text
     style="font-size:15px"
     y="246.51031"
     x="346.41788"
     id="text688"><tspan
       x="346.41788 356.19037"
       y="246.51031"
       id="tspan690"
       style="font-variant:normal;font-weight:normal;font-size:15px;font-family:'DejaVu Sans';-inkscape-font-specification:DejaVuSans;writing-mode:lr-tb;fill:#000000;fill-opacity:1;fill-rule:nonzero;stroke:none">15</tspan></text>
<text
     style="font-size:15px"
     y="197.1687"
     x="418.02805"
     id="text694"><tspan
       x="418.02805 427.80054"
       y="197.1687"
       id="tspan696"
       style="font-variant:normal;font-weight:normal;font-size:15px;font-family:'DejaVu Sans';-inkscape-font-specification:DejaVuSans;writing-mode:lr-tb;fill:#000000;fill-opacity:1;fill-rule:nonzero;stroke:none">16</tspan></text>
<text
     style="font-size:15px"
     y="151.58078"
     x="479.00504"
     id="text700"><tspan
       x="479.00504 488.77756"
       y="151.58078"
       id="tspan702"
       style="font-variant:normal;font-weight:normal;font-size:15px;font-family:'DejaVu Sans';-inkscape-font-specification:DejaVuSans;writing-mode:lr-tb;fill:#000000;fill-opacity:1;fill-rule:nonzero;stroke:none">17</tspan></text>
<text
     style="font-size:15px"
     y="129.37473"
     x="510.08981"
     id="text706"><tspan
       x="510.08981 519.86237"
       y="129.37473"
       id="tspan708"
       style="font-variant:normal;font-weight:normal;font-size:15px;font-family:'DejaVu Sans';-inkscape-font-specification:DejaVuSans;writing-mode:lr-tb;fill:#000000;fill-opacity:1;fill-rule:nonzero;stroke:none">18</tspan></text>
<text
     style="font-size:15px"
     y="83.727997"
     x="574.6322"
     id="text712"><tspan
       x="574.6322 584.40472"
       y="83.727997"
       id="tspan714"
       style="font-variant:normal;font-weight:normal;font-size:15px;font-family:'DejaVu Sans';-inkscape-font-specification:DejaVuSans;writing-mode:lr-tb;fill:#000000;fill-opacity:1;fill-rule:nonzero;stroke:none">19</tspan></text>
<text
     style="font-size:15px"
     y="39.747589"
     x="638.26141"
     id="text724"><tspan
       x="638.26141 648.03394"
       y="39.747589"
       id="tspan726"
       style="font-variant:normal;font-weight:normal;font-size:15px;font-family:'DejaVu Sans';-inkscape-font-specification:DejaVuSans;writing-mode:lr-tb;fill:#000000;fill-opacity:1;fill-rule:nonzero;stroke:none">21</tspan></text>
<text
     style="font-size:15px"
     y="18.965309"
     x="662.56647"
     id="text730"><tspan
       x="662.56647 672.33899"
       y="18.965309"
       id="tspan732"
       style="font-variant:normal;font-weight:normal;font-size:15px;font-family:'DejaVu Sans';-inkscape-font-specification:DejaVuSans;writing-mode:lr-tb;fill:#ffffff;fill-opacity:1;fill-rule:nonzero;stroke:none">22</tspan></text>
<text
     transform="matrix(0,-1,1,0,0,0)"
     id="text4445"
     y="17.094727"
     x="-250.14754"
     style="font-style:normal;font-weight:normal;font-size:10px;line-height:125%;font-family:Sans;text-align:center;letter-spacing:0px;word-spacing:0px;text-anchor:middle;fill:#000000;fill-opacity:1;stroke:none;stroke-width:1px;stroke-linecap:butt;stroke-linejoin:miter;stroke-opacity:1"
     xml:space="preserve"><tspan
       style="font-size:22.5px"
       y="17.094727"
       x="-250.14754"
       id="tspan4447">Proportion of devices</tspan></text>
</svg>