<?xml version="1.0" encoding="UTF-8" standalone="no"?>
<svg
   xmlns:dc="http://purl.org/dc/elements/1.1/"
   xmlns:cc="http://creativecommons.org/ns#"
   xmlns:rdf="http://www.w3.org/1999/02/22-rdf-syntax-ns#"
   xmlns:svg="http://www.w3.org/2000/svg"
   xmlns="http://www.w3.org/2000/svg"
   viewBox="0 0 720 720"
   height="720"
   width="720"
   xml:space="preserve"
   version="1.1"
   id="svg2"><metadata
     id="metadata8"><rdf:RDF><cc:Work
         rdf:about=""><dc:format>image/svg+xml</dc:format><dc:type
           rdf:resource="http://purl.org/dc/dcmitype/StillImage" /></cc:Work></rdf:RDF></metadata><defs
     id="defs6"><clipPath
       id="clipPath22"
       clipPathUnits="userSpaceOnUse"><path
         id="path24"
         d="m 58.608,173.832 513.36,0 0,348.6 -513.36,0 0,-348.6 z" /></clipPath><clipPath
       id="clipPath32"
       clipPathUnits="userSpaceOnUse"><path
         id="path34"
         d="m -111.02044,172.832 690.56615,0 0,3.0458 -690.56615,0 0,-3.0458 z" /></clipPath><clipPath
       id="clipPath44"
       clipPathUnits="userSpaceOnUse"><path
         id="path46"
         d="m 58.608,173.832 513.36,0 0,348.6 -513.36,0 0,-348.6 z" /></clipPath><clipPath
       id="clipPath54"
       clipPathUnits="userSpaceOnUse"><path
         id="path56"
         d="m -111.02044,172.832 690.56615,0 0,134.8166 -690.56615,0 0,-134.8166 z" /></clipPath><clipPath
       id="clipPath66"
       clipPathUnits="userSpaceOnUse"><path
         id="path68"
         d="m 58.608,173.832 513.36,0 0,348.6 -513.36,0 0,-348.6 z" /></clipPath><clipPath
       id="clipPath76"
       clipPathUnits="userSpaceOnUse"><path
         id="path78"
         d="m -111.02044,172.832 690.56615,0 0,288.5492 -690.56615,0 0,-288.5492 z" /></clipPath><clipPath
       id="clipPath88"
       clipPathUnits="userSpaceOnUse"><path
         id="path90"
         d="m 58.608,173.832 513.36,0 0,348.6 -513.36,0 0,-348.6 z" /></clipPath><clipPath
       id="clipPath98"
       clipPathUnits="userSpaceOnUse"><path
         id="path100"
         d="m -111.02044,172.832 690.56615,0 0,298.6586 -690.56615,0 0,-298.6586 z" /></clipPath><clipPath
       id="clipPath110"
       clipPathUnits="userSpaceOnUse"><path
         id="path112"
         d="m 58.608,173.832 513.36,0 0,348.6 -513.36,0 0,-348.6 z" /></clipPath><clipPath
       id="clipPath120"
       clipPathUnits="userSpaceOnUse"><path
         id="path122"
         d="m -111.02044,172.832 690.56615,0 0,350.6 -690.56615,0 0,-350.6 z" /></clipPath><clipPath
       id="clipPath132"
       clipPathUnits="userSpaceOnUse"><path
         id="path134"
         d="m 58.608,173.832 513.36,0 0,348.6 -513.36,0 0,-348.6 z" /></clipPath><clipPath
       id="clipPath142"
       clipPathUnits="userSpaceOnUse"><path
         id="path144"
         d="m -111.02044,172.832 690.56615,0 0,350.9486 -690.56615,0 0,-350.9486 z" /></clipPath><clipPath
       id="clipPath154"
       clipPathUnits="userSpaceOnUse"><path
         id="path156"
         d="m 58.608,173.832 513.36,0 0,348.6 -513.36,0 0,-348.6 z" /></clipPath><clipPath
       id="clipPath164"
       clipPathUnits="userSpaceOnUse"><path
         id="path166"
         d="m -111.02044,172.832 690.56615,0 0,350.9486 -690.56615,0 0,-350.9486 z" /></clipPath><clipPath
       id="clipPath176"
       clipPathUnits="userSpaceOnUse"><path
         id="path178"
         d="m 58.608,173.832 513.36,0 0,348.6 -513.36,0 0,-348.6 z" /></clipPath><clipPath
       id="clipPath186"
       clipPathUnits="userSpaceOnUse"><path
         id="path188"
         d="m -111.02044,173.1806 690.56615,0 0,350.6 -690.56615,0 0,-350.6 z" /></clipPath><clipPath
       id="clipPath198"
       clipPathUnits="userSpaceOnUse"><path
         id="path200"
         d="m 58.608,173.832 513.36,0 0,348.6 -513.36,0 0,-348.6 z" /></clipPath><clipPath
       id="clipPath208"
       clipPathUnits="userSpaceOnUse"><path
         id="path210"
         d="m -111.02044,173.1806 690.56615,0 0,350.6 -690.56615,0 0,-350.6 z" /></clipPath><clipPath
       id="clipPath220"
       clipPathUnits="userSpaceOnUse"><path
         id="path222"
         d="m 58.608,173.832 513.36,0 0,348.6 -513.36,0 0,-348.6 z" /></clipPath><clipPath
       id="clipPath230"
       clipPathUnits="userSpaceOnUse"><path
         id="path232"
         d="m -111.02044,182.2442 690.56615,0 0,341.5364 -690.56615,0 0,-341.5364 z" /></clipPath><clipPath
       id="clipPath242"
       clipPathUnits="userSpaceOnUse"><path
         id="path244"
         d="m 58.608,173.832 513.36,0 0,348.6 -513.36,0 0,-348.6 z" /></clipPath><clipPath
       id="clipPath252"
       clipPathUnits="userSpaceOnUse"><path
         id="path254"
         d="m -111.02044,182.2442 690.56615,0 0,341.5364 -690.56615,0 0,-341.5364 z" /></clipPath><clipPath
       id="clipPath264"
       clipPathUnits="userSpaceOnUse"><path
         id="path266"
         d="m 58.608,173.832 513.36,0 0,348.6 -513.36,0 0,-348.6 z" /></clipPath><clipPath
       id="clipPath274"
       clipPathUnits="userSpaceOnUse"><path
         id="path276"
         d="m -111.02044,182.2442 690.56615,0 0,341.5364 -690.56615,0 0,-341.5364 z" /></clipPath><clipPath
       id="clipPath286"
       clipPathUnits="userSpaceOnUse"><path
         id="path288"
         d="m 58.608,173.832 513.36,0 0,348.6 -513.36,0 0,-348.6 z" /></clipPath><clipPath
       id="clipPath296"
       clipPathUnits="userSpaceOnUse"><path
         id="path298"
         d="m -111.02044,182.2442 690.56615,0 0,341.5364 -690.56615,0 0,-341.5364 z" /></clipPath><clipPath
       id="clipPath308"
       clipPathUnits="userSpaceOnUse"><path
         id="path310"
         d="m 58.608,173.832 513.36,0 0,348.6 -513.36,0 0,-348.6 z" /></clipPath><clipPath
       id="clipPath318"
       clipPathUnits="userSpaceOnUse"><path
         id="path320"
         d="m -111.02044,182.2442 690.56615,0 0,341.5364 -690.56615,0 0,-341.5364 z" /></clipPath><clipPath
       id="clipPath330"
       clipPathUnits="userSpaceOnUse"><path
         id="path332"
         d="m 58.608,173.832 513.36,0 0,348.6 -513.36,0 0,-348.6 z" /></clipPath><clipPath
       id="clipPath340"
       clipPathUnits="userSpaceOnUse"><path
         id="path342"
         d="m -111.02044,189.9134 690.56615,0 0,333.8672 -690.56615,0 0,-333.8672 z" /></clipPath><clipPath
       id="clipPath352"
       clipPathUnits="userSpaceOnUse"><path
         id="path354"
         d="m 58.608,173.832 513.36,0 0,348.6 -513.36,0 0,-348.6 z" /></clipPath><clipPath
       id="clipPath362"
       clipPathUnits="userSpaceOnUse"><path
         id="path364"
         d="m -111.02044,217.1042 690.56615,0 0,306.6764 -690.56615,0 0,-306.6764 z" /></clipPath><clipPath
       id="clipPath374"
       clipPathUnits="userSpaceOnUse"><path
         id="path376"
         d="m 58.608,173.832 513.36,0 0,348.6 -513.36,0 0,-348.6 z" /></clipPath><clipPath
       id="clipPath384"
       clipPathUnits="userSpaceOnUse"><path
         id="path386"
         d="m -111.02044,253.7072 690.56615,0 0,270.0734 -690.56615,0 0,-270.0734 z" /></clipPath><clipPath
       id="clipPath396"
       clipPathUnits="userSpaceOnUse"><path
         id="path398"
         d="m 58.608,173.832 513.36,0 0,348.6 -513.36,0 0,-348.6 z" /></clipPath><clipPath
       id="clipPath406"
       clipPathUnits="userSpaceOnUse"><path
         id="path408"
         d="m -111.02044,264.1652 690.56615,0 0,259.6154 -690.56615,0 0,-259.6154 z" /></clipPath><clipPath
       id="clipPath418"
       clipPathUnits="userSpaceOnUse"><path
         id="path420"
         d="m 58.608,173.832 513.36,0 0,348.6 -513.36,0 0,-348.6 z" /></clipPath><clipPath
       id="clipPath428"
       clipPathUnits="userSpaceOnUse"><path
         id="path430"
         d="m -111.02044,380.5976 690.56615,0 0,143.183 -690.56615,0 0,-143.183 z" /></clipPath><clipPath
       id="clipPath440"
       clipPathUnits="userSpaceOnUse"><path
         id="path442"
         d="m 58.608,173.832 513.36,0 0,348.6 -513.36,0 0,-348.6 z" /></clipPath><clipPath
       id="clipPath450"
       clipPathUnits="userSpaceOnUse"><path
         id="path452"
         d="m -111.02044,380.5976 690.56615,0 0,143.183 -690.56615,0 0,-143.183 z" /></clipPath><clipPath
       id="clipPath462"
       clipPathUnits="userSpaceOnUse"><path
         id="path464"
         d="m 58.608,173.832 513.36,0 0,348.6 -513.36,0 0,-348.6 z" /></clipPath><clipPath
       id="clipPath472"
       clipPathUnits="userSpaceOnUse"><path
         id="path474"
         d="m -111.02044,437.768 690.56615,0 0,88.1042 -690.56615,0 0,-88.1042 z" /></clipPath><clipPath
       id="clipPath484"
       clipPathUnits="userSpaceOnUse"><path
         id="path486"
         d="m 58.608,173.832 513.36,0 0,348.6 -513.36,0 0,-348.6 z" /></clipPath><clipPath
       id="clipPath494"
       clipPathUnits="userSpaceOnUse"><path
         id="path496"
         d="m -111.02044,505.3964 690.56615,0 0,20.4758 -690.56615,0 0,-20.4758 z" /></clipPath></defs><g
     transform="matrix(1.25,0,0,-1.25,0,720)"
     id="g10"><path
       id="path12"
       style="fill:#ffffff;fill-opacity:1;fill-rule:nonzero;stroke:none"
       d="M 0,0 576,0 576,576 0,576 0,0 Z" /><path
       id="path14"
       style="fill:#ffffff;fill-opacity:1;fill-rule:nonzero;stroke:none"
       d="m 58.608,173.832 513.36,0 0,348.6 -513.36,0 0,-348.6 z" /><g
       id="g16" /><g
       id="g18"><g
         clip-path="url(#clipPath22)"
         id="g20"><g
           id="g26"><g
             id="g28"><g
               clip-path="url(#clipPath32)"
               id="g30"><path
                 id="path36"
                 style="fill:#000080;fill-opacity:1;fill-rule:nonzero;stroke:none"
                 d="m -110.02044,174.8778 0,-1.0458 6.27871,0 29.300691,0 6.278719,0 4.185812,0 8.969598,0 4.484799,0 9.567572,0 8.969598,0 8.969598,0 9.268585,0 8.9695978,0 10.1655446,0 8.6706116,0 12.258451,0 5.082772,0 9.268585,0 8.969598,0 10.165544,0 8.072639,0 9.567571,0 9.268585,0 9.268585,0 8.371624,0 9.86656,0 8.67061,0 9.86656,0 8.37162,0 8.67061,0 9.26859,0 9.26858,0 8.9696,0 10.16555,0 8.07263,0 9.26859,0 9.56757,0 9.26859,0 9.56757,0 8.37162,0 8.67061,0 8.67062,0 9.86655,0 10.46453,0 7.17568,0 10.16555,0 8.37162,0 8.9696,0 9.26859,0 11.0625,0 8.07264,0 8.07264,0 8.67061,0 8.9696,0 10.16554,0 9.86656,0 10.76352,0 8.37162,0 16.44426,0 8.37163,0 10.46453,0 8.37163,0 8.37162,0 10.46453,0 8.37163,0 8.37162,0 18.83616,0 10.46453,0 8.37162,0 8.37163,0 10.46453,0 8.37162,0 8.37163,0 10.46453,0 8.37163,0 0,0 0,0 -8.37163,0 -10.46453,0 -8.37163,0 -8.37162,0 -10.46453,0 -8.37163,0 -8.37162,0 -10.46453,0 -18.83616,0 -8.37162,0 -8.37163,0 -10.46453,0 -8.37162,0 -8.37163,0 -10.46453,0 -8.37163,0 -16.44426,0 -8.37162,0 -10.76352,0 -9.86656,0 -10.16554,0 -8.9696,0 -8.67061,0 -8.07264,0 -8.07264,0 -11.0625,0 -9.26859,0 -8.9696,0 -8.37162,0 -10.16555,0 -7.17568,0 -10.46453,0 -9.86655,0 -8.67062,0 -8.67061,0 -8.37162,0 -9.56757,0 -9.26859,0 -9.56757,0 -9.26859,0 -8.07263,0 -10.16555,0 -8.9696,0 -9.26858,0 -9.26859,0 -8.67061,0 -8.37162,0 -9.86656,0 -8.67061,0 -9.86656,0 -8.371624,0 -9.268585,0 -9.268585,0 -9.567571,0 -8.072639,0 -10.165544,0 -8.969598,0 -9.268585,0 -5.082772,0 -12.258451,0 -8.6706116,0 -10.1655446,0 -8.9695978,0 -9.268585,0 -8.969598,0 -8.969598,0 -9.567572,0 -4.484799,0.3486 -8.969598,0 -4.185812,0 -6.278719,0 -29.300691,0.6972 -6.27871,0 z" /></g></g></g></g></g><g
       id="g38" /><g
       id="g40"><g
         clip-path="url(#clipPath44)"
         id="g42"><g
           id="g48"><g
             id="g50"><g
               clip-path="url(#clipPath54)"
               id="g52"><path
                 id="path58"
                 style="fill:#0024ca;fill-opacity:1;fill-rule:nonzero;stroke:none"
                 d="m -110.02044,271.44 0,-96.5622 6.27871,0 29.300691,-0.6972 6.278719,0 4.185812,0 8.969598,0 4.484799,-0.3486 9.567572,0 8.969598,0 8.969598,0 9.268585,0 8.9695978,0 10.1655446,0 8.6706116,0 12.258451,0 5.082772,0 9.268585,0 8.969598,0 10.165544,0 8.072639,0 9.567571,0 9.268585,0 9.268585,0 8.371624,0 9.86656,0 8.67061,0 9.86656,0 8.37162,0 8.67061,0 9.26859,0 9.26858,0 8.9696,0 10.16555,0 8.07263,0 9.26859,0 9.56757,0 9.26859,0 9.56757,0 8.37162,0 8.67061,0 8.67062,0 9.86655,0 10.46453,0 7.17568,0 10.16555,0 8.37162,0 8.9696,0 9.26859,0 11.0625,0 8.07264,0 8.07264,0 8.67061,0 8.9696,0 10.16554,0 9.86656,0 10.76352,0 8.37162,0 16.44426,0 8.37163,0 10.46453,0 8.37163,0 8.37162,0 10.46453,0 8.37163,0 8.37162,0 18.83616,0 10.46453,0 8.37162,0 8.37163,0 10.46453,0 8.37162,0 8.37163,0 10.46453,0 8.37163,0 0,0 0,0 -8.37163,0 -10.46453,0 -8.37163,0 -8.37162,0 -10.46453,0 -8.37163,0 -8.37162,0 -10.46453,0 -18.83616,0 -8.37162,0 -8.37163,0 -10.46453,0 -8.37162,0 -8.37163,0 -10.46453,0 -8.37163,0 -16.44426,0 -8.37162,0 -10.76352,0 -9.86656,0 -10.16554,0 -8.9696,0 -8.67061,0 -8.07264,0 -8.07264,0 -11.0625,0 -9.26859,0 -8.9696,0 -8.37162,0 -10.16555,0 -7.17568,0 -10.46453,0 -9.86655,0 -8.67062,0 -8.67061,0 -8.37162,0 -9.56757,0 -9.26859,0.3486 -9.56757,0 -9.26859,0 -8.07263,0.3486 -10.16555,0 -8.9696,0 -9.26858,0.3486 -9.26859,0 -8.67061,0 -8.37162,0.3486 -9.86656,0.6972 -8.67061,0 -9.86656,0.6972 -8.371624,0.3486 -9.268585,0.6972 -9.268585,-0.3486 -9.567571,1.0458 -8.072639,0.3486 -10.165544,1.743 -8.969598,0.3486 -9.268585,2.4402 -5.082772,1.0458 -12.258451,3.1374 -8.6706116,2.7888 -10.1655446,5.5776 -8.9695978,5.5776 -9.268585,6.2748 -8.969598,8.0178 -8.969598,11.5038 -9.567572,20.916 -4.484799,11.8524 -8.969598,33.117 -4.185812,10.8066 -6.278719,2.7888 -29.300691,-23.7048 -6.27871,-11.5038 z" /></g></g></g></g></g><g
       id="g60" /><g
       id="g62"><g
         clip-path="url(#clipPath66)"
         id="g64"><g
           id="g70"><g
             id="g72"><g
               clip-path="url(#clipPath76)"
               id="g74"><path
                 id="path80"
                 style="fill:#0051ff;fill-opacity:1;fill-rule:nonzero;stroke:none"
                 d="m -110.02044,460.3812 0,-188.9412 6.27871,11.5038 29.300691,23.7048 6.278719,-2.7888 4.185812,-10.8066 8.969598,-33.117 4.484799,-11.8524 9.567572,-20.916 8.969598,-11.5038 8.969598,-8.0178 9.268585,-6.2748 8.9695978,-5.5776 10.1655446,-5.5776 8.6706116,-2.7888 12.258451,-3.1374 5.082772,-1.0458 9.268585,-2.4402 8.969598,-0.3486 10.165544,-1.743 8.072639,-0.3486 9.567571,-1.0458 9.268585,0.3486 9.268585,-0.6972 8.371624,-0.3486 9.86656,-0.6972 8.67061,0 9.86656,-0.6972 8.37162,-0.3486 8.67061,0 9.26859,0 9.26858,-0.3486 8.9696,0 10.16555,0 8.07263,-0.3486 9.26859,0 9.56757,0 9.26859,-0.3486 9.56757,0 8.37162,0 8.67061,0 8.67062,0 9.86655,0 10.46453,0 7.17568,0 10.16555,0 8.37162,0 8.9696,0 9.26859,0 11.0625,0 8.07264,0 8.07264,0 8.67061,0 8.9696,0 10.16554,0 9.86656,0 10.76352,0 8.37162,0 16.44426,0 8.37163,0 10.46453,0 8.37163,0 8.37162,0 10.46453,0 8.37163,0 8.37162,0 18.83616,0 10.46453,0 8.37162,0 8.37163,0 10.46453,0 8.37162,0 8.37163,0 10.46453,0 8.37163,0 0,0 0,0 -8.37163,0 -10.46453,0 -8.37163,0 -8.37162,0 -10.46453,0 -8.37163,0 -8.37162,0 -10.46453,0 -18.83616,0 -8.37162,0 -8.37163,0 -10.46453,0 -8.37162,0 -8.37163,0 -10.46453,0 -8.37163,0 -16.44426,0 -8.37162,0 -10.76352,0 -9.86656,0 -10.16554,0 -8.9696,0 -8.67061,0 -8.07264,0 -8.07264,0 -11.0625,0 -9.26859,0 -8.9696,0 -8.37162,0 -10.16555,0.3486 -7.17568,0 -10.46453,0 -9.86655,0 -8.67062,0 -8.67061,0.3486 -8.37162,0 -9.56757,0 -9.26859,0.6972 -9.56757,0 -9.26859,0.3486 -8.07263,0.3486 -10.16555,0.3486 -8.9696,0 -9.26858,0.6972 -9.26859,0.3486 -8.67061,0 -8.37162,0.6972 -9.86656,1.3944 -8.67061,0.3486 -9.86656,1.3944 -8.371624,0.6972 -9.268585,0.6972 -9.268585,1.0458 -9.567571,1.743 -8.072639,1.0458 -10.165544,2.7888 -8.969598,2.0916 -9.268585,4.1832 -5.082772,5.5776 -12.258451,8.3664 -8.6706116,8.3664 -10.1655446,14.9898 -8.9695978,20.916 -9.268585,11.1552 -8.969598,11.8524 -8.969598,21.2646 -9.567572,32.0712 -4.484799,17.0814 -8.969598,43.575 -4.185812,15.687 -6.278719,10.458 -29.300691,32.0712 -6.27871,11.5038 z" /></g></g></g></g></g><g
       id="g82" /><g
       id="g84"><g
         clip-path="url(#clipPath88)"
         id="g86"><g
           id="g92"><g
             id="g94"><g
               clip-path="url(#clipPath98)"
               id="g96"><path
                 id="path102"
                 style="fill:#0081ff;fill-opacity:1;fill-rule:nonzero;stroke:none"
                 d="m -110.02044,470.4906 0,-10.1094 6.27871,-11.5038 29.300691,-32.0712 6.278719,-10.458 4.185812,-15.687 8.969598,-43.575 4.484799,-17.0814 9.567572,-32.0712 8.969598,-21.2646 8.969598,-11.8524 9.268585,-11.1552 8.9695978,-20.916 10.1655446,-14.9898 8.6706116,-8.3664 12.258451,-8.3664 5.082772,-5.5776 9.268585,-4.1832 8.969598,-2.0916 10.165544,-2.7888 8.072639,-1.0458 9.567571,-1.743 9.268585,-1.0458 9.268585,-0.6972 8.371624,-0.6972 9.86656,-1.3944 8.67061,-0.3486 9.86656,-1.3944 8.37162,-0.6972 8.67061,0 9.26859,-0.3486 9.26858,-0.6972 8.9696,0 10.16555,-0.3486 8.07263,-0.3486 9.26859,-0.3486 9.56757,0 9.26859,-0.6972 9.56757,0 8.37162,0 8.67061,-0.3486 8.67062,0 9.86655,0 10.46453,0 7.17568,0 10.16555,-0.3486 8.37162,0 8.9696,0 9.26859,0 11.0625,0 8.07264,0 8.07264,0 8.67061,0 8.9696,0 10.16554,0 9.86656,0 10.76352,0 8.37162,0 16.44426,0 8.37163,0 10.46453,0 8.37163,0 8.37162,0 10.46453,0 8.37163,0 8.37162,0 18.83616,0 10.46453,0 8.37162,0 8.37163,0 10.46453,0 8.37162,0 8.37163,0 10.46453,0 8.37163,0 0,0 0,0 -8.37163,0 -10.46453,0 -8.37163,0 -8.37162,0 -10.46453,0 -8.37163,0 -8.37162,0 -10.46453,0 -18.83616,0 -8.37162,0 -8.37163,0 -10.46453,0 -8.37162,0 -8.37163,0 -10.46453,0 -8.37163,0 -16.44426,0 -8.37162,0 -10.76352,0 -9.86656,0 -10.16554,0 -8.9696,0 -8.67061,0 -8.07264,0 -8.07264,0 -11.0625,0 -9.26859,0 -8.9696,0 -8.37162,0 -10.16555,0.3486 -7.17568,0 -10.46453,0 -9.86655,0 -8.67062,0 -8.67061,0.3486 -8.37162,0 -9.56757,0 -9.26859,0.6972 -9.56757,0 -9.26859,0.3486 -8.07263,0.3486 -10.16555,0.3486 -8.9696,0 -9.26858,0.6972 -9.26859,0.3486 -8.67061,0 -8.37162,0.6972 -9.86656,1.3944 -8.67061,0.3486 -9.86656,1.3944 -8.371624,0.6972 -9.268585,0.6972 -9.268585,1.0458 -9.567571,1.743 -8.072639,1.0458 -10.165544,2.7888 -8.969598,2.0916 -9.268585,4.1832 -5.082772,5.5776 -12.258451,8.3664 -8.6706116,8.3664 -10.1655446,14.9898 -8.9695978,20.916 -9.268585,11.1552 -8.969598,11.8524 -8.969598,21.2646 -9.567572,32.0712 -4.484799,17.43 -8.969598,43.9236 -4.185812,16.0356 -6.278719,10.458 -29.300691,33.4656 -6.27871,19.173 z" /></g></g></g></g></g><g
       id="g104" /><g
       id="g106"><g
         clip-path="url(#clipPath110)"
         id="g108"><g
           id="g114"><g
             id="g116"><g
               clip-path="url(#clipPath120)"
               id="g118"><path
                 id="path124"
                 style="fill:#00aeff;fill-opacity:1;fill-rule:nonzero;stroke:none"
                 d="m -110.02044,522.0834 0,-51.5928 6.27871,-19.173 29.300691,-33.4656 6.278719,-10.458 4.185812,-16.0356 8.969598,-43.9236 4.484799,-17.43 9.567572,-32.0712 8.969598,-21.2646 8.969598,-11.8524 9.268585,-11.1552 8.9695978,-20.916 10.1655446,-14.9898 8.6706116,-8.3664 12.258451,-8.3664 5.082772,-5.5776 9.268585,-4.1832 8.969598,-2.0916 10.165544,-2.7888 8.072639,-1.0458 9.567571,-1.743 9.268585,-1.0458 9.268585,-0.6972 8.371624,-0.6972 9.86656,-1.3944 8.67061,-0.3486 9.86656,-1.3944 8.37162,-0.6972 8.67061,0 9.26859,-0.3486 9.26858,-0.6972 8.9696,0 10.16555,-0.3486 8.07263,-0.3486 9.26859,-0.3486 9.56757,0 9.26859,-0.6972 9.56757,0 8.37162,0 8.67061,-0.3486 8.67062,0 9.86655,0 10.46453,0 7.17568,0 10.16555,-0.3486 8.37162,0 8.9696,0 9.26859,0 11.0625,0 8.07264,0 8.07264,0 8.67061,0 8.9696,0 10.16554,0 9.86656,0 10.76352,0 8.37162,0 16.44426,0 8.37163,0 10.46453,0 8.37163,0 8.37162,0 10.46453,0 8.37163,0 8.37162,0 18.83616,0 10.46453,0 8.37162,0 8.37163,0 10.46453,0 8.37162,0 8.37163,0 10.46453,0 8.37163,0 0,0 0,0 -8.37163,0 -10.46453,0 -8.37163,0 -8.37162,0 -10.46453,0 -8.37163,0 -8.37162,0 -10.46453,0 -18.83616,0 -8.37162,0 -8.37163,0 -10.46453,0 -8.37162,0 -8.37163,0 -10.46453,0 -8.37163,0 -16.44426,0 -8.37162,0 -10.76352,0 -9.86656,0 -10.16554,0 -8.9696,0 -8.67061,0 -8.07264,0 -8.07264,0 -11.0625,0 -9.26859,0 -8.9696,0 -8.37162,0 -10.16555,0.3486 -7.17568,0 -10.46453,0 -9.86655,0 -8.67062,0 -8.67061,0.3486 -8.37162,0 -9.56757,0 -9.26859,0.6972 -9.56757,0 -9.26859,0.3486 -8.07263,0.3486 -10.16555,0.3486 -8.9696,0 -9.26858,0.6972 -9.26859,0.3486 -8.67061,0 -8.37162,0.6972 -9.86656,1.3944 -8.67061,0.3486 -9.86656,1.3944 -8.371624,0.6972 -9.268585,0.6972 -9.268585,1.0458 -9.567571,1.743 -8.072639,1.0458 -10.165544,2.7888 -8.969598,2.0916 -9.268585,4.1832 -5.082772,5.5776 -12.258451,8.3664 -8.6706116,8.3664 -10.1655446,14.9898 -8.9695978,20.916 -9.268585,11.1552 -8.969598,11.8524 -8.969598,21.2646 -9.567572,32.0712 -4.484799,18.4758 -8.969598,44.2722 -4.185812,16.7328 -6.278719,17.7786 -29.300691,95.1678 -6.27871,-0.3486 z" /></g></g></g></g></g><g
       id="g126" /><g
       id="g128"><g
         clip-path="url(#clipPath132)"
         id="g130"><g
           id="g136"><g
             id="g138"><g
               clip-path="url(#clipPath142)"
               id="g140"><path
                 id="path146"
                 style="fill:#00deff;fill-opacity:1;fill-rule:nonzero;stroke:none"
                 d="m -110.02044,522.0834 0,0 6.27871,0.3486 29.300691,-95.1678 6.278719,-17.7786 4.185812,-16.7328 8.969598,-44.2722 4.484799,-18.4758 9.567572,-32.0712 8.969598,-21.2646 8.969598,-11.8524 9.268585,-11.1552 8.9695978,-20.916 10.1655446,-14.9898 8.6706116,-8.3664 12.258451,-8.3664 5.082772,-5.5776 9.268585,-4.1832 8.969598,-2.0916 10.165544,-2.7888 8.072639,-1.0458 9.567571,-1.743 9.268585,-1.0458 9.268585,-0.6972 8.371624,-0.6972 9.86656,-1.3944 8.67061,-0.3486 9.86656,-1.3944 8.37162,-0.6972 8.67061,0 9.26859,-0.3486 9.26858,-0.6972 8.9696,0 10.16555,-0.3486 8.07263,-0.3486 9.26859,-0.3486 9.56757,0 9.26859,-0.6972 9.56757,0 8.37162,0 8.67061,-0.3486 8.67062,0 9.86655,0 10.46453,0 7.17568,0 10.16555,-0.3486 8.37162,0 8.9696,0 9.26859,0 11.0625,0 8.07264,0 8.07264,0 8.67061,0 8.9696,0 10.16554,0 9.86656,0 10.76352,0 8.37162,0 16.44426,0 8.37163,0 10.46453,0 8.37163,0 8.37162,0 10.46453,0 8.37163,0 8.37162,0 18.83616,0 10.46453,0 8.37162,0 8.37163,0 10.46453,0 8.37162,0 8.37163,0 10.46453,0 8.37163,0 0,0 0,0 -8.37163,0 -10.46453,0 -8.37163,0 -8.37162,0 -10.46453,0 -8.37163,0 -8.37162,0 -10.46453,0 -18.83616,0 -8.37162,0 -8.37163,0 -10.46453,0 -8.37162,0 -8.37163,0 -10.46453,0 -8.37163,0 -16.44426,0 -8.37162,0 -10.76352,0 -9.86656,0 -10.16554,0 -8.9696,0 -8.67061,0 -8.07264,0 -8.07264,0 -11.0625,0 -9.26859,0 -8.9696,0 -8.37162,0 -10.16555,4.5318 -7.17568,0.6972 -10.46453,0.3486 -9.86655,0.6972 -8.67062,0 -8.67061,1.0458 -8.37162,1.0458 -9.56757,0.6972 -9.26859,1.743 -9.56757,1.3944 -9.26859,1.3944 -8.07263,1.3944 -10.16555,2.0916 -8.9696,1.743 -9.26858,2.4402 -9.26859,1.3944 -8.67061,1.743 -8.37162,2.7888 -9.86656,4.8804 -8.67061,3.486 -9.86656,5.229 -8.371624,4.5318 -9.268585,4.1832 -9.268585,6.6234 -9.567571,8.3664 -8.072639,9.0636 -10.165544,15.687 -8.969598,13.5954 -9.268585,13.5954 -5.082772,11.8524 -12.258451,16.7328 -8.6706116,21.6132 -10.1655446,30.3282 -8.9695978,25.0992 -9.268585,9.7608 -8.969598,16.3842 -8.969598,84.0126 -9.567572,9.0636 -4.484799,7.6692 -8.969598,-0.3486 -4.185812,0 -6.278719,0 -29.300691,0 -6.27871,-0.3486 z" /></g></g></g></g></g><g
       id="g148" /><g
       id="g150"><g
         clip-path="url(#clipPath154)"
         id="g152"><g
           id="g158"><g
             id="g160"><g
               clip-path="url(#clipPath164)"
               id="g162"><path
                 id="path168"
                 style="fill:#23ffd2;fill-opacity:1;fill-rule:nonzero;stroke:none"
                 d="m -110.02044,522.0834 0,0 6.27871,0.3486 29.300691,0 6.278719,0 4.185812,0 8.969598,0.3486 4.484799,-7.6692 9.567572,-9.0636 8.969598,-84.0126 8.969598,-16.3842 9.268585,-9.7608 8.9695978,-25.0992 10.1655446,-30.3282 8.6706116,-21.6132 12.258451,-16.7328 5.082772,-11.8524 9.268585,-13.5954 8.969598,-13.5954 10.165544,-15.687 8.072639,-9.0636 9.567571,-8.3664 9.268585,-6.6234 9.268585,-4.1832 8.371624,-4.5318 9.86656,-5.229 8.67061,-3.486 9.86656,-4.8804 8.37162,-2.7888 8.67061,-1.743 9.26859,-1.3944 9.26858,-2.4402 8.9696,-1.743 10.16555,-2.0916 8.07263,-1.3944 9.26859,-1.3944 9.56757,-1.3944 9.26859,-1.743 9.56757,-0.6972 8.37162,-1.0458 8.67061,-1.0458 8.67062,0 9.86655,-0.6972 10.46453,-0.3486 7.17568,-0.6972 10.16555,-4.5318 8.37162,0 8.9696,0 9.26859,0 11.0625,0 8.07264,0 8.07264,0 8.67061,0 8.9696,0 10.16554,0 9.86656,0 10.76352,0 8.37162,0 16.44426,0 8.37163,0 10.46453,0 8.37163,0 8.37162,0 10.46453,0 8.37163,0 8.37162,0 18.83616,0 10.46453,0 8.37162,0 8.37163,0 10.46453,0 8.37162,0 8.37163,0 10.46453,0 8.37163,0 0,0.3486 0,0 -8.37163,0 -10.46453,0 -8.37163,0.3486 -8.37162,0 -10.46453,0 -8.37163,0 -8.37162,0 -10.46453,0.3486 -18.83616,0 -8.37162,0 -8.37163,0.3486 -10.46453,0 -8.37162,0 -8.37163,0 -10.46453,0.3486 -8.37163,0.3486 -16.44426,0.3486 -8.37162,0 -10.76352,0 -9.86656,0.3486 -10.16554,0.6972 -8.9696,0.3486 -8.67061,0.3486 -8.07264,0.3486 -8.07264,0 -11.0625,1.0458 -9.26859,0.3486 -8.9696,1.743 -8.37162,0.6972 -10.16555,4.8804 -7.17568,2.7888 -10.46453,0.6972 -9.86655,2.4402 -8.67062,1.0458 -8.67061,13.2468 -8.37162,3.1374 -9.56757,3.8346 -9.26859,6.2748 -9.56757,7.3206 -9.26859,4.5318 -8.07263,5.229 -10.16555,7.3206 -8.9696,8.0178 -9.26858,8.715 -9.26859,7.6692 -8.67061,9.4122 -8.37162,10.458 -9.86656,13.5954 -8.67061,12.5496 -9.86656,22.3104 -8.371624,23.3562 -9.268585,20.2188 -9.268585,27.1908 -9.567571,24.7506 -8.072639,21.2646 -10.165544,33.8142 -8.969598,18.1272 -9.268585,6.6234 -5.082772,2.7888 -12.258451,3.8346 -8.6706116,1.3944 -10.1655446,1.0458 -8.9695978,0 -9.268585,0 -8.969598,0 -8.969598,-0.3486 -9.567572,-0.3486 -4.484799,1.3944 -8.969598,-0.3486 -4.185812,0 -6.278719,0 -29.300691,0 -6.27871,-0.3486 z" /></g></g></g></g></g><g
       id="g170" /><g
       id="g172"><g
         clip-path="url(#clipPath176)"
         id="g174"><g
           id="g180"><g
             id="g182"><g
               clip-path="url(#clipPath186)"
               id="g184"><path
                 id="path190"
                 style="fill:#5cff9a;fill-opacity:1;fill-rule:nonzero;stroke:none"
                 d="m -110.02044,522.0834 0,0 6.27871,0.3486 29.300691,0 6.278719,0 4.185812,0 8.969598,0.3486 4.484799,-1.3944 9.567572,0.3486 8.969598,0.3486 8.969598,0 9.268585,0 8.9695978,0 10.1655446,-1.0458 8.6706116,-1.3944 12.258451,-3.8346 5.082772,-2.7888 9.268585,-6.6234 8.969598,-18.1272 10.165544,-33.8142 8.072639,-21.2646 9.567571,-24.7506 9.268585,-27.1908 9.268585,-20.2188 8.371624,-23.3562 9.86656,-22.3104 8.67061,-12.5496 9.86656,-13.5954 8.37162,-10.458 8.67061,-9.4122 9.26859,-7.6692 9.26858,-8.715 8.9696,-8.0178 10.16555,-7.3206 8.07263,-5.229 9.26859,-4.5318 9.56757,-7.3206 9.26859,-6.2748 9.56757,-3.8346 8.37162,-3.1374 8.67061,-13.2468 8.67062,-1.0458 9.86655,-2.4402 10.46453,-0.6972 7.17568,-2.7888 10.16555,-4.8804 8.37162,-0.6972 8.9696,-1.743 9.26859,-0.3486 11.0625,-1.0458 8.07264,0 8.07264,-0.3486 8.67061,-0.3486 8.9696,-0.3486 10.16554,-0.6972 9.86656,-0.3486 10.76352,0 8.37162,0 16.44426,-0.3486 8.37163,-0.3486 10.46453,-0.3486 8.37163,0 8.37162,0 10.46453,0 8.37163,-0.3486 8.37162,0 18.83616,0 10.46453,-0.3486 8.37162,0 8.37163,0 10.46453,0 8.37162,0 8.37163,-0.3486 10.46453,0 8.37163,0 0,0 0,0 -8.37163,0 -10.46453,0 -8.37163,0.3486 -8.37162,0 -10.46453,0 -8.37163,0 -8.37162,0 -10.46453,0.3486 -18.83616,0 -8.37162,0 -8.37163,0.3486 -10.46453,0 -8.37162,0 -8.37163,0 -10.46453,0.3486 -8.37163,0.3486 -16.44426,0.3486 -8.37162,0 -10.76352,0 -9.86656,0.3486 -10.16554,0.6972 -8.9696,0.3486 -8.67061,0.3486 -8.07264,0.3486 -8.07264,0 -11.0625,1.0458 -9.26859,0.3486 -8.9696,1.743 -8.37162,0.6972 -10.16555,5.229 -7.17568,2.4402 -10.46453,1.0458 -9.86655,2.4402 -8.67062,1.0458 -8.67061,13.5954 -8.37162,3.1374 -9.56757,3.8346 -9.26859,6.2748 -9.56757,7.6692 -9.26859,4.5318 -8.07263,5.229 -10.16555,7.3206 -8.9696,8.3664 -9.26858,8.715 -9.26859,8.0178 -8.67061,9.4122 -8.37162,10.458 -9.86656,13.5954 -8.67061,12.8982 -9.86656,21.9618 -8.371624,23.3562 -9.268585,20.2188 -9.268585,27.5394 -9.567571,24.7506 -8.072639,22.659 -10.165544,34.1628 -8.969598,17.7786 -9.268585,5.9262 -5.082772,2.4402 -12.258451,4.1832 -8.6706116,0 -10.1655446,-0.3486 -8.9695978,0 -9.268585,0 -8.969598,0 -8.969598,-0.3486 -9.567572,-0.3486 -4.484799,1.3944 -8.969598,-0.3486 -4.185812,0 -6.278719,0 -29.300691,0 -6.27871,-0.3486 z" /></g></g></g></g></g><g
       id="g192" /><g
       id="g194"><g
         clip-path="url(#clipPath198)"
         id="g196"><g
           id="g202"><g
             id="g204"><g
               clip-path="url(#clipPath208)"
               id="g206"><path
                 id="path212"
                 style="fill:#91ff66;fill-opacity:1;fill-rule:nonzero;stroke:none"
                 d="m -110.02044,522.0834 0,0 6.27871,0.3486 29.300691,0 6.278719,0 4.185812,0 8.969598,0.3486 4.484799,-1.3944 9.567572,0.3486 8.969598,0.3486 8.969598,0 9.268585,0 8.9695978,0 10.1655446,0.3486 8.6706116,0 12.258451,-4.1832 5.082772,-2.4402 9.268585,-5.9262 8.969598,-17.7786 10.165544,-34.1628 8.072639,-22.659 9.567571,-24.7506 9.268585,-27.5394 9.268585,-20.2188 8.371624,-23.3562 9.86656,-21.9618 8.67061,-12.8982 9.86656,-13.5954 8.37162,-10.458 8.67061,-9.4122 9.26859,-8.0178 9.26858,-8.715 8.9696,-8.3664 10.16555,-7.3206 8.07263,-5.229 9.26859,-4.5318 9.56757,-7.6692 9.26859,-6.2748 9.56757,-3.8346 8.37162,-3.1374 8.67061,-13.5954 8.67062,-1.0458 9.86655,-2.4402 10.46453,-1.0458 7.17568,-2.4402 10.16555,-5.229 8.37162,-0.6972 8.9696,-1.743 9.26859,-0.3486 11.0625,-1.0458 8.07264,0 8.07264,-0.3486 8.67061,-0.3486 8.9696,-0.3486 10.16554,-0.6972 9.86656,-0.3486 10.76352,0 8.37162,0 16.44426,-0.3486 8.37163,-0.3486 10.46453,-0.3486 8.37163,0 8.37162,0 10.46453,0 8.37163,-0.3486 8.37162,0 18.83616,0 10.46453,-0.3486 8.37162,0 8.37163,0 10.46453,0 8.37162,0 8.37163,-0.3486 10.46453,0 8.37163,0 0,9.0636 0,0 -8.37163,0 -10.46453,0.3486 -8.37163,1.3944 -8.37162,1.3944 -10.46453,1.3944 -8.37163,0 -8.37162,1.0458 -10.46453,2.0916 -18.83616,3.486 -8.37162,0.3486 -8.37163,2.7888 -10.46453,1.743 -8.37162,1.743 -8.37163,1.3944 -10.46453,4.8804 -8.37163,2.7888 -16.44426,5.9262 -8.37162,7.6692 -10.76352,-0.3486 -9.86656,5.229 -10.16554,5.229 -8.9696,5.9262 -8.67061,4.5318 -8.07264,3.8346 -8.07264,4.1832 -11.0625,11.1552 -9.26859,8.0178 -8.9696,9.4122 -8.37162,8.3664 -10.16555,13.2468 -7.17568,6.2748 -10.46453,9.0636 -9.86655,9.4122 -8.67062,5.5776 -8.67061,28.2366 -8.37162,8.3664 -9.56757,10.8066 -9.26859,17.43 -9.56757,19.173 -9.26859,10.1094 -8.07263,11.1552 -10.16555,18.1272 -8.9696,19.8702 -9.26858,12.201 -9.26859,5.5776 -8.67061,6.972 -8.37162,4.5318 -9.86656,1.743 -8.67061,1.743 -9.86656,5.229 -8.371624,1.743 -9.268585,0.3486 -9.268585,1.3944 -9.567571,0.3486 -8.072639,1.3944 -10.165544,1.0458 -8.969598,0 -9.268585,1.3944 -5.082772,0 -12.258451,0.6972 -8.6706116,0 -10.1655446,-0.3486 -8.9695978,0 -9.268585,0 -8.969598,0 -8.969598,-0.3486 -9.567572,-0.3486 -4.484799,1.3944 -8.969598,-0.3486 -4.185812,0 -6.278719,0 -29.300691,0 -6.27871,-0.3486 z" /></g></g></g></g></g><g
       id="g214" /><g
       id="g216"><g
         clip-path="url(#clipPath220)"
         id="g218"><g
           id="g224"><g
             id="g226"><g
               clip-path="url(#clipPath230)"
               id="g228"><path
                 id="path234"
                 style="fill:#c9ff2e;fill-opacity:1;fill-rule:nonzero;stroke:none"
                 d="m -110.02044,522.0834 0,0 6.27871,0.3486 29.300691,0 6.278719,0 4.185812,0 8.969598,0.3486 4.484799,-1.3944 9.567572,0.3486 8.969598,0.3486 8.969598,0 9.268585,0 8.9695978,0 10.1655446,0.3486 8.6706116,0 12.258451,-0.6972 5.082772,0 9.268585,-1.3944 8.969598,0 10.165544,-1.0458 8.072639,-1.3944 9.567571,-0.3486 9.268585,-1.3944 9.268585,-0.3486 8.371624,-1.743 9.86656,-5.229 8.67061,-1.743 9.86656,-1.743 8.37162,-4.5318 8.67061,-6.972 9.26859,-5.5776 9.26858,-12.201 8.9696,-19.8702 10.16555,-18.1272 8.07263,-11.1552 9.26859,-10.1094 9.56757,-19.173 9.26859,-17.43 9.56757,-10.8066 8.37162,-8.3664 8.67061,-28.2366 8.67062,-5.5776 9.86655,-9.4122 10.46453,-9.0636 7.17568,-6.2748 10.16555,-13.2468 8.37162,-8.3664 8.9696,-9.4122 9.26859,-8.0178 11.0625,-11.1552 8.07264,-4.1832 8.07264,-3.8346 8.67061,-4.5318 8.9696,-5.9262 10.16554,-5.229 9.86656,-5.229 10.76352,0.3486 8.37162,-7.6692 16.44426,-5.9262 8.37163,-2.7888 10.46453,-4.8804 8.37163,-1.3944 8.37162,-1.743 10.46453,-1.743 8.37163,-2.7888 8.37162,-0.3486 18.83616,-3.486 10.46453,-2.0916 8.37162,-1.0458 8.37163,0 10.46453,-1.3944 8.37162,-1.3944 8.37163,-1.3944 10.46453,-0.3486 8.37163,0 0,0 0,0 -8.37163,0 -10.46453,0.3486 -8.37163,1.3944 -8.37162,1.3944 -10.46453,1.3944 -8.37163,0 -8.37162,1.0458 -10.46453,2.0916 -18.83616,3.486 -8.37162,0.3486 -8.37163,2.7888 -10.46453,1.743 -8.37162,1.743 -8.37163,1.3944 -10.46453,4.8804 -8.37163,2.7888 -16.44426,5.9262 -8.37162,7.6692 -10.76352,-0.3486 -9.86656,5.229 -10.16554,5.229 -8.9696,5.9262 -8.67061,4.5318 -8.07264,3.8346 -8.07264,4.1832 -11.0625,11.1552 -9.26859,8.0178 -8.9696,9.4122 -8.37162,8.3664 -10.16555,13.2468 -7.17568,6.2748 -10.46453,9.0636 -9.86655,9.4122 -8.67062,5.5776 -8.67061,28.2366 -8.37162,8.3664 -9.56757,10.8066 -9.26859,17.43 -9.56757,19.173 -9.26859,10.1094 -8.07263,11.1552 -10.16555,18.1272 -8.9696,19.8702 -9.26858,12.201 -9.26859,5.9262 -8.67061,6.972 -8.37162,4.5318 -9.86656,1.743 -8.67061,1.743 -9.86656,5.229 -8.371624,1.743 -9.268585,0.6972 -9.268585,1.3944 -9.567571,1.0458 -8.072639,1.3944 -10.165544,0.6972 -8.969598,0 -9.268585,1.0458 -5.082772,0 -12.258451,0 -8.6706116,0 -10.1655446,-0.3486 -8.9695978,0 -9.268585,0 -8.969598,0 -8.969598,-0.3486 -9.567572,-0.3486 -4.484799,1.3944 -8.969598,-0.3486 -4.185812,0 -6.278719,0 -29.300691,0 -6.27871,-0.3486 z" /></g></g></g></g></g><g
       id="g236" /><g
       id="g238"><g
         clip-path="url(#clipPath242)"
         id="g240"><g
           id="g246"><g
             id="g248"><g
               clip-path="url(#clipPath252)"
               id="g250"><path
                 id="path256"
                 style="fill:#feed00;fill-opacity:1;fill-rule:nonzero;stroke:none"
                 d="m -110.02044,522.0834 0,0 6.27871,0.3486 29.300691,0 6.278719,0 4.185812,0 8.969598,0.3486 4.484799,-1.3944 9.567572,0.3486 8.969598,0.3486 8.969598,0 9.268585,0 8.9695978,0 10.1655446,0.3486 8.6706116,0 12.258451,0 5.082772,0 9.268585,-1.0458 8.969598,0 10.165544,-0.6972 8.072639,-1.3944 9.567571,-1.0458 9.268585,-1.3944 9.268585,-0.6972 8.371624,-1.743 9.86656,-5.229 8.67061,-1.743 9.86656,-1.743 8.37162,-4.5318 8.67061,-6.972 9.26859,-5.9262 9.26858,-12.201 8.9696,-19.8702 10.16555,-18.1272 8.07263,-11.1552 9.26859,-10.1094 9.56757,-19.173 9.26859,-17.43 9.56757,-10.8066 8.37162,-8.3664 8.67061,-28.2366 8.67062,-5.5776 9.86655,-9.4122 10.46453,-9.0636 7.17568,-6.2748 10.16555,-13.2468 8.37162,-8.3664 8.9696,-9.4122 9.26859,-8.0178 11.0625,-11.1552 8.07264,-4.1832 8.07264,-3.8346 8.67061,-4.5318 8.9696,-5.9262 10.16554,-5.229 9.86656,-5.229 10.76352,0.3486 8.37162,-7.6692 16.44426,-5.9262 8.37163,-2.7888 10.46453,-4.8804 8.37163,-1.3944 8.37162,-1.743 10.46453,-1.743 8.37163,-2.7888 8.37162,-0.3486 18.83616,-3.486 10.46453,-2.0916 8.37162,-1.0458 8.37163,0 10.46453,-1.3944 8.37162,-1.3944 8.37163,-1.3944 10.46453,-0.3486 8.37163,0 0,0 0,0 -8.37163,0 -10.46453,0.3486 -8.37163,1.3944 -8.37162,1.3944 -10.46453,1.3944 -8.37163,0 -8.37162,1.0458 -10.46453,2.0916 -18.83616,3.486 -8.37162,0.3486 -8.37163,2.7888 -10.46453,1.743 -8.37162,1.743 -8.37163,1.3944 -10.46453,4.8804 -8.37163,2.7888 -16.44426,5.9262 -8.37162,7.6692 -10.76352,-0.3486 -9.86656,5.229 -10.16554,5.229 -8.9696,5.9262 -8.67061,4.5318 -8.07264,3.8346 -8.07264,4.1832 -11.0625,11.1552 -9.26859,8.0178 -8.9696,9.4122 -8.37162,8.3664 -10.16555,13.2468 -7.17568,6.2748 -10.46453,9.0636 -9.86655,9.4122 -8.67062,5.5776 -8.67061,29.2824 -8.37162,8.3664 -9.56757,11.1552 -9.26859,17.43 -9.56757,19.173 -9.26859,10.1094 -8.07263,11.5038 -10.16555,18.1272 -8.9696,19.8702 -9.26858,12.8982 -9.26859,6.972 -8.67061,6.972 -8.37162,4.8804 -9.86656,2.7888 -8.67061,2.0916 -9.86656,3.8346 -8.371624,1.0458 -9.268585,0.6972 -9.268585,0.6972 -9.567571,1.0458 -8.072639,0.6972 -10.165544,0 -8.969598,-1.0458 -9.268585,1.0458 -5.082772,0 -12.258451,0 -8.6706116,0 -10.1655446,-0.3486 -8.9695978,0 -9.268585,0 -8.969598,0 -8.969598,-0.3486 -9.567572,-0.3486 -4.484799,1.3944 -8.969598,-0.3486 -4.185812,0 -6.278719,0 -29.300691,0 -6.27871,-0.3486 z" /></g></g></g></g></g><g
       id="g258" /><g
       id="g260"><g
         clip-path="url(#clipPath264)"
         id="g262"><g
           id="g268"><g
             id="g270"><g
               clip-path="url(#clipPath274)"
               id="g272"><path
                 id="path278"
                 style="fill:#ffac00;fill-opacity:1;fill-rule:nonzero;stroke:none"
                 d="m -110.02044,522.0834 0,0 6.27871,0.3486 29.300691,0 6.278719,0 4.185812,0 8.969598,0.3486 4.484799,-1.3944 9.567572,0.3486 8.969598,0.3486 8.969598,0 9.268585,0 8.9695978,0 10.1655446,0.3486 8.6706116,0 12.258451,0 5.082772,0 9.268585,-1.0458 8.969598,1.0458 10.165544,0 8.072639,-0.6972 9.567571,-1.0458 9.268585,-0.6972 9.268585,-0.6972 8.371624,-1.0458 9.86656,-3.8346 8.67061,-2.0916 9.86656,-2.7888 8.37162,-4.8804 8.67061,-6.972 9.26859,-6.972 9.26858,-12.8982 8.9696,-19.8702 10.16555,-18.1272 8.07263,-11.5038 9.26859,-10.1094 9.56757,-19.173 9.26859,-17.43 9.56757,-11.1552 8.37162,-8.3664 8.67061,-29.2824 8.67062,-5.5776 9.86655,-9.4122 10.46453,-9.0636 7.17568,-6.2748 10.16555,-13.2468 8.37162,-8.3664 8.9696,-9.4122 9.26859,-8.0178 11.0625,-11.1552 8.07264,-4.1832 8.07264,-3.8346 8.67061,-4.5318 8.9696,-5.9262 10.16554,-5.229 9.86656,-5.229 10.76352,0.3486 8.37162,-7.6692 16.44426,-5.9262 8.37163,-2.7888 10.46453,-4.8804 8.37163,-1.3944 8.37162,-1.743 10.46453,-1.743 8.37163,-2.7888 8.37162,-0.3486 18.83616,-3.486 10.46453,-2.0916 8.37162,-1.0458 8.37163,0 10.46453,-1.3944 8.37162,-1.3944 8.37163,-1.3944 10.46453,-0.3486 8.37163,0 0,0 0,0 -8.37163,0 -10.46453,0.3486 -8.37163,1.3944 -8.37162,1.3944 -10.46453,1.3944 -8.37163,0 -8.37162,1.0458 -10.46453,2.0916 -18.83616,3.486 -8.37162,0.3486 -8.37163,2.7888 -10.46453,1.743 -8.37162,1.743 -8.37163,1.3944 -10.46453,4.8804 -8.37163,2.7888 -16.44426,5.9262 -8.37162,7.6692 -10.76352,-0.3486 -9.86656,5.229 -10.16554,5.5776 -8.9696,5.9262 -8.67061,4.5318 -8.07264,3.8346 -8.07264,4.1832 -11.0625,11.1552 -9.26859,8.0178 -8.9696,9.4122 -8.37162,8.3664 -10.16555,13.2468 -7.17568,6.2748 -10.46453,9.0636 -9.86655,9.4122 -8.67062,5.9262 -8.67061,31.7226 -8.37162,8.715 -9.56757,11.5038 -9.26859,17.7786 -9.56757,19.8702 -9.26859,10.458 -8.07263,11.8524 -10.16555,18.8244 -8.9696,20.2188 -9.26858,13.2468 -9.26859,7.6692 -8.67061,6.972 -8.37162,4.5318 -9.86656,2.0916 -8.67061,1.3944 -9.86656,2.0916 -8.371624,0 -9.268585,0 -9.268585,0 -9.567571,0 -8.072639,0 -10.165544,0 -8.969598,-1.0458 -9.268585,1.0458 -5.082772,0 -12.258451,0 -8.6706116,0 -10.1655446,-0.3486 -8.9695978,0 -9.268585,0 -8.969598,0 -8.969598,-0.3486 -9.567572,-0.3486 -4.484799,1.3944 -8.969598,-0.3486 -4.185812,0 -6.278719,0 -29.300691,0 -6.27871,-0.3486 z" /></g></g></g></g></g><g
       id="g280" /><g
       id="g282"><g
         clip-path="url(#clipPath286)"
         id="g284"><g
           id="g290"><g
             id="g292"><g
               clip-path="url(#clipPath296)"
               id="g294"><path
                 id="path300"
                 style="fill:#ff7000;fill-opacity:1;fill-rule:nonzero;stroke:none"
                 d="m -110.02044,522.0834 0,0 6.27871,0.3486 29.300691,0 6.278719,0 4.185812,0 8.969598,0.3486 4.484799,-1.3944 9.567572,0.3486 8.969598,0.3486 8.969598,0 9.268585,0 8.9695978,0 10.1655446,0.3486 8.6706116,0 12.258451,0 5.082772,0 9.268585,-1.0458 8.969598,1.0458 10.165544,0 8.072639,0 9.567571,0 9.268585,0 9.268585,0 8.371624,0 9.86656,-2.0916 8.67061,-1.3944 9.86656,-2.0916 8.37162,-4.5318 8.67061,-6.972 9.26859,-7.6692 9.26858,-13.2468 8.9696,-20.2188 10.16555,-18.8244 8.07263,-11.8524 9.26859,-10.458 9.56757,-19.8702 9.26859,-17.7786 9.56757,-11.5038 8.37162,-8.715 8.67061,-31.7226 8.67062,-5.9262 9.86655,-9.4122 10.46453,-9.0636 7.17568,-6.2748 10.16555,-13.2468 8.37162,-8.3664 8.9696,-9.4122 9.26859,-8.0178 11.0625,-11.1552 8.07264,-4.1832 8.07264,-3.8346 8.67061,-4.5318 8.9696,-5.9262 10.16554,-5.5776 9.86656,-5.229 10.76352,0.3486 8.37162,-7.6692 16.44426,-5.9262 8.37163,-2.7888 10.46453,-4.8804 8.37163,-1.3944 8.37162,-1.743 10.46453,-1.743 8.37163,-2.7888 8.37162,-0.3486 18.83616,-3.486 10.46453,-2.0916 8.37162,-1.0458 8.37163,0 10.46453,-1.3944 8.37162,-1.3944 8.37163,-1.3944 10.46453,-0.3486 8.37163,0 0,0 0,0 -8.37163,0 -10.46453,0.3486 -8.37163,1.3944 -8.37162,1.3944 -10.46453,1.3944 -8.37163,0 -8.37162,1.0458 -10.46453,2.0916 -18.83616,3.486 -8.37162,0.3486 -8.37163,2.7888 -10.46453,1.743 -8.37162,1.743 -8.37163,1.3944 -10.46453,4.8804 -8.37163,2.7888 -16.44426,5.9262 -8.37162,7.6692 -10.76352,-0.3486 -9.86656,5.229 -10.16554,5.5776 -8.9696,5.9262 -8.67061,4.5318 -8.07264,3.8346 -8.07264,4.1832 -11.0625,11.1552 -9.26859,8.0178 -8.9696,9.4122 -8.37162,8.3664 -10.16555,13.2468 -7.17568,6.2748 -10.46453,9.0636 -9.86655,9.4122 -8.67062,5.9262 -8.67061,31.7226 -8.37162,8.715 -9.56757,11.5038 -9.26859,17.7786 -9.56757,19.8702 -9.26859,10.458 -8.07263,12.201 -10.16555,18.8244 -8.9696,20.5674 -9.26858,13.944 -9.26859,8.0178 -8.67061,6.972 -8.37162,4.1832 -9.86656,1.743 -8.67061,1.3944 -9.86656,1.0458 -8.371624,0 -9.268585,0 -9.268585,0 -9.567571,0 -8.072639,0 -10.165544,0 -8.969598,-1.0458 -9.268585,1.0458 -5.082772,0 -12.258451,0 -8.6706116,0 -10.1655446,-0.3486 -8.9695978,0 -9.268585,0 -8.969598,0 -8.969598,-0.3486 -9.567572,-0.3486 -4.484799,1.3944 -8.969598,-0.3486 -4.185812,0 -6.278719,0 -29.300691,0 -6.27871,-0.3486 z" /></g></g></g></g></g><g
       id="g302" /><g
       id="g304"><g
         clip-path="url(#clipPath308)"
         id="g306"><g
           id="g312"><g
             id="g314"><g
               clip-path="url(#clipPath318)"
               id="g316"><path
                 id="path322"
                 style="fill:#ff2f00;fill-opacity:1;fill-rule:nonzero;stroke:none"
                 d="m -110.02044,522.0834 0,0 6.27871,0.3486 29.300691,0 6.278719,0 4.185812,0 8.969598,0.3486 4.484799,-1.3944 9.567572,0.3486 8.969598,0.3486 8.969598,0 9.268585,0 8.9695978,0 10.1655446,0.3486 8.6706116,0 12.258451,0 5.082772,0 9.268585,-1.0458 8.969598,1.0458 10.165544,0 8.072639,0 9.567571,0 9.268585,0 9.268585,0 8.371624,0 9.86656,-1.0458 8.67061,-1.3944 9.86656,-1.743 8.37162,-4.1832 8.67061,-6.972 9.26859,-8.0178 9.26858,-13.944 8.9696,-20.5674 10.16555,-18.8244 8.07263,-12.201 9.26859,-10.458 9.56757,-19.8702 9.26859,-17.7786 9.56757,-11.5038 8.37162,-8.715 8.67061,-31.7226 8.67062,-5.9262 9.86655,-9.4122 10.46453,-9.0636 7.17568,-6.2748 10.16555,-13.2468 8.37162,-8.3664 8.9696,-9.4122 9.26859,-8.0178 11.0625,-11.1552 8.07264,-4.1832 8.07264,-3.8346 8.67061,-4.5318 8.9696,-5.9262 10.16554,-5.5776 9.86656,-5.229 10.76352,0.3486 8.37162,-7.6692 16.44426,-5.9262 8.37163,-2.7888 10.46453,-4.8804 8.37163,-1.3944 8.37162,-1.743 10.46453,-1.743 8.37163,-2.7888 8.37162,-0.3486 18.83616,-3.486 10.46453,-2.0916 8.37162,-1.0458 8.37163,0 10.46453,-1.3944 8.37162,-1.3944 8.37163,-1.3944 10.46453,-0.3486 8.37163,0 0,7.6692 0,0 -8.37163,0.3486 -10.46453,1.0458 -8.37163,2.0916 -8.37162,2.0916 -10.46453,2.7888 -8.37163,0.3486 -8.37162,2.0916 -10.46453,3.486 -18.83616,6.972 -8.37162,1.0458 -8.37163,4.1832 -10.46453,2.4402 -8.37162,3.486 -8.37163,2.4402 -10.46453,8.715 -8.37163,5.229 -16.44426,9.7608 -8.37162,11.1552 -10.76352,2.4402 -9.86656,8.3664 -10.16554,9.4122 -8.9696,9.0636 -8.67061,7.6692 -8.07264,6.972 -8.07264,6.972 -11.0625,17.0814 -9.26859,12.201 -8.9696,12.201 -8.37162,12.201 -10.16555,16.0356 -7.17568,9.0636 -10.46453,17.0814 -9.86655,16.0356 -8.67062,12.201 -8.67061,29.2824 -8.37162,10.1094 -9.56757,11.8524 -9.26859,12.201 -9.56757,13.944 -9.26859,3.1374 -8.07263,2.0916 -10.16555,1.3944 -8.9696,2.7888 -9.26858,0 -9.26859,0 -8.67061,0 -8.37162,0 -9.86656,0 -8.67061,0 -9.86656,0 -8.371624,0 -9.268585,0 -9.268585,0 -9.567571,0 -8.072639,0 -10.165544,0 -8.969598,-1.0458 -9.268585,1.0458 -5.082772,0 -12.258451,0 -8.6706116,0 -10.1655446,-0.3486 -8.9695978,0 -9.268585,0 -8.969598,0 -8.969598,-0.3486 -9.567572,-0.3486 -4.484799,1.3944 -8.969598,-0.3486 -4.185812,0 -6.278719,0 -29.300691,0 -6.27871,-0.3486 z" /></g></g></g></g></g><g
       id="g324" /><g
       id="g326"><g
         clip-path="url(#clipPath330)"
         id="g328"><g
           id="g334"><g
             id="g336"><g
               clip-path="url(#clipPath340)"
               id="g338"><path
                 id="path344"
                 style="fill:#d80000;fill-opacity:1;fill-rule:nonzero;stroke:none"
                 d="m -110.02044,522.0834 0,0 6.27871,0.3486 29.300691,0 6.278719,0 4.185812,0 8.969598,0.3486 4.484799,-1.3944 9.567572,0.3486 8.969598,0.3486 8.969598,0 9.268585,0 8.9695978,0 10.1655446,0.3486 8.6706116,0 12.258451,0 5.082772,0 9.268585,-1.0458 8.969598,1.0458 10.165544,0 8.072639,0 9.567571,0 9.268585,0 9.268585,0 8.371624,0 9.86656,0 8.67061,0 9.86656,0 8.37162,0 8.67061,0 9.26859,0 9.26858,0 8.9696,-2.7888 10.16555,-1.3944 8.07263,-2.0916 9.26859,-3.1374 9.56757,-13.944 9.26859,-12.201 9.56757,-11.8524 8.37162,-10.1094 8.67061,-29.2824 8.67062,-12.201 9.86655,-16.0356 10.46453,-17.0814 7.17568,-9.0636 10.16555,-16.0356 8.37162,-12.201 8.9696,-12.201 9.26859,-12.201 11.0625,-17.0814 8.07264,-6.972 8.07264,-6.972 8.67061,-7.6692 8.9696,-9.0636 10.16554,-9.4122 9.86656,-8.3664 10.76352,-2.4402 8.37162,-11.1552 16.44426,-9.7608 8.37163,-5.229 10.46453,-8.715 8.37163,-2.4402 8.37162,-3.486 10.46453,-2.4402 8.37163,-4.1832 8.37162,-1.0458 18.83616,-6.972 10.46453,-3.486 8.37162,-2.0916 8.37163,-0.3486 10.46453,-2.7888 8.37162,-2.0916 8.37163,-2.0916 10.46453,-1.0458 8.37163,-0.3486 0,27.1908 0,0 -8.37163,1.3944 -10.46453,3.486 -8.37163,2.7888 -8.37162,5.5776 -10.46453,6.2748 -8.37163,1.743 -8.37162,4.5318 -10.46453,9.0636 -18.83616,10.458 -8.37162,4.1832 -8.37163,7.3206 -10.46453,5.229 -8.37162,7.3206 -8.37163,5.229 -10.46453,16.0356 -8.37163,10.458 -16.44426,17.7786 -8.37162,16.0356 -10.76352,6.972 -9.86656,12.5496 -10.16554,25.0992 -8.9696,12.201 -8.67061,10.8066 -8.07264,7.6692 -8.07264,8.3664 -11.0625,22.3104 -9.26859,11.8524 -8.9696,9.4122 -8.37162,12.5496 -10.16555,6.972 -7.17568,3.1374 -10.46453,5.5776 -9.86655,5.9262 -8.67062,1.3944 -8.67061,1.0458 -8.37162,0.6972 -9.56757,0.6972 -9.26859,1.3944 -9.56757,2.7888 -9.26859,0 -8.07263,0 -10.16555,0 -8.9696,0 -9.26858,0 -9.26859,0 -8.67061,0 -8.37162,0 -9.86656,0 -8.67061,0 -9.86656,0 -8.371624,0 -9.268585,0 -9.268585,0 -9.567571,0 -8.072639,0 -10.165544,0 -8.969598,-1.0458 -9.268585,1.0458 -5.082772,0 -12.258451,0 -8.6706116,0 -10.1655446,-0.3486 -8.9695978,0 -9.268585,0 -8.969598,0 -8.969598,-0.3486 -9.567572,-0.3486 -4.484799,1.3944 -8.969598,-0.3486 -4.185812,0 -6.278719,0 -29.300691,0 -6.27871,-0.3486 z" /></g></g></g></g></g><g
       id="g346" /><g
       id="g348"><g
         clip-path="url(#clipPath352)"
         id="g350"><g
           id="g356"><g
             id="g358"><g
               clip-path="url(#clipPath362)"
               id="g360"><path
                 id="path366"
                 style="fill:#8b0000;fill-opacity:1;fill-rule:nonzero;stroke:none"
                 d="m -110.02044,522.0834 0,0 6.27871,0.3486 29.300691,0 6.278719,0 4.185812,0 8.969598,0.3486 4.484799,-1.3944 9.567572,0.3486 8.969598,0.3486 8.969598,0 9.268585,0 8.9695978,0 10.1655446,0.3486 8.6706116,0 12.258451,0 5.082772,0 9.268585,-1.0458 8.969598,1.0458 10.165544,0 8.072639,0 9.567571,0 9.268585,0 9.268585,0 8.371624,0 9.86656,0 8.67061,0 9.86656,0 8.37162,0 8.67061,0 9.26859,0 9.26858,0 8.9696,0 10.16555,0 8.07263,0 9.26859,0 9.56757,-2.7888 9.26859,-1.3944 9.56757,-0.6972 8.37162,-0.6972 8.67061,-1.0458 8.67062,-1.3944 9.86655,-5.9262 10.46453,-5.5776 7.17568,-3.1374 10.16555,-6.972 8.37162,-12.5496 8.9696,-9.4122 9.26859,-11.8524 11.0625,-22.3104 8.07264,-8.3664 8.07264,-7.6692 8.67061,-10.8066 8.9696,-12.201 10.16554,-25.0992 9.86656,-12.5496 10.76352,-6.972 8.37162,-16.0356 16.44426,-17.7786 8.37163,-10.458 10.46453,-16.0356 8.37163,-5.229 8.37162,-7.3206 10.46453,-5.229 8.37163,-7.3206 8.37162,-4.1832 18.83616,-10.458 10.46453,-9.0636 8.37162,-4.5318 8.37163,-1.743 10.46453,-6.2748 8.37162,-5.5776 8.37163,-2.7888 10.46453,-3.486 8.37163,-1.3944 0,36.603 0,0 -8.37163,3.1374 -10.46453,5.9262 -8.37163,4.5318 -8.37162,8.3664 -10.46453,9.4122 -8.37163,3.8346 -8.37162,6.972 -10.46453,11.5038 -18.83616,16.0356 -8.37162,6.2748 -8.37163,9.0636 -10.46453,8.0178 -8.37162,8.715 -8.37163,6.972 -10.46453,16.3842 -8.37163,11.8524 -16.44426,17.43 -8.37162,12.8982 -10.76352,6.6234 -9.86656,10.458 -10.16554,24.0534 -8.9696,9.7608 -8.67061,7.3206 -8.07264,4.8804 -8.07264,5.229 -11.0625,13.5954 -9.26859,10.458 -8.9696,2.7888 -8.37162,5.229 -10.16555,0 -7.17568,0 -10.46453,0 -9.86655,0 -8.67062,0.3486 -8.67061,-0.3486 -8.37162,0 -9.56757,0 -9.26859,0 -9.56757,0 -9.26859,0 -8.07263,0 -10.16555,0 -8.9696,0 -9.26858,0 -9.26859,0 -8.67061,0 -8.37162,0 -9.86656,0 -8.67061,0 -9.86656,0 -8.371624,0 -9.268585,0 -9.268585,0 -9.567571,0 -8.072639,0 -10.165544,0 -8.969598,-1.0458 -9.268585,1.0458 -5.082772,0 -12.258451,0 -8.6706116,0 -10.1655446,-0.3486 -8.9695978,0 -9.268585,0 -8.969598,0 -8.969598,-0.3486 -9.567572,-0.3486 -4.484799,1.3944 -8.969598,-0.3486 -4.185812,0 -6.278719,0 -29.300691,0 -6.27871,-0.3486 z" /></g></g></g></g></g><g
       id="g368" /><g
       id="g370"><g
         clip-path="url(#clipPath374)"
         id="g372"><g
           id="g378"><g
             id="g380"><g
               clip-path="url(#clipPath384)"
               id="g382"><path
                 id="path388"
                 style="fill:#80006e;fill-opacity:1;fill-rule:nonzero;stroke:none"
                 d="m -110.02044,522.0834 0,0 6.27871,0.3486 29.300691,0 6.278719,0 4.185812,0 8.969598,0.3486 4.484799,-1.3944 9.567572,0.3486 8.969598,0.3486 8.969598,0 9.268585,0 8.9695978,0 10.1655446,0.3486 8.6706116,0 12.258451,0 5.082772,0 9.268585,-1.0458 8.969598,1.0458 10.165544,0 8.072639,0 9.567571,0 9.268585,0 9.268585,0 8.371624,0 9.86656,0 8.67061,0 9.86656,0 8.37162,0 8.67061,0 9.26859,0 9.26858,0 8.9696,0 10.16555,0 8.07263,0 9.26859,0 9.56757,0 9.26859,0 9.56757,0 8.37162,0 8.67061,0.3486 8.67062,-0.3486 9.86655,0 10.46453,0 7.17568,0 10.16555,0 8.37162,-5.229 8.9696,-2.7888 9.26859,-10.458 11.0625,-13.5954 8.07264,-5.229 8.07264,-4.8804 8.67061,-7.3206 8.9696,-9.7608 10.16554,-24.0534 9.86656,-10.458 10.76352,-6.6234 8.37162,-12.8982 16.44426,-17.43 8.37163,-11.8524 10.46453,-16.3842 8.37163,-6.972 8.37162,-8.715 10.46453,-8.0178 8.37163,-9.0636 8.37162,-6.2748 18.83616,-16.0356 10.46453,-11.5038 8.37162,-6.972 8.37163,-3.8346 10.46453,-9.4122 8.37162,-8.3664 8.37163,-4.5318 10.46453,-5.9262 8.37163,-3.1374 0,10.458 0,0 -8.37163,3.8346 -10.46453,6.6234 -8.37163,4.8804 -8.37162,9.7608 -10.46453,10.1094 -8.37163,4.5318 -8.37162,7.6692 -10.46453,12.201 -18.83616,17.7786 -8.37162,7.3206 -8.37163,9.4122 -10.46453,9.0636 -8.37162,10.1094 -8.37163,7.6692 -10.46453,18.1272 -8.37163,12.8982 -16.44426,19.8702 -8.37162,12.5496 -10.76352,10.458 -9.86656,14.9898 -10.16554,17.7786 -8.9696,11.1552 -8.67061,9.7608 -8.07264,2.4402 -8.07264,1.3944 -11.0625,1.0458 -9.26859,3.8346 -8.9696,0 -8.37162,0 -10.16555,0 -7.17568,0 -10.46453,0 -9.86655,0 -8.67062,0.3486 -8.67061,-0.3486 -8.37162,0 -9.56757,0 -9.26859,0 -9.56757,0 -9.26859,0 -8.07263,0 -10.16555,0 -8.9696,0 -9.26858,0 -9.26859,0 -8.67061,0 -8.37162,0 -9.86656,0 -8.67061,0 -9.86656,0 -8.371624,0 -9.268585,0 -9.268585,0 -9.567571,0 -8.072639,0 -10.165544,0 -8.969598,-1.0458 -9.268585,1.0458 -5.082772,0 -12.258451,0 -8.6706116,0 -10.1655446,-0.3486 -8.9695978,0 -9.268585,0 -8.969598,0 -8.969598,-0.3486 -9.567572,-0.3486 -4.484799,1.3944 -8.969598,-0.3486 -4.185812,0 -6.278719,0 -29.300691,0 -6.27871,-0.3486 z" /></g></g></g></g></g><g
       id="g390" /><g
       id="g392"><g
         clip-path="url(#clipPath396)"
         id="g394"><g
           id="g400"><g
             id="g402"><g
               clip-path="url(#clipPath406)"
               id="g404"><path
                 id="path410"
                 style="fill:#c49ac4;fill-opacity:1;fill-rule:nonzero;stroke:none"
                 d="m -110.02044,522.0834 0,0 6.27871,0.3486 29.300691,0 6.278719,0 4.185812,0 8.969598,0.3486 4.484799,-1.3944 9.567572,0.3486 8.969598,0.3486 8.969598,0 9.268585,0 8.9695978,0 10.1655446,0.3486 8.6706116,0 12.258451,0 5.082772,0 9.268585,-1.0458 8.969598,1.0458 10.165544,0 8.072639,0 9.567571,0 9.268585,0 9.268585,0 8.371624,0 9.86656,0 8.67061,0 9.86656,0 8.37162,0 8.67061,0 9.26859,0 9.26858,0 8.9696,0 10.16555,0 8.07263,0 9.26859,0 9.56757,0 9.26859,0 9.56757,0 8.37162,0 8.67061,0.3486 8.67062,-0.3486 9.86655,0 10.46453,0 7.17568,0 10.16555,0 8.37162,0 8.9696,0 9.26859,-3.8346 11.0625,-1.0458 8.07264,-1.3944 8.07264,-2.4402 8.67061,-9.7608 8.9696,-11.1552 10.16554,-17.7786 9.86656,-14.9898 10.76352,-10.458 8.37162,-12.5496 16.44426,-19.8702 8.37163,-12.8982 10.46453,-18.1272 8.37163,-7.6692 8.37162,-10.1094 10.46453,-9.0636 8.37163,-9.4122 8.37162,-7.3206 18.83616,-17.7786 10.46453,-12.201 8.37162,-7.6692 8.37163,-4.5318 10.46453,-10.1094 8.37162,-9.7608 8.37163,-4.8804 10.46453,-6.6234 8.37163,-3.8346 0,116.4324 0,0 -8.37163,6.972 -10.46453,10.8066 -8.37163,6.972 -8.37162,11.5038 -10.46453,14.2926 -8.37163,8.3664 -8.37162,8.715 -10.46453,12.5496 -18.83616,17.43 -8.37162,9.4122 -8.37163,14.9898 -10.46453,7.3206 -8.37162,5.9262 -8.37163,5.5776 -10.46453,0 -8.37163,0 -16.44426,0 -8.37162,0 -10.76352,0 -9.86656,0 -10.16554,0 -8.9696,0 -8.67061,0 -8.07264,0 -8.07264,0 -11.0625,0 -9.26859,0 -8.9696,0 -8.37162,0 -10.16555,0 -7.17568,0 -10.46453,0 -9.86655,0 -8.67062,0.3486 -8.67061,-0.3486 -8.37162,0 -9.56757,0 -9.26859,0 -9.56757,0 -9.26859,0 -8.07263,0 -10.16555,0 -8.9696,0 -9.26858,0 -9.26859,0 -8.67061,0 -8.37162,0 -9.86656,0 -8.67061,0 -9.86656,0 -8.371624,0 -9.268585,0 -9.268585,0 -9.567571,0 -8.072639,0 -10.165544,0 -8.969598,-1.0458 -9.268585,1.0458 -5.082772,0 -12.258451,0 -8.6706116,0 -10.1655446,-0.3486 -8.9695978,0 -9.268585,0 -8.969598,0 -8.969598,-0.3486 -9.567572,-0.3486 -4.484799,1.3944 -8.969598,-0.3486 -4.185812,0 -6.278719,0 -29.300691,0 -6.27871,-0.3486 z" /></g></g></g></g></g><g
       id="g412" /><g
       id="g414"><g
         clip-path="url(#clipPath418)"
         id="g416"><g
           id="g422"><g
             id="g424"><g
               clip-path="url(#clipPath428)"
               id="g426"><path
                 id="path432"
                 style="fill:#fe1792;fill-opacity:1;fill-rule:nonzero;stroke:none"
                 d="m -110.02044,522.0834 0,0 6.27871,0.3486 29.300691,0 6.278719,0 4.185812,0 8.969598,0.3486 4.484799,-1.3944 9.567572,0.3486 8.969598,0.3486 8.969598,0 9.268585,0 8.9695978,0 10.1655446,0.3486 8.6706116,0 12.258451,0 5.082772,0 9.268585,-1.0458 8.969598,1.0458 10.165544,0 8.072639,0 9.567571,0 9.268585,0 9.268585,0 8.371624,0 9.86656,0 8.67061,0 9.86656,0 8.37162,0 8.67061,0 9.26859,0 9.26858,0 8.9696,0 10.16555,0 8.07263,0 9.26859,0 9.56757,0 9.26859,0 9.56757,0 8.37162,0 8.67061,0.3486 8.67062,-0.3486 9.86655,0 10.46453,0 7.17568,0 10.16555,0 8.37162,0 8.9696,0 9.26859,0 11.0625,0 8.07264,0 8.07264,0 8.67061,0 8.9696,0 10.16554,0 9.86656,0 10.76352,0 8.37162,0 16.44426,0 8.37163,0 10.46453,0 8.37163,-5.5776 8.37162,-5.9262 10.46453,-7.3206 8.37163,-14.9898 8.37162,-9.4122 18.83616,-17.43 10.46453,-12.5496 8.37162,-8.715 8.37163,-8.3664 10.46453,-14.2926 8.37162,-11.5038 8.37163,-6.972 10.46453,-10.8066 8.37163,-6.972 0,0 0,0 -8.37163,6.972 -10.46453,10.8066 -8.37163,6.972 -8.37162,11.5038 -10.46453,14.2926 -8.37163,8.3664 -8.37162,8.715 -10.46453,12.5496 -18.83616,17.43 -8.37162,9.4122 -8.37163,14.9898 -10.46453,7.3206 -8.37162,5.9262 -8.37163,5.5776 -10.46453,0 -8.37163,0 -16.44426,0 -8.37162,0 -10.76352,0 -9.86656,0 -10.16554,0 -8.9696,0 -8.67061,0 -8.07264,0 -8.07264,0 -11.0625,0 -9.26859,0 -8.9696,0 -8.37162,0 -10.16555,0 -7.17568,0 -10.46453,0 -9.86655,0 -8.67062,0.3486 -8.67061,-0.3486 -8.37162,0 -9.56757,0 -9.26859,0 -9.56757,0 -9.26859,0 -8.07263,0 -10.16555,0 -8.9696,0 -9.26858,0 -9.26859,0 -8.67061,0 -8.37162,0 -9.86656,0 -8.67061,0 -9.86656,0 -8.371624,0 -9.268585,0 -9.268585,0 -9.567571,0 -8.072639,0 -10.165544,0 -8.969598,-1.0458 -9.268585,1.0458 -5.082772,0 -12.258451,0 -8.6706116,0 -10.1655446,-0.3486 -8.9695978,0 -9.268585,0 -8.969598,0 -8.969598,-0.3486 -9.567572,-0.3486 -4.484799,1.3944 -8.969598,-0.3486 -4.185812,0 -6.278719,0 -29.300691,0 -6.27871,-0.3486 z" /></g></g></g></g></g><g
       id="g434" /><g
       id="g436"><g
         clip-path="url(#clipPath440)"
         id="g438"><g
           id="g444"><g
             id="g446"><g
               clip-path="url(#clipPath450)"
               id="g448"><path
                 id="path454"
                 style="fill:#008080;fill-opacity:1;fill-rule:nonzero;stroke:none"
                 d="m -110.02044,522.0834 0,0 6.27871,0.3486 29.300691,0 6.278719,0 4.185812,0 8.969598,0.3486 4.484799,-1.3944 9.567572,0.3486 8.969598,0.3486 8.969598,0 9.268585,0 8.9695978,0 10.1655446,0.3486 8.6706116,0 12.258451,0 5.082772,0 9.268585,-1.0458 8.969598,1.0458 10.165544,0 8.072639,0 9.567571,0 9.268585,0 9.268585,0 8.371624,0 9.86656,0 8.67061,0 9.86656,0 8.37162,0 8.67061,0 9.26859,0 9.26858,0 8.9696,0 10.16555,0 8.07263,0 9.26859,0 9.56757,0 9.26859,0 9.56757,0 8.37162,0 8.67061,0.3486 8.67062,-0.3486 9.86655,0 10.46453,0 7.17568,0 10.16555,0 8.37162,0 8.9696,0 9.26859,0 11.0625,0 8.07264,0 8.07264,0 8.67061,0 8.9696,0 10.16554,0 9.86656,0 10.76352,0 8.37162,0 16.44426,0 8.37163,0 10.46453,0 8.37163,-5.5776 8.37162,-5.9262 10.46453,-7.3206 8.37163,-14.9898 8.37162,-9.4122 18.83616,-17.43 10.46453,-12.5496 8.37162,-8.715 8.37163,-8.3664 10.46453,-14.2926 8.37162,-11.5038 8.37163,-6.972 10.46453,-10.8066 8.37163,-6.972 0,57.1704 0,0 -8.37163,8.715 -10.46453,11.1552 -8.37163,6.6234 -8.37162,9.4122 -10.46453,11.5038 -8.37163,8.715 -8.37162,9.7608 -10.46453,11.1552 -18.83616,3.8346 -8.37162,0.3486 -8.37163,1.0458 -10.46453,1.3944 -8.37162,0 -8.37163,0 -10.46453,0 -8.37163,0 -16.44426,0 -8.37162,0 -10.76352,0 -9.86656,0 -10.16554,0 -8.9696,0 -8.67061,0 -8.07264,0 -8.07264,0 -11.0625,0 -9.26859,0 -8.9696,0 -8.37162,0 -10.16555,0 -7.17568,0 -10.46453,0 -9.86655,0 -8.67062,0.3486 -8.67061,-0.3486 -8.37162,0 -9.56757,0 -9.26859,0 -9.56757,0 -9.26859,0 -8.07263,0 -10.16555,0 -8.9696,0 -9.26858,0 -9.26859,0 -8.67061,0 -8.37162,0 -9.86656,0 -8.67061,0 -9.86656,0 -8.371624,0 -9.268585,0 -9.268585,0 -9.567571,0 -8.072639,0 -10.165544,0 -8.969598,-1.0458 -9.268585,1.0458 -5.082772,0 -12.258451,0 -8.6706116,0 -10.1655446,-0.3486 -8.9695978,0 -9.268585,0 -8.969598,0 -8.969598,-0.3486 -9.567572,-0.3486 -4.484799,1.3944 -8.969598,-0.3486 -4.185812,0 -6.278719,0 -29.300691,0 -6.27871,-0.3486 z" /></g></g></g></g></g><g
       id="g456" /><g
       id="g458"><g
         clip-path="url(#clipPath462)"
         id="g460"><g
           id="g466"><g
             id="g468"><g
               clip-path="url(#clipPath472)"
               id="g470"><path
                 id="path476"
                 style="fill:#000080;fill-opacity:1;fill-rule:nonzero;stroke:none"
                 d="m -110.02044,522.0834 0,0 6.27871,0.3486 29.300691,0 6.278719,0 4.185812,0 8.969598,0.3486 4.484799,-1.3944 9.567572,0.3486 8.969598,0.3486 8.969598,0 9.268585,0 8.9695978,0 10.1655446,0.3486 8.6706116,0 12.258451,0 5.082772,0 9.268585,-1.0458 8.969598,1.0458 10.165544,0 8.072639,0 9.567571,0 9.268585,0 9.268585,0 8.371624,0 9.86656,0 8.67061,0 9.86656,0 8.37162,0 8.67061,0 9.26859,0 9.26858,0 8.9696,0 10.16555,0 8.07263,0 9.26859,0 9.56757,0 9.26859,0 9.56757,0 8.37162,0 8.67061,0.3486 8.67062,-0.3486 9.86655,0 10.46453,0 7.17568,0 10.16555,0 8.37162,0 8.9696,0 9.26859,0 11.0625,0 8.07264,0 8.07264,0 8.67061,0 8.9696,0 10.16554,0 9.86656,0 10.76352,0 8.37162,0 16.44426,0 8.37163,0 10.46453,0 8.37163,0 8.37162,0 10.46453,-1.3944 8.37163,-1.0458 8.37162,-0.3486 18.83616,-3.8346 10.46453,-11.1552 8.37162,-9.7608 8.37163,-8.715 10.46453,-11.5038 8.37162,-9.4122 8.37163,-6.6234 10.46453,-11.1552 8.37163,-8.715 0,67.6284 0,0 -8.37163,8.0178 -10.46453,3.8346 -8.37163,1.743 -8.37162,0.6972 -10.46453,0.6972 -8.37163,1.0458 -8.37162,0 -10.46453,2.4402 -18.83616,-2.4402 -8.37162,0 -8.37163,0 -10.46453,0 -8.37162,0 -8.37163,0 -10.46453,0 -8.37163,0 -16.44426,0 -8.37162,0 -10.76352,0 -9.86656,0 -10.16554,0 -8.9696,0 -8.67061,0 -8.07264,0 -8.07264,0 -11.0625,0 -9.26859,0 -8.9696,0 -8.37162,0 -10.16555,0 -7.17568,0 -10.46453,0 -9.86655,0 -8.67062,0.3486 -8.67061,-0.3486 -8.37162,0 -9.56757,0 -9.26859,0 -9.56757,0 -9.26859,0 -8.07263,0 -10.16555,0 -8.9696,0 -9.26858,0 -9.26859,0 -8.67061,0 -8.37162,0 -9.86656,0 -8.67061,0 -9.86656,0 -8.371624,0 -9.268585,0 -9.268585,0 -9.567571,0 -8.072639,0 -10.165544,0 -8.969598,-1.0458 -9.268585,1.0458 -5.082772,0 -12.258451,0 -8.6706116,0 -10.1655446,-0.3486 -8.9695978,0 -9.268585,0 -8.969598,0 -8.969598,-0.3486 -9.567572,-0.3486 -4.484799,1.3944 -8.969598,-0.3486 -4.185812,0 -6.278719,0 -29.300691,0 -6.27871,-0.3486 z" /></g></g></g></g></g><g
       id="g478" /><g
       id="g480"><g
         clip-path="url(#clipPath484)"
         id="g482"><g
           id="g488"><g
             id="g490"><g
               clip-path="url(#clipPath494)"
               id="g492"><path
                 id="path498"
                 style="fill:#0024ca;fill-opacity:1;fill-rule:nonzero;stroke:none"
                 d="m -110.02044,522.0834 0,0 6.27871,0.3486 29.300691,0 6.278719,0 4.185812,0 8.969598,0.3486 4.484799,-1.3944 9.567572,0.3486 8.969598,0.3486 8.969598,0 9.268585,0 8.9695978,0 10.1655446,0.3486 8.6706116,0 12.258451,0 5.082772,0 9.268585,-1.0458 8.969598,1.0458 10.165544,0 8.072639,0 9.567571,0 9.268585,0 9.268585,0 8.371624,0 9.86656,0 8.67061,0 9.86656,0 8.37162,0 8.67061,0 9.26859,0 9.26858,0 8.9696,0 10.16555,0 8.07263,0 9.26859,0 9.56757,0 9.26859,0 9.56757,0 8.37162,0 8.67061,0.3486 8.67062,-0.3486 9.86655,0 10.46453,0 7.17568,0 10.16555,0 8.37162,0 8.9696,0 9.26859,0 11.0625,0 8.07264,0 8.07264,0 8.67061,0 8.9696,0 10.16554,0 9.86656,0 10.76352,0 8.37162,0 16.44426,0 8.37163,0 10.46453,0 8.37163,0 8.37162,0 10.46453,0 8.37163,0 8.37162,0 18.83616,2.4402 10.46453,-2.4402 8.37162,0 8.37163,-1.0458 10.46453,-0.6972 8.37162,-0.6972 8.37163,-1.743 10.46453,-3.8346 8.37163,-8.0178 0,16.0356 0,0 -8.37163,0 -10.46453,0 -8.37163,0 -8.37162,0 -10.46453,0 -8.37163,0 -8.37162,0 -10.46453,2.4402 -18.83616,-2.4402 -8.37162,0 -8.37163,0 -10.46453,0 -8.37162,0 -8.37163,0 -10.46453,0 -8.37163,0 -16.44426,0 -8.37162,0 -10.76352,0 -9.86656,0 -10.16554,0 -8.9696,0 -8.67061,0 -8.07264,0 -8.07264,0 -11.0625,0 -9.26859,0 -8.9696,0 -8.37162,0 -10.16555,0 -7.17568,0 -10.46453,0 -9.86655,0 -8.67062,0.3486 -8.67061,-0.3486 -8.37162,0 -9.56757,0 -9.26859,0 -9.56757,0 -9.26859,0 -8.07263,0 -10.16555,0 -8.9696,0 -9.26858,0 -9.26859,0 -8.67061,0 -8.37162,0 -9.86656,0 -8.67061,0 -9.86656,0 -8.371624,0 -9.268585,0 -9.268585,0 -9.567571,0 -8.072639,0 -10.165544,0 -8.969598,-1.0458 -9.268585,1.0458 -5.082772,0 -12.258451,0 -8.6706116,0 -10.1655446,-0.3486 -8.9695978,0 -9.268585,0 -8.969598,0 -8.969598,-0.3486 -9.567572,-0.3486 -4.484799,1.3944 -8.969598,-0.3486 -4.185812,0 -6.278719,0 -29.300691,0 -6.27871,-0.3486 z" /></g></g></g></g></g><path
       id="path500"
       style="fill:none;stroke:#000000;stroke-width:1;stroke-linecap:square;stroke-linejoin:miter;stroke-miterlimit:10;stroke-dasharray:none;stroke-opacity:1"
       d="m 571.968,173.832 0,348.6" /><path
       id="path502"
       style="fill:none;stroke:#000000;stroke-width:1;stroke-linecap:square;stroke-linejoin:miter;stroke-miterlimit:10;stroke-dasharray:none;stroke-opacity:1"
       d="m 58.608,173.832 0,348.6" /><path
       id="path504"
       style="fill:none;stroke:#000000;stroke-width:1;stroke-linecap:square;stroke-linejoin:miter;stroke-miterlimit:10;stroke-dasharray:none;stroke-opacity:1"
       d="m 58.608,522.432 513.36,0" /><path
       id="path506"
       style="fill:none;stroke:#000000;stroke-width:1;stroke-linecap:square;stroke-linejoin:miter;stroke-miterlimit:10;stroke-dasharray:none;stroke-opacity:1"
       d="m 58.608,173.832 513.36,0" /><path
       id="path508"
       style="fill:#000000;fill-opacity:1;fill-rule:nonzero;stroke:#000000;stroke-width:0.5;stroke-linecap:butt;stroke-linejoin:round;stroke-miterlimit:10;stroke-dasharray:none;stroke-opacity:1"
       d="m 86.114768,173.832 0,4" /><path
       id="path510"
       style="fill:#000000;fill-opacity:1;fill-rule:nonzero;stroke:#000000;stroke-width:0.5;stroke-linecap:butt;stroke-linejoin:round;stroke-miterlimit:10;stroke-dasharray:none;stroke-opacity:1"
       d="m 86.114768,522.432 0,-4" /><text
       id="text512"
       style="font-variant:normal;font-weight:normal;font-size:12px;font-family:'DejaVu Sans';-inkscape-font-specification:DejaVuSans;writing-mode:lr-tb;fill:#000000;fill-opacity:1;fill-rule:nonzero;stroke:none"
       transform="matrix(0.8660254,0.5,0.5,-0.8660254,38.085864,134.92171)"><tspan
         id="tspan514"
         y="0"
         x="0 9.6719999 16.427999 21.246 25.152 32.970001 40.787998 48.605999">Oct 2011</tspan></text>
<path
       id="path516"
       style="fill:#000000;fill-opacity:1;fill-rule:nonzero;stroke:#000000;stroke-width:0.5;stroke-linecap:butt;stroke-linejoin:round;stroke-miterlimit:10;stroke-dasharray:none;stroke-opacity:1"
       d="m 140.82932,173.832 0,4" /><path
       id="path518"
       style="fill:#000000;fill-opacity:1;fill-rule:nonzero;stroke:#000000;stroke-width:0.5;stroke-linecap:butt;stroke-linejoin:round;stroke-miterlimit:10;stroke-dasharray:none;stroke-opacity:1"
       d="m 140.82932,522.432 0,-4" /><text
       id="text520"
       style="font-variant:normal;font-weight:normal;font-size:12px;font-family:'DejaVu Sans';-inkscape-font-specification:DejaVuSans;writing-mode:lr-tb;fill:#000000;fill-opacity:1;fill-rule:nonzero;stroke:none"
       transform="matrix(0.8660254,0.5,0.5,-0.8660254,92.868071,134.96077)"><tspan
         id="tspan522"
         y="0"
         x="0 8.4060001 16.205999 21.257999 25.164 32.981998 40.799999 48.618">Apr 2012</tspan></text>
<path
       id="path524"
       style="fill:#000000;fill-opacity:1;fill-rule:nonzero;stroke:#000000;stroke-width:0.5;stroke-linecap:butt;stroke-linejoin:round;stroke-miterlimit:10;stroke-dasharray:none;stroke-opacity:1"
       d="m 195.54386,173.832 0,4" /><path
       id="path526"
       style="fill:#000000;fill-opacity:1;fill-rule:nonzero;stroke:#000000;stroke-width:0.5;stroke-linecap:butt;stroke-linejoin:round;stroke-miterlimit:10;stroke-dasharray:none;stroke-opacity:1"
       d="m 195.54386,522.432 0,-4" /><text
       id="text528"
       style="font-variant:normal;font-weight:normal;font-size:12px;font-family:'DejaVu Sans';-inkscape-font-specification:DejaVuSans;writing-mode:lr-tb;fill:#000000;fill-opacity:1;fill-rule:nonzero;stroke:none"
       transform="matrix(0.8660254,0.5,0.5,-0.8660254,147.59615,134.96858)"><tspan
         id="tspan530"
         y="0"
         x="0 9.6719999 16.427999 21.246 25.152 32.970001 40.787998 48.605999">Oct 2012</tspan></text>
<path
       id="path532"
       style="fill:#000000;fill-opacity:1;fill-rule:nonzero;stroke:#000000;stroke-width:0.5;stroke-linecap:butt;stroke-linejoin:round;stroke-miterlimit:10;stroke-dasharray:none;stroke-opacity:1"
       d="m 249.95943,173.832 0,4" /><path
       id="path534"
       style="fill:#000000;fill-opacity:1;fill-rule:nonzero;stroke:#000000;stroke-width:0.5;stroke-linecap:butt;stroke-linejoin:round;stroke-miterlimit:10;stroke-dasharray:none;stroke-opacity:1"
       d="m 249.95943,522.432 0,-4" /><text
       id="text536"
       style="font-variant:normal;font-weight:normal;font-size:12px;font-family:'DejaVu Sans';-inkscape-font-specification:DejaVuSans;writing-mode:lr-tb;fill:#000000;fill-opacity:1;fill-rule:nonzero;stroke:none"
       transform="matrix(0.8660254,0.5,0.5,-0.8660254,201.79521,134.84358)"><tspan
         id="tspan538"
         y="0"
         x="0 8.4060001 16.205999 21.257999 25.164 32.981998 40.799999 48.618">Apr 2013</tspan></text>
<path
       id="path540"
       style="fill:#000000;fill-opacity:1;fill-rule:nonzero;stroke:#000000;stroke-width:0.5;stroke-linecap:butt;stroke-linejoin:round;stroke-miterlimit:10;stroke-dasharray:none;stroke-opacity:1"
       d="m 304.67398,173.832 0,4" /><path
       id="path542"
       style="fill:#000000;fill-opacity:1;fill-rule:nonzero;stroke:#000000;stroke-width:0.5;stroke-linecap:butt;stroke-linejoin:round;stroke-miterlimit:10;stroke-dasharray:none;stroke-opacity:1"
       d="m 304.67398,522.432 0,-4" /><text
       id="text544"
       style="font-variant:normal;font-weight:normal;font-size:12px;font-family:'DejaVu Sans';-inkscape-font-specification:DejaVuSans;writing-mode:lr-tb;fill:#000000;fill-opacity:1;fill-rule:nonzero;stroke:none"
       transform="matrix(0.8660254,0.5,0.5,-0.8660254,256.52329,134.85139)"><tspan
         id="tspan546"
         y="0"
         x="0 9.6719999 16.427999 21.246 25.152 32.970001 40.787998 48.605999">Oct 2013</tspan></text>
<path
       id="path548"
       style="fill:#000000;fill-opacity:1;fill-rule:nonzero;stroke:#000000;stroke-width:0.5;stroke-linecap:butt;stroke-linejoin:round;stroke-miterlimit:10;stroke-dasharray:none;stroke-opacity:1"
       d="m 359.08954,173.832 0,4" /><path
       id="path550"
       style="fill:#000000;fill-opacity:1;fill-rule:nonzero;stroke:#000000;stroke-width:0.5;stroke-linecap:butt;stroke-linejoin:round;stroke-miterlimit:10;stroke-dasharray:none;stroke-opacity:1"
       d="m 359.08954,522.432 0,-4" /><text
       id="text552"
       style="font-variant:normal;font-weight:normal;font-size:12px;font-family:'DejaVu Sans';-inkscape-font-specification:DejaVuSans;writing-mode:lr-tb;fill:#000000;fill-opacity:1;fill-rule:nonzero;stroke:none"
       transform="matrix(0.8660254,0.5,0.5,-0.8660254,310.66822,134.69514)"><tspan
         id="tspan554"
         y="0"
         x="0 8.4060001 16.205999 21.257999 25.164 32.981998 40.799999 48.618">Apr 2014</tspan></text>
<path
       id="path556"
       style="fill:#000000;fill-opacity:1;fill-rule:nonzero;stroke:#000000;stroke-width:0.5;stroke-linecap:butt;stroke-linejoin:round;stroke-miterlimit:10;stroke-dasharray:none;stroke-opacity:1"
       d="m 413.80409,173.832 0,4" /><path
       id="path558"
       style="fill:#000000;fill-opacity:1;fill-rule:nonzero;stroke:#000000;stroke-width:0.5;stroke-linecap:butt;stroke-linejoin:round;stroke-miterlimit:10;stroke-dasharray:none;stroke-opacity:1"
       d="m 413.80409,522.432 0,-4" /><text
       id="text560"
       style="font-variant:normal;font-weight:normal;font-size:12px;font-family:'DejaVu Sans';-inkscape-font-specification:DejaVuSans;writing-mode:lr-tb;fill:#000000;fill-opacity:1;fill-rule:nonzero;stroke:none"
       transform="matrix(0.8660254,0.5,0.5,-0.8660254,365.3963,134.70296)"><tspan
         id="tspan562"
         y="0"
         x="0 9.6719999 16.427999 21.246 25.152 32.970001 40.787998 48.605999">Oct 2014</tspan></text>
<path
       id="path564"
       style="fill:#000000;fill-opacity:1;fill-rule:nonzero;stroke:#000000;stroke-width:0.5;stroke-linecap:butt;stroke-linejoin:round;stroke-miterlimit:10;stroke-dasharray:none;stroke-opacity:1"
       d="m 468.21965,173.832 0,4" /><path
       id="path566"
       style="fill:#000000;fill-opacity:1;fill-rule:nonzero;stroke:#000000;stroke-width:0.5;stroke-linecap:butt;stroke-linejoin:round;stroke-miterlimit:10;stroke-dasharray:none;stroke-opacity:1"
       d="m 468.21965,522.432 0,-4" /><text
       id="text568"
       style="font-variant:normal;font-weight:normal;font-size:12px;font-family:'DejaVu Sans';-inkscape-font-specification:DejaVuSans;writing-mode:lr-tb;fill:#000000;fill-opacity:1;fill-rule:nonzero;stroke:none"
       transform="matrix(0.8660254,0.5,0.5,-0.8660254,420.12309,134.88264)"><tspan
         id="tspan570"
         y="0"
         x="0 8.4060001 16.205999 21.257999 25.164 32.981998 40.799999 48.618">Apr 2015</tspan></text>
<path
       id="path572"
       style="fill:#000000;fill-opacity:1;fill-rule:nonzero;stroke:#000000;stroke-width:0.5;stroke-linecap:butt;stroke-linejoin:round;stroke-miterlimit:10;stroke-dasharray:none;stroke-opacity:1"
       d="m 522.9342,173.832 0,4" /><path
       id="path574"
       style="fill:#000000;fill-opacity:1;fill-rule:nonzero;stroke:#000000;stroke-width:0.5;stroke-linecap:butt;stroke-linejoin:round;stroke-miterlimit:10;stroke-dasharray:none;stroke-opacity:1"
       d="m 522.9342,522.432 0,-4" /><text
       id="text576"
       style="font-variant:normal;font-weight:normal;font-size:12px;font-family:'DejaVu Sans';-inkscape-font-specification:DejaVuSans;writing-mode:lr-tb;fill:#000000;fill-opacity:1;fill-rule:nonzero;stroke:none"
       transform="matrix(0.8660254,0.5,0.5,-0.8660254,474.85117,134.89046)"><tspan
         id="tspan578"
         y="0"
         x="0 9.6719999 16.427999 21.246 25.152 32.970001 40.787998 48.605999">Oct 2015</tspan></text>
<path
       id="path580"
       style="fill:#000000;fill-opacity:1;fill-rule:nonzero;stroke:#000000;stroke-width:0.5;stroke-linecap:butt;stroke-linejoin:round;stroke-miterlimit:10;stroke-dasharray:none;stroke-opacity:1"
       d="m 58.608,173.832 4,0" /><path
       id="path582"
       style="fill:#000000;fill-opacity:1;fill-rule:nonzero;stroke:#000000;stroke-width:0.5;stroke-linecap:butt;stroke-linejoin:round;stroke-miterlimit:10;stroke-dasharray:none;stroke-opacity:1"
       d="m 571.968,173.832 -4,0" /><text
       id="text584"
       style="font-variant:normal;font-weight:normal;font-size:12px;font-family:'DejaVu Sans';-inkscape-font-specification:DejaVuSans;writing-mode:lr-tb;fill:#000000;fill-opacity:1;fill-rule:nonzero;stroke:none"
       transform="matrix(1,0,0,-1,37.108,170.5195)"><tspan
         id="tspan586"
         y="0"
         x="0 7.8179998 11.724">0.0</tspan></text>
<path
       id="path588"
       style="fill:#000000;fill-opacity:1;fill-rule:nonzero;stroke:#000000;stroke-width:0.5;stroke-linecap:butt;stroke-linejoin:round;stroke-miterlimit:10;stroke-dasharray:none;stroke-opacity:1"
       d="m 58.608,243.552 4,0" /><path
       id="path590"
       style="fill:#000000;fill-opacity:1;fill-rule:nonzero;stroke:#000000;stroke-width:0.5;stroke-linecap:butt;stroke-linejoin:round;stroke-miterlimit:10;stroke-dasharray:none;stroke-opacity:1"
       d="m 571.968,243.552 -4,0" /><text
       id="text592"
       style="font-variant:normal;font-weight:normal;font-size:12px;font-family:'DejaVu Sans';-inkscape-font-specification:DejaVuSans;writing-mode:lr-tb;fill:#000000;fill-opacity:1;fill-rule:nonzero;stroke:none"
       transform="matrix(1,0,0,-1,37.51425,240.2395)"><tspan
         id="tspan594"
         y="0"
         x="0 7.8179998 11.724">0.2</tspan></text>
<path
       id="path596"
       style="fill:#000000;fill-opacity:1;fill-rule:nonzero;stroke:#000000;stroke-width:0.5;stroke-linecap:butt;stroke-linejoin:round;stroke-miterlimit:10;stroke-dasharray:none;stroke-opacity:1"
       d="m 58.608,313.272 4,0" /><path
       id="path598"
       style="fill:#000000;fill-opacity:1;fill-rule:nonzero;stroke:#000000;stroke-width:0.5;stroke-linecap:butt;stroke-linejoin:round;stroke-miterlimit:10;stroke-dasharray:none;stroke-opacity:1"
       d="m 571.968,313.272 -4,0" /><text
       id="text600"
       style="font-variant:normal;font-weight:normal;font-size:12px;font-family:'DejaVu Sans';-inkscape-font-specification:DejaVuSans;writing-mode:lr-tb;fill:#000000;fill-opacity:1;fill-rule:nonzero;stroke:none"
       transform="matrix(1,0,0,-1,36.983,309.9595)"><tspan
         id="tspan602"
         y="0"
         x="0 7.8179998 11.724">0.4</tspan></text>
<path
       id="path604"
       style="fill:#000000;fill-opacity:1;fill-rule:nonzero;stroke:#000000;stroke-width:0.5;stroke-linecap:butt;stroke-linejoin:round;stroke-miterlimit:10;stroke-dasharray:none;stroke-opacity:1"
       d="m 58.608,382.992 4,0" /><path
       id="path606"
       style="fill:#000000;fill-opacity:1;fill-rule:nonzero;stroke:#000000;stroke-width:0.5;stroke-linecap:butt;stroke-linejoin:round;stroke-miterlimit:10;stroke-dasharray:none;stroke-opacity:1"
       d="m 571.968,382.992 -4,0" /><text
       id="text608"
       style="font-variant:normal;font-weight:normal;font-size:12px;font-family:'DejaVu Sans';-inkscape-font-specification:DejaVuSans;writing-mode:lr-tb;fill:#000000;fill-opacity:1;fill-rule:nonzero;stroke:none"
       transform="matrix(1,0,0,-1,37.07675,379.6795)"><tspan
         id="tspan610"
         y="0"
         x="0 7.8179998 11.724">0.6</tspan></text>
<path
       id="path612"
       style="fill:#000000;fill-opacity:1;fill-rule:nonzero;stroke:#000000;stroke-width:0.5;stroke-linecap:butt;stroke-linejoin:round;stroke-miterlimit:10;stroke-dasharray:none;stroke-opacity:1"
       d="m 58.608,452.712 4,0" /><path
       id="path614"
       style="fill:#000000;fill-opacity:1;fill-rule:nonzero;stroke:#000000;stroke-width:0.5;stroke-linecap:butt;stroke-linejoin:round;stroke-miterlimit:10;stroke-dasharray:none;stroke-opacity:1"
       d="m 571.968,452.712 -4,0" /><text
       id="text616"
       style="font-variant:normal;font-weight:normal;font-size:12px;font-family:'DejaVu Sans';-inkscape-font-specification:DejaVuSans;writing-mode:lr-tb;fill:#000000;fill-opacity:1;fill-rule:nonzero;stroke:none"
       transform="matrix(1,0,0,-1,37.13925,449.3995)"><tspan
         id="tspan618"
         y="0"
         x="0 7.8179998 11.724">0.8</tspan></text>
<path
       id="path620"
       style="fill:#000000;fill-opacity:1;fill-rule:nonzero;stroke:#000000;stroke-width:0.5;stroke-linecap:butt;stroke-linejoin:round;stroke-miterlimit:10;stroke-dasharray:none;stroke-opacity:1"
       d="m 58.608,522.432 4,0" /><path
       id="path622"
       style="fill:#000000;fill-opacity:1;fill-rule:nonzero;stroke:#000000;stroke-width:0.5;stroke-linecap:butt;stroke-linejoin:round;stroke-miterlimit:10;stroke-dasharray:none;stroke-opacity:1"
       d="m 571.968,522.432 -4,0" /><text
       id="text624"
       style="font-variant:normal;font-weight:normal;font-size:12px;font-family:'DejaVu Sans';-inkscape-font-specification:DejaVuSans;writing-mode:lr-tb;fill:#000000;fill-opacity:1;fill-rule:nonzero;stroke:none"
       transform="matrix(1,0,0,-1,37.623625,519.1195)"><tspan
         id="tspan626"
         y="0"
         x="0 7.8179998 11.724">1.0</tspan></text>
<text
       id="text628"
       style="font-variant:normal;font-weight:normal;font-size:12px;font-family:'DejaVu Sans';-inkscape-font-specification:DejaVuSans;writing-mode:lr-tb;fill:#000000;fill-opacity:1;fill-rule:nonzero;stroke:none"
       transform="matrix(0,1,1,0,29.483,285.03044)"><tspan
         id="tspan630"
         y="0"
         x="0 7.4099998 12.462 19.98 27.780001 35.298 40.349998 45.167999 48.582001 56.099998 63.888 67.793999 75.311996 79.638 83.543999 91.344002 98.903999 106.176 109.59 116.346 123.906">Proportion of devices</tspan></text>
<text
       id="text632"
       style="font-variant:normal;font-weight:normal;font-size:12px;font-family:'DejaVu Sans';-inkscape-font-specification:DejaVuSans;writing-mode:lr-tb;fill:#000000;fill-opacity:1;fill-rule:nonzero;stroke:none"
       transform="matrix(1,0,0,-1,123.663,527.432)"><tspan
         id="tspan634"
         y="0"
         x="0 7.4099998 12.462 19.98 27.780001 35.298 40.349998 45.167999 48.582001 56.099998 63.888 67.793999 75.311996 79.638 83.543999 91.344002 98.903999 106.176 109.59 116.346 123.906 130.308 134.214 139.26601 147.054 154.842 162.63 166.04401 173.832 181.632 185.53799 193.338 196.752 201.078 205.40401 212.964 218.01601 225.576 233.364 238.18201 242.088 250.494 257.90399 261.52802 265.43399 272.70599 280.26599 285.31799 291.72 295.134 302.65201 310.44 316.84201 320.74799 328.30801 335.83801 342.59399 350.38199 354.28799 366.258 373.776 381.564 386.38199">Proportion of devices running different API versions each month</tspan></text>
<path
       id="path636"
       style="fill:#ffffff;fill-opacity:1;fill-rule:nonzero;stroke:#000000;stroke-width:1;stroke-linecap:butt;stroke-linejoin:miter;stroke-miterlimit:10;stroke-dasharray:none;stroke-opacity:1"
       d="m 81.3255,55.524767 467.925,0 0,74.100003 -467.925,0 0,-74.100003 z" /><path
       id="path638"
       style="fill:#000080;fill-opacity:1;fill-rule:nonzero;stroke:#000000;stroke-width:1;stroke-linecap:butt;stroke-linejoin:miter;stroke-miterlimit:10;stroke-dasharray:none;stroke-opacity:1"
       d="m 86.1255,115.69977 24,0 0,8.4 -24,0 0,-8.4 z" /><text
       id="text640"
       style="font-variant:normal;font-weight:normal;font-size:12px;font-family:'DejaVu Sans';-inkscape-font-specification:DejaVuSans;writing-mode:lr-tb;fill:#000000;fill-opacity:1;fill-rule:nonzero;stroke:none"
       transform="matrix(1,0,0,-1,119.7255,115.69977)"><tspan
         id="tspan642"
         y="0"
         x="0">2</tspan></text>
<path
       id="path644"
       style="fill:#0024ca;fill-opacity:1;fill-rule:nonzero;stroke:#000000;stroke-width:1;stroke-linecap:butt;stroke-linejoin:miter;stroke-miterlimit:10;stroke-dasharray:none;stroke-opacity:1"
       d="m 86.1255,98.074767 24,0 0,8.400003 -24,0 0,-8.400003 z" /><text
       id="text646"
       style="font-variant:normal;font-weight:normal;font-size:12px;font-family:'DejaVu Sans';-inkscape-font-specification:DejaVuSans;writing-mode:lr-tb;fill:#000000;fill-opacity:1;fill-rule:nonzero;stroke:none"
       transform="matrix(1,0,0,-1,119.7255,98.074767)"><tspan
         id="tspan648"
         y="0"
         x="0">3</tspan></text>
<path
       id="path650"
       style="fill:#0051ff;fill-opacity:1;fill-rule:nonzero;stroke:#000000;stroke-width:1;stroke-linecap:butt;stroke-linejoin:miter;stroke-miterlimit:10;stroke-dasharray:none;stroke-opacity:1"
       d="m 86.1255,80.449767 24,0 0,8.4 -24,0 0,-8.4 z" /><text
       id="text652"
       style="font-variant:normal;font-weight:normal;font-size:12px;font-family:'DejaVu Sans';-inkscape-font-specification:DejaVuSans;writing-mode:lr-tb;fill:#000000;fill-opacity:1;fill-rule:nonzero;stroke:none"
       transform="matrix(1,0,0,-1,119.7255,80.449767)"><tspan
         id="tspan654"
         y="0"
         x="0">4</tspan></text>
<path
       id="path656"
       style="fill:#0081ff;fill-opacity:1;fill-rule:nonzero;stroke:#000000;stroke-width:1;stroke-linecap:butt;stroke-linejoin:miter;stroke-miterlimit:10;stroke-dasharray:none;stroke-opacity:1"
       d="m 86.1255,62.824767 24,0 0,8.4 -24,0 0,-8.4 z" /><text
       id="text658"
       style="font-variant:normal;font-weight:normal;font-size:12px;font-family:'DejaVu Sans';-inkscape-font-specification:DejaVuSans;writing-mode:lr-tb;fill:#000000;fill-opacity:1;fill-rule:nonzero;stroke:none"
       transform="matrix(1,0,0,-1,119.7255,62.824767)"><tspan
         id="tspan660"
         y="0"
         x="0">5</tspan></text>
<path
       id="path662"
       style="fill:#00aeff;fill-opacity:1;fill-rule:nonzero;stroke:#000000;stroke-width:1;stroke-linecap:butt;stroke-linejoin:miter;stroke-miterlimit:10;stroke-dasharray:none;stroke-opacity:1"
       d="m 150.1005,115.69977 24,0 0,8.4 -24,0 0,-8.4 z" /><text
       id="text664"
       style="font-variant:normal;font-weight:normal;font-size:12px;font-family:'DejaVu Sans';-inkscape-font-specification:DejaVuSans;writing-mode:lr-tb;fill:#000000;fill-opacity:1;fill-rule:nonzero;stroke:none"
       transform="matrix(1,0,0,-1,183.7005,115.69977)"><tspan
         id="tspan666"
         y="0"
         x="0">6</tspan></text>
<path
       id="path668"
       style="fill:#00deff;fill-opacity:1;fill-rule:nonzero;stroke:#000000;stroke-width:1;stroke-linecap:butt;stroke-linejoin:miter;stroke-miterlimit:10;stroke-dasharray:none;stroke-opacity:1"
       d="m 150.1005,98.074767 24,0 0,8.400003 -24,0 0,-8.400003 z" /><text
       id="text670"
       style="font-variant:normal;font-weight:normal;font-size:12px;font-family:'DejaVu Sans';-inkscape-font-specification:DejaVuSans;writing-mode:lr-tb;fill:#000000;fill-opacity:1;fill-rule:nonzero;stroke:none"
       transform="matrix(1,0,0,-1,183.7005,98.074767)"><tspan
         id="tspan672"
         y="0"
         x="0">7</tspan></text>
<path
       id="path674"
       style="fill:#23ffd2;fill-opacity:1;fill-rule:nonzero;stroke:#000000;stroke-width:1;stroke-linecap:butt;stroke-linejoin:miter;stroke-miterlimit:10;stroke-dasharray:none;stroke-opacity:1"
       d="m 150.1005,80.449767 24,0 0,8.4 -24,0 0,-8.4 z" /><text
       id="text676"
       style="font-variant:normal;font-weight:normal;font-size:12px;font-family:'DejaVu Sans';-inkscape-font-specification:DejaVuSans;writing-mode:lr-tb;fill:#000000;fill-opacity:1;fill-rule:nonzero;stroke:none"
       transform="matrix(1,0,0,-1,183.7005,80.449767)"><tspan
         id="tspan678"
         y="0"
         x="0">8</tspan></text>
<path
       id="path680"
       style="fill:#5cff9a;fill-opacity:1;fill-rule:nonzero;stroke:#000000;stroke-width:1;stroke-linecap:butt;stroke-linejoin:miter;stroke-miterlimit:10;stroke-dasharray:none;stroke-opacity:1"
       d="m 213.73175,115.69977 24,0 0,8.4 -24,0 0,-8.4 z" /><text
       id="text682"
       style="font-variant:normal;font-weight:normal;font-size:12px;font-family:'DejaVu Sans';-inkscape-font-specification:DejaVuSans;writing-mode:lr-tb;fill:#000000;fill-opacity:1;fill-rule:nonzero;stroke:none"
       transform="matrix(1,0,0,-1,247.33175,115.69977)"><tspan
         id="tspan684"
         y="0"
         x="0">9</tspan></text>
<path
       id="path686"
       style="fill:#91ff66;fill-opacity:1;fill-rule:nonzero;stroke:#000000;stroke-width:1;stroke-linecap:butt;stroke-linejoin:miter;stroke-miterlimit:10;stroke-dasharray:none;stroke-opacity:1"
       d="m 213.73175,98.074767 24,0 0,8.400003 -24,0 0,-8.400003 z" /><text
       id="text688"
       style="font-variant:normal;font-weight:normal;font-size:12px;font-family:'DejaVu Sans';-inkscape-font-specification:DejaVuSans;writing-mode:lr-tb;fill:#000000;fill-opacity:1;fill-rule:nonzero;stroke:none"
       transform="matrix(1,0,0,-1,247.33175,98.074767)"><tspan
         id="tspan690"
         y="0"
         x="0 7.8179998">10</tspan></text>
<path
       id="path692"
       style="fill:#c9ff2e;fill-opacity:1;fill-rule:nonzero;stroke:#000000;stroke-width:1;stroke-linecap:butt;stroke-linejoin:miter;stroke-miterlimit:10;stroke-dasharray:none;stroke-opacity:1"
       d="m 213.73175,80.449767 24,0 0,8.4 -24,0 0,-8.4 z" /><text
       id="text694"
       style="font-variant:normal;font-weight:normal;font-size:12px;font-family:'DejaVu Sans';-inkscape-font-specification:DejaVuSans;writing-mode:lr-tb;fill:#000000;fill-opacity:1;fill-rule:nonzero;stroke:none"
       transform="matrix(1,0,0,-1,247.33175,80.449767)"><tspan
         id="tspan696"
         y="0"
         x="0 7.8179998">11</tspan></text>
<path
       id="path698"
       style="fill:#feed00;fill-opacity:1;fill-rule:nonzero;stroke:#000000;stroke-width:1;stroke-linecap:butt;stroke-linejoin:miter;stroke-miterlimit:10;stroke-dasharray:none;stroke-opacity:1"
       d="m 284.50362,115.69977 24,0 0,8.4 -24,0 0,-8.4 z" /><text
       id="text700"
       style="font-variant:normal;font-weight:normal;font-size:12px;font-family:'DejaVu Sans';-inkscape-font-specification:DejaVuSans;writing-mode:lr-tb;fill:#000000;fill-opacity:1;fill-rule:nonzero;stroke:none"
       transform="matrix(1,0,0,-1,318.10363,115.69977)"><tspan
         id="tspan702"
         y="0"
         x="0 7.8179998">12</tspan></text>
<path
       id="path704"
       style="fill:#ffac00;fill-opacity:1;fill-rule:nonzero;stroke:#000000;stroke-width:1;stroke-linecap:butt;stroke-linejoin:miter;stroke-miterlimit:10;stroke-dasharray:none;stroke-opacity:1"
       d="m 284.50362,98.074767 24,0 0,8.400003 -24,0 0,-8.400003 z" /><text
       id="text706"
       style="font-variant:normal;font-weight:normal;font-size:12px;font-family:'DejaVu Sans';-inkscape-font-specification:DejaVuSans;writing-mode:lr-tb;fill:#000000;fill-opacity:1;fill-rule:nonzero;stroke:none"
       transform="matrix(1,0,0,-1,318.10363,98.074767)"><tspan
         id="tspan708"
         y="0"
         x="0 7.8179998">13</tspan></text>
<path
       id="path710"
       style="fill:#ff7000;fill-opacity:1;fill-rule:nonzero;stroke:#000000;stroke-width:1;stroke-linecap:butt;stroke-linejoin:miter;stroke-miterlimit:10;stroke-dasharray:none;stroke-opacity:1"
       d="m 284.50362,80.449767 24,0 0,8.4 -24,0 0,-8.4 z" /><text
       id="text712"
       style="font-variant:normal;font-weight:normal;font-size:12px;font-family:'DejaVu Sans';-inkscape-font-specification:DejaVuSans;writing-mode:lr-tb;fill:#000000;fill-opacity:1;fill-rule:nonzero;stroke:none"
       transform="matrix(1,0,0,-1,318.10363,80.449767)"><tspan
         id="tspan714"
         y="0"
         x="0 7.8179998">14</tspan></text>
<path
       id="path716"
       style="fill:#ff2f00;fill-opacity:1;fill-rule:nonzero;stroke:#000000;stroke-width:1;stroke-linecap:butt;stroke-linejoin:miter;stroke-miterlimit:10;stroke-dasharray:none;stroke-opacity:1"
       d="m 355.4005,115.69977 24,0 0,8.4 -24,0 0,-8.4 z" /><text
       id="text718"
       style="font-variant:normal;font-weight:normal;font-size:12px;font-family:'DejaVu Sans';-inkscape-font-specification:DejaVuSans;writing-mode:lr-tb;fill:#000000;fill-opacity:1;fill-rule:nonzero;stroke:none"
       transform="matrix(1,0,0,-1,389.0005,115.69977)"><tspan
         id="tspan720"
         y="0"
         x="0 7.8179998">15</tspan></text>
<path
       id="path722"
       style="fill:#d80000;fill-opacity:1;fill-rule:nonzero;stroke:#000000;stroke-width:1;stroke-linecap:butt;stroke-linejoin:miter;stroke-miterlimit:10;stroke-dasharray:none;stroke-opacity:1"
       d="m 355.4005,98.074767 24,0 0,8.400003 -24,0 0,-8.400003 z" /><text
       id="text724"
       style="font-variant:normal;font-weight:normal;font-size:12px;font-family:'DejaVu Sans';-inkscape-font-specification:DejaVuSans;writing-mode:lr-tb;fill:#000000;fill-opacity:1;fill-rule:nonzero;stroke:none"
       transform="matrix(1,0,0,-1,389.0005,98.074767)"><tspan
         id="tspan726"
         y="0"
         x="0 7.8179998">16</tspan></text>
<path
       id="path728"
       style="fill:#8b0000;fill-opacity:1;fill-rule:nonzero;stroke:#000000;stroke-width:1;stroke-linecap:butt;stroke-linejoin:miter;stroke-miterlimit:10;stroke-dasharray:none;stroke-opacity:1"
       d="m 355.4005,80.449767 24,0 0,8.4 -24,0 0,-8.4 z" /><text
       id="text730"
       style="font-variant:normal;font-weight:normal;font-size:12px;font-family:'DejaVu Sans';-inkscape-font-specification:DejaVuSans;writing-mode:lr-tb;fill:#000000;fill-opacity:1;fill-rule:nonzero;stroke:none"
       transform="matrix(1,0,0,-1,389.0005,80.449767)"><tspan
         id="tspan732"
         y="0"
         x="0 7.8179998">17</tspan></text>
<path
       id="path734"
       style="fill:#80006e;fill-opacity:1;fill-rule:nonzero;stroke:#000000;stroke-width:1;stroke-linecap:butt;stroke-linejoin:miter;stroke-miterlimit:10;stroke-dasharray:none;stroke-opacity:1"
       d="m 426.20362,115.69977 24,0 0,8.4 -24,0 0,-8.4 z" /><text
       id="text736"
       style="font-variant:normal;font-weight:normal;font-size:12px;font-family:'DejaVu Sans';-inkscape-font-specification:DejaVuSans;writing-mode:lr-tb;fill:#000000;fill-opacity:1;fill-rule:nonzero;stroke:none"
       transform="matrix(1,0,0,-1,459.80362,115.69977)"><tspan
         id="tspan738"
         y="0"
         x="0 7.8179998">18</tspan></text>
<path
       id="path740"
       style="fill:#c49ac4;fill-opacity:1;fill-rule:nonzero;stroke:#000000;stroke-width:1;stroke-linecap:butt;stroke-linejoin:miter;stroke-miterlimit:10;stroke-dasharray:none;stroke-opacity:1"
       d="m 426.20362,98.074767 24,0 0,8.400003 -24,0 0,-8.400003 z" /><text
       id="text742"
       style="font-variant:normal;font-weight:normal;font-size:12px;font-family:'DejaVu Sans';-inkscape-font-specification:DejaVuSans;writing-mode:lr-tb;fill:#000000;fill-opacity:1;fill-rule:nonzero;stroke:none"
       transform="matrix(1,0,0,-1,459.80362,98.074767)"><tspan
         id="tspan744"
         y="0"
         x="0 7.8179998">19</tspan></text>
<path
       id="path746"
       style="fill:#fe1792;fill-opacity:1;fill-rule:nonzero;stroke:#000000;stroke-width:1;stroke-linecap:butt;stroke-linejoin:miter;stroke-miterlimit:10;stroke-dasharray:none;stroke-opacity:1"
       d="m 426.20362,80.449767 24,0 0,8.4 -24,0 0,-8.4 z" /><text
       id="text748"
       style="font-variant:normal;font-weight:normal;font-size:12px;font-family:'DejaVu Sans';-inkscape-font-specification:DejaVuSans;writing-mode:lr-tb;fill:#000000;fill-opacity:1;fill-rule:nonzero;stroke:none"
       transform="matrix(1,0,0,-1,459.80362,80.449767)"><tspan
         id="tspan750"
         y="0"
         x="0 7.8179998">20</tspan></text>
<path
       id="path752"
       style="fill:#008080;fill-opacity:1;fill-rule:nonzero;stroke:#000000;stroke-width:1;stroke-linecap:butt;stroke-linejoin:miter;stroke-miterlimit:10;stroke-dasharray:none;stroke-opacity:1"
       d="m 497.413,115.69977 24,0 0,8.4 -24,0 0,-8.4 z" /><text
       id="text754"
       style="font-variant:normal;font-weight:normal;font-size:12px;font-family:'DejaVu Sans';-inkscape-font-specification:DejaVuSans;writing-mode:lr-tb;fill:#000000;fill-opacity:1;fill-rule:nonzero;stroke:none"
       transform="matrix(1,0,0,-1,531.013,115.69977)"><tspan
         id="tspan756"
         y="0"
         x="0 7.8179998">21</tspan></text>
<path
       id="path758"
       style="fill:#000080;fill-opacity:1;fill-rule:nonzero;stroke:#000000;stroke-width:1;stroke-linecap:butt;stroke-linejoin:miter;stroke-miterlimit:10;stroke-dasharray:none;stroke-opacity:1"
       d="m 497.413,98.074767 24,0 0,8.400003 -24,0 0,-8.400003 z" /><text
       id="text760"
       style="font-variant:normal;font-weight:normal;font-size:12px;font-family:'DejaVu Sans';-inkscape-font-specification:DejaVuSans;writing-mode:lr-tb;fill:#000000;fill-opacity:1;fill-rule:nonzero;stroke:none"
       transform="matrix(1,0,0,-1,531.013,98.074767)"><tspan
         id="tspan762"
         y="0"
         x="0 7.8179998">22</tspan></text>
<path
       id="path764"
       style="fill:#0024ca;fill-opacity:1;fill-rule:nonzero;stroke:#000000;stroke-width:1;stroke-linecap:butt;stroke-linejoin:miter;stroke-miterlimit:10;stroke-dasharray:none;stroke-opacity:1"
       d="m 497.413,80.449767 24,0 0,8.4 -24,0 0,-8.4 z" /><text
       id="text766"
       style="font-variant:normal;font-weight:normal;font-size:12px;font-family:'DejaVu Sans';-inkscape-font-specification:DejaVuSans;writing-mode:lr-tb;fill:#000000;fill-opacity:1;fill-rule:nonzero;stroke:none"
       transform="matrix(1,0,0,-1,531.013,80.449767)"><tspan
         id="tspan768"
         y="0"
         x="0 7.8179998">23</tspan></text>
</g></svg>