<?xml version="1.0" encoding="UTF-8" standalone="no"?>
<!-- Created with Inkscape (http://www.inkscape.org/) -->

<svg
   xmlns:dc="http://purl.org/dc/elements/1.1/"
   xmlns:cc="http://creativecommons.org/ns#"
   xmlns:rdf="http://www.w3.org/1999/02/22-rdf-syntax-ns#"
   xmlns:svg="http://www.w3.org/2000/svg"
   xmlns="http://www.w3.org/2000/svg"
   xmlns:inkscape="http://www.inkscape.org/namespaces/inkscape"
   version="1.1"
   width="613.05078"
   height="381.60361"
   id="svg2"
   xml:space="preserve"><metadata
     id="metadata8"><rdf:RDF><cc:Work
         rdf:about=""><dc:format>image/svg+xml</dc:format><dc:type
           rdf:resource="http://purl.org/dc/dcmitype/StillImage" /><dc:title></dc:title></cc:Work></rdf:RDF></metadata><defs
     id="defs6"><clipPath
       id="clipPath20"><path
         d="m 36.840625,66.446942 446.399995,0 0,226.799998 -446.399995,0 0,-226.799998 z"
         inkscape:connector-curvature="0"
         id="path22" /></clipPath><clipPath
       id="clipPath30"><path
         d="m 36.840625,66.446942 446.399995,0 0,226.799998 -446.399995,0 0,-226.799998 z"
         inkscape:connector-curvature="0"
         id="path32" /></clipPath><clipPath
       id="clipPath40"><path
         d="m 36.840625,66.446942 446.399995,0 0,226.799998 -446.399995,0 0,-226.799998 z"
         inkscape:connector-curvature="0"
         id="path42" /></clipPath><clipPath
       id="clipPath50"><path
         d="m 36.840625,66.446942 446.399995,0 0,226.799998 -446.399995,0 0,-226.799998 z"
         inkscape:connector-curvature="0"
         id="path52" /></clipPath><clipPath
       id="clipPath60"><path
         d="m 36.840625,66.446942 446.399995,0 0,226.799998 -446.399995,0 0,-226.799998 z"
         inkscape:connector-curvature="0"
         id="path62" /></clipPath><clipPath
       id="clipPath70"><path
         d="m 36.840625,66.446942 446.399995,0 0,226.799998 -446.399995,0 0,-226.799998 z"
         inkscape:connector-curvature="0"
         id="path72" /></clipPath></defs><g
     transform="matrix(1.25,0,0,-1.25,0,381.6036)"
     id="g10"><path
       d="m 0,0 490.44062,0 0,305.28288 L 0,305.28288 0,0 z"
       inkscape:connector-curvature="0"
       id="path12"
       style="fill:#ffffff;fill-opacity:1;fill-rule:nonzero;stroke:none" /><path
       d="m 36.840625,66.446942 446.400005,0 0,226.799998 -446.400005,0 0,-226.799998 z"
       inkscape:connector-curvature="0"
       id="path14"
       style="fill:#ffffff;fill-opacity:1;fill-rule:nonzero;stroke:none" /><g
       id="g16"><g
         clip-path="url(#clipPath20)"
         id="g18"><path
           d="m 93.762039,192.61096 2.165488,2.58605 15.158423,19.89369 2.16549,3.44799 4.02162,5.32114 1.23742,1.5526 0.30935,-0.0766 0.30936,0.36385 1.23742,-0.32156 1.85614,-0.15729 0.92806,0.12332 1.23742,0.41687 1.54678,0.77236 1.23742,0.92967 3.09356,2.21588 2.16549,1.53953 6.18711,4.94585 3.40291,2.77327 7.11517,7.58975 0.92807,0.92835 1.23742,-0.80087 0.61871,-0.26323 0.61872,0.0728 6.80582,2.27491 1.23742,0.35809 0.92807,-0.60994 1.85613,-0.73659 1.54678,-0.22109 0.30935,0.0382 0.30936,-0.16153 0.92806,0.0876 2.7842,0.8006 4.94969,1.79225 3.09356,1.29079 2.7842,1.2455 3.40291,1.66931 3.71226,1.65567 1.85614,1.05045 0.61871,-0.48774 0.92806,-0.27904 0.30936,-0.0268 1.54678,-5.9472 1.85613,-6.42684 1.85613,-5.76792 2.7842,-7.8745 2.16549,-5.43229 1.85613,-4.213 2.7842,-5.8137 2.7842,-5.17411 3.09356,-5.14069 3.09355,-4.33445 2.47485,-3.10374 2.7842,-3.18842 2.7842,-2.7778 2.16548,-1.99243 3.09356,-2.56806 3.71227,-2.71776 0.92806,-1.54011 1.85614,-4.55323 2.16548,-4.65585 2.16549,-4.10395 2.16549,-3.67016 0.61871,-0.59136 1.54678,-0.94246 2.16549,-1.02324 2.47484,-0.86396 2.16549,-0.6497 2.7842,-0.58831 6.49647,-0.84941 1.85613,-0.17516 2.7842,-4.91525 2.7842,-4.4382 2.7842,-4.05671 1.54678,-2.09351 0.61871,-0.28432 1.85613,-0.14549 0.30936,-0.038 0.92806,0.52653 0.92807,0.33741 0.61871,0.44235 0.92807,1.33181 0.61871,1.33418 2.16549,6.38524 0.30935,0.91018 2.16549,3.84629 2.47484,6.5656 7.11518,18.24986 3.09356,7.34711 1.85613,4.20213 2.7842,-4.23538 2.7842,-3.87209 3.09355,-3.82861 2.16549,-2.43966 2.7842,-2.78197 2.7842,-2.47185 3.71227,-2.80586 4.02162,-2.58694 0.61871,-0.3789 2.47484,-3.73327 2.16549,-2.89317 0.30936,-0.39885 2.16549,-4.42932 1.85613,-3.37749 1.85613,-2.95915 1.54678,-2.11839 2.47484,-3.3072 1.23743,-1.83119 0.92806,-0.91613 2.47485,-1.94384 0.61871,-0.39055 0.61871,-1.12278 0.61871,-0.71822 1.23742,-0.80055 2.7842,-1.68109 2.16549,-1.21157 2.47484,-1.11192 2.16549,-0.73307 4.64033,-1.31391 2.47485,-0.49875 9.89938,-1.32073 3.09355,-0.12686 4.33098,0.0531 2.16549,-0.98102 2.16548,-0.73065 2.47485,-0.56696 1.23742,-0.1421 0.92807,0.11159 0.30935,0.0748 0.61871,0.64565 0.92807,1.47777 1.54678,2.86131 2.16549,4.98993 1.85613,2.46089 2.7842,3.86941 3.40291,6.57162 4.94969,4.63504 3.40291,3.6748 4.02162,5.59094 7.11518,10.34314 1.85613,2.46495 0.61871,0.72803 2.7842,2.81686 6.80582,8.29702 4.64033,6.97953 4.33098,7.24754 3.40291,0.75118 0.92807,0.23667 1.23742,0.5627 1.23742,1.32041 1.23742,1.62095 3.09356,4.33514 7.11518,9.91798 5.25904,6.42132 4.02162,4.53895 7.42453,8.49352 0.92807,0.88178 2.47484,1.82055 1.85614,1.05428 0,0"
           inkscape:connector-curvature="0"
           id="path24"
           style="fill:none;stroke:#3333b3;stroke-width:1;stroke-linecap:square;stroke-linejoin:round;stroke-miterlimit:10;stroke-opacity:1;stroke-dasharray:none" /></g></g><g
       id="g26"><g
         clip-path="url(#clipPath30)"
         id="g28"><path
           d="m 93.762039,194.94282 2.165488,2.63077 8.352603,11.27094 1.85613,2.47127 4.02162,5.15685 1.23742,1.94043 1.54678,2.55559 2.47484,3.49784 3.09356,4.04226 0.30935,-0.10226 0.30936,0.37399 1.23742,-0.41771 1.85614,-0.28915 0.92806,0.0722 1.23742,0.36445 1.54678,0.74213 1.23742,0.93242 3.09356,2.23635 2.16549,1.55227 6.49646,5.24674 2.7842,2.20123 5.5684,6.24394 2.7842,2.93328 1.23742,-0.91464 0.61871,-0.31274 0.61872,0.0512 6.80582,2.22615 1.23742,0.34894 0.92807,-0.67811 1.54677,-0.77635 1.85614,-0.33455 0.30935,0.0353 0.30936,-0.18114 0.61871,0.0316 1.23742,0.3228 6.80582,2.44868 2.47485,1.1258 3.40291,1.51531 3.40291,1.6526 3.71226,1.61853 1.85614,1.04135 0.61871,-0.53733 0.92806,-0.3346 0.30936,-0.0412 1.54678,-5.65436 1.85613,-6.13932 2.16549,-6.45613 2.7842,-7.56344 2.16549,-5.25485 2.16548,-4.7549 2.47485,-5.05707 3.09355,-5.60775 2.47485,-4.05596 3.09355,-4.28589 2.16549,-2.71374 2.47485,-2.87725 2.47484,-2.52252 3.71227,-3.46066 2.7842,-2.27966 3.40291,-2.51014 0.92806,-1.49499 1.85614,-4.44142 2.16548,-4.57155 1.85614,-3.49932 2.47484,-4.28436 0.61871,-0.60893 1.54678,-0.97632 2.16549,-1.0646 2.16549,-0.78575 2.47484,-0.7647 2.47485,-0.52499 4.33097,-0.66968 3.71227,-0.37233 0.61871,-0.0625 2.7842,-5.0456 2.7842,-4.55698 2.7842,-4.16063 1.54678,-2.14471 0.61871,-0.32809 1.23742,10e-4 0.92807,0.1393 0.92806,0.48991 0.92807,0.28817 0.61871,0.41194 0.92807,1.28406 0.61871,1.30155 2.16549,6.27253 0.30935,0.89466 1.85613,2.99358 0.92807,2.25232 2.7842,7.19825 8.04324,20.09358 3.09356,6.93824 2.7842,-3.93548 3.09355,-4.00533 5.87776,-6.48198 2.16549,-2.03885 3.40291,-2.84387 3.40291,-2.46464 4.02162,-2.52344 2.7842,-3.9774 2.16549,-2.77402 2.47484,-4.92012 1.85613,-3.2822 1.85614,-2.88454 2.16549,-2.81175 1.23742,-1.51786 0.61871,-1.17975 1.23742,-1.73473 1.23742,-1.09778 2.16549,-1.6727 0.30936,-0.1947 0.61871,-1.16216 0.61871,-0.74988 1.23742,-0.83296 3.09356,-1.94205 1.54677,-0.89632 2.47485,-1.1722 1.54678,-0.57674 6.49646,-1.89197 1.85613,-0.34572 4.02163,-0.56446 7.42453,-0.85318 1.85613,0.0161 3.09356,0.0664 0.61871,0.0198 2.16549,-1.02713 2.16548,-0.78815 2.47485,-0.64835 1.23742,-0.18795 0.92807,0.0794 0.30935,0.0647 0.30936,0.24687 0.92806,1.30036 2.16549,4.14184 1.85614,4.25955 1.85613,2.37655 2.7842,3.74953 3.40291,6.50325 4.94969,4.36102 3.40291,3.50126 4.02162,5.43171 7.42453,10.48971 2.47485,3.02712 1.85613,1.71623 5.5684,6.50568 3.71226,5.08424 2.7842,4.49263 4.33098,7.4964 4.94969,0.95196 0.61871,0.34104 1.23742,1.34598 1.23742,1.68189 3.40292,4.96083 5.25904,7.81179 3.09355,4.01849 1.54678,1.94008 1.85613,2.32957 2.16549,2.53395 1.85614,2.21417 3.40291,4.23364 2.16549,2.56181 2.16548,2.41035 3.09356,3.28557 2.16549,2.17404 0,0"
           inkscape:connector-curvature="0"
           id="path34"
           style="fill:none;stroke:#3333b3;stroke-width:1;stroke-linecap:square;stroke-linejoin:round;stroke-miterlimit:10;stroke-opacity:1;stroke-dasharray:none" /></g></g><g
       id="g36"><g
         clip-path="url(#clipPath40)"
         id="g38"><path
           d="m 93.762039,193.77689 2.165488,2.60841 15.158423,20.09984 2.16549,3.49807 4.02162,5.40509 1.23742,1.5723 0.30935,-0.0894 0.30936,0.36892 1.23742,-0.36963 1.85614,-0.22322 0.92806,0.0977 1.23742,0.39066 1.54678,0.75724 1.23742,0.93105 3.09356,2.22611 2.16549,1.54591 6.18711,4.97414 3.40291,2.78755 7.42453,8.05455 0.61871,0.61496 1.23742,-0.85776 0.61871,-0.28798 0.61872,0.062 6.80582,2.25053 1.23742,0.35352 0.92807,-0.64403 1.85613,-0.7871 1.54678,-0.24719 0.30935,0.0367 0.30936,-0.17133 0.61871,0.0335 1.23742,0.3147 6.80582,2.39353 2.7842,1.21407 2.47484,1.06268 4.33098,2.10107 4.02162,1.87311 1.23743,0.68173 0.61871,-0.51254 0.92806,-0.30682 0.30936,-0.034 1.54678,-5.80079 1.85613,-6.28307 1.85613,-5.67143 2.7842,-7.76254 2.16549,-5.37709 2.16549,-4.85327 2.7842,-5.73006 3.09355,-5.62619 2.47485,-4.06258 3.09355,-4.31017 2.16549,-2.71917 2.47485,-2.88854 2.47484,-2.53473 3.71227,-3.44474 2.7842,-2.26938 3.40291,-2.49953 0.92806,-1.51755 1.85614,-4.49733 2.16548,-4.6137 2.16549,-4.07634 2.16549,-3.70255 0.61871,-0.60014 1.54678,-0.9594 2.16549,-1.04391 2.16549,-0.77168 2.47484,-0.76038 2.47485,-0.52955 4.33097,-0.66392 4.33098,-0.42775 2.7842,-4.98042 2.7842,-4.49759 2.7842,-4.10867 1.54678,-2.11911 0.61871,-0.3062 2.16549,-0.0214 0.92806,0.50822 0.92807,0.31279 0.61871,0.42715 0.92807,1.30793 0.61871,1.31787 2.16549,6.32888 0.30935,0.90242 1.85613,3.06861 0.92807,2.28075 2.7842,7.26362 8.04324,20.24609 3.09356,6.98441 2.7842,-4.08543 3.09355,-4.13821 5.25905,-6.03675 4.33097,-4.03685 1.85614,-1.53206 3.40291,-2.48055 4.02162,-2.53757 2.47484,-3.64128 2.16549,-2.85314 0.30936,-0.39394 2.16549,-4.37891 1.85613,-3.36859 2.16549,-3.40713 2.16549,-2.82285 1.23742,-1.50877 0.61871,-1.16193 1.23742,-1.7078 1.23742,-1.08476 2.16549,-1.6509 0.30936,-0.19305 0.61871,-1.14248 0.61871,-0.73404 1.23742,-0.81676 3.09356,-1.90727 1.54677,-0.87994 2.47485,-1.15546 1.54678,-0.57001 6.49646,-1.85844 1.85613,-0.33867 4.02163,-0.54646 7.73388,-0.86318 2.16549,0.035 3.40291,-0.11887 2.16549,-0.96598 2.16549,-0.72656 2.47484,-0.57637 0.92807,-0.10653 0.92807,0.0955 0.30935,0.0697 0.61871,0.64117 0.92807,1.47574 1.54678,2.857 2.16549,4.98773 1.85613,2.41872 2.7842,3.80947 3.40291,6.53744 4.94969,4.49802 3.40291,3.58804 4.02162,5.51132 7.11518,10.22739 1.85613,2.44122 0.61871,0.71743 2.47484,2.40432 5.25905,6.19326 3.71226,5.05885 3.09356,4.96088 4.02162,6.84119 5.25904,1.24237 0.61872,0.48662 1.23742,1.40284 2.7842,3.82562 1.54678,2.31651 5.25904,7.68525 3.09355,3.95852 1.54678,1.90117 1.85613,2.27221 2.16549,2.47928 1.85614,2.16801 4.33097,5.27314 1.54678,1.70407 1.23742,1.36033 1.54678,1.6279 3.71227,3.21595 0.61871,0.4555 0,0"
           inkscape:connector-curvature="0"
           id="path44"
           style="fill:none;stroke:#000080;stroke-width:2;stroke-linecap:square;stroke-linejoin:round;stroke-miterlimit:10;stroke-opacity:1;stroke-dasharray:none" /></g></g><g
       id="g46"><g
         clip-path="url(#clipPath50)"
         id="g48"><path
           d="m 65.301332,143.36279 4.949688,-0.58874 4.330977,-0.32652 9.280665,-0.48567 4.949689,0.0993 9.280665,0.74261 4.021624,0.67532 4.33097,0.99171 7.11518,1.8984 3.40291,1.14945 3.71227,1.48235 2.16549,1.05608 4.64033,2.47038 9.59002,4.44029 8.04324,3.54757 18.56133,7.66984 4.02163,1.6068 11.13679,3.89635 2.47485,1.09853 9.59002,4.45428 2.7842,-6.77659 2.7842,-6.16838 2.7842,-5.62148 2.7842,-5.10209 2.7842,-4.63469 2.7842,-4.22432 2.7842,-3.85062 2.7842,-3.49359 3.09355,-3.4779 3.09356,-3.10839 3.09355,-2.78245 3.40291,-2.724 3.09356,-2.18172 2.7842,-1.73389 0.92806,-1.41203 2.16549,-4.98197 2.16549,-4.39128 2.16549,-3.86232 0.30935,-0.51173 5.87776,-0.92119 7.11518,-0.87041 7.11517,-0.64199 10.20873,-0.67742 1.23743,-0.0728 6.18711,4.68103 5.25904,3.72144 4.94969,3.22553 4.64033,2.73512 4.94969,2.67281 2.7842,-1.59877 3.09355,-1.52635 3.40291,-1.42694 3.09356,-1.07456 3.09355,-0.78385 2.16549,-0.34911 2.47485,-0.12312 4.64033,-0.005 2.7842,-2.47284 2.47484,-2.19538 1.85614,-2.78239 1.85613,-2.34892 1.85613,-1.98572 1.85613,-1.62748 2.16549,-1.58703 2.7842,-1.51058 4.64034,-2.184485 3.71226,-1.421022 5.87776,-1.960241 4.64033,-1.34268 5.25904,-1.281522 5.5684,-1.113391 4.94969,-0.774923 4.33098,-0.514911 5.25904,4.61 7.11518,6.524556 4.94969,4.507709 5.5684,4.66136 4.33097,3.30288 3.71227,2.59359 5.5684,3.5398 7.73389,4.51203 9.59002,5.55793 7.73388,4.98241 3.40291,2.21945 5.25905,3.30487 4.64033,2.62186 4.64033,2.61227 4.33098,2.7375 5.25904,3.40262 6.80583,4.50059 3.40291,2.46098 4.94968,4.4499 0,0"
           inkscape:connector-curvature="0"
           id="path54"
           style="fill:none;stroke:#33b3b3;stroke-width:1;stroke-linecap:square;stroke-linejoin:round;stroke-miterlimit:10;stroke-opacity:1;stroke-dasharray:none" /></g></g><g
       id="g56"><g
         clip-path="url(#clipPath60)"
         id="g58"><path
           d="m 65.301332,143.53297 4.949688,-0.59027 4.330977,-0.32572 9.280665,-0.48497 4.949689,0.10648 9.280665,0.76517 4.021624,0.69444 4.33097,1.0109 7.42454,2.02 2.47484,0.83379 5.5684,2.30108 2.16549,1.23026 1.23742,0.74309 8.04324,3.77632 4.33098,1.97157 11.1368,4.81352 17.63326,7.32423 4.33098,1.51456 8.97131,3.23337 11.1368,5.1465 2.7842,-6.80879 2.7842,-6.19765 2.7842,-5.64822 2.7842,-5.1263 2.7842,-4.65667 2.7842,-4.24447 2.7842,-3.8691 2.7842,-3.51031 3.09355,-3.4941 3.09356,-3.1224 3.09355,-2.79441 3.40291,-2.7349 3.09356,-2.18909 2.7842,-1.73807 0.92806,-1.41293 2.16549,-4.98351 2.16549,-4.39209 2.16549,-3.86273 0.30935,-0.51173 5.87776,-0.94097 6.80582,-0.85488 6.80582,-0.63846 9.28067,-0.63718 2.7842,-0.17554 6.18711,4.68186 5.25904,3.73377 4.94969,3.24146 4.94969,2.92436 4.64033,2.52002 2.7842,-1.60347 3.09355,-1.52783 3.40291,-1.42522 3.09356,-1.06986 2.7842,-0.70651 2.16549,-0.37649 2.47484,-0.12604 4.94969,0.0249 2.7842,-2.45694 2.47484,-2.18323 1.85614,-2.77384 1.85613,-2.33817 1.85613,-1.97283 1.85613,-1.61303 2.16549,-1.5764 2.7842,-1.532119 4.33098,-2.086096 4.02162,-1.569125 6.18711,-2.088353 4.64033,-1.350728 5.25905,-1.289501 5.5684,-1.119884 4.94969,-0.771681 4.02162,-0.480689 4.94969,4.318659 7.11517,6.50077 5.25905,4.802457 5.5684,4.66531 4.33097,3.30518 3.71227,2.59684 5.5684,3.55036 8.3526,4.89829 4.64033,2.70889 8.04324,4.98142 4.33098,2.8552 2.47484,1.64775 4.64034,2.96629 2.16548,1.30504 11.75551,6.90094 9.59002,6.29618 6.18711,4.30305 1.54678,1.38705 3.09356,2.92649 0.61871,0.8717 0.30935,0.51071 0,0"
           inkscape:connector-curvature="0"
           id="path64"
           style="fill:none;stroke:#33b3b3;stroke-width:1;stroke-linecap:square;stroke-linejoin:round;stroke-miterlimit:10;stroke-opacity:1;stroke-dasharray:none" /></g></g><g
       id="g66"><g
         clip-path="url(#clipPath70)"
         id="g68"><path
           d="m 65.301332,143.44788 4.949688,-0.58951 4.330977,-0.32612 9.280665,-0.48531 4.949689,0.1029 9.280665,0.75388 4.021624,0.68488 4.33097,1.00131 7.42454,2.00626 2.47484,0.82867 5.5684,2.28933 2.16549,1.22504 1.23742,0.74031 8.04324,3.76718 4.33098,1.9666 11.1368,4.80288 17.94262,7.43174 9.59002,3.30124 1.85613,0.68952 2.7842,1.20611 8.04325,3.6905 1.85613,0.89393 2.7842,-6.79269 2.7842,-6.18302 2.7842,-5.63485 2.7842,-5.11419 2.7842,-4.64569 2.7842,-4.23439 2.7842,-3.85986 2.7842,-3.50195 3.09355,-3.486 3.09356,-3.11539 3.09355,-2.78843 3.40291,-2.72945 3.09356,-2.18541 2.7842,-1.73598 0.92806,-1.41248 2.16549,-4.98274 2.16549,-4.39169 2.16549,-3.86252 0.30935,-0.51173 5.87776,-0.93108 6.80582,-0.84609 6.80582,-0.63252 9.59002,-0.6526 2.47485,-0.15314 6.18711,4.68144 5.25904,3.72761 4.94969,3.2335 4.94969,2.91616 4.64033,2.50999 2.7842,-1.60112 3.09355,-1.52709 3.40291,-1.42608 3.09356,-1.07221 2.7842,-0.71141 2.16549,-0.38185 2.47484,-0.13613 4.94969,0.007 2.7842,-2.46489 2.47484,-2.1893 1.85614,-2.77812 1.85613,-2.34354 1.85613,-1.97928 1.85613,-1.62025 2.16549,-1.58172 2.7842,-1.521345 4.33098,-2.071454 4.02162,-1.558909 6.18711,-2.072792 4.64033,-1.339274 5.25905,-1.278323 5.5684,-1.110327 4.94969,-0.765726 4.02162,-0.47781 4.94969,4.325724 7.11517,6.505896 5.25905,4.80046 5.5684,4.66333 4.33097,3.30403 3.71227,2.59522 5.5684,3.54508 8.04324,4.70499 7.42453,4.31644 4.94969,3.09467 13.61164,8.76474 4.64034,2.6183 2.7842,1.59737 4.02162,2.3996 6.18711,4.03203 4.64033,3.04582 6.18711,4.31237 2.47484,2.22476 2.16549,2.1199 0.61871,0.72971 0,0"
           inkscape:connector-curvature="0"
           id="path74"
           style="fill:none;stroke:#008080;stroke-width:2;stroke-linecap:square;stroke-linejoin:round;stroke-miterlimit:10;stroke-opacity:1;stroke-dasharray:none" /></g></g><g
       id="g76"><path
         d="m 90.977839,66.446942 0,4"
         inkscape:connector-curvature="0"
         id="path78"
         style="fill:#000000;fill-opacity:1;fill-rule:nonzero;stroke:#000000;stroke-width:0.5;stroke-linecap:butt;stroke-linejoin:round;stroke-miterlimit:10;stroke-opacity:1;stroke-dasharray:none" /><path
         d="m 90.977839,293.24694 0,-4"
         inkscape:connector-curvature="0"
         id="path80"
         style="fill:#000000;fill-opacity:1;fill-rule:nonzero;stroke:#000000;stroke-width:0.5;stroke-linecap:butt;stroke-linejoin:round;stroke-miterlimit:10;stroke-opacity:1;stroke-dasharray:none" /><text
         transform="matrix(0.8660254,0.5,0.5,-0.8660254,41.062468,27.651812)"
         id="text82"><tspan
           x="0 6.512394 13.024788 19.537182 26.049576 29.743097 36.255493 42.767887 46.461407 52.973801"
           y="0"
           id="tspan84"
           style="font-size:9.99600029px;font-variant:normal;font-weight:normal;writing-mode:lr-tb;fill:#000000;fill-opacity:1;fill-rule:nonzero;stroke:none;font-family:DejaVu Sans;-inkscape-font-specification:DejaVuSans">2012-04-01</tspan></text>
<path
         d="m 147.5899,66.446942 0,4"
         inkscape:connector-curvature="0"
         id="path86"
         style="fill:#000000;fill-opacity:1;fill-rule:nonzero;stroke:#000000;stroke-width:0.5;stroke-linecap:butt;stroke-linejoin:round;stroke-miterlimit:10;stroke-opacity:1;stroke-dasharray:none" /><path
         d="m 147.5899,293.24694 0,-4"
         inkscape:connector-curvature="0"
         id="path88"
         style="fill:#000000;fill-opacity:1;fill-rule:nonzero;stroke:#000000;stroke-width:0.5;stroke-linecap:butt;stroke-linejoin:round;stroke-miterlimit:10;stroke-opacity:1;stroke-dasharray:none" /><text
         transform="matrix(0.8660254,0.5,0.5,-0.8660254,97.674526,27.651812)"
         id="text90"><tspan
           x="0 6.512394 13.024788 19.537182 26.049576 29.743097 36.255493 42.767887 46.461407 52.973801"
           y="0"
           id="tspan92"
           style="font-size:9.99600029px;font-variant:normal;font-weight:normal;writing-mode:lr-tb;fill:#000000;fill-opacity:1;fill-rule:nonzero;stroke:none;font-family:DejaVu Sans;-inkscape-font-specification:DejaVuSans">2012-10-01</tspan></text>
<path
         d="m 203.8926,66.446942 0,4"
         inkscape:connector-curvature="0"
         id="path94"
         style="fill:#000000;fill-opacity:1;fill-rule:nonzero;stroke:#000000;stroke-width:0.5;stroke-linecap:butt;stroke-linejoin:round;stroke-miterlimit:10;stroke-opacity:1;stroke-dasharray:none" /><path
         d="m 203.8926,293.24694 0,-4"
         inkscape:connector-curvature="0"
         id="path96"
         style="fill:#000000;fill-opacity:1;fill-rule:nonzero;stroke:#000000;stroke-width:0.5;stroke-linecap:butt;stroke-linejoin:round;stroke-miterlimit:10;stroke-opacity:1;stroke-dasharray:none" /><text
         transform="matrix(0.8660254,0.5,0.5,-0.8660254,153.97723,27.651812)"
         id="text98"><tspan
           x="0 6.512394 13.024788 19.537182 26.049576 29.743097 36.255493 42.767887 46.461407 52.973801"
           y="0"
           id="tspan100"
           style="font-size:9.99600029px;font-variant:normal;font-weight:normal;writing-mode:lr-tb;fill:#000000;fill-opacity:1;fill-rule:nonzero;stroke:none;font-family:DejaVu Sans;-inkscape-font-specification:DejaVuSans">2013-04-01</tspan></text>
<path
         d="m 260.50466,66.446942 0,4"
         inkscape:connector-curvature="0"
         id="path102"
         style="fill:#000000;fill-opacity:1;fill-rule:nonzero;stroke:#000000;stroke-width:0.5;stroke-linecap:butt;stroke-linejoin:round;stroke-miterlimit:10;stroke-opacity:1;stroke-dasharray:none" /><path
         d="m 260.50466,293.24694 0,-4"
         inkscape:connector-curvature="0"
         id="path104"
         style="fill:#000000;fill-opacity:1;fill-rule:nonzero;stroke:#000000;stroke-width:0.5;stroke-linecap:butt;stroke-linejoin:round;stroke-miterlimit:10;stroke-opacity:1;stroke-dasharray:none" /><text
         transform="matrix(0.8660254,0.5,0.5,-0.8660254,210.58929,27.651812)"
         id="text106"><tspan
           x="0 6.512394 13.024788 19.537182 26.049576 29.743097 36.255493 42.767887 46.461407 52.973801"
           y="0"
           id="tspan108"
           style="font-size:9.99600029px;font-variant:normal;font-weight:normal;writing-mode:lr-tb;fill:#000000;fill-opacity:1;fill-rule:nonzero;stroke:none;font-family:DejaVu Sans;-inkscape-font-specification:DejaVuSans">2013-10-01</tspan></text>
<path
         d="m 316.80736,66.446942 0,4"
         inkscape:connector-curvature="0"
         id="path110"
         style="fill:#000000;fill-opacity:1;fill-rule:nonzero;stroke:#000000;stroke-width:0.5;stroke-linecap:butt;stroke-linejoin:round;stroke-miterlimit:10;stroke-opacity:1;stroke-dasharray:none" /><path
         d="m 316.80736,293.24694 0,-4"
         inkscape:connector-curvature="0"
         id="path112"
         style="fill:#000000;fill-opacity:1;fill-rule:nonzero;stroke:#000000;stroke-width:0.5;stroke-linecap:butt;stroke-linejoin:round;stroke-miterlimit:10;stroke-opacity:1;stroke-dasharray:none" /><text
         transform="matrix(0.8660254,0.5,0.5,-0.8660254,266.89199,27.651812)"
         id="text114"><tspan
           x="0 6.512394 13.024788 19.537182 26.049576 29.743097 36.255493 42.767887 46.461407 52.973801"
           y="0"
           id="tspan116"
           style="font-size:9.99600029px;font-variant:normal;font-weight:normal;writing-mode:lr-tb;fill:#000000;fill-opacity:1;fill-rule:nonzero;stroke:none;font-family:DejaVu Sans;-inkscape-font-specification:DejaVuSans">2014-04-01</tspan></text>
<path
         d="m 373.41942,66.446942 0,4"
         inkscape:connector-curvature="0"
         id="path118"
         style="fill:#000000;fill-opacity:1;fill-rule:nonzero;stroke:#000000;stroke-width:0.5;stroke-linecap:butt;stroke-linejoin:round;stroke-miterlimit:10;stroke-opacity:1;stroke-dasharray:none" /><path
         d="m 373.41942,293.24694 0,-4"
         inkscape:connector-curvature="0"
         id="path120"
         style="fill:#000000;fill-opacity:1;fill-rule:nonzero;stroke:#000000;stroke-width:0.5;stroke-linecap:butt;stroke-linejoin:round;stroke-miterlimit:10;stroke-opacity:1;stroke-dasharray:none" /><text
         transform="matrix(0.8660254,0.5,0.5,-0.8660254,323.50405,27.651812)"
         id="text122"><tspan
           x="0 6.512394 13.024788 19.537182 26.049576 29.743097 36.255493 42.767887 46.461407 52.973801"
           y="0"
           id="tspan124"
           style="font-size:9.99600029px;font-variant:normal;font-weight:normal;writing-mode:lr-tb;fill:#000000;fill-opacity:1;fill-rule:nonzero;stroke:none;font-family:DejaVu Sans;-inkscape-font-specification:DejaVuSans">2014-10-01</tspan></text>
<path
         d="m 429.72212,66.446942 0,4"
         inkscape:connector-curvature="0"
         id="path126"
         style="fill:#000000;fill-opacity:1;fill-rule:nonzero;stroke:#000000;stroke-width:0.5;stroke-linecap:butt;stroke-linejoin:round;stroke-miterlimit:10;stroke-opacity:1;stroke-dasharray:none" /><path
         d="m 429.72212,293.24694 0,-4"
         inkscape:connector-curvature="0"
         id="path128"
         style="fill:#000000;fill-opacity:1;fill-rule:nonzero;stroke:#000000;stroke-width:0.5;stroke-linecap:butt;stroke-linejoin:round;stroke-miterlimit:10;stroke-opacity:1;stroke-dasharray:none" /><text
         transform="matrix(0.8660254,0.5,0.5,-0.8660254,379.80675,27.651812)"
         id="text130"><tspan
           x="0 6.512394 13.024788 19.537182 26.049576 29.743097 36.255493 42.767887 46.461407 52.973801"
           y="0"
           id="tspan132"
           style="font-size:9.99600029px;font-variant:normal;font-weight:normal;writing-mode:lr-tb;fill:#000000;fill-opacity:1;fill-rule:nonzero;stroke:none;font-family:DejaVu Sans;-inkscape-font-specification:DejaVuSans">2015-04-01</tspan></text>
<path
         d="m 36.840625,66.446942 4,0"
         inkscape:connector-curvature="0"
         id="path134"
         style="fill:#000000;fill-opacity:1;fill-rule:nonzero;stroke:#000000;stroke-width:0.5;stroke-linecap:butt;stroke-linejoin:round;stroke-miterlimit:10;stroke-opacity:1;stroke-dasharray:none" /><path
         d="m 483.24063,66.446942 -4,0"
         inkscape:connector-curvature="0"
         id="path136"
         style="fill:#000000;fill-opacity:1;fill-rule:nonzero;stroke:#000000;stroke-width:0.5;stroke-linecap:butt;stroke-linejoin:round;stroke-miterlimit:10;stroke-opacity:1;stroke-dasharray:none" /><text
         transform="matrix(1,0,0,-1,27.79375,63.689129)"
         id="text138"><tspan
           x="0"
           y="0"
           id="tspan140"
           style="font-size:9.99600029px;font-variant:normal;font-weight:normal;writing-mode:lr-tb;fill:#000000;fill-opacity:1;fill-rule:nonzero;stroke:none;font-family:DejaVu Sans;-inkscape-font-specification:DejaVuSans">0</tspan></text>
<path
         d="m 36.840625,111.80694 4,0"
         inkscape:connector-curvature="0"
         id="path142"
         style="fill:#000000;fill-opacity:1;fill-rule:nonzero;stroke:#000000;stroke-width:0.5;stroke-linecap:butt;stroke-linejoin:round;stroke-miterlimit:10;stroke-opacity:1;stroke-dasharray:none" /><path
         d="m 483.24063,111.80694 -4,0"
         inkscape:connector-curvature="0"
         id="path144"
         style="fill:#000000;fill-opacity:1;fill-rule:nonzero;stroke:#000000;stroke-width:0.5;stroke-linecap:butt;stroke-linejoin:round;stroke-miterlimit:10;stroke-opacity:1;stroke-dasharray:none" /><text
         transform="matrix(1,0,0,-1,28.215625,109.04913)"
         id="text146"><tspan
           x="0"
           y="0"
           id="tspan148"
           style="font-size:9.99600029px;font-variant:normal;font-weight:normal;writing-mode:lr-tb;fill:#000000;fill-opacity:1;fill-rule:nonzero;stroke:none;font-family:DejaVu Sans;-inkscape-font-specification:DejaVuSans">2</tspan></text>
<path
         d="m 36.840625,157.16694 4,0"
         inkscape:connector-curvature="0"
         id="path150"
         style="fill:#000000;fill-opacity:1;fill-rule:nonzero;stroke:#000000;stroke-width:0.5;stroke-linecap:butt;stroke-linejoin:round;stroke-miterlimit:10;stroke-opacity:1;stroke-dasharray:none" /><path
         d="m 483.24063,157.16694 -4,0"
         inkscape:connector-curvature="0"
         id="path152"
         style="fill:#000000;fill-opacity:1;fill-rule:nonzero;stroke:#000000;stroke-width:0.5;stroke-linecap:butt;stroke-linejoin:round;stroke-miterlimit:10;stroke-opacity:1;stroke-dasharray:none" /><text
         transform="matrix(1,0,0,-1,27.528125,154.40913)"
         id="text154"><tspan
           x="0"
           y="0"
           id="tspan156"
           style="font-size:9.99600029px;font-variant:normal;font-weight:normal;writing-mode:lr-tb;fill:#000000;fill-opacity:1;fill-rule:nonzero;stroke:none;font-family:DejaVu Sans;-inkscape-font-specification:DejaVuSans">4</tspan></text>
<path
         d="m 36.840625,202.52694 4,0"
         inkscape:connector-curvature="0"
         id="path158"
         style="fill:#000000;fill-opacity:1;fill-rule:nonzero;stroke:#000000;stroke-width:0.5;stroke-linecap:butt;stroke-linejoin:round;stroke-miterlimit:10;stroke-opacity:1;stroke-dasharray:none" /><path
         d="m 483.24063,202.52694 -4,0"
         inkscape:connector-curvature="0"
         id="path160"
         style="fill:#000000;fill-opacity:1;fill-rule:nonzero;stroke:#000000;stroke-width:0.5;stroke-linecap:butt;stroke-linejoin:round;stroke-miterlimit:10;stroke-opacity:1;stroke-dasharray:none" /><text
         transform="matrix(1,0,0,-1,27.809375,199.76913)"
         id="text162"><tspan
           x="0"
           y="0"
           id="tspan164"
           style="font-size:9.99600029px;font-variant:normal;font-weight:normal;writing-mode:lr-tb;fill:#000000;fill-opacity:1;fill-rule:nonzero;stroke:none;font-family:DejaVu Sans;-inkscape-font-specification:DejaVuSans">6</tspan></text>
<path
         d="m 36.840625,247.88694 4,0"
         inkscape:connector-curvature="0"
         id="path166"
         style="fill:#000000;fill-opacity:1;fill-rule:nonzero;stroke:#000000;stroke-width:0.5;stroke-linecap:butt;stroke-linejoin:round;stroke-miterlimit:10;stroke-opacity:1;stroke-dasharray:none" /><path
         d="m 483.24063,247.88694 -4,0"
         inkscape:connector-curvature="0"
         id="path168"
         style="fill:#000000;fill-opacity:1;fill-rule:nonzero;stroke:#000000;stroke-width:0.5;stroke-linecap:butt;stroke-linejoin:round;stroke-miterlimit:10;stroke-opacity:1;stroke-dasharray:none" /><text
         transform="matrix(1,0,0,-1,27.840625,245.12913)"
         id="text170"><tspan
           x="0"
           y="0"
           id="tspan172"
           style="font-size:9.99600029px;font-variant:normal;font-weight:normal;writing-mode:lr-tb;fill:#000000;fill-opacity:1;fill-rule:nonzero;stroke:none;font-family:DejaVu Sans;-inkscape-font-specification:DejaVuSans">8</tspan></text>
<path
         d="m 36.840625,293.24694 4,0"
         inkscape:connector-curvature="0"
         id="path174"
         style="fill:#000000;fill-opacity:1;fill-rule:nonzero;stroke:#000000;stroke-width:0.5;stroke-linecap:butt;stroke-linejoin:round;stroke-miterlimit:10;stroke-opacity:1;stroke-dasharray:none" /><path
         d="m 483.24063,293.24694 -4,0"
         inkscape:connector-curvature="0"
         id="path176"
         style="fill:#000000;fill-opacity:1;fill-rule:nonzero;stroke:#000000;stroke-width:0.5;stroke-linecap:butt;stroke-linejoin:round;stroke-miterlimit:10;stroke-opacity:1;stroke-dasharray:none" /><text
         transform="matrix(1,0,0,-1,21.871875,290.48913)"
         id="text178"><tspan
           x="0 6.512394"
           y="0"
           id="tspan180"
           style="font-size:9.99600029px;font-variant:normal;font-weight:normal;writing-mode:lr-tb;fill:#000000;fill-opacity:1;fill-rule:nonzero;stroke:none;font-family:DejaVu Sans;-inkscape-font-specification:DejaVuSans">10</tspan></text>
<text
         transform="matrix(0,1,1,0,14.79375,166.4485)"
         id="text182"><tspan
           x="0 6.4973998 12.125148 18.387642 22.595959"
           y="0"
           id="tspan184"
           style="font-size:9.99600029px;font-variant:normal;font-weight:normal;writing-mode:lr-tb;fill:#000000;fill-opacity:1;fill-rule:nonzero;stroke:none;font-family:DejaVu Sans;-inkscape-font-specification:DejaVuSans">Score</tspan></text>
<path
         d="m 36.840625,293.24694 446.400005,0"
         inkscape:connector-curvature="0"
         id="path186"
         style="fill:none;stroke:#000000;stroke-width:1;stroke-linecap:butt;stroke-linejoin:round;stroke-miterlimit:10;stroke-opacity:1;stroke-dasharray:none" /><path
         d="m 36.840625,66.446942 0,226.799998"
         inkscape:connector-curvature="0"
         id="path188"
         style="fill:none;stroke:#000000;stroke-width:1;stroke-linecap:butt;stroke-linejoin:round;stroke-miterlimit:10;stroke-opacity:1;stroke-dasharray:none" /><path
         d="m 36.840625,66.446942 446.400005,0"
         inkscape:connector-curvature="0"
         id="path190"
         style="fill:none;stroke:#000000;stroke-width:1;stroke-linecap:butt;stroke-linejoin:round;stroke-miterlimit:10;stroke-opacity:1;stroke-dasharray:none" /><path
         d="m 483.24063,66.446942 0,226.799998"
         inkscape:connector-curvature="0"
         id="path192"
         style="fill:none;stroke:#000000;stroke-width:1;stroke-linecap:butt;stroke-linejoin:round;stroke-miterlimit:10;stroke-opacity:1;stroke-dasharray:none" /><path
         d="m 178.39336,7.2 163.29453,0 0,17.668675 -163.29453,0 0,-17.668675 z"
         inkscape:connector-curvature="0"
         id="path194"
         style="fill:#ffffff;fill-opacity:1;fill-rule:nonzero;stroke:#000000;stroke-width:1;stroke-linecap:butt;stroke-linejoin:round;stroke-miterlimit:10;stroke-opacity:1;stroke-dasharray:none" /><path
         d="m 185.39056,16.775125 13.9944,0"
         inkscape:connector-curvature="0"
         id="path196"
         style="fill:none;stroke:#000080;stroke-width:2;stroke-linecap:square;stroke-linejoin:round;stroke-miterlimit:10;stroke-opacity:1;stroke-dasharray:none" /><text
         transform="matrix(1,0,0,-1,210.38056,13.276525)"
         id="text198"><tspan
           x="0 6.4874039 12.784884 18.842461 25.329865"
           y="0"
           id="tspan200"
           style="font-size:9.99600029px;font-variant:normal;font-weight:normal;writing-mode:lr-tb;fill:#000000;fill-opacity:1;fill-rule:nonzero;stroke:none;font-family:DejaVu Sans;-inkscape-font-specification:DejaVuSans">nexus</tspan></text>
<path
         d="m 261.82449,16.775125 13.9944,0"
         inkscape:connector-curvature="0"
         id="path202"
         style="fill:none;stroke:#008080;stroke-width:2;stroke-linecap:square;stroke-linejoin:round;stroke-miterlimit:10;stroke-opacity:1;stroke-dasharray:none" /><text
         transform="matrix(1,0,0,-1,286.81449,13.276525)"
         id="text204"><tspan
           x="0 6.4874039 12.749898 19.237303 22.930824 29.418228 35.71571 41.773285 48.260689"
           y="0"
           id="tspan206"
           style="font-size:9.99600029px;font-variant:normal;font-weight:normal;writing-mode:lr-tb;fill:#000000;fill-opacity:1;fill-rule:nonzero;stroke:none;font-family:DejaVu Sans;-inkscape-font-specification:DejaVuSans">non-nexus</tspan></text>
</g></g></svg>