<?xml version="1.0" encoding="UTF-8" standalone="no"?>
<svg
   xmlns:dc="http://purl.org/dc/elements/1.1/"
   xmlns:cc="http://creativecommons.org/ns#"
   xmlns:rdf="http://www.w3.org/1999/02/22-rdf-syntax-ns#"
   xmlns:svg="http://www.w3.org/2000/svg"
   xmlns="http://www.w3.org/2000/svg"
   viewBox="0 0 635.20337 381.60361"
   height="381.60361"
   width="635.20337"
   xml:space="preserve"
   version="1.1"
   id="svg2"><metadata
     id="metadata8"><rdf:RDF><cc:Work
         rdf:about=""><dc:format>image/svg+xml</dc:format><dc:type
           rdf:resource="http://purl.org/dc/dcmitype/StillImage" /></cc:Work></rdf:RDF></metadata><defs
     id="defs6"><clipPath
       id="clipPath20"
       clipPathUnits="userSpaceOnUse"><path
         id="path22"
         d="m 54.56271,66.446942 446.4,0 0,226.799998 -446.4,0 0,-226.799998 z" /></clipPath><clipPath
       id="clipPath30"
       clipPathUnits="userSpaceOnUse"><path
         id="path32"
         d="m 54.56271,66.446942 446.4,0 0,226.799998 -446.4,0 0,-226.799998 z" /></clipPath><clipPath
       id="clipPath40"
       clipPathUnits="userSpaceOnUse"><path
         id="path42"
         d="m 54.56271,66.446942 446.4,0 0,226.799998 -446.4,0 0,-226.799998 z" /></clipPath><clipPath
       id="clipPath50"
       clipPathUnits="userSpaceOnUse"><path
         id="path52"
         d="m 54.56271,66.446942 446.4,0 0,226.799998 -446.4,0 0,-226.799998 z" /></clipPath><clipPath
       id="clipPath60"
       clipPathUnits="userSpaceOnUse"><path
         id="path62"
         d="m 54.56271,66.446942 446.4,0 0,226.799998 -446.4,0 0,-226.799998 z" /></clipPath><clipPath
       id="clipPath70"
       clipPathUnits="userSpaceOnUse"><path
         id="path72"
         d="m 54.56271,66.446942 446.4,0 0,226.799998 -446.4,0 0,-226.799998 z" /></clipPath></defs><g
     transform="matrix(1.25,0,0,-1.25,0,381.6036)"
     id="g10"><path
       id="path12"
       style="fill:#ffffff;fill-opacity:1;fill-rule:nonzero;stroke:none"
       d="m 0,0 508.16271,0 0,305.28288 L 0,305.28288 0,0 Z" /><path
       id="path14"
       style="fill:#ffffff;fill-opacity:1;fill-rule:nonzero;stroke:none"
       d="m 54.56271,66.446942 446.4,0 0,226.799998 -446.4,0 0,-226.799998 z" /><g
       id="g16"><g
         clip-path="url(#clipPath20)"
         id="g18"><path
           id="path24"
           style="fill:none;stroke:#3333b3;stroke-width:1;stroke-linecap:square;stroke-linejoin:round;stroke-miterlimit:10;stroke-dasharray:none;stroke-opacity:1"
           d="m 108.39573,199.04082 8.28201,11.04728 1.93247,2.49957 1.6564,2.29408 0.8282,1.39778 1.38033,2.40057 1.93247,2.83735 3.03673,4.20013 0.27607,-0.0857 0.27607,0.35387 1.10426,-0.35651 1.38034,-0.1783 0.8282,0.0344 1.10426,0.3043 1.65641,0.73166 1.10426,0.81849 6.07347,4.62413 5.7974,4.65576 0.82821,0.66398 1.10426,1.32927 2.20854,2.67851 4.41707,5.29813 1.10426,-0.75819 0.55214,-0.24363 0.55213,0.0477 3.58887,1.24668 1.93247,0.52776 1.6564,0.45057 0.8282,-0.5612 1.93246,-0.72006 2.48461,-0.29321 2.4846,0.57414 7.17773,2.37162 2.4846,1.05079 4.69314,2.44051 1.10427,0.57475 2.20853,1.46657 0.55213,-0.4731 0.8282,-0.25976 0.27607,-0.0199 1.38034,-6.01077 1.6564,-6.44115 1.6564,-5.72411 2.4846,-7.82366 1.93247,-5.389 1.93246,-4.82153 2.4846,-5.63979 3.03674,-6.03297 1.93247,-3.46371 3.03673,-4.66768 2.20854,-3.00511 2.20853,-2.7668 2.76067,-2.99289 2.76067,-2.6504 2.20853,-1.9023 2.76067,-2.16402 0.8282,-1.51982 1.6564,-4.51821 1.93247,-4.59959 1.93246,-4.02986 1.93247,-3.61806 0.8282,-0.7958 1.38034,-0.90093 1.38033,-0.74356 3.58887,-1.32144 1.93247,-0.52388 1.6564,-0.3365 4.41707,-0.65284 1.93246,-0.11321 0.8282,-0.0704 2.20854,-4.3396 m 37.82115,60.19887 6.6256,11.68028 2.76067,4.07973 4.41707,6.14404 0.27606,0.33328 2.48461,-7.6268 2.20853,-6.46168 2.20853,-8.29442 2.20854,-7.47743 2.20853,-6.5495 1.93247,-5.67857 1.10427,-4.0176 1.10426,-3.20659 2.20854,-5.67045 0.27607,-0.64269 1.93246,-6.99861 2.20854,-6.23814 1.93246,-4.88514 1.65641,-3.67396 1.93246,-3.71561 2.20854,-3.65369 2.76067,-4.00962 1.93246,-2.43465 2.20854,-2.41206 2.76066,-2.6417 3.03674,-2.57422 2.20853,-1.62879 1.93247,-1.12605 3.58887,-1.66006 0.27607,-0.10937 1.6564,-1.64189 1.93246,-1.58064 1.93247,-1.2534 1.38034,-0.70914 1.10426,-0.18285 0.27607,0.007 0.55213,0.46815 0.8282,1.21571 1.38034,2.47945 1.93247,4.53327 1.38033,1.71678 2.76067,3.83 3.58887,7.31735 3.03673,5.89182 2.4846,2.35189 1.10427,1.28771 1.93247,2.72243 3.03673,4.77294 5.24527,8.55733 1.6564,2.44997 0.55213,0.69941 1.93247,2.1216 3.58887,4.73192 1.10427,1.3585 1.38033,1.98417 1.6564,-3.88393 1.10427,-2.24797 1.10427,-1.94453 3.3128,-4.3043 1.93247,-2.11851 1.38033,-1.44041 2.4846,-2.28353 0.55213,0.0484 0.55214,0.68532 0.8282,1.45272 1.10427,2.48409 3.86493,9.25407 1.6564,4.1467 5.24527,11.77908 1.6564,3.38274 1.6564,3.28629 1.93247,3.67008 1.38033,2.82406 3.58887,7.04427 5.7974,10.00291 5.24527,7.39759 1.10427,1.21823 0.27607,0.28504 2.20853,-1.81321 0.55213,0.16631 1.65641,0.98721 0.27606,-0.18081 1.38034,0.88623 1.38033,-0.92363 0.27607,0.17719 3.3128,-2.10356 2.20853,-1.19498 3.03674,-1.47576 1.6564,-0.71273 0.55213,0.008 0.8282,0.22843 0.55214,0.43977 3.03673,3.57804 2.4846,2.85728 2.76067,2.8339 2.76067,2.62542 3.3128,2.73285 5.24527,4.09085 3.03673,1.93312 1.38034,0.88953 0.55213,0.32773 0,0" /></g></g><g
       id="g26"><g
         clip-path="url(#clipPath30)"
         id="g28"><path
           id="path34"
           style="fill:none;stroke:#3333b3;stroke-width:1;stroke-linecap:square;stroke-linejoin:round;stroke-miterlimit:10;stroke-dasharray:none;stroke-opacity:1"
           d="m 108.39573,201.52215 8.55807,11.66224 2.20854,2.92645 1.38033,2.00744 3.03674,5.17305 1.93247,2.82616 1.93246,2.75816 0.27607,-0.11125 0.27607,0.36639 1.10426,-0.45199 1.38034,-0.28752 0.8282,-0.02 1.10426,0.25109 1.65641,0.68821 1.10426,0.82054 6.07347,4.68025 5.7974,4.70174 0.82821,0.66788 1.10426,1.38888 1.6564,2.09039 2.76067,3.54843 2.20854,2.67461 1.10426,-0.87591 0.55214,-0.2948 0.55213,0.0239 3.3128,1.09562 1.10427,0.31546 2.76067,0.73342 0.8282,-0.62882 1.6564,-0.77184 1.38033,-0.20307 0.27607,0.004 0.27606,-0.20332 0.55214,-0.0461 0.8282,0.16754 1.93247,0.45003 7.4538,2.67874 3.03673,1.40767 5.52134,2.88965 1.6564,1.09884 0.55213,-0.52548 0.8282,-0.3174 0.27607,-0.0348 1.38034,-5.65262 1.6564,-6.10299 1.93246,-6.37485 2.4846,-7.4693 1.93247,-5.18182 1.93247,-4.68471 2.20853,-4.95224 3.03674,-5.98114 1.93247,-3.44276 2.76066,-4.18727 1.93247,-2.64896 2.4846,-3.13417 2.20854,-2.40383 3.03673,-3.06362 2.4846,-2.19717 3.03674,-2.41615 0.8282,-1.4682 1.93247,-5.05827 2.20853,-5.02713 2.76067,-5.59626 0.55213,-0.902 0.8282,-0.83116 1.38034,-0.94586 1.38033,-0.78223 3.3128,-1.28488 2.4846,-0.70005 4.69314,-0.82473 1.93247,-0.1812 1.93246,-0.15188 2.20854,-4.4659 m 37.82115,58.6708 6.6256,11.62406 3.03674,4.44432 3.3128,4.62858 1.10426,1.43049 2.76067,-7.86451 1.93247,-5.37185 3.03673,-10.55612 2.20854,-6.79426 2.20853,-5.94106 0.8282,-2.12114 0.8282,-3.25317 1.10427,-3.6065 2.4846,-6.44217 0.55214,-1.28287 1.6564,-6.2066 2.76066,-7.82448 1.93247,-4.90819 1.93247,-4.23484 1.6564,-3.17241 2.4846,-4.17077 2.20854,-3.31564 1.93246,-2.56225 2.4846,-2.83717 2.20854,-2.22596 2.20853,-2.01568 3.03674,-2.4692 1.93246,-1.20689 3.31281,-1.5787 0.8282,-0.36464 1.6564,-1.6389 1.93246,-1.57567 1.93247,-1.25368 1.38034,-0.71532 1.10426,-0.18453 0.27607,0.007 0.55213,0.47892 0.8282,1.24055 1.38034,2.51604 1.93247,4.58379 1.38033,1.68079 2.76067,3.7532 3.3128,6.72752 2.4846,4.7395 0.8282,1.64493 2.4846,2.18781 1.10427,1.21918 1.93247,2.61263 3.03673,4.61645 5.24527,8.30896 1.6564,2.38291 0.55213,0.67239 1.93247,2.00731 3.58887,4.59551 1.10427,1.34235 1.38033,1.99041 1.93247,-3.81528 1.38033,-2.2891 0.8282,-1.07948 3.03674,-3.29141 1.38033,-1.19045 1.10427,-1.48458 3.03673,-3.22659 0.27607,-0.27017 0.55213,-0.003 0.55214,0.65143 0.8282,1.42032 1.10427,2.44897 3.86493,9.1771 1.6564,4.13504 5.52134,12.27761 1.38033,2.86869 1.6564,3.31285 1.6564,3.05998 1.10427,2.30994 3.03673,6.30625 1.6564,2.9935 1.10427,1.85533 3.86494,6.83701 2.20853,3.42208 2.4846,3.48262 1.38034,1.71286 0.8282,0.84103 2.20853,-2.09084 0.55213,0.0944 1.65641,0.76986 0.27606,-0.2175 1.38034,0.71925 1.38033,-1.09318 0.27607,0.14698 3.03673,-2.27629 2.20854,-1.44423 3.58886,-2.08075 1.38034,-0.69222 0.55213,-0.0328 0.8282,0.17206 0.55214,0.40969 2.76066,3.15333 4.14101,4.50473 4.41706,4.19309 5.24527,4.31555 2.20854,1.67632 5.7974,3.73498 0,0" /></g></g><g
       id="g36"><g
         clip-path="url(#clipPath40)"
         id="g38"><path
           id="path44"
           style="fill:none;stroke:#000080;stroke-width:2;stroke-linecap:square;stroke-linejoin:round;stroke-miterlimit:10;stroke-dasharray:none;stroke-opacity:1"
           d="m 108.39573,200.28148 8.28201,11.18656 1.93247,2.51085 1.6564,2.30505 0.8282,1.41787 1.38033,2.43783 2.20853,3.28054 2.76067,3.87643 0.27607,-0.0985 0.27607,0.36013 1.10426,-0.40425 1.38034,-0.23291 0.8282,0.007 1.10426,0.27769 1.65641,0.70994 1.10426,0.81951 6.07347,4.65219 5.7974,4.67875 0.82821,0.66593 1.10426,1.35908 2.20854,2.73707 4.41707,5.40796 1.10426,-0.81705 0.55214,-0.26921 0.55213,0.0358 3.3128,1.11692 1.10427,0.3218 2.76067,0.74603 0.8282,-0.59501 1.93246,-0.77522 1.10427,-0.12703 0.27607,0.007 0.27606,-0.19237 0.55214,-0.0411 0.8282,0.16372 1.93247,0.44433 7.4538,2.57806 2.76067,1.25019 3.03673,1.61032 2.4846,1.26371 1.93247,1.28729 0.55213,-0.4993 0.8282,-0.28857 0.27607,-0.0274 1.38034,-5.83169 1.6564,-6.27207 1.93246,-6.50369 2.4846,-7.59881 1.93247,-5.24547 1.93247,-4.71374 2.20853,-4.96879 3.03674,-6.00706 1.93247,-3.45323 2.76066,-4.22469 1.93247,-2.66294 2.4846,-3.15565 2.20854,-2.4215 3.03673,-3.04814 2.4846,-2.18544 3.03674,-2.40183 0.8282,-1.49401 1.93247,-5.13458 1.93246,-4.47756 1.93247,-3.93493 1.93247,-3.45362 0.8282,-0.69762 1.93247,-1.19558 1.38033,-0.61555 3.3128,-1.17888 2.20854,-0.54898 3.86493,-0.66912 4.141,-0.34854 2.20854,-4.40275 m 37.82115,59.43484 6.6256,11.65217 3.03674,4.45926 3.3128,4.63867 1.10426,1.43229 2.48461,-7.37482 2.20853,-6.2876 2.4846,-9.00235 2.20853,-7.17041 1.65641,-4.79234 2.20853,-6.34549 1.38033,-4.87643 1.6564,-4.49106 1.93247,-5.15672 0.8282,-3.36484 1.6564,-4.98497 2.20854,-6.04306 1.6564,-4.03322 1.93247,-4.10087 1.6564,-3.0487 1.93246,-3.19302 2.76067,-4.04642 1.93247,-2.44587 2.20853,-2.43718 2.20854,-2.16626 2.20853,-1.97131 3.3128,-2.5945 1.93247,-1.14413 3.58887,-1.67571 0.27607,-0.10996 1.6564,-1.6404 1.93246,-1.57815 1.93247,-1.25354 1.38034,-0.71223 1.10426,-0.18369 0.27607,0.007 0.55213,0.47353 0.8282,1.22814 1.38034,2.49774 1.93247,4.55853 1.38033,1.69879 2.76067,3.79159 3.58887,7.29884 3.03673,5.86173 2.4846,2.26984 1.10427,1.25345 1.93247,2.66753 3.03673,4.69469 5.24527,8.43315 1.6564,2.41644 0.55213,0.6859 1.93247,2.06445 3.58887,4.66372 1.10427,1.35043 1.38033,1.98728 1.6564,-3.58155 1.10427,-2.09336 1.10427,-1.80514 3.3128,-3.94794 1.6564,-1.69569 1.38033,-1.59191 2.76067,-2.71953 0.55213,0.0225 0.55214,0.66837 0.8282,1.43653 1.10427,2.46653 3.86493,9.21558 1.6564,4.14087 5.24527,11.76244 1.6564,3.39162 1.6564,3.29957 1.93247,3.68357 1.38033,2.83679 3.58887,7.09616 5.7974,10.05983 5.52134,7.78132 1.10427,1.17372 2.20853,-1.95203 0.55213,0.13034 1.65641,0.87853 0.27606,-0.19915 1.38034,0.80273 1.38033,-1.0084 0.27607,0.16208 3.03673,-2.10615 2.20854,-1.33191 3.86493,-2.06187 1.38033,-0.53554 1.10427,0.23295 0.55214,0.42473 3.03673,3.52048 2.76067,3.11884 3.86493,3.85048 3.86494,3.3232 2.76067,2.28928 2.76066,2.08444 5.52134,3.53664 0,0" /></g></g><g
       id="g46"><g
         clip-path="url(#clipPath50)"
         id="g48"><path
           id="path54"
           style="fill:none;stroke:#33b3b3;stroke-width:1;stroke-linecap:square;stroke-linejoin:round;stroke-miterlimit:10;stroke-dasharray:none;stroke-opacity:1"
           d="m 79.960855,144.20613 3.864935,-0.64821 3.864935,-0.47227 3.312801,-0.37291 3.036735,-0.2328 5.521336,-0.18991 2.208533,0.11166 4.41707,0.19993 3.3128,0.43096 4.69314,0.93656 7.4538,2.0583 3.03673,1.00265 2.76067,1.12512 3.86494,1.91848 4.69313,2.76838 9.11021,4.72774 3.86493,1.96428 2.20854,1.07101 9.38627,4.30351 6.90167,3.21768 2.76067,1.32212 4.41706,1.77559 6.34954,2.5645 2.76067,1.36083 8.282,4.28478 2.4846,-6.79592 2.4846,-6.18532 2.4846,-5.63666 2.48461,-5.11521 2.4846,-4.64626 2.76067,-4.68634 2.76066,-4.22948 2.4846,-3.42369 2.48461,-3.09255 2.76066,-3.08494 2.76067,-2.75786 2.76067,-2.4694 2.76067,-2.19961 2.4846,-1.76619 0.8282,-1.42267 1.93247,-5.00486 1.93246,-4.40867 1.93247,-3.86479 1.38033,-2.46157 6.34954,-0.71648 6.90167,-0.55343 8.00594,-0.39688 8.282,-0.25892 1.10427,-0.0163 0.55213,-0.024 5.24527,4.5416 4.9692,3.9212 4.14101,2.94518 4.141,2.64492 7.4538,4.62639 4.9692,3.19982 2.20854,1.7314 1.93246,1.73975 6.07347,6.35964 3.31281,-2.8438 1.10426,-0.85409 2.20854,-4.08189 1.93246,-3.09576 1.93247,-2.6819 2.20854,-2.63301 0.55213,-0.76589 2.20853,-3.41706 2.48461,-3.41969 0.27606,-0.35564 1.93247,-4.08475 1.93247,-3.58174 1.93246,-3.14267 2.20854,-3.114048 2.20853,-2.727956 2.20854,-2.355199 2.20853,-2.051452 2.4846,-1.994513 2.4846,-1.719756 2.76067,-1.645676 2.76067,-1.40659 3.03673,-1.290568 3.31281,-1.153884 4.141,-1.168575 3.58887,-0.798975 1.6564,-0.29041 2.4846,1.982481 3.03673,2.721766 3.86494,3.790126 6.07347,6.312601 8.55807,8.852308 5.7974,5.62195 7.4538,6.88558 1.93247,1.70997 3.3128,-1.65645 3.86494,-1.67173 1.6564,-0.63653 4.41707,3.023 4.69313,2.92028 2.76067,1.49738 9.66234,4.79287 3.86493,1.78444 5.52134,2.72672 6.07347,3.00773 2.76067,1.58799 3.3128,1.95182 1.6564,1.69835 1.93247,1.71394 3.86493,2.91403 6.6256,4.37705 2.48461,1.44035 14.9076,8.01369 6.90167,3.37175 3.58887,1.65534 0,0" /></g></g><g
       id="g56"><g
         clip-path="url(#clipPath60)"
         id="g58"><path
           id="path64"
           style="fill:none;stroke:#33b3b3;stroke-width:1;stroke-linecap:square;stroke-linejoin:round;stroke-miterlimit:10;stroke-dasharray:none;stroke-opacity:1"
           d="m 79.960855,144.37784 3.864935,-0.64967 3.864935,-0.47196 3.036735,-0.33964 2.484601,-0.21235 5.797402,-0.24542 3.036737,0.13112 4.69313,0.25993 2.76067,0.38698 4.69314,0.96309 7.72987,2.1741 3.03673,1.03571 4.69314,2.0571 2.20853,1.25742 2.4846,1.55264 11.87087,6.17969 2.48461,1.28187 1.93246,0.98095 17.39221,8.07136 3.03674,1.39598 11.04267,4.52099 9.9384,5.11076 2.4846,-6.82885 2.4846,-6.21526 2.4846,-5.664 2.48461,-5.13995 2.4846,-4.66872 2.76067,-4.70919 2.76066,-4.25024 2.4846,-3.44033 2.48461,-3.10727 2.76066,-3.09912 2.76067,-2.76988 2.76067,-2.47944 2.76067,-2.2075 2.4846,-1.77136 0.8282,-1.4239 1.93247,-5.0071 1.93246,-4.40998 1.93247,-3.86508 1.38033,-2.46119 6.07347,-0.71254 6.90167,-0.58138 7.72987,-0.39829 7.72987,-0.35367 2.48461,0.0338 0.27606,-0.0125 5.24527,4.53889 4.9692,3.92592 4.14101,2.95244 4.41706,2.82243 3.58887,2.27108 3.86494,2.41799 4.41707,2.87341 2.20853,1.74222 1.6564,1.42578 2.20854,2.37304 3.3128,3.54168 1.10426,1.1018 3.31281,-2.85942 1.10426,-0.85806 2.20854,-4.08794 1.93246,-3.09664 1.93247,-2.67828 2.20854,-2.62597 0.55213,-0.76822 2.20853,-3.4411 2.48461,-3.44432 0.27606,-0.35825 1.93247,-4.1023 1.93247,-3.59765 1.93246,-3.15717 2.20854,-3.128951 2.20853,-2.743291 2.20854,-2.369094 2.20853,-2.064303 2.4846,-2.007757 2.4846,-1.731783 2.76067,-1.657728 2.76067,-1.417246 3.03673,-1.299952 3.31281,-1.161263 4.141,-1.17486 3.58887,-0.802403 1.6564,-0.290449 2.4846,1.975897 3.03673,2.715474 3.86494,3.783309 6.07347,6.303201 8.83413,9.133909 5.79741,5.6333 5.52133,5.17118 3.58887,3.24036 3.3128,-1.67442 3.58887,-1.57739 1.93247,-0.7553 4.69313,3.19003 4.69314,2.90247 2.4846,1.33257 10.49054,5.19808 3.58887,1.73912 1.93246,0.99052 7.72987,3.78589 4.41707,2.55844 3.03674,1.82764 1.6564,1.68459 1.93247,1.69854 4.141,3.07524 4.69313,3.12703 3.86494,2.32844 15.18367,8.18441 7.17774,3.52372 3.3128,1.53484 0,0" /></g></g><g
       id="g66"><g
         clip-path="url(#clipPath70)"
         id="g68"><path
           id="path74"
           style="fill:none;stroke:#008080;stroke-width:2;stroke-linecap:square;stroke-linejoin:round;stroke-miterlimit:10;stroke-dasharray:none;stroke-opacity:1"
           d="m 79.960855,144.29199 3.864935,-0.64895 3.864935,-0.47211 3.312801,-0.37358 3.036735,-0.2325 5.521336,-0.1872 2.208533,0.11475 4.41707,0.20455 3.3128,0.43775 4.69314,0.94983 7.72987,2.15696 3.03673,1.0288 4.69314,2.04595 2.20853,1.25165 2.4846,1.54707 11.87087,6.16444 2.48461,1.27885 1.93246,0.97856 17.11614,7.92616 3.58887,1.63847 9.38627,3.76412 3.03674,1.48347 8.282,4.27727 2.4846,-6.81239 2.4846,-6.20029 2.4846,-5.65032 2.48461,-5.12758 2.4846,-4.65749 2.76067,-4.69777 2.76066,-4.23986 2.4846,-3.43201 2.48461,-3.09991 2.76066,-3.09203 2.76067,-2.76387 2.76067,-2.47442 2.76067,-2.20355 2.4846,-1.76878 0.8282,-1.42329 1.93247,-5.00598 1.93246,-4.40932 1.93247,-3.86494 1.38033,-2.46137 6.07347,-0.7012 6.90167,-0.57195 8.00594,-0.40806 8.55807,-0.27339 1.10427,-0.0161 0.55213,-0.0246 5.24527,4.54024 4.9692,3.92356 4.14101,2.94881 4.41706,2.817 3.86494,2.43866 5.52133,3.41345 1.65641,1.05666 3.58886,2.78162 1.6564,1.52327 6.07347,6.40502 3.31281,-2.85161 1.10426,-0.85608 2.20854,-4.08492 1.93246,-3.0962 1.93247,-2.68009 2.20854,-2.62949 0.55213,-0.76705 2.20853,-3.42908 2.48461,-3.432 0.27606,-0.35695 1.93247,-4.09353 1.93247,-3.58969 1.93246,-3.14992 2.20854,-3.1215 2.20853,-2.735623 2.20854,-2.362146 2.20853,-2.057878 2.4846,-2.001135 2.4846,-1.72577 2.76067,-1.651702 2.76067,-1.411918 3.03673,-1.29526 3.31281,-1.157573 4.141,-1.171717 3.58887,-0.800689 1.6564,-0.29043 2.4846,1.979189 3.03673,2.71862 3.86494,3.786718 6.07347,6.3079 8.55807,8.855494 6.07347,5.89543 5.52133,5.14921 3.58887,3.22415 3.3128,-1.66544 3.58887,-1.56903 1.93247,-0.75145 4.69313,3.19627 4.69314,2.90257 2.4846,1.33403 9.93841,4.92981 3.86493,1.82292 3.03673,1.52454 9.38628,4.80264 3.3128,1.91857 1.93246,1.28209 1.93247,1.90626 1.6564,1.4017 4.41707,3.25364 3.86494,2.57867 3.86493,2.35501 12.69907,6.91706 11.31874,5.59954 1.93247,0.85383 0,0" /></g></g><g
       id="g76"><path
         id="path78"
         style="fill:none;stroke:#000000;stroke-width:1;stroke-linecap:square;stroke-linejoin:miter;stroke-miterlimit:10;stroke-dasharray:none;stroke-opacity:1"
         d="m 54.56271,293.24694 446.4,0" /><path
         id="path80"
         style="fill:none;stroke:#000000;stroke-width:1;stroke-linecap:square;stroke-linejoin:miter;stroke-miterlimit:10;stroke-dasharray:none;stroke-opacity:1"
         d="m 500.96271,66.446942 0,226.799998" /><path
         id="path82"
         style="fill:none;stroke:#000000;stroke-width:1;stroke-linecap:square;stroke-linejoin:miter;stroke-miterlimit:10;stroke-dasharray:none;stroke-opacity:1"
         d="m 54.56271,66.446942 446.4,0" /><path
         id="path84"
         style="fill:none;stroke:#000000;stroke-width:1;stroke-linecap:square;stroke-linejoin:miter;stroke-miterlimit:10;stroke-dasharray:none;stroke-opacity:1"
         d="m 54.56271,66.446942 0,226.799998" /><path
         id="path86"
         style="fill:#000000;fill-opacity:1;fill-rule:nonzero;stroke:#000000;stroke-width:0.5;stroke-linecap:butt;stroke-linejoin:round;stroke-miterlimit:10;stroke-dasharray:none;stroke-opacity:1"
         d="m 60.912246,66.446942 0,4" /><path
         id="path88"
         style="fill:#000000;fill-opacity:1;fill-rule:nonzero;stroke:#000000;stroke-width:0.5;stroke-linecap:butt;stroke-linejoin:round;stroke-miterlimit:10;stroke-dasharray:none;stroke-opacity:1"
         d="m 60.912246,293.24694 0,-4" /><text
         id="text90"
         style="font-variant:normal;font-weight:normal;font-size:9.99600029px;font-family:'DejaVu Sans';-inkscape-font-specification:DejaVuSans;writing-mode:lr-tb;fill:#000000;fill-opacity:1;fill-rule:nonzero;stroke:none"
         transform="matrix(0.8660254,0.5,0.5,-0.8660254,10.996875,27.651812)"><tspan
           id="tspan92"
           y="0"
           x="0 6.512394 13.024788 19.537182 26.049576 29.743097 36.255493 42.767887 46.461407 52.973801">2011-11-01</tspan></text>
<path
         id="path94"
         style="fill:#000000;fill-opacity:1;fill-rule:nonzero;stroke:#000000;stroke-width:0.5;stroke-linecap:butt;stroke-linejoin:round;stroke-miterlimit:10;stroke-dasharray:none;stroke-opacity:1"
         d="m 111.1564,66.446942 0,4" /><path
         id="path96"
         style="fill:#000000;fill-opacity:1;fill-rule:nonzero;stroke:#000000;stroke-width:0.5;stroke-linecap:butt;stroke-linejoin:round;stroke-miterlimit:10;stroke-dasharray:none;stroke-opacity:1"
         d="m 111.1564,293.24694 0,-4" /><text
         id="text98"
         style="font-variant:normal;font-weight:normal;font-size:9.99600029px;font-family:'DejaVu Sans';-inkscape-font-specification:DejaVuSans;writing-mode:lr-tb;fill:#000000;fill-opacity:1;fill-rule:nonzero;stroke:none"
         transform="matrix(0.8660254,0.5,0.5,-0.8660254,61.241031,27.651812)"><tspan
           id="tspan100"
           y="0"
           x="0 6.512394 13.024788 19.537182 26.049576 29.743097 36.255493 42.767887 46.461407 52.973801">2012-05-01</tspan></text>
<path
         id="path102"
         style="fill:#000000;fill-opacity:1;fill-rule:nonzero;stroke:#000000;stroke-width:0.5;stroke-linecap:butt;stroke-linejoin:round;stroke-miterlimit:10;stroke-dasharray:none;stroke-opacity:1"
         d="m 161.95269,66.446942 0,4" /><path
         id="path104"
         style="fill:#000000;fill-opacity:1;fill-rule:nonzero;stroke:#000000;stroke-width:0.5;stroke-linecap:butt;stroke-linejoin:round;stroke-miterlimit:10;stroke-dasharray:none;stroke-opacity:1"
         d="m 161.95269,293.24694 0,-4" /><text
         id="text106"
         style="font-variant:normal;font-weight:normal;font-size:9.99600029px;font-family:'DejaVu Sans';-inkscape-font-specification:DejaVuSans;writing-mode:lr-tb;fill:#000000;fill-opacity:1;fill-rule:nonzero;stroke:none"
         transform="matrix(0.8660254,0.5,0.5,-0.8660254,112.03732,27.651812)"><tspan
           id="tspan108"
           y="0"
           x="0 6.512394 13.024788 19.537182 26.049576 29.743097 36.255493 42.767887 46.461407 52.973801">2012-11-01</tspan></text>
<path
         id="path110"
         style="fill:#000000;fill-opacity:1;fill-rule:nonzero;stroke:#000000;stroke-width:0.5;stroke-linecap:butt;stroke-linejoin:round;stroke-miterlimit:10;stroke-dasharray:none;stroke-opacity:1"
         d="m 211.92078,66.446942 0,4" /><path
         id="path112"
         style="fill:#000000;fill-opacity:1;fill-rule:nonzero;stroke:#000000;stroke-width:0.5;stroke-linecap:butt;stroke-linejoin:round;stroke-miterlimit:10;stroke-dasharray:none;stroke-opacity:1"
         d="m 211.92078,293.24694 0,-4" /><text
         id="text114"
         style="font-variant:normal;font-weight:normal;font-size:9.99600029px;font-family:'DejaVu Sans';-inkscape-font-specification:DejaVuSans;writing-mode:lr-tb;fill:#000000;fill-opacity:1;fill-rule:nonzero;stroke:none"
         transform="matrix(0.8660254,0.5,0.5,-0.8660254,162.00541,27.651812)"><tspan
           id="tspan116"
           y="0"
           x="0 6.512394 13.024788 19.537182 26.049576 29.743097 36.255493 42.767887 46.461407 52.973801">2013-05-01</tspan></text>
<path
         id="path118"
         style="fill:#000000;fill-opacity:1;fill-rule:nonzero;stroke:#000000;stroke-width:0.5;stroke-linecap:butt;stroke-linejoin:round;stroke-miterlimit:10;stroke-dasharray:none;stroke-opacity:1"
         d="m 262.71707,66.446942 0,4" /><path
         id="path120"
         style="fill:#000000;fill-opacity:1;fill-rule:nonzero;stroke:#000000;stroke-width:0.5;stroke-linecap:butt;stroke-linejoin:round;stroke-miterlimit:10;stroke-dasharray:none;stroke-opacity:1"
         d="m 262.71707,293.24694 0,-4" /><text
         id="text122"
         style="font-variant:normal;font-weight:normal;font-size:9.99600029px;font-family:'DejaVu Sans';-inkscape-font-specification:DejaVuSans;writing-mode:lr-tb;fill:#000000;fill-opacity:1;fill-rule:nonzero;stroke:none"
         transform="matrix(0.8660254,0.5,0.5,-0.8660254,212.8017,27.651812)"><tspan
           id="tspan124"
           y="0"
           x="0 6.512394 13.024788 19.537182 26.049576 29.743097 36.255493 42.767887 46.461407 52.973801">2013-11-01</tspan></text>
<path
         id="path126"
         style="fill:#000000;fill-opacity:1;fill-rule:nonzero;stroke:#000000;stroke-width:0.5;stroke-linecap:butt;stroke-linejoin:round;stroke-miterlimit:10;stroke-dasharray:none;stroke-opacity:1"
         d="m 312.68516,66.446942 0,4" /><path
         id="path128"
         style="fill:#000000;fill-opacity:1;fill-rule:nonzero;stroke:#000000;stroke-width:0.5;stroke-linecap:butt;stroke-linejoin:round;stroke-miterlimit:10;stroke-dasharray:none;stroke-opacity:1"
         d="m 312.68516,293.24694 0,-4" /><text
         id="text130"
         style="font-variant:normal;font-weight:normal;font-size:9.99600029px;font-family:'DejaVu Sans';-inkscape-font-specification:DejaVuSans;writing-mode:lr-tb;fill:#000000;fill-opacity:1;fill-rule:nonzero;stroke:none"
         transform="matrix(0.8660254,0.5,0.5,-0.8660254,262.76979,27.651812)"><tspan
           id="tspan132"
           y="0"
           x="0 6.512394 13.024788 19.537182 26.049576 29.743097 36.255493 42.767887 46.461407 52.973801">2014-05-01</tspan></text>
<path
         id="path134"
         style="fill:#000000;fill-opacity:1;fill-rule:nonzero;stroke:#000000;stroke-width:0.5;stroke-linecap:butt;stroke-linejoin:round;stroke-miterlimit:10;stroke-dasharray:none;stroke-opacity:1"
         d="m 363.48145,66.446942 0,4" /><path
         id="path136"
         style="fill:#000000;fill-opacity:1;fill-rule:nonzero;stroke:#000000;stroke-width:0.5;stroke-linecap:butt;stroke-linejoin:round;stroke-miterlimit:10;stroke-dasharray:none;stroke-opacity:1"
         d="m 363.48145,293.24694 0,-4" /><text
         id="text138"
         style="font-variant:normal;font-weight:normal;font-size:9.99600029px;font-family:'DejaVu Sans';-inkscape-font-specification:DejaVuSans;writing-mode:lr-tb;fill:#000000;fill-opacity:1;fill-rule:nonzero;stroke:none"
         transform="matrix(0.8660254,0.5,0.5,-0.8660254,313.56608,27.651812)"><tspan
           id="tspan140"
           y="0"
           x="0 6.512394 13.024788 19.537182 26.049576 29.743097 36.255493 42.767887 46.461407 52.973801">2014-11-01</tspan></text>
<path
         id="path142"
         style="fill:#000000;fill-opacity:1;fill-rule:nonzero;stroke:#000000;stroke-width:0.5;stroke-linecap:butt;stroke-linejoin:round;stroke-miterlimit:10;stroke-dasharray:none;stroke-opacity:1"
         d="m 413.44954,66.446942 0,4" /><path
         id="path144"
         style="fill:#000000;fill-opacity:1;fill-rule:nonzero;stroke:#000000;stroke-width:0.5;stroke-linecap:butt;stroke-linejoin:round;stroke-miterlimit:10;stroke-dasharray:none;stroke-opacity:1"
         d="m 413.44954,293.24694 0,-4" /><text
         id="text146"
         style="font-variant:normal;font-weight:normal;font-size:9.99600029px;font-family:'DejaVu Sans';-inkscape-font-specification:DejaVuSans;writing-mode:lr-tb;fill:#000000;fill-opacity:1;fill-rule:nonzero;stroke:none"
         transform="matrix(0.8660254,0.5,0.5,-0.8660254,363.53417,27.651812)"><tspan
           id="tspan148"
           y="0"
           x="0 6.512394 13.024788 19.537182 26.049576 29.743097 36.255493 42.767887 46.461407 52.973801">2015-05-01</tspan></text>
<path
         id="path150"
         style="fill:#000000;fill-opacity:1;fill-rule:nonzero;stroke:#000000;stroke-width:0.5;stroke-linecap:butt;stroke-linejoin:round;stroke-miterlimit:10;stroke-dasharray:none;stroke-opacity:1"
         d="m 464.24583,66.446942 0,4" /><path
         id="path152"
         style="fill:#000000;fill-opacity:1;fill-rule:nonzero;stroke:#000000;stroke-width:0.5;stroke-linecap:butt;stroke-linejoin:round;stroke-miterlimit:10;stroke-dasharray:none;stroke-opacity:1"
         d="m 464.24583,293.24694 0,-4" /><text
         id="text154"
         style="font-variant:normal;font-weight:normal;font-size:9.99600029px;font-family:'DejaVu Sans';-inkscape-font-specification:DejaVuSans;writing-mode:lr-tb;fill:#000000;fill-opacity:1;fill-rule:nonzero;stroke:none"
         transform="matrix(0.8660254,0.5,0.5,-0.8660254,414.33046,27.651812)"><tspan
           id="tspan156"
           y="0"
           x="0 6.512394 13.024788 19.537182 26.049576 29.743097 36.255493 42.767887 46.461407 52.973801">2015-11-01</tspan></text>
<path
         id="path158"
         style="fill:#000000;fill-opacity:1;fill-rule:nonzero;stroke:#000000;stroke-width:0.5;stroke-linecap:butt;stroke-linejoin:round;stroke-miterlimit:10;stroke-dasharray:none;stroke-opacity:1"
         d="m 54.56271,66.446942 4,0" /><path
         id="path160"
         style="fill:#000000;fill-opacity:1;fill-rule:nonzero;stroke:#000000;stroke-width:0.5;stroke-linecap:butt;stroke-linejoin:round;stroke-miterlimit:10;stroke-dasharray:none;stroke-opacity:1"
         d="m 500.96271,66.446942 -4,0" /><text
         id="text162"
         style="font-variant:normal;font-weight:normal;font-size:9.99600029px;font-family:'DejaVu Sans';-inkscape-font-specification:DejaVuSans;writing-mode:lr-tb;fill:#000000;fill-opacity:1;fill-rule:nonzero;stroke:none"
         transform="matrix(1,0,0,-1,45.515835,63.689129)"><tspan
           id="tspan164"
           y="0"
           x="0">0</tspan></text>
<path
         id="path166"
         style="fill:#000000;fill-opacity:1;fill-rule:nonzero;stroke:#000000;stroke-width:0.5;stroke-linecap:butt;stroke-linejoin:round;stroke-miterlimit:10;stroke-dasharray:none;stroke-opacity:1"
         d="m 54.56271,111.80694 4,0" /><path
         id="path168"
         style="fill:#000000;fill-opacity:1;fill-rule:nonzero;stroke:#000000;stroke-width:0.5;stroke-linecap:butt;stroke-linejoin:round;stroke-miterlimit:10;stroke-dasharray:none;stroke-opacity:1"
         d="m 500.96271,111.80694 -4,0" /><text
         id="text170"
         style="font-variant:normal;font-weight:normal;font-size:9.99600029px;font-family:'DejaVu Sans';-inkscape-font-specification:DejaVuSans;writing-mode:lr-tb;fill:#000000;fill-opacity:1;fill-rule:nonzero;stroke:none"
         transform="matrix(1,0,0,-1,45.93771,109.04913)"><tspan
           id="tspan172"
           y="0"
           x="0">2</tspan></text>
<path
         id="path174"
         style="fill:#000000;fill-opacity:1;fill-rule:nonzero;stroke:#000000;stroke-width:0.5;stroke-linecap:butt;stroke-linejoin:round;stroke-miterlimit:10;stroke-dasharray:none;stroke-opacity:1"
         d="m 54.56271,157.16694 4,0" /><path
         id="path176"
         style="fill:#000000;fill-opacity:1;fill-rule:nonzero;stroke:#000000;stroke-width:0.5;stroke-linecap:butt;stroke-linejoin:round;stroke-miterlimit:10;stroke-dasharray:none;stroke-opacity:1"
         d="m 500.96271,157.16694 -4,0" /><text
         id="text178"
         style="font-variant:normal;font-weight:normal;font-size:9.99600029px;font-family:'DejaVu Sans';-inkscape-font-specification:DejaVuSans;writing-mode:lr-tb;fill:#000000;fill-opacity:1;fill-rule:nonzero;stroke:none"
         transform="matrix(1,0,0,-1,45.25021,154.40913)"><tspan
           id="tspan180"
           y="0"
           x="0">4</tspan></text>
<path
         id="path182"
         style="fill:#000000;fill-opacity:1;fill-rule:nonzero;stroke:#000000;stroke-width:0.5;stroke-linecap:butt;stroke-linejoin:round;stroke-miterlimit:10;stroke-dasharray:none;stroke-opacity:1"
         d="m 54.56271,202.52694 4,0" /><path
         id="path184"
         style="fill:#000000;fill-opacity:1;fill-rule:nonzero;stroke:#000000;stroke-width:0.5;stroke-linecap:butt;stroke-linejoin:round;stroke-miterlimit:10;stroke-dasharray:none;stroke-opacity:1"
         d="m 500.96271,202.52694 -4,0" /><text
         id="text186"
         style="font-variant:normal;font-weight:normal;font-size:9.99600029px;font-family:'DejaVu Sans';-inkscape-font-specification:DejaVuSans;writing-mode:lr-tb;fill:#000000;fill-opacity:1;fill-rule:nonzero;stroke:none"
         transform="matrix(1,0,0,-1,45.53146,199.76913)"><tspan
           id="tspan188"
           y="0"
           x="0">6</tspan></text>
<path
         id="path190"
         style="fill:#000000;fill-opacity:1;fill-rule:nonzero;stroke:#000000;stroke-width:0.5;stroke-linecap:butt;stroke-linejoin:round;stroke-miterlimit:10;stroke-dasharray:none;stroke-opacity:1"
         d="m 54.56271,247.88694 4,0" /><path
         id="path192"
         style="fill:#000000;fill-opacity:1;fill-rule:nonzero;stroke:#000000;stroke-width:0.5;stroke-linecap:butt;stroke-linejoin:round;stroke-miterlimit:10;stroke-dasharray:none;stroke-opacity:1"
         d="m 500.96271,247.88694 -4,0" /><text
         id="text194"
         style="font-variant:normal;font-weight:normal;font-size:9.99600029px;font-family:'DejaVu Sans';-inkscape-font-specification:DejaVuSans;writing-mode:lr-tb;fill:#000000;fill-opacity:1;fill-rule:nonzero;stroke:none"
         transform="matrix(1,0,0,-1,45.56271,245.12913)"><tspan
           id="tspan196"
           y="0"
           x="0">8</tspan></text>
<path
         id="path198"
         style="fill:#000000;fill-opacity:1;fill-rule:nonzero;stroke:#000000;stroke-width:0.5;stroke-linecap:butt;stroke-linejoin:round;stroke-miterlimit:10;stroke-dasharray:none;stroke-opacity:1"
         d="m 54.56271,293.24694 4,0" /><path
         id="path200"
         style="fill:#000000;fill-opacity:1;fill-rule:nonzero;stroke:#000000;stroke-width:0.5;stroke-linecap:butt;stroke-linejoin:round;stroke-miterlimit:10;stroke-dasharray:none;stroke-opacity:1"
         d="m 500.96271,293.24694 -4,0" /><text
         id="text202"
         style="font-variant:normal;font-weight:normal;font-size:9.99600029px;font-family:'DejaVu Sans';-inkscape-font-specification:DejaVuSans;writing-mode:lr-tb;fill:#000000;fill-opacity:1;fill-rule:nonzero;stroke:none"
         transform="matrix(1,0,0,-1,39.59396,290.48913)"><tspan
           id="tspan204"
           y="0"
           x="0 6.512394">10</tspan></text>
<text
         id="text206"
         style="font-variant:normal;font-weight:normal;font-size:9.99600029px;font-family:'DejaVu Sans';-inkscape-font-specification:DejaVuSans;writing-mode:lr-tb;fill:#000000;fill-opacity:1;fill-rule:nonzero;stroke:none"
         transform="matrix(0,1,1,0,32.515835,166.4485)"><tspan
           id="tspan208"
           y="0"
           x="0 6.4973998 12.125148 18.387642 22.595959">Score</tspan></text>
<path
         id="path210"
         style="fill:#ffffff;fill-opacity:1;fill-rule:nonzero;stroke:#000000;stroke-width:1;stroke-linecap:butt;stroke-linejoin:miter;stroke-miterlimit:10;stroke-dasharray:none;stroke-opacity:1"
         d="m 152.80295,7.2 249.91952,0 0,17.668675 -249.91952,0 0,-17.668675 z" /><path
         id="path212"
         style="fill:none;stroke:#000080;stroke-width:2;stroke-linecap:square;stroke-linejoin:round;stroke-miterlimit:10;stroke-dasharray:none;stroke-opacity:1"
         d="m 159.80015,16.775125 13.9944,0" /><text
         id="text214"
         style="font-variant:normal;font-weight:normal;font-size:9.99600029px;font-family:'DejaVu Sans';-inkscape-font-specification:DejaVuSans;writing-mode:lr-tb;fill:#000000;fill-opacity:1;fill-rule:nonzero;stroke:none"
         transform="matrix(1,0,0,-1,184.79015,13.276525)"><tspan
           id="tspan216"
           y="0"
           x="0 7.6569362 13.954416 20.011992 26.499395 31.832262 35.08596 41.583359 47.88084 53.938416 56.782276 62.410027 68.707504">Nexus devices</tspan></text>
<path
         id="path218"
         style="fill:none;stroke:#008080;stroke-width:2;stroke-linecap:square;stroke-linejoin:round;stroke-miterlimit:10;stroke-dasharray:none;stroke-opacity:1"
         d="m 279.54657,16.775125 13.9944,0" /><text
         id="text220"
         style="font-variant:normal;font-weight:normal;font-size:9.99600029px;font-family:'DejaVu Sans';-inkscape-font-specification:DejaVuSans;writing-mode:lr-tb;fill:#000000;fill-opacity:1;fill-rule:nonzero;stroke:none"
         transform="matrix(1,0,0,-1,304.53657,13.276525)"><tspan
           id="tspan222"
           y="0"
           x="0 6.4874039 12.749898 19.237303 22.930824 30.587761 36.885239 42.942818 49.430222 54.763084 58.016785 64.514183 70.811661 76.86924 79.713104 85.340851 91.638329">non-Nexus devices</tspan></text>
</g></g></svg>