<?xml version="1.0" encoding="UTF-8" standalone="no"?>
<!-- Created with Inkscape (http://www.inkscape.org/) -->

<svg
   xmlns:dc="http://purl.org/dc/elements/1.1/"
   xmlns:cc="http://creativecommons.org/ns#"
   xmlns:rdf="http://www.w3.org/1999/02/22-rdf-syntax-ns#"
   xmlns:svg="http://www.w3.org/2000/svg"
   xmlns="http://www.w3.org/2000/svg"
   xmlns:sodipodi="http://sodipodi.sourceforge.net/DTD/sodipodi-0.dtd"
   xmlns:inkscape="http://www.inkscape.org/namespaces/inkscape"
   id="svg2"
   version="1.1"
   inkscape:version="0.48.5 r10040"
   width="605"
   height="265"
   xml:space="preserve"
   sodipodi:docname="vulnerabilities_timeline.pdf"><metadata
     id="metadata8"><rdf:RDF><cc:Work
         rdf:about=""><dc:format>image/svg+xml</dc:format><dc:type
           rdf:resource="http://purl.org/dc/dcmitype/StillImage" /><dc:title></dc:title></cc:Work></rdf:RDF></metadata><defs
     id="defs6"><clipPath
       clipPathUnits="userSpaceOnUse"
       id="clipPath20"><path
         d="m 30.510479,42.255777 446.400001,0 0,176.400003 -446.400001,0 0,-176.400003 z"
         id="path22"
         inkscape:connector-curvature="0" /></clipPath><clipPath
       clipPathUnits="userSpaceOnUse"
       id="clipPath30"><path
         d="m 30.510479,42.255777 446.400001,0 0,176.400003 -446.400001,0 0,-176.400003 z"
         id="path32"
         inkscape:connector-curvature="0" /></clipPath><clipPath
       clipPathUnits="userSpaceOnUse"
       id="clipPath40"><path
         d="m 30.510479,42.255777 446.400001,0 0,176.400003 -446.400001,0 0,-176.400003 z"
         id="path42"
         inkscape:connector-curvature="0" /></clipPath><clipPath
       clipPathUnits="userSpaceOnUse"
       id="clipPath50"><path
         d="m 30.510479,42.255777 446.400001,0 0,176.400003 -446.400001,0 0,-176.400003 z"
         id="path52"
         inkscape:connector-curvature="0" /></clipPath><clipPath
       clipPathUnits="userSpaceOnUse"
       id="clipPath60"><path
         d="m 30.510479,42.255777 446.400001,0 0,176.400003 -446.400001,0 0,-176.400003 z"
         id="path62"
         inkscape:connector-curvature="0" /></clipPath><clipPath
       clipPathUnits="userSpaceOnUse"
       id="clipPath70"><path
         d="m 30.510479,42.255777 446.400001,0 0,176.400003 -446.400001,0 0,-176.400003 z"
         id="path72"
         inkscape:connector-curvature="0" /></clipPath><clipPath
       clipPathUnits="userSpaceOnUse"
       id="clipPath80"><path
         d="m 30.510479,42.255777 446.400001,0 0,176.400003 -446.400001,0 0,-176.400003 z"
         id="path82"
         inkscape:connector-curvature="0" /></clipPath><clipPath
       clipPathUnits="userSpaceOnUse"
       id="clipPath90"><path
         d="m 30.510479,42.255777 446.400001,0 0,176.400003 -446.400001,0 0,-176.400003 z"
         id="path92"
         inkscape:connector-curvature="0" /></clipPath><clipPath
       clipPathUnits="userSpaceOnUse"
       id="clipPath100"><path
         d="m 30.510479,42.255777 446.400001,0 0,176.400003 -446.400001,0 0,-176.400003 z"
         id="path102"
         inkscape:connector-curvature="0" /></clipPath><clipPath
       clipPathUnits="userSpaceOnUse"
       id="clipPath110"><path
         d="m 30.510479,42.255777 446.400001,0 0,176.400003 -446.400001,0 0,-176.400003 z"
         id="path112"
         inkscape:connector-curvature="0" /></clipPath><clipPath
       clipPathUnits="userSpaceOnUse"
       id="clipPath120"><path
         d="m 30.510479,42.255777 446.400001,0 0,176.400003 -446.400001,0 0,-176.400003 z"
         id="path122"
         inkscape:connector-curvature="0" /></clipPath><clipPath
       clipPathUnits="userSpaceOnUse"
       id="clipPath130"><path
         d="m 30.510479,42.255777 446.400001,0 0,176.400003 -446.400001,0 0,-176.400003 z"
         id="path132"
         inkscape:connector-curvature="0" /></clipPath><clipPath
       clipPathUnits="userSpaceOnUse"
       id="clipPath140"><path
         d="m 30.510479,42.255777 446.400001,0 0,176.400003 -446.400001,0 0,-176.400003 z"
         id="path142"
         inkscape:connector-curvature="0" /></clipPath></defs><sodipodi:namedview
     pagecolor="#ffffff"
     bordercolor="#666666"
     borderopacity="1"
     objecttolerance="10"
     gridtolerance="10"
     guidetolerance="10"
     inkscape:pageopacity="0"
     inkscape:pageshadow="2"
     inkscape:window-width="1274"
     inkscape:window-height="1417"
     id="namedview4"
     showgrid="false"
     inkscape:zoom="1.8415635"
     inkscape:cx="302.56906"
     inkscape:cy="141.15987"
     inkscape:window-x="0"
     inkscape:window-y="17"
     inkscape:window-maximized="0"
     inkscape:current-layer="g10" /><g
     id="g10"
     inkscape:groupmode="layer"
     inkscape:label="vulnerabilities_timeline"
     transform="matrix(1.25,0,0,-1.25,0,264.99981)"><path
       d="m 30.510479,34.255777 446.400001,0 0,176.400003 -446.400001,0 0,-176.400003 z"
       style="fill:#ffffff;fill-opacity:1;fill-rule:nonzero;stroke:none"
       id="path14"
       inkscape:connector-curvature="0" /><g
       id="g16"
       transform="translate(0,-8)"><g
         id="g18"
         clip-path="url(#clipPath20)"><path
           d="m 30.510479,42.255777 37.826117,0 0,13.066667 -37.826117,0 0,-13.066667 z"
           style="fill:#ffff00;fill-opacity:1;fill-rule:nonzero;stroke:#ffa500;stroke-width:1;stroke-linecap:butt;stroke-linejoin:round;stroke-miterlimit:10;stroke-opacity:1;stroke-dasharray:none"
           id="path24"
           inkscape:connector-curvature="0" /></g></g><g
       id="g26"
       transform="translate(0,-8)"><g
         id="g28"
         clip-path="url(#clipPath30)"><path
           d="m 31.028645,58.58911 57.516425,0 0,13.066667 -57.516425,0 0,-13.066667 z"
           style="fill:#ffff00;fill-opacity:1;fill-rule:nonzero;stroke:#ffa500;stroke-width:1;stroke-linecap:butt;stroke-linejoin:round;stroke-miterlimit:10;stroke-opacity:1;stroke-dasharray:none"
           id="path34"
           inkscape:connector-curvature="0" /></g></g><g
       id="g36"
       transform="translate(0,-8)"><g
         id="g38"
         clip-path="url(#clipPath40)"><path
           d="m 92.690398,74.922444 0,0 0,13.066666 0,0 0,-13.066666 z"
           style="fill:#ffff00;fill-opacity:1;fill-rule:nonzero;stroke:#ffa500;stroke-width:1;stroke-linecap:butt;stroke-linejoin:round;stroke-miterlimit:10;stroke-opacity:1;stroke-dasharray:none"
           id="path44"
           inkscape:connector-curvature="0" /></g></g><g
       id="g46"
       transform="translate(0,-8)"><g
         id="g48"
         clip-path="url(#clipPath50)"><path
           d="m 102.79463,91.255777 2.59083,0 0,13.066663 -2.59083,0 0,-13.066663 z"
           style="fill:#ffff00;fill-opacity:1;fill-rule:nonzero;stroke:#ffa500;stroke-width:1;stroke-linecap:butt;stroke-linejoin:round;stroke-miterlimit:10;stroke-opacity:1;stroke-dasharray:none"
           id="path54"
           inkscape:connector-curvature="0" /></g></g><g
       id="g56"
       transform="translate(0,-8)"><g
         id="g58"
         clip-path="url(#clipPath60)"><path
           d="m 147.09783,107.58911 0,0 0,13.06667 0,0 0,-13.06667 z"
           style="fill:#ffff00;fill-opacity:1;fill-rule:nonzero;stroke:#ffa500;stroke-width:1;stroke-linecap:butt;stroke-linejoin:round;stroke-miterlimit:10;stroke-opacity:1;stroke-dasharray:none"
           id="path64"
           inkscape:connector-curvature="0" /></g></g><g
       id="g66"
       transform="translate(0,-8)"><g
         id="g68"
         clip-path="url(#clipPath70)"><path
           d="m 276.89841,123.92244 40.93511,0 0,13.06667 -40.93511,0 0,-13.06667 z"
           style="fill:#ffff00;fill-opacity:1;fill-rule:nonzero;stroke:#ffa500;stroke-width:1;stroke-linecap:butt;stroke-linejoin:round;stroke-miterlimit:10;stroke-opacity:1;stroke-dasharray:none"
           id="path74"
           inkscape:connector-curvature="0" /></g></g><g
       id="g76"
       transform="translate(0,-8)"><g
         id="g78"
         clip-path="url(#clipPath80)"><path
           d="m 311.09736,140.25578 33.16263,0 0,13.06666 -33.16263,0 0,-13.06666 z"
           style="fill:#ffff00;fill-opacity:1;fill-rule:nonzero;stroke:#ffa500;stroke-width:1;stroke-linecap:butt;stroke-linejoin:round;stroke-miterlimit:10;stroke-opacity:1;stroke-dasharray:none"
           id="path84"
           inkscape:connector-curvature="0" /></g></g><g
       id="g86"
       transform="translate(0,-8)"><g
         id="g88"
         clip-path="url(#clipPath90)"><path
           d="m 311.87461,156.58911 5.95891,0 0,13.06667 -5.95891,0 0,-13.06667 z"
           style="fill:#ffff00;fill-opacity:1;fill-rule:nonzero;stroke:#ffa500;stroke-width:1;stroke-linecap:butt;stroke-linejoin:round;stroke-miterlimit:10;stroke-opacity:1;stroke-dasharray:none"
           id="path94"
           inkscape:connector-curvature="0" /></g></g><g
       id="g96"
       transform="translate(0,-8)"><g
         id="g98"
         clip-path="url(#clipPath100)"><path
           d="m 365.76387,172.92244 33.16263,0 0,13.06667 -33.16263,0 0,-13.06667 z"
           style="fill:#ffff00;fill-opacity:1;fill-rule:nonzero;stroke:#ffa500;stroke-width:1;stroke-linecap:butt;stroke-linejoin:round;stroke-miterlimit:10;stroke-opacity:1;stroke-dasharray:none"
           id="path104"
           inkscape:connector-curvature="0" /></g></g><g
       id="g106"
       transform="translate(0,-8)"><g
         id="g108"
         clip-path="url(#clipPath110)"><path
           d="m 386.49051,189.25578 47.67127,0 0,13.06666 -47.67127,0 0,-13.06666 z"
           style="fill:#ffff00;fill-opacity:1;fill-rule:nonzero;stroke:#ffa500;stroke-width:1;stroke-linecap:butt;stroke-linejoin:round;stroke-miterlimit:10;stroke-opacity:1;stroke-dasharray:none"
           id="path114"
           inkscape:connector-curvature="0" /></g></g><g
       id="g116"
       transform="translate(0,-8)"><g
         id="g118"
         clip-path="url(#clipPath120)"><path
           d="m 390.63584,205.58911 43.52594,0 0,13.06667 -43.52594,0 0,-13.06667 z"
           style="fill:#ffff00;fill-opacity:1;fill-rule:nonzero;stroke:#ffa500;stroke-width:1;stroke-linecap:butt;stroke-linejoin:round;stroke-miterlimit:10;stroke-opacity:1;stroke-dasharray:none"
           id="path124"
           inkscape:connector-curvature="0" /></g></g><g
       id="g126"
       transform="translate(0,-8)"><g
         id="g128"
         clip-path="url(#clipPath130)"><path
           d="m 476.91048,61.855777 -10.36332,-1.633333 0,1.625166 -344.58038,0 0,0.01633 344.58038,0 0,1.625166 10.36332,-1.633333 z"
           style="fill:#000000;fill-opacity:1;fill-rule:nonzero;stroke:#000000;stroke-width:1;stroke-linecap:butt;stroke-linejoin:round;stroke-miterlimit:10;stroke-opacity:1;stroke-dasharray:none"
           id="path134"
           inkscape:connector-curvature="0" /></g></g><g
       id="g136"
       transform="translate(0,-8)"><g
         id="g138"
         clip-path="url(#clipPath140)"><path
           d="m 121.96678,61.855777 10.36332,1.633333 0,-1.625166 344.58038,0 0,-0.01633 -344.58038,0 0,-1.625166 -10.36332,1.633333 z"
           style="fill:#000000;fill-opacity:1;fill-rule:nonzero;stroke:#000000;stroke-width:1;stroke-linecap:butt;stroke-linejoin:round;stroke-miterlimit:10;stroke-opacity:1;stroke-dasharray:none"
           id="path144"
           inkscape:connector-curvature="0" /></g></g><g
       id="g146"
       transform="translate(0,-8)"><path
         d="m 51.237119,42.255777 0,4"
         style="fill:#000000;fill-opacity:1;fill-rule:nonzero;stroke:#000000;stroke-width:0.5;stroke-linecap:butt;stroke-linejoin:round;stroke-miterlimit:10;stroke-opacity:1;stroke-dasharray:none"
         id="path148"
         inkscape:connector-curvature="0" /><path
         d="m 51.237119,218.65578 0,-4"
         style="fill:#000000;fill-opacity:1;fill-rule:nonzero;stroke:#000000;stroke-width:0.5;stroke-linecap:butt;stroke-linejoin:round;stroke-miterlimit:10;stroke-opacity:1;stroke-dasharray:none"
         id="path150"
         inkscape:connector-curvature="0" /><text
         transform="matrix(0.8660254,0.5,0.5,-0.8660254,10.996875,9.046584)"
         id="text152"><tspan
           style="font-size:9.99600029px;font-variant:normal;font-weight:normal;writing-mode:lr-tb;fill:#000000;fill-opacity:1;fill-rule:nonzero;stroke:none;font-family:Bitstream Vera Sans;-inkscape-font-specification:BitstreamVeraSans-Roman"
           x="0 7.8668518 13.364652 17.283085 20.461811 26.819267 33.176723 39.53418"
           y="0"
           sodipodi:role="line"
           id="tspan154">Oct 2010</tspan></text>
<path
         d="m 98.390224,42.255777 0,4"
         style="fill:#000000;fill-opacity:1;fill-rule:nonzero;stroke:#000000;stroke-width:0.5;stroke-linecap:butt;stroke-linejoin:round;stroke-miterlimit:10;stroke-opacity:1;stroke-dasharray:none"
         id="path156"
         inkscape:connector-curvature="0" /><path
         d="m 98.390224,218.65578 0,-4"
         style="fill:#000000;fill-opacity:1;fill-rule:nonzero;stroke:#000000;stroke-width:0.5;stroke-linecap:butt;stroke-linejoin:round;stroke-miterlimit:10;stroke-opacity:1;stroke-dasharray:none"
         id="path158"
         inkscape:connector-curvature="0" /><text
         transform="matrix(0.8660254,0.5,0.5,-0.8660254,58.380018,9.1793965)"
         id="text160"><tspan
           style="font-size:9.99600029px;font-variant:normal;font-weight:normal;writing-mode:lr-tb;fill:#000000;fill-opacity:1;fill-rule:nonzero;stroke:none;font-family:Bitstream Vera Sans;-inkscape-font-specification:BitstreamVeraSans-Roman"
           x="0 6.8372641 13.184724 17.293079 20.471807 26.829264 33.186722 39.544174"
           y="0"
           sodipodi:role="line"
           id="tspan162">Apr 2011</tspan></text>
<path
         d="m 145.80241,42.255777 0,4"
         style="fill:#000000;fill-opacity:1;fill-rule:nonzero;stroke:#000000;stroke-width:0.5;stroke-linecap:butt;stroke-linejoin:round;stroke-miterlimit:10;stroke-opacity:1;stroke-dasharray:none"
         id="path164"
         inkscape:connector-curvature="0" /><path
         d="m 145.80241,218.65578 0,-4"
         style="fill:#000000;fill-opacity:1;fill-rule:nonzero;stroke:#000000;stroke-width:0.5;stroke-linecap:butt;stroke-linejoin:round;stroke-miterlimit:10;stroke-opacity:1;stroke-dasharray:none"
         id="path166"
         inkscape:connector-curvature="0" /><text
         transform="matrix(0.8660254,0.5,0.5,-0.8660254,105.79221,9.1793965)"
         id="text168"><tspan
           style="font-size:9.99600029px;font-variant:normal;font-weight:normal;writing-mode:lr-tb;fill:#000000;fill-opacity:1;fill-rule:nonzero;stroke:none;font-family:Bitstream Vera Sans;-inkscape-font-specification:BitstreamVeraSans-Roman"
           x="0 7.8668518 13.364652 17.283085 20.461811 26.819267 33.176723 39.53418"
           y="0"
           sodipodi:role="line"
           id="tspan170">Oct 2011</tspan></text>
<path
         d="m 193.2146,42.255777 0,4"
         style="fill:#000000;fill-opacity:1;fill-rule:nonzero;stroke:#000000;stroke-width:0.5;stroke-linecap:butt;stroke-linejoin:round;stroke-miterlimit:10;stroke-opacity:1;stroke-dasharray:none"
         id="path172"
         inkscape:connector-curvature="0" /><path
         d="m 193.2146,218.65578 0,-4"
         style="fill:#000000;fill-opacity:1;fill-rule:nonzero;stroke:#000000;stroke-width:0.5;stroke-linecap:butt;stroke-linejoin:round;stroke-miterlimit:10;stroke-opacity:1;stroke-dasharray:none"
         id="path174"
         inkscape:connector-curvature="0" /><text
         transform="matrix(0.8660254,0.5,0.5,-0.8660254,153.27205,9.218459)"
         id="text176"><tspan
           style="font-size:9.99600029px;font-variant:normal;font-weight:normal;writing-mode:lr-tb;fill:#000000;fill-opacity:1;fill-rule:nonzero;stroke:none;font-family:Bitstream Vera Sans;-inkscape-font-specification:BitstreamVeraSans-Roman"
           x="0 6.8372641 13.184724 17.293079 20.471807 26.829264 33.186722 39.544174"
           y="0"
           sodipodi:role="line"
           id="tspan178">Apr 2012</tspan></text>
<path
         d="m 240.62679,42.255777 0,4"
         style="fill:#000000;fill-opacity:1;fill-rule:nonzero;stroke:#000000;stroke-width:0.5;stroke-linecap:butt;stroke-linejoin:round;stroke-miterlimit:10;stroke-opacity:1;stroke-dasharray:none"
         id="path180"
         inkscape:connector-curvature="0" /><path
         d="m 240.62679,218.65578 0,-4"
         style="fill:#000000;fill-opacity:1;fill-rule:nonzero;stroke:#000000;stroke-width:0.5;stroke-linecap:butt;stroke-linejoin:round;stroke-miterlimit:10;stroke-opacity:1;stroke-dasharray:none"
         id="path182"
         inkscape:connector-curvature="0" /><text
         transform="matrix(0.8660254,0.5,0.5,-0.8660254,200.68424,9.218459)"
         id="text184"><tspan
           style="font-size:9.99600029px;font-variant:normal;font-weight:normal;writing-mode:lr-tb;fill:#000000;fill-opacity:1;fill-rule:nonzero;stroke:none;font-family:Bitstream Vera Sans;-inkscape-font-specification:BitstreamVeraSans-Roman"
           x="0 7.8668518 13.364652 17.283085 20.461811 26.819267 33.176723 39.53418"
           y="0"
           sodipodi:role="line"
           id="tspan186">Oct 2012</tspan></text>
<path
         d="m 287.77989,42.255777 0,4"
         style="fill:#000000;fill-opacity:1;fill-rule:nonzero;stroke:#000000;stroke-width:0.5;stroke-linecap:butt;stroke-linejoin:round;stroke-miterlimit:10;stroke-opacity:1;stroke-dasharray:none"
         id="path188"
         inkscape:connector-curvature="0" /><path
         d="m 287.77989,218.65578 0,-4"
         style="fill:#000000;fill-opacity:1;fill-rule:nonzero;stroke:#000000;stroke-width:0.5;stroke-linecap:butt;stroke-linejoin:round;stroke-miterlimit:10;stroke-opacity:1;stroke-dasharray:none"
         id="path190"
         inkscape:connector-curvature="0" /><text
         transform="matrix(0.8660254,0.5,0.5,-0.8660254,247.66143,9.1168965)"
         id="text192"><tspan
           style="font-size:9.99600029px;font-variant:normal;font-weight:normal;writing-mode:lr-tb;fill:#000000;fill-opacity:1;fill-rule:nonzero;stroke:none;font-family:Bitstream Vera Sans;-inkscape-font-specification:BitstreamVeraSans-Roman"
           x="0 6.8372641 13.184724 17.293079 20.471807 26.829264 33.186722 39.544174"
           y="0"
           sodipodi:role="line"
           id="tspan194">Apr 2013</tspan></text>
<path
         d="m 335.19208,42.255777 0,4"
         style="fill:#000000;fill-opacity:1;fill-rule:nonzero;stroke:#000000;stroke-width:0.5;stroke-linecap:butt;stroke-linejoin:round;stroke-miterlimit:10;stroke-opacity:1;stroke-dasharray:none"
         id="path196"
         inkscape:connector-curvature="0" /><path
         d="m 335.19208,218.65578 0,-4"
         style="fill:#000000;fill-opacity:1;fill-rule:nonzero;stroke:#000000;stroke-width:0.5;stroke-linecap:butt;stroke-linejoin:round;stroke-miterlimit:10;stroke-opacity:1;stroke-dasharray:none"
         id="path198"
         inkscape:connector-curvature="0" /><text
         transform="matrix(0.8660254,0.5,0.5,-0.8660254,295.07362,9.1168965)"
         id="text200"><tspan
           style="font-size:9.99600029px;font-variant:normal;font-weight:normal;writing-mode:lr-tb;fill:#000000;fill-opacity:1;fill-rule:nonzero;stroke:none;font-family:Bitstream Vera Sans;-inkscape-font-specification:BitstreamVeraSans-Roman"
           x="0 7.8668518 13.364652 17.283085 20.461811 26.819267 33.176723 39.53418"
           y="0"
           sodipodi:role="line"
           id="tspan202">Oct 2013</tspan></text>
<path
         d="m 382.34519,42.255777 0,4"
         style="fill:#000000;fill-opacity:1;fill-rule:nonzero;stroke:#000000;stroke-width:0.5;stroke-linecap:butt;stroke-linejoin:round;stroke-miterlimit:10;stroke-opacity:1;stroke-dasharray:none"
         id="path204"
         inkscape:connector-curvature="0" /><path
         d="m 382.34519,218.65578 0,-4"
         style="fill:#000000;fill-opacity:1;fill-rule:nonzero;stroke:#000000;stroke-width:0.5;stroke-linecap:butt;stroke-linejoin:round;stroke-miterlimit:10;stroke-opacity:1;stroke-dasharray:none"
         id="path206"
         inkscape:connector-curvature="0" /><text
         transform="matrix(0.8660254,0.5,0.5,-0.8660254,342.02375,8.999709)"
         id="text208"><tspan
           style="font-size:9.99600029px;font-variant:normal;font-weight:normal;writing-mode:lr-tb;fill:#000000;fill-opacity:1;fill-rule:nonzero;stroke:none;font-family:Bitstream Vera Sans;-inkscape-font-specification:BitstreamVeraSans-Roman"
           x="0 6.8372641 13.184724 17.293079 20.471807 26.829264 33.186722 39.544174"
           y="0"
           sodipodi:role="line"
           id="tspan210">Apr 2014</tspan></text>
<path
         d="m 429.75737,42.255777 0,4"
         style="fill:#000000;fill-opacity:1;fill-rule:nonzero;stroke:#000000;stroke-width:0.5;stroke-linecap:butt;stroke-linejoin:round;stroke-miterlimit:10;stroke-opacity:1;stroke-dasharray:none"
         id="path212"
         inkscape:connector-curvature="0" /><path
         d="m 429.75737,218.65578 0,-4"
         style="fill:#000000;fill-opacity:1;fill-rule:nonzero;stroke:#000000;stroke-width:0.5;stroke-linecap:butt;stroke-linejoin:round;stroke-miterlimit:10;stroke-opacity:1;stroke-dasharray:none"
         id="path214"
         inkscape:connector-curvature="0" /><text
         transform="matrix(0.8660254,0.5,0.5,-0.8660254,389.43594,8.999709)"
         id="text216"><tspan
           style="font-size:9.99600029px;font-variant:normal;font-weight:normal;writing-mode:lr-tb;fill:#000000;fill-opacity:1;fill-rule:nonzero;stroke:none;font-family:Bitstream Vera Sans;-inkscape-font-specification:BitstreamVeraSans-Roman"
           x="0 7.8668518 13.364652 17.283085 20.461811 26.819267 33.176723 39.53418"
           y="0"
           sodipodi:role="line"
           id="tspan218">Oct 2014</tspan></text>
<path
         d="m 476.91048,42.255777 0,4"
         style="fill:#000000;fill-opacity:1;fill-rule:nonzero;stroke:#000000;stroke-width:0.5;stroke-linecap:butt;stroke-linejoin:round;stroke-miterlimit:10;stroke-opacity:1;stroke-dasharray:none"
         id="path220"
         inkscape:connector-curvature="0" /><path
         d="m 476.91048,218.65578 0,-4"
         style="fill:#000000;fill-opacity:1;fill-rule:nonzero;stroke:#000000;stroke-width:0.5;stroke-linecap:butt;stroke-linejoin:round;stroke-miterlimit:10;stroke-opacity:1;stroke-dasharray:none"
         id="path222"
         inkscape:connector-curvature="0" /><text
         transform="matrix(0.8660254,0.5,0.5,-0.8660254,436.85968,9.155959)"
         id="text224"><tspan
           style="font-size:9.99600029px;font-variant:normal;font-weight:normal;writing-mode:lr-tb;fill:#000000;fill-opacity:1;fill-rule:nonzero;stroke:none;font-family:Bitstream Vera Sans;-inkscape-font-specification:BitstreamVeraSans-Roman"
           x="0 6.8372641 13.184724 17.293079 20.471807 26.829264 33.186722 39.544174"
           y="0"
           sodipodi:role="line"
           id="tspan226">Apr 2015</tspan></text>
<path
         d="m 30.510479,218.65578 446.400001,0"
         style="fill:none;stroke:#000000;stroke-width:1;stroke-linecap:butt;stroke-linejoin:round;stroke-miterlimit:10;stroke-opacity:1;stroke-dasharray:none"
         id="path228"
         inkscape:connector-curvature="0" /><path
         d="m 476.91048,42.255777 0,176.400003"
         style="fill:none;stroke:#000000;stroke-width:1;stroke-linecap:butt;stroke-linejoin:round;stroke-miterlimit:10;stroke-opacity:1;stroke-dasharray:none"
         id="path230"
         inkscape:connector-curvature="0" /><path
         d="m 30.510479,42.255777 0,176.400003"
         style="fill:none;stroke:#000000;stroke-width:1;stroke-linecap:butt;stroke-linejoin:round;stroke-miterlimit:10;stroke-opacity:1;stroke-dasharray:none"
         id="path232"
         inkscape:connector-curvature="0" /><path
         d="m 30.510479,42.255777 446.400001,0"
         style="fill:none;stroke:#000000;stroke-width:1;stroke-linecap:butt;stroke-linejoin:round;stroke-miterlimit:10;stroke-opacity:1;stroke-dasharray:none"
         id="path234"
         inkscape:connector-curvature="0" /><text
         transform="matrix(1,0,0,-1,222.34488,63.48911)"
         id="text236"><tspan
           style="font-size:9.99600029px;font-variant:normal;font-weight:normal;writing-mode:lr-tb;fill:#000000;fill-opacity:1;fill-rule:nonzero;stroke:none;font-family:Bitstream Vera Sans;-inkscape-font-specification:BitstreamVeraSans-Roman"
           x="0 7.6969199 13.84446 19.762093 22.540979 28.03878 34.186321 37.365047 44.202312 50.539776 56.667324 59.446213 65.363846 70.611748 76.759285 80.867638 84.046371 90.393829 96.521378 100.43981 106.56735 109.74609 115.24388 121.36143 124.14033 126.91921 133.06676 138.56454 142.48299 148.63052"
           y="0"
           sodipodi:role="line"
           id="tspan238">Device Analyzer data collected</tspan></text>
<text
         transform="matrix(1,0,0,-1,30.510479,46.031298)"
         id="text240"><tspan
           style="font-size:9.99600029px;font-variant:normal;font-weight:normal;writing-mode:lr-tb;fill:#000000;fill-opacity:1;fill-rule:nonzero;stroke:none;font-family:Bitstream Vera Sans;-inkscape-font-specification:BitstreamVeraSans-Roman"
           x="0 6.5573759 9.3362637 12.115152 14.89404 17.672928 24.010391 30.357853 33.306671 39.644135 45.751694 52.089157 58.236694 65.713707 71.841255 81.577354 87.724899 95.591751"
           y="0"
           sodipodi:role="line"
           id="tspan242">KillingInTheNameOf</tspan></text>
<text
         transform="matrix(1,0,0,-1,31.028645,62.364631)"
         id="text244"><tspan
           style="font-size:9.99600029px;font-variant:normal;font-weight:normal;writing-mode:lr-tb;fill:#000000;fill-opacity:1;fill-rule:nonzero;stroke:none;font-family:Bitstream Vera Sans;-inkscape-font-specification:BitstreamVeraSans-Roman"
           x="0 6.1475401 12.065172 18.412632 21.191521 27.309072 30.087959 36.435421 39.614147 45.951611 52.299072 58.446613"
           y="0"
           sodipodi:role="line"
           id="tspan246">exploid udev</tspan></text>
<text
         transform="matrix(1,0,0,-1,72.237273,78.697964)"
         id="text248"><tspan
           style="font-size:9.99600029px;font-variant:normal;font-weight:normal;writing-mode:lr-tb;fill:#000000;fill-opacity:1;fill-rule:nonzero;stroke:none;font-family:Bitstream Vera Sans;-inkscape-font-specification:BitstreamVeraSans-Roman"
           x="0 2.778888 8.9264278 14.84406 17.622948 21.54138 27.668928 31.58736 37.70491"
           y="0"
           sodipodi:role="line"
           id="tspan250">levitator</tspan></text>
<text
         transform="matrix(1,0,0,-1,73.504112,95.031298)"
         id="text252"><tspan
           style="font-size:9.99600029px;font-variant:normal;font-weight:normal;writing-mode:lr-tb;fill:#000000;fill-opacity:1;fill-rule:nonzero;stroke:none;font-family:Bitstream Vera Sans;-inkscape-font-specification:BitstreamVeraSans-Roman"
           x="0 7.7469001 10.525788 16.863253 23.210712 29.358252 33.466606 39.814068 43.922424 50.069965 56.197514"
           y="0"
           sodipodi:role="line"
           id="tspan254">Gingerbreak</tspan></text>
<text
         transform="matrix(1,0,0,-1,124.69939,111.36463)"
         id="text256"><tspan
           style="font-size:9.99600029px;font-variant:normal;font-weight:normal;writing-mode:lr-tb;fill:#000000;fill-opacity:1;fill-rule:nonzero;stroke:none;font-family:Bitstream Vera Sans;-inkscape-font-specification:BitstreamVeraSans-Roman"
           x="0 5.2479 11.39544 15.503796 21.851255 28.798475 35.135941 40.343857"
           y="0"
           sodipodi:role="line"
           id="tspan258">zergRush</tspan></text>
<text
         transform="matrix(1,0,0,-1,253.95971,127.69796)"
         id="text260"><tspan
           style="font-size:9.99600029px;font-variant:normal;font-weight:normal;writing-mode:lr-tb;fill:#000000;fill-opacity:1;fill-rule:nonzero;stroke:none;font-family:Bitstream Vera Sans;-inkscape-font-specification:BitstreamVeraSans-Roman"
           x="0 6.8372641 12.864852 19.422228 22.600956 28.948416 35.285881 41.633339 44.412228 47.191116 52.688915 58.816463 62.734898 68.882439 72.061165 75.579758 78.358643 81.137535"
           y="0"
           sodipodi:role="line"
           id="tspan262">APK duplicate file</tspan></text>
<text
         transform="matrix(1,0,0,-1,273.79586,144.0313)"
         id="text264"><tspan
           style="font-size:9.99600029px;font-variant:normal;font-weight:normal;writing-mode:lr-tb;fill:#000000;fill-opacity:1;fill-rule:nonzero;stroke:none;font-family:Bitstream Vera Sans;-inkscape-font-specification:BitstreamVeraSans-Roman"
           x="0 6.8372641 12.864852 19.422228 22.600956 28.938419 35.275883 40.773685 47.111149 53.25869 58.756489 64.544174 70.691711 77.039169 80.217903 86.555367 92.682915 102.41901"
           y="0"
           sodipodi:role="line"
           id="tspan266">APK unchecked name</tspan></text>
<text
         transform="matrix(1,0,0,-1,263.79157,160.36463)"
         id="text268"><tspan
           style="font-size:9.99600029px;font-variant:normal;font-weight:normal;writing-mode:lr-tb;fill:#000000;fill-opacity:1;fill-rule:nonzero;stroke:none;font-family:Bitstream Vera Sans;-inkscape-font-specification:BitstreamVeraSans-Roman"
           x="0 6.8372641 12.864852 19.422228 22.600956 28.938419 35.275883 40.483799 43.262688 49.610149 55.947613 62.095154 68.442612 71.621338 76.829254 83.166718 89.284271 93.392632 97.311058"
           y="0"
           sodipodi:role="line"
           id="tspan270">APK unsigned shorts</tspan></text>
<text
         transform="matrix(1,0,0,-1,358.978,176.69796)"
         id="text272"><tspan
           style="font-size:9.99600029px;font-variant:normal;font-weight:normal;writing-mode:lr-tb;fill:#000000;fill-opacity:1;fill-rule:nonzero;stroke:none;font-family:Bitstream Vera Sans;-inkscape-font-specification:BitstreamVeraSans-Roman"
           x="0 5.9176321 12.035184 14.814072 21.161531 24.34026 30.467808 35.675724 41.823265"
           y="0"
           sodipodi:role="line"
           id="tspan274">vold asec</tspan></text>
<text
         transform="matrix(1,0,0,-1,392.41209,193.0313)"
         id="text276"><tspan
           style="font-size:9.99600029px;font-variant:normal;font-weight:normal;writing-mode:lr-tb;fill:#000000;fill-opacity:1;fill-rule:nonzero;stroke:none;font-family:Bitstream Vera Sans;-inkscape-font-specification:BitstreamVeraSans-Roman"
           x="0 5.7477002 11.875248 17.662931 23.810472 26.989201 29.938021"
           y="0"
           sodipodi:role="line"
           id="tspan278">Fake ID</tspan></text>
<text
         transform="matrix(1,0,0,-1,387.38319,209.36463)"
         id="text280"><tspan
           style="font-size:9.99600029px;font-variant:normal;font-weight:normal;writing-mode:lr-tb;fill:#000000;fill-opacity:1;fill-rule:nonzero;stroke:none;font-family:Bitstream Vera Sans;-inkscape-font-specification:BitstreamVeraSans-Roman"
           x="0 6.1075559 12.225108 20.401836 26.549376 29.328264 36.275482 42.393036 48.51059"
           y="0"
           sodipodi:role="line"
           id="tspan282">TowelRoot</tspan></text>
</g></g></svg>